# MagicaVoxel @ Ephtracy

# group
o RedFighter_Wing1_L

# material
mtllib Extra-1-RedFighter_Wing1_L.mtl
usemtl palette

# normals
vn -1 0 0
vn 1 0 0
vn 0 0 1
vn 0 0 -1
vn 0 -1 0
vn 0 1 0

# texcoords
vt 0.697266 0.5
vt 0.705078 0.5
vt 0.712891 0.5
vt 0.779297 0.5

# verts
v -0.1 -0.1 0.8
v -0.1 -0.1 0.2
v -0.1 -0.1 0
v -0.1 -0.1 -0.4
v -0.1 0.1 0.8
v -0.1 0.1 0.2
v -0.1 0.1 0
v -0.1 0.1 -0.4
v 0.2 -0.1 0.2
v 0.2 -0.1 0
v 0.2 0.1 0.2
v 0.2 0.1 0
v 0.6 -0.1 -0.4
v 0.6 -0.1 -1.5
v 0.6 0.1 -0.4
v 0.6 0.1 -1
v 0.6 0.1 -1.5
v 0.6 0.3 -0.4
v 0.6 0.3 -1
v 0.8 0.1 -1
v 0.8 0.1 -1.2
v 0.8 0.3 -1
v 0.8 0.3 -1.2
v 1 -0.2 -0.3
v 1 -0.2 -0.4
v 1 -0.2 -1
v 1 -0.2 -1.1
v 1 -0.1 -0.3
v 1 -0.1 -0.4
v 1 -0.1 -1
v 1 -0.1 -1.1
v 1.2 -0.1 0.2
v 1.2 -0.1 0.1
v 1.2 0 0.2
v 1.2 0 0.1
v 1.2 0 0
v 1.2 0.1 0.1
v 1.2 0.1 0
v 1.4 -0.2 -0.4
v 1.4 -0.2 -0.6
v 1.4 -0.2 -0.7
v 1.4 -0.2 -1
v 1.4 -0.1 -0.4
v 1.4 -0.1 -0.6
v 1.4 -0.1 -0.7
v 1.4 -0.1 -1
v 1.4 0.1 -0.4
v 1.4 0.1 -0.5
v 1.4 0.2 -0.4
v 1.4 0.2 -0.5
v 1.5 -0.1 0.3
v 1.5 -0.1 0.2
v 1.5 0 0.3
v 1.5 0 0.2
v 1.5 0 0.1
v 1.5 0.1 0.2
v 1.5 0.1 0.1
v 1.5 0.1 0
v 1.5 0.1 -0.4
v 1.5 0.1 -0.9
v 1.5 0.1 -1
v 1.5 0.2 0
v 1.5 0.2 -0.4
v 1.5 0.2 -0.9
v 1.5 0.2 -1
v 1.6 -0.1 0.4
v 1.6 -0.1 0.3
v 1.6 0 0.4
v 1.6 0 0.3
v 1.6 0 0.2
v 1.6 0.1 0.3
v 1.6 0.1 0.2
v 1.6 0.1 0.1
v 1.6 0.1 0
v 1.6 0.1 -0.8
v 1.6 0.1 -0.9
v 1.6 0.2 0.1
v 1.6 0.2 0
v 1.6 0.2 -0.8
v 1.6 0.2 -0.9
v 1.8 0.1 -0.6
v 1.8 0.1 -0.7
v 1.8 0.1 -0.8
v 1.8 0.2 -0.6
v 1.8 0.2 -0.7
v 1.8 0.2 -0.8
v 1.9 -0.2 -0.2
v 1.9 -0.2 -0.3
v 1.9 -0.2 -0.6
v 1.9 -0.1 -0.2
v 1.9 -0.1 -0.3
v 1.9 -0.1 -0.6
v 2 -0.2 0.1
v 2 -0.2 0
v 2 -0.1 0.1
v 2 -0.1 0
v 0.4 -0.1 0.8
v 0.4 -0.1 0.2
v 0.4 0.1 0.8
v 0.4 0.1 0.2
v 0.8 0 0.2
v 0.8 0 0.1
v 0.8 0.1 0.2
v 0.8 0.1 0.1
v 1 -0.1 -1.4
v 1 -0.1 -1.5
v 1 0 -1.3
v 1 0 -1.4
v 1 0.1 -0.4
v 1 0.1 -0.5
v 1 0.1 -0.6
v 1 0.1 -1
v 1 0.1 -1.1
v 1 0.1 -1.2
v 1 0.1 -1.3
v 1 0.1 -1.5
v 1 0.2 -0.5
v 1 0.2 -0.6
v 1 0.2 -1
v 1 0.2 -1.1
v 1 0.3 -0.4
v 1 0.3 -1.2
v 1.1 -0.1 0.2
v 1.1 -0.1 0.1
v 1.1 0 0.2
v 1.1 0 0.1
v 1.1 0 0
v 1.1 0.1 0.1
v 1.1 0.1 0
v 1.4 -0.2 -0.3
v 1.4 -0.2 -0.4
v 1.4 -0.2 -1
v 1.4 -0.2 -1.1
v 1.4 -0.1 -0.3
v 1.4 -0.1 -0.4
v 1.4 -0.1 -1
v 1.4 -0.1 -1.1
v 1.4 0.1 -0.5
v 1.4 0.1 -0.6
v 1.4 0.2 -0.5
v 1.4 0.2 -0.6
v 1.5 -0.2 -0.4
v 1.5 -0.2 -0.6
v 1.5 -0.2 -0.7
v 1.5 -0.2 -1
v 1.5 -0.1 -0.4
v 1.5 -0.1 -0.6
v 1.5 -0.1 -0.7
v 1.5 -0.1 -1
v 1.5 -0.1 -1.3
v 1.5 -0.1 -1.4
v 1.5 0 -1.2
v 1.5 0 -1.3
v 1.5 0 -1.4
v 1.5 0.1 -0.4
v 1.5 0.1 -0.5
v 1.5 0.1 -1.2
v 1.5 0.1 -1.3
v 1.5 0.2 -0.4
v 1.5 0.2 -0.5
v 1.6 -0.1 -1.2
v 1.6 -0.1 -1.3
v 1.6 0 -1.1
v 1.6 0 -1.2
v 1.6 0 -1.3
v 1.6 0.1 0
v 1.6 0.1 -0.4
v 1.6 0.1 -0.9
v 1.6 0.1 -1
v 1.6 0.1 -1.1
v 1.6 0.1 -1.2
v 1.6 0.2 0
v 1.6 0.2 -0.4
v 1.6 0.2 -0.9
v 1.6 0.2 -1
v 1.6 0.2 -1.1
v 1.8 0.1 -0.8
v 1.8 0.1 -0.9
v 1.8 0.2 -0.8
v 1.8 0.2 -0.9
v 1.9 -0.1 -1.1
v 1.9 -0.1 -1.2
v 1.9 0 -1
v 1.9 0 -1.1
v 1.9 0 -1.2
v 1.9 0.1 -0.7
v 1.9 0.1 -0.8
v 1.9 0.1 -1
v 1.9 0.1 -1.1
v 1.9 0.2 -0.7
v 1.9 0.2 -0.8
v 2 -0.2 -0.3
v 2 -0.2 -0.4
v 2 -0.2 -0.5
v 2 -0.2 -0.6
v 2 -0.2 -0.7
v 2 -0.1 -0.3
v 2 -0.1 -0.4
v 2 -0.1 -0.5
v 2 -0.1 -0.6
v 2 -0.1 -0.7
v 2 -0.1 -1
v 2 -0.1 -1.1
v 2 0 -0.9
v 2 0 -1
v 2 0 -1.1
v 2 0.1 -0.9
v 2 0.1 -1
v 2.2 -0.2 0.1
v 2.2 -0.2 0
v 2.2 -0.2 -0.2
v 2.2 -0.2 -0.3
v 2.2 -0.2 -0.4
v 2.2 -0.2 -0.5
v 2.2 -0.1 0.4
v 2.2 -0.1 0.1
v 2.2 -0.1 0
v 2.2 -0.1 -0.2
v 2.2 -0.1 -0.3
v 2.2 -0.1 -0.4
v 2.2 -0.1 -0.5
v 2.2 -0.1 -1
v 2.2 0 0.4
v 2.2 0 0.3
v 2.2 0 -0.9
v 2.2 0 -1
v 2.2 0.1 0.3
v 2.2 0.1 0.1
v 2.2 0.1 0
v 2.2 0.1 -0.6
v 2.2 0.1 -0.7
v 2.2 0.1 -0.9
v 2.2 0.2 0.1
v 2.2 0.2 0
v 2.2 0.2 -0.6
v 2.2 0.2 -0.7
v -0.1 -0.1 0.8
v -0.1 0.1 0.8
v 0.4 -0.1 0.8
v 0.4 0.1 0.8
v 1.6 -0.1 0.4
v 1.6 0 0.4
v 2.2 -0.1 0.4
v 2.2 0 0.4
v 1.5 -0.1 0.3
v 1.5 0 0.3
v 1.6 -0.1 0.3
v 1.6 0 0.3
v 1.6 0.1 0.3
v 2.2 0 0.3
v 2.2 0.1 0.3
v 0.4 -0.1 0.2
v 0.4 0.1 0.2
v 0.8 0 0.2
v 0.8 0.1 0.2
v 1.1 -0.1 0.2
v 1.1 0 0.2
v 1.2 -0.1 0.2
v 1.2 0 0.2
v 1.5 -0.1 0.2
v 1.5 0 0.2
v 1.5 0.1 0.2
v 1.6 0 0.2
v 1.6 0.1 0.2
v 0.8 0 0.1
v 0.8 0.1 0.1
v 1.1 -0.1 0.1
v 1.1 0 0.1
v 1.1 0.1 0.1
v 1.2 -0.1 0.1
v 1.2 0 0.1
v 1.2 0.1 0.1
v 1.5 0 0.1
v 1.5 0.1 0.1
v 1.6 0.1 0.1
v 1.6 0.2 0.1
v 1.7 0.1 0.1
v 1.7 0.2 0.1
v 2 -0.2 0.1
v 2 -0.1 0.1
v 2 0.1 0.1
v 2 0.2 0.1
v 2.2 -0.2 0.1
v 2.2 -0.1 0.1
v 2.2 0.1 0.1
v 2.2 0.2 0.1
v -0.1 -0.1 0
v -0.1 0.1 0
v 0.2 -0.1 0
v 0.2 0.1 0
v 1.1 0 0
v 1.1 0.1 0
v 1.2 0 0
v 1.2 0.1 0
v 1.5 0.1 0
v 1.5 0.2 0
v 1.6 0.1 0
v 1.6 0.2 0
v 1.9 -0.2 -0.2
v 1.9 -0.1 -0.2
v 2.2 -0.2 -0.2
v 2.2 -0.1 -0.2
v 1 -0.2 -0.3
v 1 -0.1 -0.3
v 1.2 -0.2 -0.3
v 1.2 -0.1 -0.3
v 1.3 -0.2 -0.3
v 1.3 -0.1 -0.3
v 1.4 -0.2 -0.3
v 1.4 -0.1 -0.3
v 0.6 0.1 -0.4
v 0.6 0.3 -0.4
v 1 0.1 -0.4
v 1 0.3 -0.4
v 1.4 -0.2 -0.4
v 1.4 -0.1 -0.4
v 1.4 0.1 -0.4
v 1.4 0.2 -0.4
v 1.5 -0.2 -0.4
v 1.5 -0.1 -0.4
v 1.5 0.1 -0.4
v 1.5 0.2 -0.4
v 2 -0.2 -0.4
v 2 -0.1 -0.4
v 2.2 -0.2 -0.4
v 2.2 -0.1 -0.4
v 1 0.1 -0.5
v 1 0.2 -0.5
v 1.4 0.1 -0.5
v 1.4 0.2 -0.5
v 1.5 -0.2 -0.6
v 1.5 -0.1 -0.6
v 1.8 0.1 -0.6
v 1.8 0.2 -0.6
v 1.9 -0.2 -0.6
v 1.9 -0.1 -0.6
v 1.9 0.1 -0.6
v 1.9 0.2 -0.6
v 2 0.1 -0.6
v 2 0.2 -0.6
v 2.2 0.1 -0.6
v 2.2 0.2 -0.6
v 1.6 0.1 -0.8
v 1.6 0.2 -0.8
v 1.8 0.1 -0.8
v 1.8 0.2 -0.8
v 1.5 0.1 -0.9
v 1.5 0.2 -0.9
v 1.6 0.1 -0.9
v 1.6 0.2 -0.9
v 1 -0.2 -1
v 1 -0.1 -1
v 1 0.1 -1
v 1 0.2 -1
v 1.2 -0.2 -1
v 1.2 -0.1 -1
v 1.3 -0.2 -1
v 1.3 -0.1 -1
v 1.4 -0.2 -1
v 1.4 -0.1 -1
v 1.5 0.1 -1
v 1.5 0.2 -1
v -0.1 -0.1 0.2
v -0.1 0.1 0.2
v 0.2 -0.1 0.2
v 0.2 0.1 0.2
v 1.6 0.1 0
v 1.6 0.2 0
v 1.7 0.1 0
v 1.7 0.2 0
v 2 -0.2 0
v 2 -0.1 0
v 2 0.1 0
v 2 0.2 0
v 2.2 -0.2 0
v 2.2 -0.1 0
v 2.2 0.1 0
v 2.2 0.2 0
v 2 -0.2 -0.3
v 2 -0.1 -0.3
v 2.2 -0.2 -0.3
v 2.2 -0.1 -0.3
v -0.1 -0.1 -0.4
v -0.1 0.1 -0.4
v 0.6 -0.1 -0.4
v 0.6 0.1 -0.4
v 1 -0.2 -0.4
v 1 -0.1 -0.4
v 1.2 -0.2 -0.4
v 1.2 -0.1 -0.4
v 1.3 -0.2 -0.4
v 1.3 -0.1 -0.4
v 1.4 -0.2 -0.4
v 1.4 -0.1 -0.4
v 1.5 0.1 -0.4
v 1.5 0.2 -0.4
v 1.6 0.1 -0.4
v 1.6 0.2 -0.4
v 1.4 0.1 -0.5
v 1.4 0.2 -0.5
v 1.5 0.1 -0.5
v 1.5 0.2 -0.5
v 2 -0.2 -0.5
v 2 -0.1 -0.5
v 2.2 -0.2 -0.5
v 2.2 -0.1 -0.5
v 1 0.1 -0.6
v 1 0.2 -0.6
v 1.1 0.1 -0.6
v 1.2 0.1 -0.6
v 1.4 0.1 -0.6
v 1.4 0.2 -0.6
v 1.5 -0.2 -0.7
v 1.5 -0.1 -0.7
v 1.9 -0.2 -0.7
v 1.9 -0.1 -0.7
v 1.9 0.1 -0.7
v 1.9 0.2 -0.7
v 2 -0.2 -0.7
v 2 -0.1 -0.7
v 2 0.1 -0.7
v 2 0.2 -0.7
v 2.2 0.1 -0.7
v 2.2 0.2 -0.7
v 1.8 0.1 -0.8
v 1.8 0.2 -0.8
v 1.9 0.1 -0.8
v 1.9 0.2 -0.8
v 1.6 0.1 -0.9
v 1.6 0.2 -0.9
v 1.8 0.1 -0.9
v 1.8 0.2 -0.9
v 2 0 -0.9
v 2 0.1 -0.9
v 2.2 0 -0.9
v 2.2 0.1 -0.9
v 0.6 0.1 -1
v 0.6 0.3 -1
v 0.8 0.1 -1
v 0.8 0.3 -1
v 1.4 -0.2 -1
v 1.4 -0.1 -1
v 1.5 -0.2 -1
v 1.5 -0.1 -1
v 1.9 0 -1
v 1.9 0.1 -1
v 2 -0.1 -1
v 2 0 -1
v 2 0.1 -1
v 2.2 -0.1 -1
v 2.2 0 -1
v 1 -0.2 -1.1
v 1 -0.1 -1.1
v 1 0.1 -1.1
v 1 0.2 -1.1
v 1.2 -0.2 -1.1
v 1.2 -0.1 -1.1
v 1.3 -0.2 -1.1
v 1.3 -0.1 -1.1
v 1.4 -0.2 -1.1
v 1.4 -0.1 -1.1
v 1.6 0 -1.1
v 1.6 0.1 -1.1
v 1.6 0.2 -1.1
v 1.9 -0.1 -1.1
v 1.9 0 -1.1
v 1.9 0.1 -1.1
v 2 -0.1 -1.1
v 2 0 -1.1
v 0.8 0.1 -1.2
v 0.8 0.3 -1.2
v 1 0.1 -1.2
v 1 0.3 -1.2
v 1.5 0 -1.2
v 1.5 0.1 -1.2
v 1.6 -0.1 -1.2
v 1.6 0 -1.2
v 1.6 0.1 -1.2
v 1.9 -0.1 -1.2
v 1.9 0 -1.2
v 1 0 -1.3
v 1 0.1 -1.3
v 1.5 -0.1 -1.3
v 1.5 0 -1.3
v 1.5 0.1 -1.3
v 1.6 -0.1 -1.3
v 1.6 0 -1.3
v 1 -0.1 -1.4
v 1 0 -1.4
v 1.5 -0.1 -1.4
v 1.5 0 -1.4
v 0.6 -0.1 -1.5
v 0.6 0.1 -1.5
v 1 -0.1 -1.5
v 1 0.1 -1.5
v 2 -0.2 0.1
v 2.2 -0.2 0.1
v 2 -0.2 0
v 2.2 -0.2 0
v 1.9 -0.2 -0.2
v 2.2 -0.2 -0.2
v 1 -0.2 -0.3
v 1.2 -0.2 -0.3
v 1.3 -0.2 -0.3
v 1.4 -0.2 -0.3
v 1.9 -0.2 -0.3
v 2 -0.2 -0.3
v 2.2 -0.2 -0.3
v 1 -0.2 -0.4
v 1.2 -0.2 -0.4
v 1.3 -0.2 -0.4
v 1.4 -0.2 -0.4
v 1.5 -0.2 -0.4
v 2 -0.2 -0.4
v 2.2 -0.2 -0.4
v 2 -0.2 -0.5
v 2.2 -0.2 -0.5
v 1.4 -0.2 -0.6
v 1.5 -0.2 -0.6
v 1.9 -0.2 -0.6
v 2 -0.2 -0.6
v 1.4 -0.2 -0.7
v 1.5 -0.2 -0.7
v 1.9 -0.2 -0.7
v 2 -0.2 -0.7
v 1 -0.2 -1
v 1.2 -0.2 -1
v 1.3 -0.2 -1
v 1.4 -0.2 -1
v 1.5 -0.2 -1
v 1 -0.2 -1.1
v 1.2 -0.2 -1.1
v 1.3 -0.2 -1.1
v 1.4 -0.2 -1.1
v -0.1 -0.1 0.8
v 0.4 -0.1 0.8
v 1.6 -0.1 0.4
v 2.2 -0.1 0.4
v 1.5 -0.1 0.3
v 1.6 -0.1 0.3
v -0.1 -0.1 0.2
v 0.2 -0.1 0.2
v 0.4 -0.1 0.2
v 1.1 -0.1 0.2
v 1.2 -0.1 0.2
v 1.5 -0.1 0.2
v 1.1 -0.1 0.1
v 1.2 -0.1 0.1
v 2 -0.1 0.1
v 2.2 -0.1 0.1
v -0.1 -0.1 0
v 0.2 -0.1 0
v 2 -0.1 0
v 2.2 -0.1 0
v 1.9 -0.1 -0.2
v 2.2 -0.1 -0.2
v 1 -0.1 -0.3
v 1.2 -0.1 -0.3
v 1.3 -0.1 -0.3
v 1.4 -0.1 -0.3
v 1.9 -0.1 -0.3
v 2 -0.1 -0.3
v 2.2 -0.1 -0.3
v -0.1 -0.1 -0.4
v 0.6 -0.1 -0.4
v 1 -0.1 -0.4
v 1.2 -0.1 -0.4
v 1.3 -0.1 -0.4
v 1.4 -0.1 -0.4
v 1.5 -0.1 -0.4
v 2 -0.1 -0.4
v 2.2 -0.1 -0.4
v 2 -0.1 -0.5
v 2.2 -0.1 -0.5
v 1.4 -0.1 -0.6
v 1.5 -0.1 -0.6
v 1.9 -0.1 -0.6
v 2 -0.1 -0.6
v 1 -0.1 -0.7
v 1.1 -0.1 -0.7
v 1.4 -0.1 -0.7
v 1.5 -0.1 -0.7
v 1.9 -0.1 -0.7
v 2 -0.1 -0.7
v 1 -0.1 -0.8
v 1.1 -0.1 -0.8
v 1 -0.1 -1
v 1.2 -0.1 -1
v 1.3 -0.1 -1
v 1.4 -0.1 -1
v 1.5 -0.1 -1
v 2 -0.1 -1
v 2.2 -0.1 -1
v 1 -0.1 -1.1
v 1.2 -0.1 -1.1
v 1.3 -0.1 -1.1
v 1.4 -0.1 -1.1
v 1.9 -0.1 -1.1
v 2 -0.1 -1.1
v 1.6 -0.1 -1.2
v 1.9 -0.1 -1.2
v 1.5 -0.1 -1.3
v 1.6 -0.1 -1.3
v 1 -0.1 -1.4
v 1.5 -0.1 -1.4
v 0.6 -0.1 -1.5
v 1 -0.1 -1.5
v 1.6 0 0.4
v 2.2 0 0.4
v 1.5 0 0.3
v 1.6 0 0.3
v 2.2 0 0.3
v 0.8 0 0.2
v 1.1 0 0.2
v 1.2 0 0.2
v 1.5 0 0.2
v 1.6 0 0.2
v 0.8 0 0.1
v 1.1 0 0.1
v 1.2 0 0.1
v 1.5 0 0.1
v 1.1 0 0
v 1.2 0 0
v 2 0 -0.9
v 2.2 0 -0.9
v 1.9 0 -1
v 2 0 -1
v 2.2 0 -1
v 1.6 0 -1.1
v 1.9 0 -1.1
v 2 0 -1.1
v 1.5 0 -1.2
v 1.6 0 -1.2
v 1.9 0 -1.2
v 1 0 -1.3
v 1.5 0 -1.3
v 1.6 0 -1.3
v 1 0 -1.4
v 1.5 0 -1.4
v -0.1 0.1 0.8
v 0.4 0.1 0.8
v 1.6 0.1 0.3
v 2.2 0.1 0.3
v -0.1 0.1 0.2
v 0.2 0.1 0.2
v 0.4 0.1 0.2
v 0.8 0.1 0.2
v 1.5 0.1 0.2
v 1.6 0.1 0.2
v 0.8 0.1 0.1
v 1.1 0.1 0.1
v 1.2 0.1 0.1
v 1.5 0.1 0.1
v 1.6 0.1 0.1
v 1.7 0.1 0.1
v 2 0.1 0.1
v 2.2 0.1 0.1
v -0.1 0.1 0
v 0.2 0.1 0
v 1.1 0.1 0
v 1.2 0.1 0
v 1.5 0.1 0
v 1.6 0.1 0
v 1.7 0.1 0
v 2 0.1 0
v 2.2 0.1 0
v -0.1 0.1 -0.4
v 0.6 0.1 -0.4
v 1 0.1 -0.4
v 1.4 0.1 -0.4
v 1.5 0.1 -0.4
v 1.6 0.1 -0.4
v 1 0.1 -0.5
v 1.4 0.1 -0.5
v 1.5 0.1 -0.5
v 1 0.1 -0.6
v 1.1 0.1 -0.6
v 1.2 0.1 -0.6
v 1.4 0.1 -0.6
v 1.8 0.1 -0.6
v 1.9 0.1 -0.6
v 2 0.1 -0.6
v 2.2 0.1 -0.6
v 1.1 0.1 -0.7
v 1.2 0.1 -0.7
v 1.8 0.1 -0.7
v 1.9 0.1 -0.7
v 2 0.1 -0.7
v 2.2 0.1 -0.7
v 1.6 0.1 -0.8
v 1.8 0.1 -0.8
v 1.9 0.1 -0.8
v 1.5 0.1 -0.9
v 1.6 0.1 -0.9
v 1.8 0.1 -0.9
v 2 0.1 -0.9
v 2.2 0.1 -0.9
v 0.6 0.1 -1
v 0.8 0.1 -1
v 1 0.1 -1
v 1.5 0.1 -1
v 1.6 0.1 -1
v 1.9 0.1 -1
v 2 0.1 -1
v 1 0.1 -1.1
v 1.6 0.1 -1.1
v 1.9 0.1 -1.1
v 0.8 0.1 -1.2
v 1 0.1 -1.2
v 1.5 0.1 -1.2
v 1.6 0.1 -1.2
v 1 0.1 -1.3
v 1.5 0.1 -1.3
v 0.6 0.1 -1.5
v 1 0.1 -1.5
v 1.6 0.2 0.1
v 1.7 0.2 0.1
v 2 0.2 0.1
v 2.2 0.2 0.1
v 1.5 0.2 0
v 1.6 0.2 0
v 1.7 0.2 0
v 2 0.2 0
v 2.2 0.2 0
v 1.4 0.2 -0.4
v 1.5 0.2 -0.4
v 1.6 0.2 -0.4
v 1 0.2 -0.5
v 1.4 0.2 -0.5
v 1.5 0.2 -0.5
v 1 0.2 -0.6
v 1.4 0.2 -0.6
v 1.8 0.2 -0.6
v 1.9 0.2 -0.6
v 2 0.2 -0.6
v 2.2 0.2 -0.6
v 1.8 0.2 -0.7
v 1.9 0.2 -0.7
v 2 0.2 -0.7
v 2.2 0.2 -0.7
v 1.6 0.2 -0.8
v 1.8 0.2 -0.8
v 1.9 0.2 -0.8
v 1.5 0.2 -0.9
v 1.6 0.2 -0.9
v 1.8 0.2 -0.9
v 1 0.2 -1
v 1.5 0.2 -1
v 1.6 0.2 -1
v 1 0.2 -1.1
v 1.6 0.2 -1.1
v 0.6 0.3 -0.4
v 1 0.3 -0.4
v 0.6 0.3 -1
v 0.8 0.3 -1
v 0.8 0.3 -1.2
v 1 0.3 -1.2

# faces
f 5/4/1 2/4/1 1/4/1
f 6/4/1 2/4/1 5/4/1
f 7/4/1 4/4/1 3/4/1
f 8/4/1 4/4/1 7/4/1
f 11/4/1 10/4/1 9/4/1
f 12/4/1 10/4/1 11/4/1
f 15/4/1 14/4/1 13/4/1
f 16/4/1 14/4/1 15/4/1
f 17/4/1 14/4/1 16/4/1
f 18/4/1 16/4/1 15/4/1
f 19/4/1 16/4/1 18/4/1
f 22/4/1 21/4/1 20/4/1
f 23/4/1 21/4/1 22/4/1
f 28/1/1 25/1/1 24/1/1
f 29/1/1 25/1/1 28/1/1
f 30/1/1 27/1/1 26/1/1
f 31/1/1 27/1/1 30/1/1
f 34/4/1 33/4/1 32/4/1
f 35/4/1 33/4/1 34/4/1
f 37/4/1 36/4/1 35/4/1
f 38/4/1 36/4/1 37/4/1
f 43/3/1 40/3/1 39/3/1
f 44/1/1 41/1/1 40/1/1
f 44/3/1 40/3/1 43/3/1
f 45/3/1 42/3/1 41/3/1
f 45/1/1 41/1/1 44/1/1
f 46/3/1 42/3/1 45/3/1
f 49/1/1 48/1/1 47/1/1
f 50/1/1 48/1/1 49/1/1
f 53/4/1 52/4/1 51/4/1
f 54/4/1 52/4/1 53/4/1
f 56/4/1 55/4/1 54/4/1
f 57/4/1 55/4/1 56/4/1
f 62/3/1 59/3/1 58/3/1
f 63/3/1 59/3/1 62/3/1
f 64/1/1 61/1/1 60/1/1
f 65/1/1 61/1/1 64/1/1
f 68/4/1 67/4/1 66/4/1
f 69/4/1 67/4/1 68/4/1
f 71/4/1 70/4/1 69/4/1
f 72/4/1 70/4/1 71/4/1
f 77/1/1 74/1/1 73/1/1
f 78/1/1 74/1/1 77/1/1
f 79/3/1 76/3/1 75/3/1
f 80/3/1 76/3/1 79/3/1
f 84/1/1 82/1/1 81/1/1
f 85/3/1 83/3/1 82/3/1
f 85/1/1 82/1/1 84/1/1
f 86/3/1 83/3/1 85/3/1
f 90/1/1 88/1/1 87/1/1
f 91/3/1 89/3/1 88/3/1
f 91/1/1 88/1/1 90/1/1
f 92/3/1 89/3/1 91/3/1
f 95/1/1 94/1/1 93/1/1
f 96/1/1 94/1/1 95/1/1
f 97/4/2 98/4/2 99/4/2
f 99/4/2 98/4/2 100/4/2
f 101/4/2 102/4/2 103/4/2
f 103/4/2 102/4/2 104/4/2
f 105/4/2 106/4/2 108/4/2
f 107/4/2 108/4/2 115/4/2
f 108/4/2 106/4/2 116/4/2
f 115/4/2 108/4/2 116/4/2
f 109/4/2 110/4/2 117/4/2
f 111/4/2 112/4/2 118/4/2
f 118/4/2 112/4/2 119/4/2
f 113/4/2 114/4/2 120/4/2
f 118/4/2 119/4/2 121/4/2
f 119/4/2 120/4/2 121/4/2
f 109/4/2 117/4/2 121/4/2
f 117/4/2 118/4/2 121/4/2
f 120/4/2 114/4/2 122/4/2
f 121/4/2 120/4/2 122/4/2
f 123/4/2 124/4/2 125/4/2
f 125/4/2 124/4/2 126/4/2
f 126/4/2 127/4/2 128/4/2
f 128/4/2 127/4/2 129/4/2
f 130/1/2 131/1/2 134/1/2
f 134/1/2 131/1/2 135/1/2
f 132/1/2 133/1/2 136/1/2
f 136/1/2 133/1/2 137/1/2
f 138/3/2 139/3/2 140/3/2
f 140/3/2 139/3/2 141/3/2
f 142/3/2 143/3/2 146/3/2
f 146/3/2 143/3/2 147/3/2
f 144/3/2 145/3/2 148/3/2
f 148/3/2 145/3/2 149/3/2
f 150/4/2 151/4/2 153/4/2
f 153/4/2 151/4/2 154/4/2
f 152/4/2 153/4/2 157/4/2
f 157/4/2 153/4/2 158/4/2
f 155/1/2 156/1/2 159/1/2
f 159/1/2 156/1/2 160/1/2
f 161/4/2 162/4/2 164/4/2
f 164/4/2 162/4/2 165/4/2
f 163/4/2 164/4/2 170/4/2
f 170/4/2 164/4/2 171/4/2
f 166/3/2 167/3/2 172/3/2
f 172/3/2 167/3/2 173/3/2
f 168/1/2 169/1/2 174/1/2
f 169/3/2 170/3/2 175/3/2
f 174/1/2 169/1/2 175/1/2
f 175/3/2 170/3/2 176/3/2
f 177/3/2 178/3/2 179/3/2
f 179/3/2 178/3/2 180/3/2
f 181/4/2 182/4/2 184/4/2
f 184/4/2 182/4/2 185/4/2
f 183/4/2 184/4/2 188/4/2
f 188/4/2 184/4/2 189/4/2
f 186/3/2 187/3/2 190/3/2
f 190/3/2 187/3/2 191/3/2
f 192/3/2 193/3/2 197/3/2
f 197/3/2 193/3/2 198/3/2
f 194/3/2 195/3/2 199/3/2
f 195/1/2 196/1/2 200/1/2
f 199/3/2 195/3/2 200/3/2
f 200/1/2 196/1/2 201/1/2
f 202/4/2 203/4/2 205/4/2
f 205/4/2 203/4/2 206/4/2
f 204/4/2 205/4/2 207/4/2
f 207/4/2 205/4/2 208/4/2
f 209/1/2 210/1/2 216/1/2
f 216/1/2 210/1/2 217/1/2
f 211/1/2 212/1/2 218/1/2
f 218/1/2 212/1/2 219/1/2
f 213/1/2 214/1/2 220/1/2
f 220/1/2 214/1/2 221/1/2
f 218/4/2 219/4/2 223/4/2
f 221/4/2 222/4/2 223/4/2
f 220/4/2 221/4/2 223/4/2
f 219/4/2 220/4/2 223/4/2
f 216/4/2 217/4/2 223/4/2
f 217/4/2 218/4/2 223/4/2
f 215/4/2 216/4/2 223/4/2
f 223/4/2 222/4/2 224/4/2
f 224/4/2 222/4/2 225/4/2
f 225/4/2 222/4/2 226/4/2
f 224/4/2 225/4/2 227/4/2
f 227/4/2 225/4/2 228/4/2
f 228/4/2 225/4/2 229/4/2
f 229/4/2 225/4/2 230/4/2
f 230/4/2 225/4/2 231/4/2
f 231/4/2 225/4/2 232/4/2
f 228/1/2 229/1/2 233/1/2
f 233/1/2 229/1/2 234/1/2
f 230/1/2 231/1/2 235/1/2
f 235/1/2 231/1/2 236/1/2
f 239/4/3 238/4/3 237/4/3
f 240/4/3 238/4/3 239/4/3
f 243/4/3 242/4/3 241/4/3
f 244/4/3 242/4/3 243/4/3
f 247/4/3 246/4/3 245/4/3
f 248/4/3 246/4/3 247/4/3
f 250/4/3 249/4/3 248/4/3
f 251/4/3 249/4/3 250/4/3
f 254/4/3 253/4/3 252/4/3
f 255/4/3 253/4/3 254/4/3
f 256/4/3 254/4/3 252/4/3
f 257/4/3 254/4/3 256/4/3
f 260/4/3 259/4/3 258/4/3
f 261/4/3 259/4/3 260/4/3
f 263/4/3 262/4/3 261/4/3
f 264/4/3 262/4/3 263/4/3
f 268/4/3 266/4/3 265/4/3
f 269/4/3 266/4/3 268/4/3
f 270/4/3 268/4/3 267/4/3
f 271/4/3 268/4/3 270/4/3
f 273/4/3 272/4/3 271/4/3
f 274/4/3 272/4/3 273/4/3
f 277/1/3 276/1/3 275/1/3
f 278/1/3 276/1/3 277/1/3
f 281/3/3 278/3/3 277/3/3
f 282/3/3 278/3/3 281/3/3
f 283/1/3 280/1/3 279/1/3
f 284/1/3 280/1/3 283/1/3
f 285/1/3 282/1/3 281/1/3
f 286/1/3 282/1/3 285/1/3
f 289/4/3 288/4/3 287/4/3
f 290/4/3 288/4/3 289/4/3
f 293/4/3 292/4/3 291/4/3
f 294/4/3 292/4/3 293/4/3
f 297/3/3 296/3/3 295/3/3
f 298/3/3 296/3/3 297/3/3
f 301/1/3 300/1/3 299/1/3
f 302/1/3 300/1/3 301/1/3
f 305/1/3 304/1/3 303/1/3
f 306/1/3 304/1/3 305/1/3
f 307/3/3 306/3/3 305/3/3
f 308/3/3 306/3/3 307/3/3
f 309/1/3 308/1/3 307/1/3
f 310/1/3 308/1/3 309/1/3
f 313/4/3 312/4/3 311/4/3
f 314/4/3 312/4/3 313/4/3
f 319/3/3 316/3/3 315/3/3
f 320/3/3 316/3/3 319/3/3
f 321/1/3 318/1/3 317/1/3
f 322/1/3 318/1/3 321/1/3
f 325/1/3 324/1/3 323/1/3
f 326/1/3 324/1/3 325/1/3
f 329/3/3 328/3/3 327/3/3
f 330/3/3 328/3/3 329/3/3
f 335/3/3 332/3/3 331/3/3
f 336/3/3 332/3/3 335/3/3
f 337/1/3 334/1/3 333/1/3
f 338/1/3 334/1/3 337/1/3
f 339/3/3 338/3/3 337/3/3
f 340/3/3 338/3/3 339/3/3
f 341/1/3 340/1/3 339/1/3
f 342/1/3 340/1/3 341/1/3
f 345/3/3 344/3/3 343/3/3
f 346/3/3 344/3/3 345/3/3
f 349/1/3 348/1/3 347/1/3
f 350/1/3 348/1/3 349/1/3
f 355/1/3 352/1/3 351/1/3
f 356/1/3 352/1/3 355/1/3
f 357/3/3 356/3/3 355/3/3
f 358/3/3 356/3/3 357/3/3
f 359/1/3 358/1/3 357/1/3
f 360/1/3 358/1/3 359/1/3
f 361/3/3 354/3/3 353/3/3
f 362/3/3 354/3/3 361/3/3
f 363/4/4 364/4/4 365/4/4
f 365/4/4 364/4/4 366/4/4
f 367/1/4 368/1/4 369/1/4
f 369/1/4 368/1/4 370/1/4
f 369/3/4 370/3/4 373/3/4
f 373/3/4 370/3/4 374/3/4
f 371/1/4 372/1/4 375/1/4
f 375/1/4 372/1/4 376/1/4
f 373/1/4 374/1/4 377/1/4
f 377/1/4 374/1/4 378/1/4
f 379/1/4 380/1/4 381/1/4
f 381/1/4 380/1/4 382/1/4
f 383/4/4 384/4/4 385/4/4
f 385/4/4 384/4/4 386/4/4
f 387/1/4 388/1/4 389/1/4
f 389/1/4 388/1/4 390/1/4
f 389/3/4 390/3/4 391/3/4
f 391/3/4 390/3/4 392/3/4
f 391/1/4 392/1/4 393/1/4
f 393/1/4 392/1/4 394/1/4
f 395/3/4 396/3/4 397/3/4
f 397/3/4 396/3/4 398/3/4
f 399/1/4 400/1/4 401/1/4
f 401/1/4 400/1/4 402/1/4
f 403/1/4 404/1/4 405/1/4
f 405/1/4 404/1/4 406/1/4
f 407/3/4 408/3/4 409/3/4
f 409/3/4 408/3/4 410/3/4
f 410/3/4 408/3/4 411/3/4
f 411/3/4 408/3/4 412/3/4
f 413/3/4 414/3/4 415/3/4
f 415/3/4 414/3/4 416/3/4
f 415/1/4 416/1/4 419/1/4
f 419/1/4 416/1/4 420/1/4
f 417/3/4 418/3/4 421/3/4
f 421/3/4 418/3/4 422/3/4
f 421/1/4 422/1/4 423/1/4
f 423/1/4 422/1/4 424/1/4
f 425/3/4 426/3/4 427/3/4
f 427/3/4 426/3/4 428/3/4
f 429/3/4 430/3/4 431/3/4
f 431/3/4 430/3/4 432/3/4
f 433/4/4 434/4/4 435/4/4
f 435/4/4 434/4/4 436/4/4
f 437/4/4 438/4/4 439/4/4
f 439/4/4 438/4/4 440/4/4
f 441/3/4 442/3/4 443/3/4
f 443/3/4 442/3/4 444/3/4
f 445/4/4 446/4/4 448/4/4
f 448/4/4 446/4/4 449/4/4
f 447/4/4 448/4/4 450/4/4
f 450/4/4 448/4/4 451/4/4
f 452/1/4 453/1/4 456/1/4
f 456/1/4 453/1/4 457/1/4
f 456/3/4 457/3/4 458/3/4
f 458/3/4 457/3/4 459/3/4
f 458/1/4 459/1/4 460/1/4
f 460/1/4 459/1/4 461/1/4
f 454/3/4 455/3/4 463/3/4
f 463/3/4 455/3/4 464/3/4
f 462/4/4 463/4/4 466/4/4
f 466/4/4 463/4/4 467/4/4
f 465/4/4 466/4/4 468/4/4
f 468/4/4 466/4/4 469/4/4
f 470/4/4 471/4/4 472/4/4
f 472/4/4 471/4/4 473/4/4
f 474/4/4 475/4/4 477/4/4
f 477/4/4 475/4/4 478/4/4
f 476/4/4 477/4/4 479/4/4
f 479/4/4 477/4/4 480/4/4
f 481/4/4 482/4/4 484/4/4
f 484/4/4 482/4/4 485/4/4
f 483/4/4 484/4/4 486/4/4
f 486/4/4 484/4/4 487/4/4
f 488/4/4 489/4/4 490/4/4
f 490/4/4 489/4/4 491/4/4
f 492/4/4 493/4/4 494/4/4
f 494/4/4 493/4/4 495/4/4
f 498/1/5 497/1/5 496/1/5
f 499/1/5 497/1/5 498/1/5
f 506/1/5 501/1/5 500/1/5
f 507/1/5 501/1/5 506/1/5
f 508/1/5 501/1/5 507/1/5
f 509/1/5 503/1/5 502/1/5
f 510/3/5 504/3/5 503/3/5
f 510/1/5 503/1/5 509/1/5
f 511/1/5 505/1/5 504/1/5
f 511/3/5 504/3/5 510/3/5
f 512/1/5 505/1/5 511/1/5
f 514/3/5 507/3/5 506/3/5
f 516/1/5 515/1/5 514/1/5
f 516/3/5 514/3/5 506/3/5
f 517/1/5 515/1/5 516/1/5
f 518/3/5 513/3/5 512/3/5
f 519/3/5 513/3/5 518/3/5
f 520/3/5 516/3/5 506/3/5
f 521/3/5 516/3/5 520/3/5
f 522/1/5 519/1/5 518/1/5
f 523/3/5 520/3/5 519/3/5
f 523/1/5 519/1/5 522/1/5
f 524/1/5 521/1/5 520/1/5
f 524/3/5 520/3/5 523/3/5
f 525/1/5 521/1/5 524/1/5
f 529/3/5 523/3/5 522/3/5
f 530/3/5 523/3/5 529/3/5
f 531/1/5 527/1/5 526/1/5
f 532/3/5 528/3/5 527/3/5
f 532/1/5 527/1/5 531/1/5
f 533/1/5 529/1/5 528/1/5
f 533/3/5 528/3/5 532/3/5
f 534/1/5 529/1/5 533/1/5
f 540/4/5 538/4/5 537/4/5
f 541/4/5 536/4/5 535/4/5
f 542/4/5 536/4/5 541/4/5
f 543/4/5 536/4/5 542/4/5
f 546/4/5 540/4/5 539/4/5
f 547/4/5 544/4/5 543/4/5
f 547/4/5 543/4/5 542/4/5
f 548/4/5 546/4/5 545/4/5
f 549/4/5 538/4/5 540/4/5
f 549/4/5 540/4/5 546/4/5
f 549/4/5 546/4/5 548/4/5
f 550/4/5 538/4/5 549/4/5
f 552/4/5 547/4/5 542/4/5
f 552/4/5 548/4/5 547/4/5
f 552/4/5 549/4/5 548/4/5
f 553/4/5 549/4/5 552/4/5
f 555/4/5 552/4/5 551/4/5
f 555/4/5 554/4/5 553/4/5
f 555/4/5 553/4/5 552/4/5
f 556/4/5 554/4/5 555/4/5
f 557/4/5 555/4/5 551/4/5
f 558/4/5 555/4/5 557/4/5
f 559/4/5 555/4/5 558/4/5
f 560/4/5 555/4/5 559/4/5
f 561/4/5 555/4/5 560/4/5
f 564/4/5 557/4/5 551/4/5
f 565/4/5 557/4/5 564/4/5
f 566/4/5 557/4/5 565/4/5
f 569/4/5 561/4/5 560/4/5
f 570/4/5 561/4/5 569/4/5
f 571/4/5 563/4/5 562/4/5
f 572/4/5 563/4/5 571/4/5
f 575/4/5 568/4/5 567/4/5
f 575/4/5 566/4/5 565/4/5
f 575/4/5 567/4/5 566/4/5
f 575/4/5 569/4/5 568/4/5
f 576/4/5 561/4/5 570/4/5
f 577/4/5 561/4/5 576/4/5
f 578/4/5 574/4/5 573/4/5
f 579/4/5 575/4/5 565/4/5
f 580/4/5 575/4/5 579/4/5
f 581/4/5 575/4/5 580/4/5
f 584/4/5 574/4/5 578/4/5
f 585/4/5 579/4/5 565/4/5
f 585/2/5 580/2/5 579/2/5
f 586/4/5 581/4/5 580/4/5
f 586/2/5 580/2/5 585/2/5
f 587/4/5 585/4/5 565/4/5
f 587/4/5 586/4/5 585/4/5
f 588/4/5 581/4/5 586/4/5
f 588/4/5 586/4/5 587/4/5
f 589/4/5 581/4/5 588/4/5
f 590/4/5 581/4/5 589/4/5
f 591/4/5 583/4/5 582/4/5
f 591/4/5 584/4/5 583/4/5
f 592/4/5 574/4/5 584/4/5
f 592/4/5 584/4/5 591/4/5
f 593/4/5 574/4/5 592/4/5
f 594/4/5 587/4/5 565/4/5
f 597/4/5 592/4/5 591/4/5
f 597/4/5 591/4/5 590/4/5
f 598/4/5 592/4/5 597/4/5
f 599/4/5 592/4/5 598/4/5
f 600/4/5 596/4/5 595/4/5
f 600/4/5 595/4/5 594/4/5
f 600/4/5 598/4/5 597/4/5
f 600/4/5 597/4/5 596/4/5
f 601/4/5 598/4/5 600/4/5
f 602/4/5 600/4/5 594/4/5
f 603/4/5 600/4/5 602/4/5
f 604/4/5 594/4/5 565/4/5
f 604/4/5 602/4/5 594/4/5
f 605/4/5 602/4/5 604/4/5
f 606/4/5 604/4/5 565/4/5
f 607/4/5 604/4/5 606/4/5
f 608/4/6 609/4/6 611/4/6
f 611/4/6 609/4/6 612/4/6
f 610/4/6 611/4/6 616/4/6
f 616/4/6 611/4/6 617/4/6
f 613/4/6 614/4/6 618/4/6
f 618/4/6 614/4/6 619/4/6
f 615/4/6 616/4/6 620/4/6
f 620/4/6 616/4/6 621/4/6
f 619/4/6 620/4/6 622/4/6
f 622/4/6 620/4/6 623/4/6
f 624/4/6 625/4/6 627/4/6
f 627/4/6 625/4/6 628/4/6
f 626/4/6 627/4/6 630/4/6
f 630/4/6 627/4/6 631/4/6
f 629/4/6 630/4/6 633/4/6
f 633/4/6 630/4/6 634/4/6
f 632/4/6 633/4/6 636/4/6
f 636/4/6 633/4/6 637/4/6
f 635/4/6 636/4/6 638/4/6
f 638/4/6 636/4/6 639/4/6
f 640/4/6 641/4/6 644/4/6
f 644/4/6 641/4/6 645/4/6
f 645/4/6 641/4/6 646/4/6
f 642/4/6 643/4/6 649/4/6
f 646/4/6 647/4/6 650/4/6
f 645/4/6 646/4/6 650/4/6
f 648/4/6 649/4/6 653/4/6
f 649/4/6 643/4/6 654/4/6
f 653/4/6 649/4/6 654/4/6
f 654/4/6 643/4/6 655/4/6
f 655/4/6 643/4/6 656/4/6
f 656/4/6 643/4/6 657/4/6
f 650/4/6 651/4/6 659/4/6
f 645/4/6 650/4/6 659/4/6
f 659/4/6 651/4/6 660/4/6
f 652/4/6 653/4/6 661/4/6
f 653/4/6 654/4/6 661/4/6
f 661/4/6 654/4/6 662/4/6
f 662/4/6 654/4/6 663/4/6
f 659/4/6 660/4/6 667/4/6
f 658/4/6 659/4/6 667/4/6
f 660/4/6 661/4/6 667/4/6
f 661/4/6 662/4/6 667/4/6
f 667/4/6 662/4/6 668/4/6
f 668/4/6 662/4/6 669/4/6
f 669/4/6 662/4/6 670/4/6
f 670/4/6 662/4/6 671/4/6
f 665/4/6 666/4/6 672/4/6
f 664/4/6 665/4/6 672/4/6
f 663/4/6 664/4/6 672/4/6
f 669/4/6 670/4/6 673/4/6
f 673/4/6 670/4/6 674/4/6
f 671/4/6 672/4/6 675/4/6
f 674/4/6 675/4/6 679/4/6
f 672/4/6 666/4/6 680/4/6
f 675/4/6 672/4/6 680/4/6
f 679/4/6 675/4/6 680/4/6
f 680/4/6 666/4/6 681/4/6
f 681/4/6 666/4/6 682/4/6
f 682/4/6 666/4/6 683/4/6
f 677/2/6 678/2/6 684/2/6
f 676/4/6 677/4/6 684/4/6
f 678/4/6 679/4/6 685/4/6
f 684/2/6 678/2/6 685/2/6
f 679/4/6 680/4/6 685/4/6
f 685/4/6 680/4/6 686/4/6
f 684/4/6 685/4/6 690/4/6
f 685/4/6 686/4/6 690/4/6
f 690/4/6 686/4/6 691/4/6
f 688/4/6 689/4/6 692/4/6
f 687/4/6 688/4/6 692/4/6
f 684/4/6 690/4/6 693/4/6
f 693/4/6 690/4/6 694/4/6
f 691/4/6 692/4/6 695/4/6
f 692/4/6 689/4/6 696/4/6
f 695/4/6 692/4/6 696/4/6
f 696/4/6 689/4/6 697/4/6
f 676/4/6 684/4/6 700/4/6
f 684/4/6 693/4/6 700/4/6
f 700/4/6 693/4/6 701/4/6
f 694/4/6 695/4/6 702/4/6
f 695/4/6 696/4/6 702/4/6
f 702/4/6 696/4/6 703/4/6
f 703/4/6 696/4/6 704/4/6
f 702/4/6 703/4/6 706/4/6
f 706/4/6 703/4/6 707/4/6
f 698/4/6 699/4/6 708/4/6
f 705/4/6 706/4/6 709/4/6
f 709/4/6 706/4/6 710/4/6
f 710/4/6 706/4/6 711/4/6
f 708/4/6 709/4/6 712/4/6
f 709/4/6 710/4/6 712/4/6
f 712/4/6 710/4/6 713/4/6
f 698/4/6 708/4/6 714/4/6
f 708/4/6 712/4/6 714/4/6
f 714/4/6 712/4/6 715/4/6
f 716/1/6 717/1/6 721/1/6
f 717/3/6 718/3/6 722/3/6
f 721/1/6 717/1/6 722/1/6
f 718/1/6 719/1/6 723/1/6
f 722/3/6 718/3/6 723/3/6
f 723/1/6 719/1/6 724/1/6
f 720/3/6 721/3/6 726/3/6
f 726/3/6 721/3/6 727/3/6
f 725/1/6 726/1/6 729/1/6
f 729/1/6 726/1/6 730/1/6
f 728/3/6 729/3/6 731/3/6
f 731/3/6 729/3/6 732/3/6
f 733/1/6 734/1/6 737/1/6
f 734/3/6 735/3/6 738/3/6
f 737/1/6 734/1/6 738/1/6
f 735/1/6 736/1/6 739/1/6
f 738/3/6 735/3/6 739/3/6
f 739/1/6 736/1/6 740/1/6
f 737/3/6 738/3/6 742/3/6
f 742/3/6 738/3/6 743/3/6
f 741/3/6 742/3/6 745/3/6
f 745/3/6 742/3/6 746/3/6
f 744/1/6 745/1/6 748/1/6
f 748/1/6 745/1/6 749/1/6
f 747/3/6 748/3/6 750/3/6
f 748/3/6 749/3/6 750/3/6
f 750/3/6 749/3/6 751/3/6
f 752/4/6 753/4/6 754/4/6
f 754/4/6 753/4/6 755/4/6
f 755/4/6 753/4/6 756/4/6
f 756/4/6 753/4/6 757/4/6
