# MagicaVoxel @ Ephtracy

# group
o RedFighter_FrontWing_L

# material
mtllib Extra-6-RedFighter_FrontWing_L.mtl
usemtl palette

# normals
vn 1 0 0
vn -1 0 0
vn 0 0 1
vn 0 0 -1
vn 0 -1 0
vn 0 1 0

# texcoords
vt 0.779297 0.5

# verts
v 1.6 -0.4 1.2
v 1.6 -0.4 0.7
v 1.6 -0.3 1.2
v 1.6 -0.3 0.7
v 1.5 -0.3 1.4
v 1.5 -0.3 1.2
v 1.5 -0.3 0.9
v 1.5 -0.2 1.4
v 1.5 -0.2 0.9
v 1.4 -0.2 1.5
v 1.4 -0.2 1.4
v 1.4 -0.2 1.2
v 1.4 -0.1 1.5
v 1.4 -0.1 1.2
v 1.3 -0.2 1.6
v 1.3 -0.2 1.5
v 1.3 -0.2 1.2
v 1.3 -0.2 1.1
v 1.3 -0.1 1.6
v 1.3 -0.1 1.5
v 1.3 -0.1 1.2
v 1.3 -0.1 1.1
v 1.2 -0.2 1.1
v 1.2 -0.2 1
v 1.2 -0.1 1.1
v 1.2 -0.1 1
v 1.1 -0.2 1
v 1.1 -0.2 0.9
v 1.1 -0.1 1
v 1.1 -0.1 0.9
v 1 -0.2 1.7
v 1 -0.2 1.6
v 1 -0.1 1.7
v 1 -0.1 1.6
v 0.9 -0.2 1.8
v 0.9 -0.2 1.7
v 0.9 -0.1 1.7
v 0.9 -0.1 1.3
v 0.9 0 1.8
v 0.9 0 1.3
v 1.5 -0.4 1.2
v 1.5 -0.4 0.7
v 1.5 -0.3 1.2
v 1.5 -0.3 0.9
v 1.5 -0.3 0.7
v 1.4 -0.3 1.2
v 1.4 -0.3 0.9
v 1.4 -0.2 1.2
v 1.4 -0.2 0.9
v 1.3 -0.3 1.4
v 1.3 -0.3 1.2
v 1.3 -0.2 1.4
v 1.3 -0.2 1.2
v 1 -0.2 1.2
v 1 -0.2 0.9
v 1 -0.1 1.2
v 1 -0.1 0.9
v 0.9 -0.2 1.3
v 0.9 -0.2 1.2
v 0.9 -0.1 1.3
v 0.9 -0.1 1.2
v 0.8 -0.2 1.8
v 0.8 -0.2 1.3
v 0.8 0 1.8
v 0.8 0 1.3
v 0.9 -0.2 1.8
v 0.9 0 1.8
v 0.8 -0.2 1.8
v 0.8 0 1.8
v 1 -0.2 1.7
v 1 -0.1 1.7
v 0.9 -0.2 1.7
v 0.9 -0.1 1.7
v 1.3 -0.2 1.6
v 1.3 -0.1 1.6
v 1 -0.2 1.6
v 1 -0.1 1.6
v 1.4 -0.2 1.5
v 1.4 -0.1 1.5
v 1.3 -0.2 1.5
v 1.3 -0.1 1.5
v 1.5 -0.3 1.4
v 1.5 -0.2 1.4
v 1.4 -0.2 1.4
v 1.3 -0.3 1.4
v 1.3 -0.2 1.4
v 1.6 -0.4 1.2
v 1.6 -0.3 1.2
v 1.5 -0.4 1.2
v 1.5 -0.3 1.2
v 0.9 -0.2 1.3
v 0.9 -0.1 1.3
v 0.9 0 1.3
v 0.8 -0.2 1.3
v 0.8 0 1.3
v 1.4 -0.3 1.2
v 1.4 -0.2 1.2
v 1.4 -0.1 1.2
v 1.3 -0.3 1.2
v 1.3 -0.2 1.2
v 1.3 -0.1 1.2
v 1 -0.2 1.2
v 1 -0.1 1.2
v 0.9 -0.2 1.2
v 0.9 -0.1 1.2
v 1.3 -0.2 1.1
v 1.3 -0.1 1.1
v 1.2 -0.2 1.1
v 1.2 -0.1 1.1
v 1.2 -0.2 1
v 1.2 -0.1 1
v 1.1 -0.2 1
v 1.1 -0.1 1
v 1.5 -0.3 0.9
v 1.5 -0.2 0.9
v 1.4 -0.3 0.9
v 1.4 -0.2 0.9
v 1.1 -0.2 0.9
v 1.1 -0.1 0.9
v 1 -0.2 0.9
v 1 -0.1 0.9
v 1.6 -0.4 0.7
v 1.6 -0.3 0.7
v 1.5 -0.4 0.7
v 1.5 -0.3 0.7
v 1.6 -0.4 1.2
v 1.5 -0.4 1.2
v 1.6 -0.4 0.7
v 1.5 -0.4 0.7
v 1.5 -0.3 1.4
v 1.3 -0.3 1.4
v 1.5 -0.3 1.2
v 1.4 -0.3 1.2
v 1.3 -0.3 1.2
v 1.5 -0.3 0.9
v 1.4 -0.3 0.9
v 0.9 -0.2 1.8
v 0.8 -0.2 1.8
v 1 -0.2 1.7
v 0.9 -0.2 1.7
v 1.3 -0.2 1.6
v 1 -0.2 1.6
v 1.4 -0.2 1.5
v 1.3 -0.2 1.5
v 1.4 -0.2 1.4
v 1.3 -0.2 1.4
v 0.9 -0.2 1.3
v 0.8 -0.2 1.3
v 1.3 -0.2 1.2
v 1 -0.2 1.2
v 0.9 -0.2 1.2
v 1.3 -0.2 1.1
v 1.2 -0.2 1.1
v 1.2 -0.2 1
v 1.1 -0.2 1
v 1.1 -0.2 0.9
v 1 -0.2 0.9
v 1.6 -0.3 1.2
v 1.5 -0.3 1.2
v 1.5 -0.3 0.9
v 1.6 -0.3 0.7
v 1.5 -0.3 0.7
v 1.5 -0.2 1.4
v 1.4 -0.2 1.4
v 1.4 -0.2 1.2
v 1.5 -0.2 0.9
v 1.4 -0.2 0.9
v 1 -0.1 1.7
v 0.9 -0.1 1.7
v 1.3 -0.1 1.6
v 1 -0.1 1.6
v 1.4 -0.1 1.5
v 1.3 -0.1 1.5
v 0.9 -0.1 1.3
v 1.4 -0.1 1.2
v 1.3 -0.1 1.2
v 1 -0.1 1.2
v 0.9 -0.1 1.2
v 1.3 -0.1 1.1
v 1.2 -0.1 1.1
v 1.2 -0.1 1
v 1.1 -0.1 1
v 1.1 -0.1 0.9
v 1 -0.1 0.9
v 0.9 0 1.8
v 0.8 0 1.8
v 0.9 0 1.3
v 0.8 0 1.3

# faces
f 1/1/1 2/1/1 3/1/1
f 3/1/1 2/1/1 4/1/1
f 5/1/1 6/1/1 8/1/1
f 6/1/1 7/1/1 8/1/1
f 8/1/1 7/1/1 9/1/1
f 10/1/1 11/1/1 13/1/1
f 11/1/1 12/1/1 13/1/1
f 13/1/1 12/1/1 14/1/1
f 15/1/1 16/1/1 19/1/1
f 19/1/1 16/1/1 20/1/1
f 17/1/1 18/1/1 21/1/1
f 21/1/1 18/1/1 22/1/1
f 23/1/1 24/1/1 25/1/1
f 25/1/1 24/1/1 26/1/1
f 27/1/1 28/1/1 29/1/1
f 29/1/1 28/1/1 30/1/1
f 31/1/1 32/1/1 33/1/1
f 33/1/1 32/1/1 34/1/1
f 35/1/1 36/1/1 37/1/1
f 35/1/1 37/1/1 39/1/1
f 37/1/1 38/1/1 39/1/1
f 39/1/1 38/1/1 40/1/1
f 43/1/2 42/1/2 41/1/2
f 44/1/2 42/1/2 43/1/2
f 45/1/2 42/1/2 44/1/2
f 48/1/2 47/1/2 46/1/2
f 49/1/2 47/1/2 48/1/2
f 52/1/2 51/1/2 50/1/2
f 53/1/2 51/1/2 52/1/2
f 56/1/2 55/1/2 54/1/2
f 57/1/2 55/1/2 56/1/2
f 60/1/2 59/1/2 58/1/2
f 61/1/2 59/1/2 60/1/2
f 64/1/2 63/1/2 62/1/2
f 65/1/2 63/1/2 64/1/2
f 66/1/3 67/1/3 68/1/3
f 68/1/3 67/1/3 69/1/3
f 70/1/3 71/1/3 72/1/3
f 72/1/3 71/1/3 73/1/3
f 74/1/3 75/1/3 76/1/3
f 76/1/3 75/1/3 77/1/3
f 78/1/3 79/1/3 80/1/3
f 80/1/3 79/1/3 81/1/3
f 82/1/3 83/1/3 84/1/3
f 82/1/3 84/1/3 85/1/3
f 85/1/3 84/1/3 86/1/3
f 87/1/3 88/1/3 89/1/3
f 89/1/3 88/1/3 90/1/3
f 94/1/4 92/1/4 91/1/4
f 94/1/4 93/1/4 92/1/4
f 95/1/4 93/1/4 94/1/4
f 99/1/4 97/1/4 96/1/4
f 99/1/4 98/1/4 97/1/4
f 100/1/4 98/1/4 99/1/4
f 101/1/4 98/1/4 100/1/4
f 104/1/4 103/1/4 102/1/4
f 105/1/4 103/1/4 104/1/4
f 108/1/4 107/1/4 106/1/4
f 109/1/4 107/1/4 108/1/4
f 112/1/4 111/1/4 110/1/4
f 113/1/4 111/1/4 112/1/4
f 116/1/4 115/1/4 114/1/4
f 117/1/4 115/1/4 116/1/4
f 120/1/4 119/1/4 118/1/4
f 121/1/4 119/1/4 120/1/4
f 124/1/4 123/1/4 122/1/4
f 125/1/4 123/1/4 124/1/4
f 126/1/5 127/1/5 128/1/5
f 128/1/5 127/1/5 129/1/5
f 130/1/5 131/1/5 132/1/5
f 132/1/5 131/1/5 133/1/5
f 133/1/5 131/1/5 134/1/5
f 132/1/5 133/1/5 135/1/5
f 135/1/5 133/1/5 136/1/5
f 137/1/5 138/1/5 140/1/5
f 139/1/5 140/1/5 142/1/5
f 141/1/5 142/1/5 144/1/5
f 143/1/5 144/1/5 145/1/5
f 144/1/5 142/1/5 146/1/5
f 145/1/5 144/1/5 146/1/5
f 140/1/5 138/1/5 147/1/5
f 146/1/5 142/1/5 147/1/5
f 142/1/5 140/1/5 147/1/5
f 147/1/5 138/1/5 148/1/5
f 146/1/5 147/1/5 149/1/5
f 149/1/5 147/1/5 150/1/5
f 150/1/5 147/1/5 151/1/5
f 149/1/5 150/1/5 152/1/5
f 152/1/5 150/1/5 153/1/5
f 153/1/5 150/1/5 154/1/5
f 154/1/5 150/1/5 155/1/5
f 155/1/5 150/1/5 156/1/5
f 156/1/5 150/1/5 157/1/5
f 160/1/6 159/1/6 158/1/6
f 161/1/6 160/1/6 158/1/6
f 162/1/6 160/1/6 161/1/6
f 165/1/6 164/1/6 163/1/6
f 166/1/6 165/1/6 163/1/6
f 167/1/6 165/1/6 166/1/6
f 171/1/6 169/1/6 168/1/6
f 173/1/6 171/1/6 170/1/6
f 174/1/6 169/1/6 171/1/6
f 174/1/6 173/1/6 172/1/6
f 174/1/6 171/1/6 173/1/6
f 175/1/6 174/1/6 172/1/6
f 176/1/6 174/1/6 175/1/6
f 177/1/6 174/1/6 176/1/6
f 178/1/6 174/1/6 177/1/6
f 179/1/6 177/1/6 176/1/6
f 180/1/6 177/1/6 179/1/6
f 181/1/6 177/1/6 180/1/6
f 182/1/6 177/1/6 181/1/6
f 183/1/6 177/1/6 182/1/6
f 184/1/6 177/1/6 183/1/6
f 187/1/6 186/1/6 185/1/6
f 188/1/6 186/1/6 187/1/6
