# MagicaVoxel @ Ephtracy

# group
o RedFighter_Wing2_R

# material
mtllib Extra-9-RedFighter_Wing2_R.mtl
usemtl palette

# normals
vn 1 0 0
vn -1 0 0
vn 0 0 1
vn 0 0 -1
vn 0 -1 0
vn 0 1 0

# texcoords
vt 0.697266 0.5
vt 0.712891 0.5
vt 0.779297 0.5

# verts
v -2.8 0.1 0.6
v -2.8 0.1 -0.8
v -2.8 0.2 0.6
v -2.8 0.2 0.5
v -2.8 0.2 -0.7
v -2.8 0.2 -0.8
v -2.8 0.3 0.5
v -2.8 0.3 0.3
v -2.8 0.3 0.2
v -2.8 0.3 0.1
v -2.8 0.3 0
v -2.8 0.3 -0.4
v -2.8 0.3 -0.5
v -2.8 0.3 -0.7
v -2.8 0.4 0.3
v -2.8 0.4 0.2
v -2.8 0.4 0.1
v -2.8 0.4 0
v -2.8 0.4 -0.4
v -2.8 0.4 -0.5
v -3 0.3 0
v -3 0.3 -0.1
v -3 0.3 -0.3
v -3 0.3 -0.4
v -3 0.4 0
v -3 0.4 -0.1
v -3 0.4 -0.3
v -3 0.4 -0.4
v -3.3 0.1 0.6
v -3.3 0.1 0.5
v -3.3 0.2 0.6
v -3.3 0.2 0.5
v -3.3 0.2 0.4
v -3.3 0.3 0.5
v -3.3 0.3 0.4
v -3.6 0.2 0.7
v -3.6 0.2 0.6
v -3.6 0.2 0.5
v -3.6 0.3 0.7
v -3.6 0.3 0.6
v -3.6 0.3 0.5
v -3.6 0.3 -0.3
v -3.6 0.4 0.6
v -3.6 0.4 -0.3
v -3.7 0.2 0.8
v -3.7 0.2 0.7
v -3.7 0.3 0.8
v -3.7 0.3 0.7
v -3.7 0.3 0.6
v -3.7 0.4 0.7
v -3.7 0.4 0.6
v -3.7 0.4 0.4
v -3.7 0.4 0.3
v -3.7 0.4 0
v -3.7 0.4 -0.1
v -3.7 0.5 0.4
v -3.7 0.5 0.3
v -3.7 0.5 0
v -3.7 0.5 -0.1
v -2.9 0.3 0.3
v -2.9 0.3 0.2
v -2.9 0.4 0.3
v -2.9 0.4 0.2
v -3 0.3 0.1
v -3 0.3 0
v -3 0.3 -0.4
v -3 0.3 -0.5
v -3 0.4 0.1
v -3 0.4 0
v -3 0.4 -0.4
v -3 0.4 -0.5
v -3.1 0.1 -0.7
v -3.1 0.1 -0.8
v -3.1 0.2 -0.6
v -3.1 0.2 -0.7
v -3.1 0.2 -0.8
v -3.1 0.3 0
v -3.1 0.3 -0.1
v -3.1 0.3 -0.3
v -3.1 0.3 -0.4
v -3.1 0.3 -0.6
v -3.1 0.3 -0.7
v -3.1 0.4 0
v -3.1 0.4 -0.1
v -3.1 0.4 -0.3
v -3.1 0.4 -0.4
v -3.2 0.1 0.6
v -3.2 0.1 0.5
v -3.2 0.1 -0.6
v -3.2 0.1 -0.7
v -3.2 0.2 0.6
v -3.2 0.2 0.5
v -3.2 0.2 0.4
v -3.2 0.2 -0.5
v -3.2 0.2 -0.6
v -3.2 0.2 -0.7
v -3.2 0.3 0.5
v -3.2 0.3 0.4
v -3.2 0.3 -0.5
v -3.2 0.3 -0.6
v -3.5 0.1 -0.5
v -3.5 0.1 -0.6
v -3.5 0.2 -0.4
v -3.5 0.2 -0.5
v -3.5 0.2 -0.6
v -3.5 0.3 -0.4
v -3.5 0.3 -0.5
v -3.6 0.1 0.6
v -3.6 0.1 -0.5
v -3.6 0.2 0.6
v -3.6 0.2 -0.4
v -3.6 0.2 -0.5
v -3.8 0.2 0.8
v -3.8 0.2 -0.4
v -3.8 0.3 0.8
v -3.8 0.3 0.7
v -3.8 0.3 -0.3
v -3.8 0.3 -0.4
v -3.8 0.4 0.7
v -3.8 0.4 0.4
v -3.8 0.4 0.3
v -3.8 0.4 0
v -3.8 0.4 -0.1
v -3.8 0.4 -0.3
v -3.8 0.5 0.4
v -3.8 0.5 0.3
v -3.8 0.5 0
v -3.8 0.5 -0.1
v -3.7 0.2 0.8
v -3.7 0.3 0.8
v -3.8 0.2 0.8
v -3.8 0.3 0.8
v -3.6 0.2 0.7
v -3.6 0.3 0.7
v -3.7 0.2 0.7
v -3.7 0.3 0.7
v -3.7 0.4 0.7
v -3.8 0.3 0.7
v -3.8 0.4 0.7
v -2.8 0.1 0.6
v -2.8 0.2 0.6
v -3.2 0.1 0.6
v -3.2 0.2 0.6
v -3.3 0.1 0.6
v -3.3 0.2 0.6
v -3.6 0.1 0.6
v -3.6 0.2 0.6
v -3.6 0.3 0.6
v -3.6 0.4 0.6
v -3.7 0.3 0.6
v -3.7 0.4 0.6
v -2.8 0.2 0.5
v -2.8 0.3 0.5
v -3.2 0.1 0.5
v -3.2 0.2 0.5
v -3.2 0.3 0.5
v -3.3 0.1 0.5
v -3.3 0.2 0.5
v -3.3 0.3 0.5
v -3.6 0.2 0.5
v -3.6 0.3 0.5
v -3.2 0.2 0.4
v -3.2 0.3 0.4
v -3.3 0.2 0.4
v -3.3 0.3 0.4
v -3.7 0.4 0.4
v -3.7 0.5 0.4
v -3.8 0.4 0.4
v -3.8 0.5 0.4
v -2.8 0.3 0.3
v -2.8 0.4 0.3
v -2.9 0.3 0.3
v -2.9 0.4 0.3
v -2.8 0.3 0.1
v -2.8 0.4 0.1
v -3 0.3 0.1
v -3 0.4 0.1
v -3 0.3 0
v -3 0.4 0
v -3.1 0.3 0
v -3.1 0.4 0
v -3.7 0.4 0
v -3.7 0.5 0
v -3.8 0.4 0
v -3.8 0.5 0
v -2.8 0.3 -0.4
v -2.8 0.4 -0.4
v -3 0.3 -0.4
v -3 0.4 -0.4
v -3.7 0.4 0.3
v -3.7 0.5 0.3
v -3.8 0.4 0.3
v -3.8 0.5 0.3
v -2.8 0.3 0.2
v -2.8 0.4 0.2
v -2.9 0.3 0.2
v -2.9 0.4 0.2
v -2.8 0.3 0
v -2.8 0.4 0
v -3 0.3 0
v -3 0.4 0
v -3.7 0.4 -0.1
v -3.7 0.5 -0.1
v -3.8 0.4 -0.1
v -3.8 0.5 -0.1
v -3.6 0.3 -0.3
v -3.6 0.4 -0.3
v -3.8 0.3 -0.3
v -3.8 0.4 -0.3
v -3 0.3 -0.4
v -3 0.4 -0.4
v -3.1 0.3 -0.4
v -3.1 0.4 -0.4
v -3.5 0.2 -0.4
v -3.5 0.3 -0.4
v -3.6 0.2 -0.4
v -3.8 0.2 -0.4
v -3.8 0.3 -0.4
v -2.8 0.3 -0.5
v -2.8 0.4 -0.5
v -3 0.3 -0.5
v -3 0.4 -0.5
v -3.2 0.2 -0.5
v -3.2 0.3 -0.5
v -3.5 0.1 -0.5
v -3.5 0.2 -0.5
v -3.5 0.3 -0.5
v -3.6 0.1 -0.5
v -3.6 0.2 -0.5
v -3.1 0.2 -0.6
v -3.1 0.3 -0.6
v -3.2 0.1 -0.6
v -3.2 0.2 -0.6
v -3.2 0.3 -0.6
v -3.5 0.1 -0.6
v -3.5 0.2 -0.6
v -2.8 0.2 -0.7
v -2.8 0.3 -0.7
v -3.1 0.1 -0.7
v -3.1 0.2 -0.7
v -3.1 0.3 -0.7
v -3.2 0.1 -0.7
v -3.2 0.2 -0.7
v -2.8 0.1 -0.8
v -2.8 0.2 -0.8
v -3.1 0.1 -0.8
v -3.1 0.2 -0.8
v -2.8 0.1 0.6
v -3.2 0.1 0.6
v -3.3 0.1 0.6
v -3.6 0.1 0.6
v -3.2 0.1 0.5
v -3.3 0.1 0.5
v -3.5 0.1 -0.5
v -3.6 0.1 -0.5
v -3.2 0.1 -0.6
v -3.5 0.1 -0.6
v -3.1 0.1 -0.7
v -3.2 0.1 -0.7
v -2.8 0.1 -0.8
v -3.1 0.1 -0.8
v -3.7 0.2 0.8
v -3.8 0.2 0.8
v -3.6 0.2 0.7
v -3.7 0.2 0.7
v -3.6 0.2 0.6
v -3.6 0.2 -0.4
v -3.8 0.2 -0.4
v -2.8 0.2 0.6
v -3.2 0.2 0.6
v -3.3 0.2 0.6
v -3.6 0.2 0.6
v -2.8 0.2 0.5
v -3.2 0.2 0.5
v -3.3 0.2 0.5
v -3.6 0.2 0.5
v -3.2 0.2 0.4
v -3.3 0.2 0.4
v -3.5 0.2 -0.4
v -3.6 0.2 -0.4
v -3.2 0.2 -0.5
v -3.5 0.2 -0.5
v -3.6 0.2 -0.5
v -3.1 0.2 -0.6
v -3.2 0.2 -0.6
v -3.5 0.2 -0.6
v -2.8 0.2 -0.7
v -3.1 0.2 -0.7
v -3.2 0.2 -0.7
v -2.8 0.2 -0.8
v -3.1 0.2 -0.8
v -3.7 0.3 0.8
v -3.8 0.3 0.8
v -3.6 0.3 0.7
v -3.7 0.3 0.7
v -3.8 0.3 0.7
v -3.6 0.3 0.6
v -3.7 0.3 0.6
v -2.8 0.3 0.5
v -3.2 0.3 0.5
v -3.3 0.3 0.5
v -3.6 0.3 0.5
v -3.2 0.3 0.4
v -3.3 0.3 0.4
v -2.8 0.3 0.3
v -2.9 0.3 0.3
v -2.8 0.3 0.2
v -2.9 0.3 0.2
v -2.8 0.3 0.1
v -3 0.3 0.1
v -2.8 0.3 0
v -3 0.3 0
v -3.1 0.3 0
v -3 0.3 -0.1
v -3.1 0.3 -0.1
v -3 0.3 -0.3
v -3.1 0.3 -0.3
v -3.6 0.3 -0.3
v -3.8 0.3 -0.3
v -2.8 0.3 -0.4
v -3 0.3 -0.4
v -3.1 0.3 -0.4
v -3.5 0.3 -0.4
v -3.8 0.3 -0.4
v -2.8 0.3 -0.5
v -3 0.3 -0.5
v -3.2 0.3 -0.5
v -3.5 0.3 -0.5
v -3.1 0.3 -0.6
v -3.2 0.3 -0.6
v -2.8 0.3 -0.7
v -3.1 0.3 -0.7
v -3.7 0.4 0.7
v -3.8 0.4 0.7
v -3.6 0.4 0.6
v -3.7 0.4 0.6
v -3.7 0.4 0.4
v -3.8 0.4 0.4
v -2.8 0.4 0.3
v -2.9 0.4 0.3
v -3.7 0.4 0.3
v -3.8 0.4 0.3
v -2.8 0.4 0.2
v -2.9 0.4 0.2
v -2.8 0.4 0.1
v -3 0.4 0.1
v -2.8 0.4 0
v -3 0.4 0
v -3.1 0.4 0
v -3.7 0.4 0
v -3.8 0.4 0
v -3 0.4 -0.1
v -3.1 0.4 -0.1
v -3.7 0.4 -0.1
v -3.8 0.4 -0.1
v -3 0.4 -0.3
v -3.1 0.4 -0.3
v -3.6 0.4 -0.3
v -3.8 0.4 -0.3
v -2.8 0.4 -0.4
v -3 0.4 -0.4
v -3.1 0.4 -0.4
v -2.8 0.4 -0.5
v -3 0.4 -0.5
v -3.7 0.5 0.4
v -3.8 0.5 0.4
v -3.7 0.5 0.3
v -3.8 0.5 0.3
v -3.7 0.5 0
v -3.8 0.5 0
v -3.7 0.5 -0.1
v -3.8 0.5 -0.1

# faces
f 1/3/1 2/3/1 3/3/1
f 3/3/1 2/3/1 4/3/1
f 4/3/1 2/3/1 5/3/1
f 5/3/1 2/3/1 6/3/1
f 4/3/1 5/3/1 7/3/1
f 7/3/1 5/3/1 8/3/1
f 8/3/1 5/3/1 9/3/1
f 9/3/1 5/3/1 10/3/1
f 10/3/1 5/3/1 11/3/1
f 11/3/1 5/3/1 12/3/1
f 12/3/1 5/3/1 13/3/1
f 13/3/1 5/3/1 14/3/1
f 8/1/1 9/1/1 15/1/1
f 15/1/1 9/1/1 16/1/1
f 10/2/1 11/2/1 17/2/1
f 17/2/1 11/2/1 18/2/1
f 12/2/1 13/2/1 19/2/1
f 19/2/1 13/2/1 20/2/1
f 21/1/1 22/1/1 25/1/1
f 22/2/1 23/2/1 26/2/1
f 25/1/1 22/1/1 26/1/1
f 23/1/1 24/1/1 27/1/1
f 26/2/1 23/2/1 27/2/1
f 27/1/1 24/1/1 28/1/1
f 29/3/1 30/3/1 31/3/1
f 31/3/1 30/3/1 32/3/1
f 32/3/1 33/3/1 34/3/1
f 34/3/1 33/3/1 35/3/1
f 36/3/1 37/3/1 39/3/1
f 37/3/1 38/3/1 39/3/1
f 39/3/1 38/3/1 40/3/1
f 40/3/1 38/3/1 41/3/1
f 41/3/1 42/3/1 43/3/1
f 40/3/1 41/3/1 43/3/1
f 43/3/1 42/3/1 44/3/1
f 45/3/1 46/3/1 47/3/1
f 47/3/1 46/3/1 48/3/1
f 48/3/1 49/3/1 50/3/1
f 50/3/1 49/3/1 51/3/1
f 52/1/1 53/1/1 56/1/1
f 56/1/1 53/1/1 57/1/1
f 54/1/1 55/1/1 58/1/1
f 58/1/1 55/1/1 59/1/1
f 62/1/2 61/1/2 60/1/2
f 63/1/2 61/1/2 62/1/2
f 68/2/2 65/2/2 64/2/2
f 69/2/2 65/2/2 68/2/2
f 70/2/2 67/2/2 66/2/2
f 71/2/2 67/2/2 70/2/2
f 75/3/2 73/3/2 72/3/2
f 76/3/2 73/3/2 75/3/2
f 81/3/2 75/3/2 74/3/2
f 82/3/2 75/3/2 81/3/2
f 83/1/2 78/1/2 77/1/2
f 84/2/2 79/2/2 78/2/2
f 84/1/2 78/1/2 83/1/2
f 85/1/2 80/1/2 79/1/2
f 85/2/2 79/2/2 84/2/2
f 86/1/2 80/1/2 85/1/2
f 91/3/2 88/3/2 87/3/2
f 92/3/2 88/3/2 91/3/2
f 95/3/2 90/3/2 89/3/2
f 96/3/2 90/3/2 95/3/2
f 97/3/2 93/3/2 92/3/2
f 98/3/2 93/3/2 97/3/2
f 99/3/2 95/3/2 94/3/2
f 100/3/2 95/3/2 99/3/2
f 104/3/2 102/3/2 101/3/2
f 105/3/2 102/3/2 104/3/2
f 106/3/2 104/3/2 103/3/2
f 107/3/2 104/3/2 106/3/2
f 110/3/2 109/3/2 108/3/2
f 111/3/2 109/3/2 110/3/2
f 112/3/2 109/3/2 111/3/2
f 115/3/2 114/3/2 113/3/2
f 116/3/2 114/3/2 115/3/2
f 117/3/2 114/3/2 116/3/2
f 118/3/2 114/3/2 117/3/2
f 119/3/2 117/3/2 116/3/2
f 120/3/2 117/3/2 119/3/2
f 121/3/2 117/3/2 120/3/2
f 122/3/2 117/3/2 121/3/2
f 123/3/2 117/3/2 122/3/2
f 124/3/2 117/3/2 123/3/2
f 125/1/2 121/1/2 120/1/2
f 126/1/2 121/1/2 125/1/2
f 127/1/2 123/1/2 122/1/2
f 128/1/2 123/1/2 127/1/2
f 129/3/3 130/3/3 131/3/3
f 131/3/3 130/3/3 132/3/3
f 133/3/3 134/3/3 135/3/3
f 135/3/3 134/3/3 136/3/3
f 136/3/3 137/3/3 138/3/3
f 138/3/3 137/3/3 139/3/3
f 140/3/3 141/3/3 142/3/3
f 142/3/3 141/3/3 143/3/3
f 144/3/3 145/3/3 146/3/3
f 146/3/3 145/3/3 147/3/3
f 148/3/3 149/3/3 150/3/3
f 150/3/3 149/3/3 151/3/3
f 152/3/3 153/3/3 155/3/3
f 155/3/3 153/3/3 156/3/3
f 154/3/3 155/3/3 157/3/3
f 157/3/3 155/3/3 158/3/3
f 158/3/3 159/3/3 160/3/3
f 160/3/3 159/3/3 161/3/3
f 162/3/3 163/3/3 164/3/3
f 164/3/3 163/3/3 165/3/3
f 166/1/3 167/1/3 168/1/3
f 168/1/3 167/1/3 169/1/3
f 170/1/3 171/1/3 172/1/3
f 172/1/3 171/1/3 173/1/3
f 174/2/3 175/2/3 176/2/3
f 176/2/3 175/2/3 177/2/3
f 178/1/3 179/1/3 180/1/3
f 180/1/3 179/1/3 181/1/3
f 182/1/3 183/1/3 184/1/3
f 184/1/3 183/1/3 185/1/3
f 186/2/3 187/2/3 188/2/3
f 188/2/3 187/2/3 189/2/3
f 192/1/4 191/1/4 190/1/4
f 193/1/4 191/1/4 192/1/4
f 196/1/4 195/1/4 194/1/4
f 197/1/4 195/1/4 196/1/4
f 200/2/4 199/2/4 198/2/4
f 201/2/4 199/2/4 200/2/4
f 204/1/4 203/1/4 202/1/4
f 205/1/4 203/1/4 204/1/4
f 208/3/4 207/3/4 206/3/4
f 209/3/4 207/3/4 208/3/4
f 212/1/4 211/1/4 210/1/4
f 213/1/4 211/1/4 212/1/4
f 216/3/4 215/3/4 214/3/4
f 217/3/4 215/3/4 216/3/4
f 218/3/4 215/3/4 217/3/4
f 221/2/4 220/2/4 219/2/4
f 222/2/4 220/2/4 221/2/4
f 226/3/4 224/3/4 223/3/4
f 227/3/4 224/3/4 226/3/4
f 228/3/4 226/3/4 225/3/4
f 229/3/4 226/3/4 228/3/4
f 233/3/4 231/3/4 230/3/4
f 234/3/4 231/3/4 233/3/4
f 235/3/4 233/3/4 232/3/4
f 236/3/4 233/3/4 235/3/4
f 240/3/4 238/3/4 237/3/4
f 241/3/4 238/3/4 240/3/4
f 242/3/4 240/3/4 239/3/4
f 243/3/4 240/3/4 242/3/4
f 246/3/4 245/3/4 244/3/4
f 247/3/4 245/3/4 246/3/4
f 248/3/5 249/3/5 252/3/5
f 250/3/5 251/3/5 253/3/5
f 253/3/5 251/3/5 254/3/5
f 252/3/5 253/3/5 254/3/5
f 254/3/5 251/3/5 255/3/5
f 248/3/5 252/3/5 256/3/5
f 252/3/5 254/3/5 256/3/5
f 256/3/5 254/3/5 257/3/5
f 248/3/5 256/3/5 258/3/5
f 258/3/5 256/3/5 259/3/5
f 248/3/5 258/3/5 260/3/5
f 260/3/5 258/3/5 261/3/5
f 262/3/5 263/3/5 265/3/5
f 264/3/5 265/3/5 266/3/5
f 266/3/5 265/3/5 267/3/5
f 265/3/5 263/3/5 268/3/5
f 267/3/5 265/3/5 268/3/5
f 273/3/6 270/3/6 269/3/6
f 274/3/6 270/3/6 273/3/6
f 275/3/6 272/3/6 271/3/6
f 276/3/6 272/3/6 275/3/6
f 277/3/6 275/3/6 274/3/6
f 278/3/6 275/3/6 277/3/6
f 282/3/6 280/3/6 279/3/6
f 283/3/6 280/3/6 282/3/6
f 285/3/6 282/3/6 281/3/6
f 286/3/6 282/3/6 285/3/6
f 288/3/6 285/3/6 284/3/6
f 289/3/6 285/3/6 288/3/6
f 290/3/6 288/3/6 287/3/6
f 291/3/6 288/3/6 290/3/6
f 295/3/6 293/3/6 292/3/6
f 296/3/6 293/3/6 295/3/6
f 297/3/6 295/3/6 294/3/6
f 298/3/6 295/3/6 297/3/6
f 303/3/6 300/3/6 299/3/6
f 304/3/6 302/3/6 301/3/6
f 305/3/6 303/3/6 299/3/6
f 305/3/6 304/3/6 303/3/6
f 306/3/6 304/3/6 305/3/6
f 308/3/6 304/3/6 306/3/6
f 309/3/6 308/3/6 307/3/6
f 310/3/6 304/3/6 308/3/6
f 310/3/6 308/3/6 309/3/6
f 312/3/6 304/3/6 310/3/6
f 313/3/6 304/3/6 312/3/6
f 314/3/6 312/3/6 311/3/6
f 315/3/6 304/3/6 313/3/6
f 316/3/6 314/3/6 311/3/6
f 317/3/6 304/3/6 315/3/6
f 318/3/6 302/3/6 304/3/6
f 318/3/6 304/3/6 317/3/6
f 320/3/6 316/3/6 311/3/6
f 321/3/6 316/3/6 320/3/6
f 322/3/6 318/3/6 317/3/6
f 322/3/6 319/3/6 318/3/6
f 323/3/6 319/3/6 322/3/6
f 324/3/6 319/3/6 323/3/6
f 326/3/6 322/3/6 321/3/6
f 326/3/6 323/3/6 322/3/6
f 327/3/6 323/3/6 326/3/6
f 328/3/6 323/3/6 327/3/6
f 329/3/6 326/3/6 325/3/6
f 329/3/6 327/3/6 326/3/6
f 330/3/6 327/3/6 329/3/6
f 331/3/6 329/3/6 325/3/6
f 332/3/6 329/3/6 331/3/6
f 336/3/6 334/3/6 333/3/6
f 337/3/6 334/3/6 336/3/6
f 337/3/6 336/3/6 335/3/6
f 338/3/6 334/3/6 337/3/6
f 341/3/6 337/3/6 335/3/6
f 343/1/6 340/1/6 339/1/6
f 344/1/6 340/1/6 343/1/6
f 347/2/6 346/2/6 345/2/6
f 348/2/6 346/2/6 347/2/6
f 350/3/6 342/3/6 341/3/6
f 350/3/6 341/3/6 335/3/6
f 351/3/6 342/3/6 350/3/6
f 352/1/6 349/1/6 348/1/6
f 353/1/6 349/1/6 352/1/6
f 354/3/6 350/3/6 335/3/6
f 356/2/6 353/2/6 352/2/6
f 357/2/6 353/2/6 356/2/6
f 358/3/6 355/3/6 354/3/6
f 358/3/6 354/3/6 335/3/6
f 359/3/6 355/3/6 358/3/6
f 361/1/6 357/1/6 356/1/6
f 362/1/6 357/1/6 361/1/6
f 363/2/6 361/2/6 360/2/6
f 364/2/6 361/2/6 363/2/6
f 367/1/6 366/1/6 365/1/6
f 368/1/6 366/1/6 367/1/6
f 371/1/6 370/1/6 369/1/6
f 372/1/6 370/1/6 371/1/6
