# MagicaVoxel @ Ephtracy

# group
o CamoJet_Wing_R

# material
mtllib Extra-1-CamoJet_Wing_R.mtl
usemtl palette

# normals
vn -1 0 0
vn 1 0 0
vn 0 0 1
vn 0 0 -1
vn 0 -1 0
vn 0 1 0

# texcoords
vt 0.873047 0.5
vt 0.892578 0.5
vt 0.896484 0.5
vt 0.900391 0.5
vt 0.904297 0.5

# verts
v -3 -0.1 -0.7
v -3 -0.1 -0.9
v -3 -0.1 -1
v -3 -0.1 -1.1
v -3 -0.1 -1.3
v -3 -0.1 -1.7
v -3 0 -0.7
v -3 0 -0.9
v -3 0 -1
v -3 0 -1.1
v -3 0 -1.3
v -3 0 -1.7
v -2.9 0 -1.4
v -2.9 0 -1.5
v -2.9 0 -1.6
v -2.9 0.1 -1.4
v -2.9 0.1 -1.5
v -2.9 0.1 -1.6
v -2.8 -0.1 -0.6
v -2.8 -0.1 -0.7
v -2.8 0 -0.6
v -2.8 0 -0.7
v -2.6 -0.1 -0.5
v -2.6 -0.1 -0.6
v -2.6 0 -0.5
v -2.6 0 -0.6
v -2.4 -0.1 -0.4
v -2.4 -0.1 -0.5
v -2.4 0 -0.4
v -2.4 0 -0.5
v -2.2 -0.1 -0.3
v -2.2 -0.1 -0.4
v -2.2 0 -0.3
v -2.2 0 -0.4
v -2.1 -0.2 -0.2
v -2.1 -0.2 -0.4
v -2.1 -0.1 -0.3
v -2.1 -0.1 -0.4
v -2.1 0 -0.2
v -2.1 0 -0.3
v -2.1 0 -0.4
v -2.1 0 -0.5
v -2.1 0 -0.6
v -2.1 0 -0.7
v -2.1 0.1 -0.3
v -2.1 0.1 -0.5
v -2.1 0.1 -0.6
v -2.1 0.1 -0.7
v -1.9 -0.2 -0.1
v -1.9 -0.2 -0.3
v -1.9 -0.1 -0.3
v -1.9 0 -0.1
v -1.9 0 -0.3
v -2.9 -0.1 -1.6
v -2.9 -0.1 -1.7
v -2.9 0 -1.6
v -2.9 0 -1.7
v -2.8 -0.1 -1.5
v -2.8 -0.1 -1.6
v -2.8 0 -1.4
v -2.8 0 -1.5
v -2.8 0.1 -1.4
v -2.8 0.1 -1.5
v -2.8 0.1 -1.6
v -2.4 -0.1 -1.4
v -2.4 -0.1 -1.5
v -2.4 0 -1.4
v -2.4 0 -1.5
v -2 -0.2 -0.2
v -2 -0.2 -0.4
v -2 -0.1 -0.3
v -2 -0.1 -0.4
v -2 -0.1 -1.3
v -2 -0.1 -1.4
v -2 0 -0.2
v -2 0 -0.3
v -2 0 -0.5
v -2 0 -0.6
v -2 0 -0.7
v -2 0 -1.3
v -2 0 -1.4
v -2 0.1 -0.3
v -2 0.1 -0.5
v -2 0.1 -0.6
v -2 0.1 -0.7
v -1.8 -0.2 -0.1
v -1.8 -0.2 -0.3
v -1.8 -0.1 -0.1
v -1.8 -0.1 -0.3
v -1.4 -0.1 -0.1
v -1.4 -0.1 -0.9
v -1.4 -0.1 -1
v -1.4 -0.1 -1.3
v -1.4 0 -0.1
v -1.4 0 -0.9
v -1.4 0 -1
v -1.4 0 -1.3
v -1.9 -0.2 -0.1
v -1.9 0 -0.1
v -1.8 -0.2 -0.1
v -1.8 -0.1 -0.1
v -1.4 -0.1 -0.1
v -1.4 0 -0.1
v -2.1 -0.2 -0.2
v -2.1 0 -0.2
v -2 -0.2 -0.2
v -2 0 -0.2
v -2.2 -0.1 -0.3
v -2.2 0 -0.3
v -2.1 -0.1 -0.3
v -2.1 0 -0.3
v -2.1 0.1 -0.3
v -2 -0.1 -0.3
v -2 0 -0.3
v -2 0.1 -0.3
v -1.9 -0.1 -0.3
v -1.9 0 -0.3
v -2.4 -0.1 -0.4
v -2.4 0 -0.4
v -2.2 -0.1 -0.4
v -2.2 0 -0.4
v -2.6 -0.1 -0.5
v -2.6 0 -0.5
v -2.4 -0.1 -0.5
v -2.4 0 -0.5
v -2.8 -0.1 -0.6
v -2.8 0 -0.6
v -2.6 -0.1 -0.6
v -2.6 0 -0.6
v -3 -0.1 -0.7
v -3 0 -0.7
v -2.8 -0.1 -0.7
v -2.8 0 -0.7
v -2.9 0 -1.4
v -2.9 0.1 -1.4
v -2.8 0 -1.4
v -2.8 0.1 -1.4
v -1.9 -0.2 -0.3
v -1.9 -0.1 -0.3
v -1.8 -0.2 -0.3
v -1.8 -0.1 -0.3
v -2.1 -0.2 -0.4
v -2.1 -0.1 -0.4
v -2 -0.2 -0.4
v -2 -0.1 -0.4
v -2.1 0 -0.7
v -2.1 0.1 -0.7
v -2 0 -0.7
v -2 0.1 -0.7
v -2 -0.1 -1.3
v -2 0 -1.3
v -1.9 -0.1 -1.3
v -1.9 0 -1.3
v -1.6 -0.1 -1.3
v -1.6 0 -1.3
v -1.4 -0.1 -1.3
v -1.4 0 -1.3
v -2.4 -0.1 -1.4
v -2.4 0 -1.4
v -2.3 -0.1 -1.4
v -2.3 0 -1.4
v -2 -0.1 -1.4
v -2 0 -1.4
v -2.8 -0.1 -1.5
v -2.8 0 -1.5
v -2.4 -0.1 -1.5
v -2.4 0 -1.5
v -2.9 -0.1 -1.6
v -2.9 0 -1.6
v -2.9 0.1 -1.6
v -2.8 -0.1 -1.6
v -2.8 0.1 -1.6
v -3 -0.1 -1.7
v -3 0 -1.7
v -2.9 -0.1 -1.7
v -2.9 0 -1.7
v -1.9 -0.2 -0.1
v -1.8 -0.2 -0.1
v -2.1 -0.2 -0.2
v -2 -0.2 -0.2
v -1.9 -0.2 -0.3
v -1.8 -0.2 -0.3
v -2.1 -0.2 -0.4
v -2 -0.2 -0.4
v -1.8 -0.1 -0.1
v -1.4 -0.1 -0.1
v -2.2 -0.1 -0.3
v -2.1 -0.1 -0.3
v -2 -0.1 -0.3
v -1.9 -0.1 -0.3
v -1.8 -0.1 -0.3
v -2.4 -0.1 -0.4
v -2.2 -0.1 -0.4
v -2.1 -0.1 -0.4
v -2 -0.1 -0.4
v -2.6 -0.1 -0.5
v -2.4 -0.1 -0.5
v -2.2 -0.1 -0.5
v -1.8 -0.1 -0.5
v -1.7 -0.1 -0.5
v -2.8 -0.1 -0.6
v -2.6 -0.1 -0.6
v -2.4 -0.1 -0.6
v -2 -0.1 -0.6
v -1.8 -0.1 -0.6
v -3 -0.1 -0.7
v -2.8 -0.1 -0.7
v -2.6 -0.1 -0.7
v -2.1 -0.1 -0.7
v -2 -0.1 -0.7
v -1.9 -0.1 -0.7
v -1.7 -0.1 -0.7
v -2.9 -0.1 -0.8
v -2.8 -0.1 -0.8
v -2.2 -0.1 -0.8
v -1.9 -0.1 -0.8
v -3 -0.1 -0.9
v -2.9 -0.1 -0.9
v -2.5 -0.1 -0.9
v -2.2 -0.1 -0.9
v -1.9 -0.1 -0.9
v -1.4 -0.1 -0.9
v -3 -0.1 -1
v -2.9 -0.1 -1
v -2.8 -0.1 -1
v -2.5 -0.1 -1
v -2.2 -0.1 -1
v -1.9 -0.1 -1
v -1.6 -0.1 -1
v -1.4 -0.1 -1
v -3 -0.1 -1.1
v -2.9 -0.1 -1.1
v -2.8 -0.1 -1.1
v -2.5 -0.1 -1.1
v -2.2 -0.1 -1.1
v -2.8 -0.1 -1.2
v -2.5 -0.1 -1.2
v -1.9 -0.1 -1.2
v -1.6 -0.1 -1.2
v -3 -0.1 -1.3
v -2.9 -0.1 -1.3
v -2.8 -0.1 -1.3
v -2.3 -0.1 -1.3
v -2 -0.1 -1.3
v -1.9 -0.1 -1.3
v -1.6 -0.1 -1.3
v -1.4 -0.1 -1.3
v -2.9 -0.1 -1.4
v -2.8 -0.1 -1.4
v -2.4 -0.1 -1.4
v -2.3 -0.1 -1.4
v -2 -0.1 -1.4
v -2.8 -0.1 -1.5
v -2.4 -0.1 -1.5
v -2.9 -0.1 -1.6
v -2.8 -0.1 -1.6
v -3 -0.1 -1.7
v -2.9 -0.1 -1.7
v -1.9 0 -0.1
v -1.4 0 -0.1
v -2.1 0 -0.2
v -2 0 -0.2
v -2.2 0 -0.3
v -2.1 0 -0.3
v -2 0 -0.3
v -1.9 0 -0.3
v -2.4 0 -0.4
v -2.2 0 -0.4
v -2.1 0 -0.4
v -2.6 0 -0.5
v -2.4 0 -0.5
v -2.2 0 -0.5
v -2.1 0 -0.5
v -2 0 -0.5
v -1.8 0 -0.5
v -1.7 0 -0.5
v -2.8 0 -0.6
v -2.6 0 -0.6
v -2.4 0 -0.6
v -2.1 0 -0.6
v -2 0 -0.6
v -1.8 0 -0.6
v -3 0 -0.7
v -2.8 0 -0.7
v -2.6 0 -0.7
v -2.1 0 -0.7
v -2 0 -0.7
v -1.9 0 -0.7
v -1.7 0 -0.7
v -2.9 0 -0.8
v -2.8 0 -0.8
v -2.2 0 -0.8
v -1.9 0 -0.8
v -3 0 -0.9
v -2.9 0 -0.9
v -2.5 0 -0.9
v -2.2 0 -0.9
v -1.9 0 -0.9
v -1.4 0 -0.9
v -3 0 -1
v -2.9 0 -1
v -2.8 0 -1
v -2.5 0 -1
v -2.2 0 -1
v -1.9 0 -1
v -1.6 0 -1
v -1.4 0 -1
v -3 0 -1.1
v -2.9 0 -1.1
v -2.8 0 -1.1
v -2.5 0 -1.1
v -2.2 0 -1.1
v -2.8 0 -1.2
v -2.5 0 -1.2
v -1.9 0 -1.2
v -1.6 0 -1.2
v -3 0 -1.3
v -2.9 0 -1.3
v -2.8 0 -1.3
v -2.3 0 -1.3
v -2 0 -1.3
v -1.9 0 -1.3
v -1.6 0 -1.3
v -1.4 0 -1.3
v -2.9 0 -1.4
v -2.8 0 -1.4
v -2.4 0 -1.4
v -2.3 0 -1.4
v -2 0 -1.4
v -2.9 0 -1.5
v -2.8 0 -1.5
v -2.4 0 -1.5
v -2.9 0 -1.6
v -3 0 -1.7
v -2.9 0 -1.7
v -2.1 0.1 -0.3
v -2 0.1 -0.3
v -2.1 0.1 -0.5
v -2 0.1 -0.5
v -2.1 0.1 -0.6
v -2 0.1 -0.6
v -2.1 0.1 -0.7
v -2 0.1 -0.7
v -2.9 0.1 -1.4
v -2.8 0.1 -1.4
v -2.9 0.1 -1.5
v -2.8 0.1 -1.5
v -2.9 0.1 -1.6
v -2.8 0.1 -1.6

# faces
f 7/2/1 2/2/1 1/2/1
f 8/3/1 3/3/1 2/3/1
f 8/2/1 2/2/1 7/2/1
f 9/2/1 4/2/1 3/2/1
f 9/3/1 3/3/1 8/3/1
f 10/5/1 5/5/1 4/5/1
f 10/2/1 4/2/1 9/2/1
f 11/3/1 6/3/1 5/3/1
f 11/5/1 5/5/1 10/5/1
f 12/3/1 6/3/1 11/3/1
f 16/1/1 14/1/1 13/1/1
f 17/4/1 15/4/1 14/4/1
f 17/1/1 14/1/1 16/1/1
f 18/4/1 15/4/1 17/4/1
f 21/2/1 20/2/1 19/2/1
f 22/2/1 20/2/1 21/2/1
f 25/2/1 24/2/1 23/2/1
f 26/2/1 24/2/1 25/2/1
f 29/2/1 28/2/1 27/2/1
f 30/2/1 28/2/1 29/2/1
f 33/2/1 32/2/1 31/2/1
f 34/2/1 32/2/1 33/2/1
f 37/4/1 36/4/1 35/4/1
f 38/4/1 36/4/1 37/4/1
f 39/4/1 37/4/1 35/4/1
f 40/4/1 37/4/1 39/4/1
f 45/2/1 41/2/1 40/2/1
f 45/2/1 42/2/1 41/2/1
f 46/4/1 43/4/1 42/4/1
f 46/2/1 42/2/1 45/2/1
f 47/2/1 44/2/1 43/2/1
f 47/4/1 43/4/1 46/4/1
f 48/2/1 44/2/1 47/2/1
f 51/4/1 50/4/1 49/4/1
f 52/4/1 51/4/1 49/4/1
f 53/4/1 51/4/1 52/4/1
f 54/3/2 55/3/2 56/3/2
f 56/3/2 55/3/2 57/3/2
f 58/4/2 59/4/2 61/4/2
f 60/1/2 61/1/2 62/1/2
f 61/4/2 59/4/2 63/4/2
f 62/1/2 61/1/2 63/1/2
f 63/4/2 59/4/2 64/4/2
f 65/3/2 66/3/2 67/3/2
f 67/3/2 66/3/2 68/3/2
f 69/4/2 70/4/2 71/4/2
f 71/4/2 70/4/2 72/4/2
f 69/4/2 71/4/2 75/4/2
f 75/4/2 71/4/2 76/4/2
f 73/2/2 74/2/2 80/2/2
f 80/2/2 74/2/2 81/2/2
f 76/2/2 77/2/2 82/2/2
f 77/4/2 78/4/2 83/4/2
f 82/2/2 77/2/2 83/2/2
f 78/2/2 79/2/2 84/2/2
f 83/4/2 78/4/2 84/4/2
f 84/2/2 79/2/2 85/2/2
f 86/4/2 87/4/2 88/4/2
f 88/4/2 87/4/2 89/4/2
f 90/4/2 91/4/2 94/4/2
f 91/3/2 92/3/2 95/3/2
f 94/4/2 91/4/2 95/4/2
f 92/4/2 93/4/2 96/4/2
f 95/3/2 92/3/2 96/3/2
f 96/4/2 93/4/2 97/4/2
f 100/4/3 99/4/3 98/4/3
f 101/4/3 99/4/3 100/4/3
f 102/4/3 99/4/3 101/4/3
f 103/4/3 99/4/3 102/4/3
f 106/4/3 105/4/3 104/4/3
f 107/4/3 105/4/3 106/4/3
f 110/2/3 109/2/3 108/2/3
f 111/2/3 109/2/3 110/2/3
f 114/2/3 112/2/3 111/2/3
f 115/2/3 112/2/3 114/2/3
f 116/4/3 114/4/3 113/4/3
f 117/4/3 114/4/3 116/4/3
f 120/2/3 119/2/3 118/2/3
f 121/2/3 119/2/3 120/2/3
f 124/2/3 123/2/3 122/2/3
f 125/2/3 123/2/3 124/2/3
f 128/2/3 127/2/3 126/2/3
f 129/2/3 127/2/3 128/2/3
f 132/2/3 131/2/3 130/2/3
f 133/2/3 131/2/3 132/2/3
f 136/1/3 135/1/3 134/1/3
f 137/1/3 135/1/3 136/1/3
f 138/4/4 139/4/4 140/4/4
f 140/4/4 139/4/4 141/4/4
f 142/4/4 143/4/4 144/4/4
f 144/4/4 143/4/4 145/4/4
f 146/2/4 147/2/4 148/2/4
f 148/2/4 147/2/4 149/2/4
f 150/3/4 151/3/4 152/3/4
f 152/3/4 151/3/4 153/3/4
f 152/2/4 153/2/4 154/2/4
f 154/2/4 153/2/4 155/2/4
f 154/4/4 155/4/4 156/4/4
f 156/4/4 155/4/4 157/4/4
f 158/3/4 159/3/4 160/3/4
f 160/3/4 159/3/4 161/3/4
f 160/2/4 161/2/4 162/2/4
f 162/2/4 161/2/4 163/2/4
f 164/3/4 165/3/4 166/3/4
f 166/3/4 165/3/4 167/3/4
f 168/4/4 169/4/4 171/4/4
f 169/4/4 170/4/4 171/4/4
f 171/4/4 170/4/4 172/4/4
f 173/3/4 174/3/4 175/3/4
f 175/3/4 174/3/4 176/3/4
f 181/4/5 178/4/5 177/4/5
f 182/4/5 178/4/5 181/4/5
f 183/4/5 180/4/5 179/4/5
f 184/4/5 180/4/5 183/4/5
f 191/4/5 186/4/5 185/4/5
f 193/2/5 188/2/5 187/2/5
f 194/2/5 188/2/5 193/2/5
f 195/4/5 190/4/5 189/4/5
f 195/4/5 191/4/5 190/4/5
f 197/2/5 193/2/5 192/2/5
f 198/3/5 194/3/5 193/3/5
f 198/2/5 193/2/5 197/2/5
f 199/4/5 195/4/5 194/4/5
f 199/4/5 186/4/5 191/4/5
f 199/4/5 191/4/5 195/4/5
f 200/4/5 186/4/5 199/4/5
f 202/2/5 197/2/5 196/2/5
f 203/3/5 198/3/5 197/3/5
f 203/2/5 197/2/5 202/2/5
f 204/4/5 199/4/5 194/4/5
f 205/3/5 200/3/5 199/3/5
f 205/4/5 199/4/5 204/4/5
f 207/2/5 202/2/5 201/2/5
f 208/3/5 203/3/5 202/3/5
f 208/2/5 202/2/5 207/2/5
f 209/3/5 194/3/5 198/3/5
f 209/3/5 203/3/5 208/3/5
f 209/3/5 198/3/5 203/3/5
f 209/4/5 204/4/5 194/4/5
f 210/3/5 205/3/5 204/3/5
f 210/4/5 204/4/5 209/4/5
f 211/3/5 205/3/5 210/3/5
f 212/4/5 186/4/5 200/4/5
f 212/3/5 205/3/5 211/3/5
f 212/3/5 200/3/5 205/3/5
f 213/2/5 207/2/5 206/2/5
f 214/3/5 211/3/5 210/3/5
f 214/2/5 207/2/5 213/2/5
f 214/3/5 208/3/5 207/3/5
f 214/3/5 210/3/5 209/3/5
f 214/3/5 209/3/5 208/3/5
f 215/3/5 211/3/5 214/3/5
f 216/4/5 212/4/5 211/4/5
f 216/3/5 211/3/5 215/3/5
f 217/2/5 213/2/5 206/2/5
f 218/3/5 215/3/5 214/3/5
f 218/2/5 213/2/5 217/2/5
f 218/3/5 214/3/5 213/3/5
f 219/3/5 215/3/5 218/3/5
f 220/4/5 216/4/5 215/4/5
f 220/3/5 215/3/5 219/3/5
f 221/4/5 212/4/5 216/4/5
f 221/4/5 216/4/5 220/4/5
f 222/4/5 186/4/5 212/4/5
f 222/4/5 212/4/5 221/4/5
f 223/3/5 219/3/5 218/3/5
f 223/3/5 218/3/5 217/3/5
f 224/3/5 219/3/5 223/3/5
f 225/3/5 219/3/5 224/3/5
f 226/4/5 220/4/5 219/4/5
f 226/3/5 219/3/5 225/3/5
f 226/4/5 221/4/5 220/4/5
f 227/4/5 221/4/5 226/4/5
f 228/3/5 222/3/5 221/3/5
f 228/4/5 221/4/5 227/4/5
f 229/3/5 222/3/5 228/3/5
f 230/3/5 222/3/5 229/3/5
f 231/2/5 224/2/5 223/2/5
f 232/3/5 225/3/5 224/3/5
f 232/2/5 224/2/5 231/2/5
f 233/4/5 227/4/5 226/4/5
f 233/3/5 225/3/5 232/3/5
f 233/4/5 226/4/5 225/4/5
f 234/4/5 227/4/5 233/4/5
f 235/3/5 228/3/5 227/3/5
f 235/4/5 227/4/5 234/4/5
f 235/3/5 229/3/5 228/3/5
f 236/4/5 234/4/5 233/4/5
f 236/4/5 233/4/5 232/4/5
f 237/3/5 235/3/5 234/3/5
f 237/4/5 234/4/5 236/4/5
f 238/3/5 229/3/5 235/3/5
f 238/3/5 235/3/5 237/3/5
f 239/4/5 230/4/5 229/4/5
f 239/3/5 229/3/5 238/3/5
f 240/5/5 232/5/5 231/5/5
f 241/4/5 236/4/5 232/4/5
f 241/5/5 232/5/5 240/5/5
f 242/3/5 238/3/5 237/3/5
f 242/4/5 236/4/5 241/4/5
f 242/3/5 237/3/5 236/3/5
f 243/3/5 238/3/5 242/3/5
f 244/3/5 238/3/5 243/3/5
f 245/2/5 239/2/5 238/2/5
f 245/3/5 238/3/5 244/3/5
f 246/4/5 230/4/5 239/4/5
f 246/2/5 239/2/5 245/2/5
f 247/4/5 230/4/5 246/4/5
f 248/3/5 241/3/5 240/3/5
f 248/3/5 243/3/5 242/3/5
f 248/3/5 242/3/5 241/3/5
f 249/3/5 243/3/5 248/3/5
f 250/3/5 243/3/5 249/3/5
f 251/2/5 244/2/5 243/2/5
f 251/3/5 243/3/5 250/3/5
f 252/2/5 244/2/5 251/2/5
f 253/3/5 250/3/5 249/3/5
f 253/4/5 249/4/5 248/4/5
f 254/3/5 250/3/5 253/3/5
f 255/3/5 248/3/5 240/3/5
f 255/4/5 253/4/5 248/4/5
f 256/4/5 253/4/5 255/4/5
f 257/3/5 255/3/5 240/3/5
f 258/3/5 255/3/5 257/3/5
f 261/4/6 262/4/6 264/4/6
f 264/4/6 262/4/6 265/4/6
f 259/4/6 260/4/6 266/4/6
f 263/2/6 264/2/6 268/2/6
f 268/2/6 264/2/6 269/2/6
f 267/2/6 268/2/6 271/2/6
f 268/3/6 269/3/6 272/3/6
f 271/2/6 268/2/6 272/2/6
f 272/3/6 269/3/6 273/3/6
f 265/4/6 266/4/6 274/4/6
f 266/4/6 260/4/6 275/4/6
f 274/4/6 266/4/6 275/4/6
f 275/4/6 260/4/6 276/4/6
f 270/2/6 271/2/6 278/2/6
f 272/3/6 273/3/6 279/3/6
f 271/3/6 272/3/6 279/3/6
f 278/2/6 271/2/6 279/2/6
f 279/3/6 273/3/6 280/3/6
f 274/4/6 275/4/6 281/4/6
f 275/3/6 276/3/6 282/3/6
f 281/4/6 275/4/6 282/4/6
f 277/2/6 278/2/6 284/2/6
f 279/3/6 280/3/6 285/3/6
f 278/3/6 279/3/6 285/3/6
f 284/2/6 278/2/6 285/2/6
f 285/3/6 280/3/6 286/3/6
f 281/3/6 282/3/6 287/3/6
f 287/3/6 282/3/6 288/3/6
f 282/3/6 276/3/6 289/3/6
f 288/3/6 282/3/6 289/3/6
f 276/4/6 260/4/6 289/4/6
f 283/2/6 284/2/6 290/2/6
f 287/3/6 288/3/6 291/3/6
f 290/2/6 284/2/6 291/2/6
f 286/3/6 287/3/6 291/3/6
f 285/3/6 286/3/6 291/3/6
f 284/3/6 285/3/6 291/3/6
f 291/3/6 288/3/6 292/3/6
f 288/4/6 289/4/6 293/4/6
f 292/3/6 288/3/6 293/3/6
f 283/2/6 290/2/6 294/2/6
f 291/3/6 292/3/6 295/3/6
f 294/2/6 290/2/6 295/2/6
f 290/3/6 291/3/6 295/3/6
f 295/3/6 292/3/6 296/3/6
f 292/4/6 293/4/6 297/4/6
f 296/3/6 292/3/6 297/3/6
f 293/4/6 289/4/6 298/4/6
f 297/4/6 293/4/6 298/4/6
f 289/4/6 260/4/6 299/4/6
f 298/4/6 289/4/6 299/4/6
f 295/3/6 296/3/6 300/3/6
f 294/3/6 295/3/6 300/3/6
f 300/3/6 296/3/6 301/3/6
f 301/3/6 296/3/6 302/3/6
f 296/4/6 297/4/6 303/4/6
f 302/3/6 296/3/6 303/3/6
f 297/4/6 298/4/6 303/4/6
f 303/4/6 298/4/6 304/4/6
f 298/3/6 299/3/6 305/3/6
f 304/4/6 298/4/6 305/4/6
f 305/3/6 299/3/6 306/3/6
f 306/3/6 299/3/6 307/3/6
f 300/2/6 301/2/6 308/2/6
f 301/3/6 302/3/6 309/3/6
f 308/2/6 301/2/6 309/2/6
f 303/4/6 304/4/6 310/4/6
f 309/3/6 302/3/6 310/3/6
f 302/4/6 303/4/6 310/4/6
f 310/4/6 304/4/6 311/4/6
f 304/3/6 305/3/6 312/3/6
f 311/4/6 304/4/6 312/4/6
f 305/3/6 306/3/6 312/3/6
f 310/4/6 311/4/6 313/4/6
f 309/4/6 310/4/6 313/4/6
f 311/3/6 312/3/6 314/3/6
f 313/4/6 311/4/6 314/4/6
f 312/3/6 306/3/6 315/3/6
f 314/3/6 312/3/6 315/3/6
f 306/4/6 307/4/6 316/4/6
f 315/3/6 306/3/6 316/3/6
f 308/5/6 309/5/6 317/5/6
f 309/4/6 313/4/6 318/4/6
f 317/5/6 309/5/6 318/5/6
f 314/3/6 315/3/6 319/3/6
f 318/4/6 313/4/6 319/4/6
f 313/3/6 314/3/6 319/3/6
f 319/3/6 315/3/6 320/3/6
f 320/3/6 315/3/6 321/3/6
f 315/2/6 316/2/6 322/2/6
f 321/3/6 315/3/6 322/3/6
f 316/4/6 307/4/6 323/4/6
f 322/2/6 316/2/6 323/2/6
f 323/4/6 307/4/6 324/4/6
f 317/3/6 318/3/6 325/3/6
f 319/3/6 320/3/6 325/3/6
f 318/3/6 319/3/6 325/3/6
f 325/3/6 320/3/6 326/3/6
f 326/3/6 320/3/6 327/3/6
f 320/2/6 321/2/6 328/2/6
f 327/3/6 320/3/6 328/3/6
f 328/2/6 321/2/6 329/2/6
f 317/3/6 325/3/6 330/3/6
f 326/3/6 327/3/6 331/3/6
f 331/3/6 327/3/6 332/3/6
f 317/3/6 330/3/6 333/3/6
f 317/3/6 333/3/6 334/3/6
f 334/3/6 333/3/6 335/3/6
f 336/2/6 337/2/6 338/2/6
f 338/2/6 337/2/6 339/2/6
f 338/4/6 339/4/6 340/4/6
f 340/4/6 339/4/6 341/4/6
f 340/2/6 341/2/6 342/2/6
f 342/2/6 341/2/6 343/2/6
f 344/1/6 345/1/6 346/1/6
f 346/1/6 345/1/6 347/1/6
f 346/4/6 347/4/6 348/4/6
f 348/4/6 347/4/6 349/4/6
