# MagicaVoxel @ Ephtracy

# group
o CamoJet_Winglet_L

# material
mtllib Extra-3-CamoJet_Winglet_L.mtl
usemtl palette

# normals
vn -1 0 0
vn 1 0 0
vn 0 0 1
vn 0 0 -1
vn 0 -1 0
vn 0 1 0

# texcoords
vt 0.896484 0.5
vt 0.900391 0.5
vt 0.904297 0.5

# verts
v 1.4 -0.3 -0.8
v 1.4 -0.3 -1.3
v 1.4 -0.2 -0.8
v 1.4 -0.2 -1.3
v 1.6 -0.3 -1.3
v 1.6 -0.3 -1.4
v 1.6 -0.2 -1.3
v 1.6 -0.2 -1.4
v 1.7 -0.3 -1.4
v 1.7 -0.3 -1.5
v 1.7 -0.2 -1.4
v 1.7 -0.2 -1.5
v 1.8 -0.4 -1.2
v 1.8 -0.4 -1.4
v 1.8 -0.4 -1.5
v 1.8 -0.4 -1.6
v 1.8 -0.3 -1.2
v 1.8 -0.3 -1.3
v 1.8 -0.3 -1.4
v 1.8 -0.3 -1.5
v 1.8 -0.3 -1.6
v 1.9 -0.4 -1.6
v 1.9 -0.4 -1.7
v 1.9 -0.3 -1.6
v 1.9 -0.3 -1.7
v 1.5 -0.3 -0.8
v 1.5 -0.3 -0.9
v 1.5 -0.2 -0.8
v 1.5 -0.2 -0.9
v 1.6 -0.3 -0.9
v 1.6 -0.3 -1
v 1.6 -0.2 -0.9
v 1.6 -0.2 -1
v 1.7 -0.3 -1
v 1.7 -0.3 -1.1
v 1.7 -0.2 -1
v 1.7 -0.2 -1.1
v 1.8 -0.3 -1.1
v 1.8 -0.3 -1.2
v 1.8 -0.3 -1.3
v 1.8 -0.3 -1.4
v 1.8 -0.3 -1.5
v 1.8 -0.2 -1.1
v 1.8 -0.2 -1.3
v 1.8 -0.2 -1.4
v 1.8 -0.2 -1.5
v 1.9 -0.4 -1.2
v 1.9 -0.4 -1.3
v 1.9 -0.3 -1.2
v 1.9 -0.3 -1.3
v 2 -0.4 -1.3
v 2 -0.4 -1.5
v 2 -0.4 -1.6
v 2 -0.4 -1.7
v 2 -0.3 -1.3
v 2 -0.3 -1.5
v 2 -0.3 -1.6
v 2 -0.3 -1.7
v 1.4 -0.3 -0.8
v 1.4 -0.2 -0.8
v 1.5 -0.3 -0.8
v 1.5 -0.2 -0.8
v 1.5 -0.3 -0.9
v 1.5 -0.2 -0.9
v 1.6 -0.3 -0.9
v 1.6 -0.2 -0.9
v 1.6 -0.3 -1
v 1.6 -0.2 -1
v 1.7 -0.3 -1
v 1.7 -0.2 -1
v 1.7 -0.3 -1.1
v 1.7 -0.2 -1.1
v 1.8 -0.3 -1.1
v 1.8 -0.2 -1.1
v 1.8 -0.4 -1.2
v 1.8 -0.3 -1.2
v 1.9 -0.4 -1.2
v 1.9 -0.3 -1.2
v 1.9 -0.4 -1.3
v 1.9 -0.3 -1.3
v 2 -0.4 -1.3
v 2 -0.3 -1.3
v 1.4 -0.3 -1.3
v 1.4 -0.2 -1.3
v 1.6 -0.3 -1.3
v 1.6 -0.2 -1.3
v 1.6 -0.3 -1.4
v 1.6 -0.2 -1.4
v 1.7 -0.3 -1.4
v 1.7 -0.2 -1.4
v 1.7 -0.3 -1.5
v 1.7 -0.2 -1.5
v 1.8 -0.3 -1.5
v 1.8 -0.2 -1.5
v 1.8 -0.4 -1.6
v 1.8 -0.3 -1.6
v 1.9 -0.4 -1.6
v 1.9 -0.3 -1.6
v 1.9 -0.4 -1.7
v 1.9 -0.3 -1.7
v 2 -0.4 -1.7
v 2 -0.3 -1.7
v 1.8 -0.4 -1.2
v 1.9 -0.4 -1.2
v 1.9 -0.4 -1.3
v 2 -0.4 -1.3
v 1.8 -0.4 -1.4
v 1.9 -0.4 -1.4
v 1.8 -0.4 -1.5
v 1.9 -0.4 -1.5
v 2 -0.4 -1.5
v 1.8 -0.4 -1.6
v 1.9 -0.4 -1.6
v 2 -0.4 -1.6
v 1.9 -0.4 -1.7
v 2 -0.4 -1.7
v 1.4 -0.3 -0.8
v 1.5 -0.3 -0.8
v 1.5 -0.3 -0.9
v 1.6 -0.3 -0.9
v 1.6 -0.3 -1
v 1.7 -0.3 -1
v 1.7 -0.3 -1.1
v 1.8 -0.3 -1.1
v 1.6 -0.3 -1.2
v 1.7 -0.3 -1.2
v 1.8 -0.3 -1.2
v 1.4 -0.3 -1.3
v 1.6 -0.3 -1.3
v 1.7 -0.3 -1.3
v 1.8 -0.3 -1.3
v 1.6 -0.3 -1.4
v 1.7 -0.3 -1.4
v 1.8 -0.3 -1.4
v 1.7 -0.3 -1.5
v 1.8 -0.3 -1.5
v 1.8 -0.3 -1.2
v 1.9 -0.3 -1.2
v 1.8 -0.3 -1.3
v 1.9 -0.3 -1.3
v 2 -0.3 -1.3
v 1.8 -0.3 -1.4
v 1.9 -0.3 -1.4
v 1.8 -0.3 -1.5
v 1.9 -0.3 -1.5
v 2 -0.3 -1.5
v 1.8 -0.3 -1.6
v 1.9 -0.3 -1.6
v 2 -0.3 -1.6
v 1.9 -0.3 -1.7
v 2 -0.3 -1.7
v 1.4 -0.2 -0.8
v 1.5 -0.2 -0.8
v 1.5 -0.2 -0.9
v 1.6 -0.2 -0.9
v 1.6 -0.2 -1
v 1.7 -0.2 -1
v 1.7 -0.2 -1.1
v 1.8 -0.2 -1.1
v 1.6 -0.2 -1.2
v 1.7 -0.2 -1.2
v 1.4 -0.2 -1.3
v 1.6 -0.2 -1.3
v 1.7 -0.2 -1.3
v 1.8 -0.2 -1.3
v 1.6 -0.2 -1.4
v 1.7 -0.2 -1.4
v 1.8 -0.2 -1.4
v 1.7 -0.2 -1.5
v 1.8 -0.2 -1.5

# faces
f 3/2/1 2/2/1 1/2/1
f 4/2/1 2/2/1 3/2/1
f 7/3/1 6/3/1 5/3/1
f 8/3/1 6/3/1 7/3/1
f 11/3/1 10/3/1 9/3/1
f 12/3/1 10/3/1 11/3/1
f 17/1/1 14/1/1 13/1/1
f 18/1/1 14/1/1 17/1/1
f 19/2/1 15/2/1 14/2/1
f 19/1/1 14/1/1 18/1/1
f 20/3/1 16/3/1 15/3/1
f 20/2/1 15/2/1 19/2/1
f 21/3/1 16/3/1 20/3/1
f 24/3/1 23/3/1 22/3/1
f 25/3/1 23/3/1 24/3/1
f 26/2/2 27/2/2 28/2/2
f 28/2/2 27/2/2 29/2/2
f 30/2/2 31/2/2 32/2/2
f 32/2/2 31/2/2 33/2/2
f 34/1/2 35/1/2 36/1/2
f 36/1/2 35/1/2 37/1/2
f 38/1/2 39/1/2 43/1/2
f 39/1/2 40/1/2 43/1/2
f 40/2/2 41/2/2 44/2/2
f 43/1/2 40/1/2 44/1/2
f 41/3/2 42/3/2 45/3/2
f 44/2/2 41/2/2 45/2/2
f 45/3/2 42/3/2 46/3/2
f 47/1/2 48/1/2 49/1/2
f 49/1/2 48/1/2 50/1/2
f 51/1/2 52/1/2 55/1/2
f 52/2/2 53/2/2 56/2/2
f 55/1/2 52/1/2 56/1/2
f 53/3/2 54/3/2 57/3/2
f 56/2/2 53/2/2 57/2/2
f 57/3/2 54/3/2 58/3/2
f 61/2/3 60/2/3 59/2/3
f 62/2/3 60/2/3 61/2/3
f 65/2/3 64/2/3 63/2/3
f 66/2/3 64/2/3 65/2/3
f 69/1/3 68/1/3 67/1/3
f 70/1/3 68/1/3 69/1/3
f 73/1/3 72/1/3 71/1/3
f 74/1/3 72/1/3 73/1/3
f 77/1/3 76/1/3 75/1/3
f 78/1/3 76/1/3 77/1/3
f 81/1/3 80/1/3 79/1/3
f 82/1/3 80/1/3 81/1/3
f 83/2/4 84/2/4 85/2/4
f 85/2/4 84/2/4 86/2/4
f 87/3/4 88/3/4 89/3/4
f 89/3/4 88/3/4 90/3/4
f 91/3/4 92/3/4 93/3/4
f 93/3/4 92/3/4 94/3/4
f 95/3/4 96/3/4 97/3/4
f 97/3/4 96/3/4 98/3/4
f 99/3/4 100/3/4 101/3/4
f 101/3/4 100/3/4 102/3/4
f 105/1/5 104/1/5 103/1/5
f 107/1/5 105/1/5 103/1/5
f 107/1/5 106/1/5 105/1/5
f 108/1/5 106/1/5 107/1/5
f 109/2/5 108/2/5 107/2/5
f 110/1/5 106/1/5 108/1/5
f 110/2/5 108/2/5 109/2/5
f 111/1/5 106/1/5 110/1/5
f 112/3/5 110/3/5 109/3/5
f 113/2/5 111/2/5 110/2/5
f 113/3/5 110/3/5 112/3/5
f 114/2/5 111/2/5 113/2/5
f 115/3/5 114/3/5 113/3/5
f 116/3/5 114/3/5 115/3/5
f 119/2/5 118/2/5 117/2/5
f 121/2/5 120/2/5 119/2/5
f 123/1/5 122/1/5 121/1/5
f 125/2/5 121/2/5 119/2/5
f 125/1/5 124/1/5 123/1/5
f 125/1/5 123/1/5 121/1/5
f 126/1/5 124/1/5 125/1/5
f 127/1/5 124/1/5 126/1/5
f 128/2/5 119/2/5 117/2/5
f 128/2/5 125/2/5 119/2/5
f 128/2/5 126/2/5 125/2/5
f 129/2/5 126/2/5 128/2/5
f 130/1/5 127/1/5 126/1/5
f 130/2/5 126/2/5 129/2/5
f 131/1/5 127/1/5 130/1/5
f 132/3/5 130/3/5 129/3/5
f 133/2/5 131/2/5 130/2/5
f 133/3/5 130/3/5 132/3/5
f 134/2/5 131/2/5 133/2/5
f 135/3/5 134/3/5 133/3/5
f 136/3/5 134/3/5 135/3/5
f 137/1/6 138/1/6 139/1/6
f 139/1/6 138/1/6 140/1/6
f 139/1/6 140/1/6 142/1/6
f 140/1/6 141/1/6 142/1/6
f 142/1/6 141/1/6 143/1/6
f 142/2/6 143/2/6 144/2/6
f 143/1/6 141/1/6 145/1/6
f 144/2/6 143/2/6 145/2/6
f 145/1/6 141/1/6 146/1/6
f 144/3/6 145/3/6 147/3/6
f 145/2/6 146/2/6 148/2/6
f 147/3/6 145/3/6 148/3/6
f 148/2/6 146/2/6 149/2/6
f 148/3/6 149/3/6 150/3/6
f 150/3/6 149/3/6 151/3/6
f 152/2/6 153/2/6 154/2/6
f 154/2/6 155/2/6 156/2/6
f 156/1/6 157/1/6 158/1/6
f 154/2/6 156/2/6 160/2/6
f 158/1/6 159/1/6 160/1/6
f 156/1/6 158/1/6 160/1/6
f 160/1/6 159/1/6 161/1/6
f 152/2/6 154/2/6 162/2/6
f 154/2/6 160/2/6 162/2/6
f 160/2/6 161/2/6 162/2/6
f 162/2/6 161/2/6 163/2/6
f 161/1/6 159/1/6 164/1/6
f 163/2/6 161/2/6 164/2/6
f 164/1/6 159/1/6 165/1/6
f 163/3/6 164/3/6 166/3/6
f 164/2/6 165/2/6 167/2/6
f 166/3/6 164/3/6 167/3/6
f 167/2/6 165/2/6 168/2/6
f 167/3/6 168/3/6 169/3/6
f 169/3/6 168/3/6 170/3/6
