# MagicaVoxel @ Ephtracy

# group
o CamoJet_MachineGuns

# material
mtllib Extra-14-CamoJet_MachineGuns.mtl
usemtl palette

# normals
vn -1 0 0
vn 1 0 0
vn 0 0 1
vn 0 0 -1
vn 0 -1 0
vn 0 1 0

# texcoords
vt 0.873047 0.5
vt 0.947266 0.5

# verts
v -0.7 -0.6 -1.3
v -0.7 -0.6 -1.4
v -0.7 -0.4 -1.3
v -0.7 -0.4 -1.4
v -0.5 -0.6 -0.2
v -0.5 -0.6 -0.3
v -0.5 -0.5 -0.2
v -0.5 -0.5 -0.3
v -0.4 -0.8 -0.2
v -0.4 -0.8 -0.3
v -0.4 -0.7 -0.2
v -0.4 -0.7 -0.3
v -0.4 -0.7 -1.2
v -0.4 -0.7 -1.5
v -0.4 -0.6 -0.1
v -0.4 -0.6 -0.2
v -0.4 -0.6 -0.3
v -0.4 -0.6 -1.2
v -0.4 -0.6 -1.3
v -0.4 -0.6 -1.4
v -0.4 -0.6 -1.5
v -0.4 -0.6 -1.6
v -0.4 -0.5 -0.1
v -0.4 -0.5 -0.2
v -0.4 -0.5 -0.3
v -0.4 -0.5 -1.3
v -0.4 -0.5 -1.4
v -0.4 -0.5 -1.6
v 0.3 -0.8 -0.2
v 0.3 -0.8 -0.3
v 0.3 -0.7 -0.2
v 0.3 -0.7 -0.3
v 0.3 -0.7 -1.2
v 0.3 -0.7 -1.5
v 0.3 -0.6 -0.1
v 0.3 -0.6 -0.2
v 0.3 -0.6 -0.3
v 0.3 -0.6 -1.2
v 0.3 -0.6 -1.3
v 0.3 -0.6 -1.4
v 0.3 -0.6 -1.5
v 0.3 -0.6 -1.6
v 0.3 -0.5 -0.1
v 0.3 -0.5 -0.2
v 0.3 -0.5 -1.3
v 0.3 -0.5 -1.4
v 0.3 -0.5 -1.6
v 0.6 -0.5 -1.3
v 0.6 -0.5 -1.4
v 0.6 -0.4 -1.3
v 0.6 -0.4 -1.4
v -0.6 -0.5 -1.3
v -0.6 -0.5 -1.4
v -0.6 -0.4 -1.3
v -0.6 -0.4 -1.4
v -0.3 -0.8 -0.2
v -0.3 -0.8 -0.3
v -0.3 -0.7 -0.2
v -0.3 -0.7 -0.3
v -0.3 -0.7 -1.2
v -0.3 -0.7 -1.5
v -0.3 -0.6 -0.1
v -0.3 -0.6 -0.2
v -0.3 -0.6 -0.3
v -0.3 -0.6 -1.2
v -0.3 -0.6 -1.3
v -0.3 -0.6 -1.4
v -0.3 -0.6 -1.5
v -0.3 -0.6 -1.6
v -0.3 -0.5 -0.1
v -0.3 -0.5 -0.2
v -0.3 -0.5 -1.3
v -0.3 -0.5 -1.4
v -0.3 -0.5 -1.6
v 0.4 -0.8 -0.2
v 0.4 -0.8 -0.3
v 0.4 -0.7 -0.2
v 0.4 -0.7 -0.3
v 0.4 -0.7 -1.2
v 0.4 -0.7 -1.5
v 0.4 -0.6 -0.1
v 0.4 -0.6 -0.2
v 0.4 -0.6 -0.3
v 0.4 -0.6 -1.2
v 0.4 -0.6 -1.3
v 0.4 -0.6 -1.4
v 0.4 -0.6 -1.5
v 0.4 -0.6 -1.6
v 0.4 -0.5 -0.1
v 0.4 -0.5 -0.2
v 0.4 -0.5 -0.3
v 0.4 -0.5 -1.3
v 0.4 -0.5 -1.4
v 0.4 -0.5 -1.6
v 0.5 -0.6 -0.2
v 0.5 -0.6 -0.3
v 0.5 -0.5 -0.2
v 0.5 -0.5 -0.3
v 0.7 -0.6 -1.3
v 0.7 -0.6 -1.4
v 0.7 -0.4 -1.3
v 0.7 -0.4 -1.4
v -0.4 -0.6 -0.1
v -0.4 -0.5 -0.1
v -0.3 -0.6 -0.1
v -0.3 -0.5 -0.1
v 0.3 -0.6 -0.1
v 0.3 -0.5 -0.1
v 0.4 -0.6 -0.1
v 0.4 -0.5 -0.1
v -0.5 -0.6 -0.2
v -0.5 -0.5 -0.2
v -0.4 -0.8 -0.2
v -0.4 -0.7 -0.2
v -0.4 -0.6 -0.2
v -0.4 -0.5 -0.2
v -0.3 -0.8 -0.2
v -0.3 -0.7 -0.2
v -0.3 -0.6 -0.2
v 0.3 -0.8 -0.2
v 0.3 -0.7 -0.2
v 0.3 -0.6 -0.2
v 0.4 -0.8 -0.2
v 0.4 -0.7 -0.2
v 0.4 -0.6 -0.2
v 0.4 -0.5 -0.2
v 0.5 -0.6 -0.2
v 0.5 -0.5 -0.2
v -0.4 -0.7 -1.2
v -0.4 -0.6 -1.2
v -0.3 -0.7 -1.2
v -0.3 -0.6 -1.2
v 0.3 -0.7 -1.2
v 0.3 -0.6 -1.2
v 0.4 -0.7 -1.2
v 0.4 -0.6 -1.2
v -0.7 -0.6 -1.3
v -0.7 -0.4 -1.3
v -0.6 -0.5 -1.3
v -0.6 -0.4 -1.3
v -0.4 -0.6 -1.3
v -0.4 -0.5 -1.3
v -0.3 -0.6 -1.3
v -0.3 -0.5 -1.3
v 0.3 -0.6 -1.3
v 0.3 -0.5 -1.3
v 0.4 -0.6 -1.3
v 0.4 -0.5 -1.3
v 0.6 -0.5 -1.3
v 0.6 -0.4 -1.3
v 0.7 -0.6 -1.3
v 0.7 -0.4 -1.3
v -0.5 -0.6 -0.3
v -0.5 -0.5 -0.3
v -0.4 -0.8 -0.3
v -0.4 -0.7 -0.3
v -0.4 -0.6 -0.3
v -0.4 -0.5 -0.3
v -0.3 -0.8 -0.3
v -0.3 -0.7 -0.3
v -0.3 -0.6 -0.3
v 0.3 -0.8 -0.3
v 0.3 -0.7 -0.3
v 0.3 -0.6 -0.3
v 0.4 -0.8 -0.3
v 0.4 -0.7 -0.3
v 0.4 -0.6 -0.3
v 0.4 -0.5 -0.3
v 0.5 -0.6 -0.3
v 0.5 -0.5 -0.3
v -0.7 -0.6 -1.4
v -0.7 -0.4 -1.4
v -0.6 -0.5 -1.4
v -0.6 -0.4 -1.4
v -0.4 -0.6 -1.4
v -0.4 -0.5 -1.4
v -0.3 -0.6 -1.4
v -0.3 -0.5 -1.4
v 0.3 -0.6 -1.4
v 0.3 -0.5 -1.4
v 0.4 -0.6 -1.4
v 0.4 -0.5 -1.4
v 0.6 -0.5 -1.4
v 0.6 -0.4 -1.4
v 0.7 -0.6 -1.4
v 0.7 -0.4 -1.4
v -0.4 -0.7 -1.5
v -0.4 -0.6 -1.5
v -0.3 -0.7 -1.5
v -0.3 -0.6 -1.5
v 0.3 -0.7 -1.5
v 0.3 -0.6 -1.5
v 0.4 -0.7 -1.5
v 0.4 -0.6 -1.5
v -0.4 -0.6 -1.6
v -0.4 -0.5 -1.6
v -0.3 -0.6 -1.6
v -0.3 -0.5 -1.6
v 0.3 -0.6 -1.6
v 0.3 -0.5 -1.6
v 0.4 -0.6 -1.6
v 0.4 -0.5 -1.6
v -0.4 -0.8 -0.2
v -0.3 -0.8 -0.2
v 0.3 -0.8 -0.2
v 0.4 -0.8 -0.2
v -0.4 -0.8 -0.3
v -0.3 -0.8 -0.3
v 0.3 -0.8 -0.3
v 0.4 -0.8 -0.3
v -0.4 -0.7 -1.2
v -0.3 -0.7 -1.2
v 0.3 -0.7 -1.2
v 0.4 -0.7 -1.2
v -0.4 -0.7 -1.5
v -0.3 -0.7 -1.5
v 0.3 -0.7 -1.5
v 0.4 -0.7 -1.5
v -0.4 -0.6 -0.1
v -0.3 -0.6 -0.1
v 0.3 -0.6 -0.1
v 0.4 -0.6 -0.1
v -0.5 -0.6 -0.2
v -0.4 -0.6 -0.2
v -0.3 -0.6 -0.2
v 0.3 -0.6 -0.2
v 0.4 -0.6 -0.2
v 0.5 -0.6 -0.2
v -0.5 -0.6 -0.3
v -0.4 -0.6 -0.3
v -0.3 -0.6 -0.3
v 0.3 -0.6 -0.3
v 0.4 -0.6 -0.3
v 0.5 -0.6 -0.3
v -0.4 -0.6 -1.2
v -0.3 -0.6 -1.2
v 0.3 -0.6 -1.2
v 0.4 -0.6 -1.2
v -0.7 -0.6 -1.3
v -0.4 -0.6 -1.3
v -0.3 -0.6 -1.3
v 0.3 -0.6 -1.3
v 0.4 -0.6 -1.3
v 0.7 -0.6 -1.3
v -0.7 -0.6 -1.4
v -0.4 -0.6 -1.4
v -0.3 -0.6 -1.4
v 0.3 -0.6 -1.4
v 0.4 -0.6 -1.4
v 0.7 -0.6 -1.4
v -0.4 -0.6 -1.5
v -0.3 -0.6 -1.5
v 0.3 -0.6 -1.5
v 0.4 -0.6 -1.5
v -0.4 -0.6 -1.6
v -0.3 -0.6 -1.6
v 0.3 -0.6 -1.6
v 0.4 -0.6 -1.6
v -0.4 -0.5 -0.1
v -0.3 -0.5 -0.1
v 0.3 -0.5 -0.1
v 0.4 -0.5 -0.1
v -0.5 -0.5 -0.2
v -0.4 -0.5 -0.2
v -0.3 -0.5 -0.2
v 0.3 -0.5 -0.2
v 0.4 -0.5 -0.2
v 0.5 -0.5 -0.2
v -0.5 -0.5 -0.3
v -0.4 -0.5 -0.3
v 0.4 -0.5 -0.3
v 0.5 -0.5 -0.3
v -0.6 -0.5 -1.3
v -0.4 -0.5 -1.3
v -0.3 -0.5 -1.3
v 0.3 -0.5 -1.3
v 0.4 -0.5 -1.3
v 0.6 -0.5 -1.3
v -0.6 -0.5 -1.4
v -0.4 -0.5 -1.4
v -0.3 -0.5 -1.4
v 0.3 -0.5 -1.4
v 0.4 -0.5 -1.4
v 0.6 -0.5 -1.4
v -0.4 -0.5 -1.6
v -0.3 -0.5 -1.6
v 0.3 -0.5 -1.6
v 0.4 -0.5 -1.6
v -0.7 -0.4 -1.3
v -0.6 -0.4 -1.3
v 0.6 -0.4 -1.3
v 0.7 -0.4 -1.3
v -0.7 -0.4 -1.4
v -0.6 -0.4 -1.4
v 0.6 -0.4 -1.4
v 0.7 -0.4 -1.4

# faces
f 3/2/1 2/2/1 1/2/1
f 4/2/1 2/2/1 3/2/1
f 7/2/1 6/2/1 5/2/1
f 8/2/1 6/2/1 7/2/1
f 11/1/1 10/1/1 9/1/1
f 12/1/1 10/1/1 11/1/1
f 16/2/1 12/2/1 11/2/1
f 17/2/1 12/2/1 16/2/1
f 18/2/1 14/2/1 13/2/1
f 19/2/1 14/2/1 18/2/1
f 20/2/1 14/2/1 19/2/1
f 21/2/1 14/2/1 20/2/1
f 23/1/1 16/1/1 15/1/1
f 24/1/1 16/1/1 23/1/1
f 25/2/1 18/2/1 17/2/1
f 25/2/1 19/2/1 18/2/1
f 26/2/1 19/2/1 25/2/1
f 27/2/1 22/2/1 21/2/1
f 27/2/1 21/2/1 20/2/1
f 28/2/1 22/2/1 27/2/1
f 31/1/1 30/1/1 29/1/1
f 32/1/1 30/1/1 31/1/1
f 36/2/1 32/2/1 31/2/1
f 37/2/1 32/2/1 36/2/1
f 38/2/1 34/2/1 33/2/1
f 39/2/1 34/2/1 38/2/1
f 40/2/1 34/2/1 39/2/1
f 41/2/1 34/2/1 40/2/1
f 43/1/1 36/1/1 35/1/1
f 44/2/1 37/2/1 36/2/1
f 44/1/1 36/1/1 43/1/1
f 44/2/1 38/2/1 37/2/1
f 44/2/1 39/2/1 38/2/1
f 45/2/1 39/2/1 44/2/1
f 46/2/1 42/2/1 41/2/1
f 46/2/1 41/2/1 40/2/1
f 47/2/1 42/2/1 46/2/1
f 50/2/1 49/2/1 48/2/1
f 51/2/1 49/2/1 50/2/1
f 52/2/2 53/2/2 54/2/2
f 54/2/2 53/2/2 55/2/2
f 56/1/2 57/1/2 58/1/2
f 58/1/2 57/1/2 59/1/2
f 58/2/2 59/2/2 63/2/2
f 63/2/2 59/2/2 64/2/2
f 60/2/2 61/2/2 65/2/2
f 65/2/2 61/2/2 66/2/2
f 66/2/2 61/2/2 67/2/2
f 67/2/2 61/2/2 68/2/2
f 62/1/2 63/1/2 70/1/2
f 63/2/2 64/2/2 71/2/2
f 70/1/2 63/1/2 71/1/2
f 64/2/2 65/2/2 71/2/2
f 65/2/2 66/2/2 71/2/2
f 71/2/2 66/2/2 72/2/2
f 68/2/2 69/2/2 73/2/2
f 67/2/2 68/2/2 73/2/2
f 73/2/2 69/2/2 74/2/2
f 75/1/2 76/1/2 77/1/2
f 77/1/2 76/1/2 78/1/2
f 77/2/2 78/2/2 82/2/2
f 82/2/2 78/2/2 83/2/2
f 79/2/2 80/2/2 84/2/2
f 84/2/2 80/2/2 85/2/2
f 85/2/2 80/2/2 86/2/2
f 86/2/2 80/2/2 87/2/2
f 81/1/2 82/1/2 89/1/2
f 89/1/2 82/1/2 90/1/2
f 83/2/2 84/2/2 91/2/2
f 84/2/2 85/2/2 91/2/2
f 91/2/2 85/2/2 92/2/2
f 87/2/2 88/2/2 93/2/2
f 86/2/2 87/2/2 93/2/2
f 93/2/2 88/2/2 94/2/2
f 95/2/2 96/2/2 97/2/2
f 97/2/2 96/2/2 98/2/2
f 99/2/2 100/2/2 101/2/2
f 101/2/2 100/2/2 102/2/2
f 105/1/3 104/1/3 103/1/3
f 106/1/3 104/1/3 105/1/3
f 109/1/3 108/1/3 107/1/3
f 110/1/3 108/1/3 109/1/3
f 115/2/3 112/2/3 111/2/3
f 116/2/3 112/2/3 115/2/3
f 117/1/3 114/1/3 113/1/3
f 118/2/3 115/2/3 114/2/3
f 118/1/3 114/1/3 117/1/3
f 119/2/3 115/2/3 118/2/3
f 123/1/3 121/1/3 120/1/3
f 124/2/3 122/2/3 121/2/3
f 124/1/3 121/1/3 123/1/3
f 125/2/3 122/2/3 124/2/3
f 127/2/3 126/2/3 125/2/3
f 128/2/3 126/2/3 127/2/3
f 131/2/3 130/2/3 129/2/3
f 132/2/3 130/2/3 131/2/3
f 135/2/3 134/2/3 133/2/3
f 136/2/3 134/2/3 135/2/3
f 139/2/3 138/2/3 137/2/3
f 140/2/3 138/2/3 139/2/3
f 141/2/3 139/2/3 137/2/3
f 142/2/3 139/2/3 141/2/3
f 145/2/3 144/2/3 143/2/3
f 146/2/3 144/2/3 145/2/3
f 149/2/3 148/2/3 147/2/3
f 151/2/3 149/2/3 147/2/3
f 151/2/3 150/2/3 149/2/3
f 152/2/3 150/2/3 151/2/3
f 153/2/4 154/2/4 157/2/4
f 157/2/4 154/2/4 158/2/4
f 155/1/4 156/1/4 159/1/4
f 156/2/4 157/2/4 160/2/4
f 159/1/4 156/1/4 160/1/4
f 160/2/4 157/2/4 161/2/4
f 162/1/4 163/1/4 165/1/4
f 163/2/4 164/2/4 166/2/4
f 165/1/4 163/1/4 166/1/4
f 166/2/4 164/2/4 167/2/4
f 167/2/4 168/2/4 169/2/4
f 169/2/4 168/2/4 170/2/4
f 171/2/4 172/2/4 173/2/4
f 173/2/4 172/2/4 174/2/4
f 171/2/4 173/2/4 175/2/4
f 175/2/4 173/2/4 176/2/4
f 177/2/4 178/2/4 179/2/4
f 179/2/4 178/2/4 180/2/4
f 181/2/4 182/2/4 183/2/4
f 181/2/4 183/2/4 185/2/4
f 183/2/4 184/2/4 185/2/4
f 185/2/4 184/2/4 186/2/4
f 187/2/4 188/2/4 189/2/4
f 189/2/4 188/2/4 190/2/4
f 191/2/4 192/2/4 193/2/4
f 193/2/4 192/2/4 194/2/4
f 195/2/4 196/2/4 197/2/4
f 197/2/4 196/2/4 198/2/4
f 199/2/4 200/2/4 201/2/4
f 201/2/4 200/2/4 202/2/4
f 207/1/5 204/1/5 203/1/5
f 208/1/5 204/1/5 207/1/5
f 209/1/5 206/1/5 205/1/5
f 210/1/5 206/1/5 209/1/5
f 215/2/5 212/2/5 211/2/5
f 216/2/5 212/2/5 215/2/5
f 217/2/5 214/2/5 213/2/5
f 218/2/5 214/2/5 217/2/5
f 224/1/5 220/1/5 219/1/5
f 225/1/5 220/1/5 224/1/5
f 226/1/5 222/1/5 221/1/5
f 227/1/5 222/1/5 226/1/5
f 229/2/5 224/2/5 223/2/5
f 230/2/5 224/2/5 229/2/5
f 233/2/5 228/2/5 227/2/5
f 234/2/5 228/2/5 233/2/5
f 235/2/5 231/2/5 230/2/5
f 236/2/5 231/2/5 235/2/5
f 237/2/5 233/2/5 232/2/5
f 238/2/5 233/2/5 237/2/5
f 245/2/5 240/2/5 239/2/5
f 246/2/5 240/2/5 245/2/5
f 247/2/5 242/2/5 241/2/5
f 248/2/5 242/2/5 247/2/5
f 249/2/5 244/2/5 243/2/5
f 250/2/5 244/2/5 249/2/5
f 255/2/5 252/2/5 251/2/5
f 256/2/5 252/2/5 255/2/5
f 257/2/5 254/2/5 253/2/5
f 258/2/5 254/2/5 257/2/5
f 259/1/6 260/1/6 264/1/6
f 264/1/6 260/1/6 265/1/6
f 261/1/6 262/1/6 266/1/6
f 266/1/6 262/1/6 267/1/6
f 264/2/6 265/2/6 269/2/6
f 263/2/6 264/2/6 269/2/6
f 269/2/6 265/2/6 270/2/6
f 267/2/6 268/2/6 271/2/6
f 266/2/6 267/2/6 271/2/6
f 271/2/6 268/2/6 272/2/6
f 270/2/6 265/2/6 274/2/6
f 274/2/6 265/2/6 275/2/6
f 266/2/6 271/2/6 276/2/6
f 276/2/6 271/2/6 277/2/6
f 274/2/6 275/2/6 279/2/6
f 277/2/6 278/2/6 279/2/6
f 275/2/6 276/2/6 279/2/6
f 276/2/6 277/2/6 279/2/6
f 273/2/6 274/2/6 279/2/6
f 279/2/6 278/2/6 280/2/6
f 280/2/6 278/2/6 281/2/6
f 281/2/6 278/2/6 282/2/6
f 282/2/6 278/2/6 283/2/6
f 283/2/6 278/2/6 284/2/6
f 280/2/6 281/2/6 285/2/6
f 285/2/6 281/2/6 286/2/6
f 282/2/6 283/2/6 287/2/6
f 287/2/6 283/2/6 288/2/6
f 289/2/6 290/2/6 293/2/6
f 293/2/6 290/2/6 294/2/6
f 291/2/6 292/2/6 295/2/6
f 295/2/6 292/2/6 296/2/6
