# MagicaVoxel @ Ephtracy

# group
o Transtellar_Thruster_R

# material
mtllib Extra-19-Transtellar_Thruster_R.mtl
usemtl palette

# normals
vn -1 0 0
vn 1 0 0
vn 0 0 1
vn 0 0 -1
vn 0 -1 0
vn 0 1 0

# texcoords
vt 0.0292969 0.5
vt 0.513672 0.5
vt 0.947266 0.5

# verts
v -1.5 0 -0.5
v -1.5 0 -0.9
v -1.5 0.3 -0.5
v -1.5 0.3 -0.9
v -1.4 -0.2 -0.5
v -1.4 -0.2 -0.6
v -1.4 -0.1 -0.6
v -1.4 -0.1 -0.9
v -1.4 0 -0.5
v -1.4 0 -0.9
v -1.4 0 -1
v -1.4 0.1 -1
v -1.4 0.1 -1.1
v -1.4 0.2 -1.1
v -1.4 0.2 -1.2
v -1.4 0.3 -0.5
v -1.4 0.3 -0.9
v -1.4 0.3 -1.2
v -1.4 0.4 -0.5
v -1.4 0.4 -0.9
v -1.3 0.3 -0.9
v -1.3 0.3 -1.1
v -1.3 0.4 -0.9
v -1.3 0.4 -1.1
v -1.1 -0.2 -0.5
v -1.1 -0.2 -0.6
v -1.1 -0.1 -0.5
v -1.1 -0.1 -0.6
v -1.1 0.1 -1
v -1.1 0.1 -1.1
v -1.1 0.2 -1
v -1.1 0.2 -1.1
v -1.3 -0.2 -0.5
v -1.3 -0.2 -0.6
v -1.3 -0.1 -0.5
v -1.3 -0.1 -0.6
v -1.3 0.1 -1
v -1.3 0.1 -1.1
v -1.3 0.2 -1
v -1.3 0.2 -1.1
v -1.1 0.3 -0.9
v -1.1 0.3 -1.1
v -1.1 0.4 -0.9
v -1.1 0.4 -1.1
v -1 -0.2 -0.5
v -1 -0.2 -0.6
v -1 -0.1 -0.6
v -1 -0.1 -0.9
v -1 0 -0.5
v -1 0 -0.9
v -1 0 -1
v -1 0.1 -1
v -1 0.1 -1.1
v -1 0.2 -1.1
v -1 0.2 -1.2
v -1 0.3 -0.5
v -1 0.3 -0.9
v -1 0.3 -1.2
v -1 0.4 -0.5
v -1 0.4 -0.9
v -0.9 0 -0.5
v -0.9 0 -0.9
v -0.9 0.3 -0.5
v -0.9 0.3 -0.9
v -1.5 0 -0.5
v -1.5 0.3 -0.5
v -1.4 -0.2 -0.5
v -1.4 0 -0.5
v -1.4 0.3 -0.5
v -1.4 0.4 -0.5
v -1.3 -0.2 -0.5
v -1.3 -0.1 -0.5
v -1.1 -0.2 -0.5
v -1.1 -0.1 -0.5
v -1 -0.2 -0.5
v -1 0 -0.5
v -1 0.3 -0.5
v -1 0.4 -0.5
v -0.9 0 -0.5
v -0.9 0.3 -0.5
v -1.4 -0.2 -0.6
v -1.4 -0.1 -0.6
v -1.3 -0.2 -0.6
v -1.3 -0.1 -0.6
v -1.1 -0.2 -0.6
v -1.1 -0.1 -0.6
v -1 -0.2 -0.6
v -1 -0.1 -0.6
v -1.5 0 -0.9
v -1.5 0.3 -0.9
v -1.4 -0.1 -0.9
v -1.4 0 -0.9
v -1.4 0.3 -0.9
v -1.4 0.4 -0.9
v -1.3 0.3 -0.9
v -1.3 0.4 -0.9
v -1.1 0.3 -0.9
v -1.1 0.4 -0.9
v -1 -0.1 -0.9
v -1 0 -0.9
v -1 0.3 -0.9
v -1 0.4 -0.9
v -0.9 0 -0.9
v -0.9 0.3 -0.9
v -1.4 0 -1
v -1.4 0.1 -1
v -1.3 0.1 -1
v -1.3 0.2 -1
v -1.1 0.1 -1
v -1.1 0.2 -1
v -1 0 -1
v -1 0.1 -1
v -1.4 0.1 -1.1
v -1.4 0.2 -1.1
v -1.3 0.1 -1.1
v -1.3 0.2 -1.1
v -1.3 0.3 -1.1
v -1.3 0.4 -1.1
v -1.1 0.1 -1.1
v -1.1 0.2 -1.1
v -1.1 0.3 -1.1
v -1.1 0.4 -1.1
v -1 0.1 -1.1
v -1 0.2 -1.1
v -1.4 0.2 -1.2
v -1.4 0.3 -1.2
v -1 0.2 -1.2
v -1 0.3 -1.2
v -1.4 -0.2 -0.5
v -1.3 -0.2 -0.5
v -1.1 -0.2 -0.5
v -1 -0.2 -0.5
v -1.4 -0.2 -0.6
v -1.3 -0.2 -0.6
v -1.1 -0.2 -0.6
v -1 -0.2 -0.6
v -1.3 -0.1 -0.5
v -1.1 -0.1 -0.5
v -1.4 -0.1 -0.6
v -1.3 -0.1 -0.6
v -1.1 -0.1 -0.6
v -1 -0.1 -0.6
v -1.4 -0.1 -0.9
v -1 -0.1 -0.9
v -1.5 0 -0.5
v -1.4 0 -0.5
v -1 0 -0.5
v -0.9 0 -0.5
v -1.5 0 -0.9
v -1.4 0 -0.9
v -1 0 -0.9
v -0.9 0 -0.9
v -1.4 0 -1
v -1 0 -1
v -1.4 0.1 -1
v -1.3 0.1 -1
v -1.1 0.1 -1
v -1 0.1 -1
v -1.4 0.1 -1.1
v -1.3 0.1 -1.1
v -1.1 0.1 -1.1
v -1 0.1 -1.1
v -1.3 0.2 -1
v -1.1 0.2 -1
v -1.4 0.2 -1.1
v -1.3 0.2 -1.1
v -1.1 0.2 -1.1
v -1 0.2 -1.1
v -1.4 0.2 -1.2
v -1 0.2 -1.2
v -1.5 0.3 -0.5
v -1.4 0.3 -0.5
v -1 0.3 -0.5
v -0.9 0.3 -0.5
v -1.5 0.3 -0.9
v -1.4 0.3 -0.9
v -1.3 0.3 -0.9
v -1.1 0.3 -0.9
v -1 0.3 -0.9
v -0.9 0.3 -0.9
v -1.3 0.3 -1.1
v -1.1 0.3 -1.1
v -1.4 0.3 -1.2
v -1 0.3 -1.2
v -1.4 0.4 -0.5
v -1 0.4 -0.5
v -1.4 0.4 -0.9
v -1.3 0.4 -0.9
v -1.1 0.4 -0.9
v -1 0.4 -0.9
v -1.3 0.4 -1.1
v -1.1 0.4 -1.1

# faces
f 3/3/1 2/3/1 1/3/1
f 4/3/1 2/3/1 3/3/1
f 7/3/1 6/3/1 5/3/1
f 9/3/1 7/3/1 5/3/1
f 9/3/1 8/3/1 7/3/1
f 10/3/1 8/3/1 9/3/1
f 12/3/1 11/3/1 10/3/1
f 14/3/1 13/3/1 12/3/1
f 17/3/1 12/3/1 10/3/1
f 17/3/1 15/3/1 14/3/1
f 17/3/1 14/3/1 12/3/1
f 18/3/1 15/3/1 17/3/1
f 19/3/1 17/3/1 16/3/1
f 20/3/1 17/3/1 19/3/1
f 23/3/1 22/3/1 21/3/1
f 24/3/1 22/3/1 23/3/1
f 27/3/1 26/3/1 25/3/1
f 28/3/1 26/3/1 27/3/1
f 31/3/1 30/3/1 29/3/1
f 32/3/1 30/3/1 31/3/1
f 33/3/2 34/3/2 35/3/2
f 35/3/2 34/3/2 36/3/2
f 37/3/2 38/3/2 39/3/2
f 39/3/2 38/3/2 40/3/2
f 41/3/2 42/3/2 43/3/2
f 43/3/2 42/3/2 44/3/2
f 45/3/2 46/3/2 47/3/2
f 45/3/2 47/3/2 49/3/2
f 47/3/2 48/3/2 49/3/2
f 49/3/2 48/3/2 50/3/2
f 50/3/2 51/3/2 52/3/2
f 52/3/2 53/3/2 54/3/2
f 50/3/2 52/3/2 57/3/2
f 54/3/2 55/3/2 57/3/2
f 52/3/2 54/3/2 57/3/2
f 57/3/2 55/3/2 58/3/2
f 56/3/2 57/3/2 59/3/2
f 59/3/2 57/3/2 60/3/2
f 61/3/2 62/3/2 63/3/2
f 63/3/2 62/3/2 64/3/2
f 68/3/3 66/3/3 65/3/3
f 69/3/3 66/3/3 68/3/3
f 71/3/3 68/3/3 67/3/3
f 71/3/3 70/3/3 69/3/3
f 71/3/3 69/3/3 68/3/3
f 72/3/3 70/3/3 71/3/3
f 74/3/3 70/3/3 72/3/3
f 75/3/3 74/3/3 73/3/3
f 76/3/3 70/3/3 74/3/3
f 76/3/3 74/3/3 75/3/3
f 77/3/3 70/3/3 76/3/3
f 78/3/3 70/3/3 77/3/3
f 79/3/3 77/3/3 76/3/3
f 80/3/3 77/3/3 79/3/3
f 81/3/4 82/3/4 83/3/4
f 83/3/4 82/3/4 84/3/4
f 85/3/4 86/3/4 87/3/4
f 87/3/4 86/3/4 88/3/4
f 89/3/4 90/3/4 92/3/4
f 92/3/4 90/3/4 93/3/4
f 93/3/4 94/3/4 95/3/4
f 95/3/4 94/3/4 96/3/4
f 91/3/4 92/3/4 99/3/4
f 99/3/4 92/3/4 100/3/4
f 97/3/4 98/3/4 101/3/4
f 101/3/4 98/3/4 102/3/4
f 100/3/4 101/3/4 103/3/4
f 103/3/4 101/3/4 104/3/4
f 105/3/4 106/3/4 107/3/4
f 105/3/4 107/3/4 109/3/4
f 107/1/4 108/1/4 109/1/4
f 109/1/4 108/1/4 110/1/4
f 105/3/4 109/3/4 111/3/4
f 111/3/4 109/3/4 112/3/4
f 113/3/4 114/3/4 115/3/4
f 115/3/4 114/3/4 116/3/4
f 117/3/4 118/3/4 121/3/4
f 121/3/4 118/3/4 122/3/4
f 119/3/4 120/3/4 123/3/4
f 123/3/4 120/3/4 124/3/4
f 125/3/4 126/3/4 127/3/4
f 127/3/4 126/3/4 128/3/4
f 133/3/5 130/3/5 129/3/5
f 134/3/5 130/3/5 133/3/5
f 135/3/5 132/3/5 131/3/5
f 136/3/5 132/3/5 135/3/5
f 140/3/5 138/3/5 137/3/5
f 141/3/5 138/3/5 140/3/5
f 143/3/5 140/3/5 139/3/5
f 143/3/5 142/3/5 141/3/5
f 143/3/5 141/3/5 140/3/5
f 144/3/5 142/3/5 143/3/5
f 149/3/5 146/3/5 145/3/5
f 150/3/5 146/3/5 149/3/5
f 151/3/5 148/3/5 147/3/5
f 152/3/5 148/3/5 151/3/5
f 153/3/5 151/3/5 150/3/5
f 154/3/5 151/3/5 153/3/5
f 159/3/5 156/3/5 155/3/5
f 160/3/5 156/3/5 159/3/5
f 161/3/5 158/3/5 157/3/5
f 162/3/5 158/3/5 161/3/5
f 166/3/5 164/3/5 163/3/5
f 167/3/5 164/3/5 166/3/5
f 169/3/5 166/3/5 165/3/5
f 169/3/5 168/3/5 167/3/5
f 169/3/5 167/3/5 166/3/5
f 170/3/5 168/3/5 169/3/5
f 171/3/6 172/3/6 175/3/6
f 175/3/6 172/3/6 176/3/6
f 173/3/6 174/3/6 179/3/6
f 179/3/6 174/3/6 180/3/6
f 176/3/6 177/3/6 181/3/6
f 178/3/6 179/3/6 182/3/6
f 176/3/6 181/3/6 183/3/6
f 181/3/6 182/3/6 183/3/6
f 182/3/6 179/3/6 184/3/6
f 183/3/6 182/3/6 184/3/6
f 185/3/6 186/3/6 187/3/6
f 187/3/6 186/3/6 188/3/6
f 188/3/6 186/3/6 189/3/6
f 189/3/6 186/3/6 190/3/6
f 188/3/6 189/3/6 191/3/6
f 191/3/6 189/3/6 192/3/6
