# MagicaVoxel @ Ephtracy

# group
o Transtellar_Hood

# material
mtllib Extra-6-Transtellar_Hood.mtl
usemtl palette

# normals
vn -1 0 0
vn 1 0 0
vn 0 0 1
vn 0 0 -1
vn 0 -1 0
vn 0 1 0

# texcoords
vt 0.513672 0.5
vt 0.599609 0.5
vt 0.939453 0.5
vt 0.947266 0.5

# verts
v -0.7 0.5 0.1
v -0.7 0.5 -0.1
v -0.7 0.5 -0.9
v -0.7 0.6 0.1
v -0.7 0.6 -0.1
v -0.7 0.6 -0.9
v -0.6 0.5 0.2
v -0.6 0.5 0.1
v -0.6 0.6 0.2
v -0.6 0.6 0.1
v -0.5 0.5 -0.8
v -0.5 0.5 -1.5
v -0.5 0.6 -0.8
v -0.5 0.6 -1.5
v -0.4 0.5 0.3
v -0.4 0.5 0.2
v -0.4 0.5 -0.2
v -0.4 0.5 -0.3
v -0.4 0.6 0.3
v -0.4 0.6 0.2
v -0.4 0.6 -0.2
v -0.4 0.6 -0.3
v -0.2 0.5 0.4
v -0.2 0.5 0.3
v -0.2 0.5 -0.1
v -0.2 0.5 -0.2
v -0.2 0.6 0.4
v -0.2 0.6 0.3
v -0.2 0.6 -0.1
v -0.2 0.6 -0.2
v -0.1 0.5 -0.5
v -0.1 0.5 -0.6
v -0.1 0.6 0.1
v -0.1 0.6 -0.4
v -0.1 0.6 -0.5
v -0.1 0.6 -0.6
v -0.1 0.6 -0.7
v -0.1 0.7 0.1
v -0.1 0.7 -0.7
v 0.1 0.5 0.4
v 0.1 0.5 0.2
v 0.1 0.6 0.4
v 0.1 0.6 0.2
v 0.2 0.5 -0.5
v 0.2 0.5 -0.6
v 0.2 0.6 -0.5
v 0.2 0.6 -0.6
v 0.3 0.5 -0.6
v 0.3 0.5 -1
v 0.3 0.6 -0.6
v 0.3 0.6 -1
v 0.4 0.5 -0.1
v 0.4 0.5 -0.2
v 0.4 0.5 -1
v 0.4 0.5 -1.5
v 0.4 0.6 -0.1
v 0.4 0.6 -0.2
v 0.4 0.6 -1
v 0.4 0.6 -1.5
v 0.6 0.5 -0.2
v 0.6 0.5 -0.3
v 0.6 0.5 -0.8
v 0.6 0.5 -0.9
v 0.6 0.6 -0.2
v 0.6 0.6 -0.3
v 0.6 0.6 -0.8
v 0.6 0.6 -0.9
v -0.6 0.5 -0.2
v -0.6 0.5 -0.3
v -0.6 0.5 -0.8
v -0.6 0.5 -0.9
v -0.6 0.6 -0.2
v -0.6 0.6 -0.3
v -0.6 0.6 -0.8
v -0.6 0.6 -0.9
v -0.4 0.5 -0.1
v -0.4 0.5 -0.2
v -0.4 0.5 -1
v -0.4 0.5 -1.5
v -0.4 0.6 -0.1
v -0.4 0.6 -0.2
v -0.4 0.6 -1
v -0.4 0.6 -1.5
v -0.3 0.5 -0.6
v -0.3 0.5 -1
v -0.3 0.6 -0.6
v -0.3 0.6 -1
v -0.2 0.5 -0.5
v -0.2 0.5 -0.6
v -0.2 0.6 -0.5
v -0.2 0.6 -0.6
v -0.1 0.5 0.4
v -0.1 0.5 0.2
v -0.1 0.6 0.4
v -0.1 0.6 0.2
v 0.1 0.5 -0.5
v 0.1 0.5 -0.6
v 0.1 0.6 0.1
v 0.1 0.6 -0.4
v 0.1 0.6 -0.5
v 0.1 0.6 -0.6
v 0.1 0.6 -0.7
v 0.1 0.7 0.1
v 0.1 0.7 -0.7
v 0.2 0.5 0.4
v 0.2 0.5 0.3
v 0.2 0.5 -0.1
v 0.2 0.5 -0.2
v 0.2 0.6 0.4
v 0.2 0.6 0.3
v 0.2 0.6 -0.1
v 0.2 0.6 -0.2
v 0.4 0.5 0.3
v 0.4 0.5 0.2
v 0.4 0.5 -0.2
v 0.4 0.5 -0.3
v 0.4 0.6 0.3
v 0.4 0.6 0.2
v 0.4 0.6 -0.2
v 0.4 0.6 -0.3
v 0.5 0.5 -0.8
v 0.5 0.5 -1.5
v 0.5 0.6 -0.8
v 0.5 0.6 -1.5
v 0.6 0.5 0.2
v 0.6 0.5 0.1
v 0.6 0.6 0.2
v 0.6 0.6 0.1
v 0.7 0.5 0.1
v 0.7 0.5 -0.1
v 0.7 0.5 -0.9
v 0.7 0.6 0.1
v 0.7 0.6 -0.1
v 0.7 0.6 -0.9
v -0.2 0.5 0.4
v -0.2 0.6 0.4
v -0.1 0.5 0.4
v -0.1 0.6 0.4
v 0.1 0.5 0.4
v 0.1 0.6 0.4
v 0.2 0.5 0.4
v 0.2 0.6 0.4
v -0.4 0.5 0.3
v -0.4 0.6 0.3
v -0.2 0.5 0.3
v -0.2 0.6 0.3
v 0.2 0.5 0.3
v 0.2 0.6 0.3
v 0.4 0.5 0.3
v 0.4 0.6 0.3
v -0.6 0.5 0.2
v -0.6 0.6 0.2
v -0.4 0.5 0.2
v -0.4 0.6 0.2
v -0.1 0.5 0.2
v -0.1 0.6 0.2
v 0.1 0.5 0.2
v 0.1 0.6 0.2
v 0.4 0.5 0.2
v 0.4 0.6 0.2
v 0.6 0.5 0.2
v 0.6 0.6 0.2
v -0.7 0.5 0.1
v -0.7 0.6 0.1
v -0.6 0.5 0.1
v -0.6 0.6 0.1
v -0.1 0.6 0.1
v -0.1 0.7 0.1
v 0.1 0.6 0.1
v 0.1 0.7 0.1
v 0.6 0.5 0.1
v 0.6 0.6 0.1
v 0.7 0.5 0.1
v 0.7 0.6 0.1
v -0.4 0.5 -0.2
v -0.4 0.6 -0.2
v -0.2 0.5 -0.2
v -0.2 0.6 -0.2
v 0.2 0.5 -0.2
v 0.2 0.6 -0.2
v 0.4 0.5 -0.2
v 0.4 0.6 -0.2
v -0.6 0.5 -0.3
v -0.6 0.6 -0.3
v -0.4 0.5 -0.3
v -0.4 0.6 -0.3
v 0.4 0.5 -0.3
v 0.4 0.6 -0.3
v 0.6 0.5 -0.3
v 0.6 0.6 -0.3
v -0.4 0.5 -0.1
v -0.4 0.6 -0.1
v -0.2 0.5 -0.1
v -0.2 0.6 -0.1
v 0.2 0.5 -0.1
v 0.2 0.6 -0.1
v 0.4 0.5 -0.1
v 0.4 0.6 -0.1
v -0.6 0.5 -0.2
v -0.6 0.6 -0.2
v -0.4 0.5 -0.2
v -0.4 0.6 -0.2
v 0.4 0.5 -0.2
v 0.4 0.6 -0.2
v 0.6 0.5 -0.2
v 0.6 0.6 -0.2
v -0.2 0.5 -0.5
v -0.2 0.6 -0.5
v -0.1 0.5 -0.5
v -0.1 0.6 -0.5
v 0.1 0.5 -0.5
v 0.1 0.6 -0.5
v 0.2 0.5 -0.5
v 0.2 0.6 -0.5
v -0.3 0.5 -0.6
v -0.3 0.6 -0.6
v -0.2 0.5 -0.6
v -0.2 0.6 -0.6
v -0.1 0.5 -0.6
v -0.1 0.6 -0.6
v 0.1 0.5 -0.6
v 0.1 0.6 -0.6
v 0.2 0.5 -0.6
v 0.2 0.6 -0.6
v 0.3 0.5 -0.6
v 0.3 0.6 -0.6
v -0.1 0.6 -0.7
v -0.1 0.7 -0.7
v 0.1 0.6 -0.7
v 0.1 0.7 -0.7
v -0.6 0.5 -0.8
v -0.6 0.6 -0.8
v -0.5 0.5 -0.8
v -0.5 0.6 -0.8
v 0.5 0.5 -0.8
v 0.5 0.6 -0.8
v 0.6 0.5 -0.8
v 0.6 0.6 -0.8
v -0.7 0.5 -0.9
v -0.7 0.6 -0.9
v -0.6 0.5 -0.9
v -0.6 0.6 -0.9
v 0.6 0.5 -0.9
v 0.6 0.6 -0.9
v 0.7 0.5 -0.9
v 0.7 0.6 -0.9
v -0.4 0.5 -1
v -0.4 0.6 -1
v -0.3 0.5 -1
v -0.3 0.6 -1
v 0.3 0.5 -1
v 0.3 0.6 -1
v 0.4 0.5 -1
v 0.4 0.6 -1
v -0.5 0.5 -1.5
v -0.5 0.6 -1.5
v -0.4 0.5 -1.5
v -0.4 0.6 -1.5
v 0.4 0.5 -1.5
v 0.4 0.6 -1.5
v 0.5 0.5 -1.5
v 0.5 0.6 -1.5
v -0.2 0.5 0.4
v -0.1 0.5 0.4
v 0.1 0.5 0.4
v 0.2 0.5 0.4
v -0.4 0.5 0.3
v -0.2 0.5 0.3
v 0.2 0.5 0.3
v 0.4 0.5 0.3
v -0.6 0.5 0.2
v -0.4 0.5 0.2
v -0.1 0.5 0.2
v 0.1 0.5 0.2
v 0.4 0.5 0.2
v 0.6 0.5 0.2
v -0.7 0.5 0.1
v -0.6 0.5 0.1
v -0.4 0.5 0.1
v -0.2 0.5 0.1
v -0.1 0.5 0.1
v 0.1 0.5 0.1
v 0.2 0.5 0.1
v 0.4 0.5 0.1
v 0.6 0.5 0.1
v 0.7 0.5 0.1
v -0.6 0.5 0
v -0.4 0.5 0
v 0.4 0.5 0
v 0.6 0.5 0
v -0.7 0.5 -0.1
v -0.6 0.5 -0.1
v -0.4 0.5 -0.1
v -0.2 0.5 -0.1
v 0.2 0.5 -0.1
v 0.4 0.5 -0.1
v 0.6 0.5 -0.1
v 0.7 0.5 -0.1
v -0.6 0.5 -0.2
v -0.4 0.5 -0.2
v -0.2 0.5 -0.2
v 0.2 0.5 -0.2
v 0.4 0.5 -0.2
v 0.6 0.5 -0.2
v -0.6 0.5 -0.3
v -0.4 0.5 -0.3
v 0.4 0.5 -0.3
v 0.6 0.5 -0.3
v -0.2 0.5 -0.4
v -0.1 0.5 -0.4
v 0.1 0.5 -0.4
v 0.2 0.5 -0.4
v -0.2 0.5 -0.5
v -0.1 0.5 -0.5
v 0.1 0.5 -0.5
v 0.2 0.5 -0.5
v -0.3 0.5 -0.6
v -0.2 0.5 -0.6
v -0.1 0.5 -0.6
v 0.1 0.5 -0.6
v 0.2 0.5 -0.6
v 0.3 0.5 -0.6
v -0.6 0.5 -0.8
v -0.5 0.5 -0.8
v 0.5 0.5 -0.8
v 0.6 0.5 -0.8
v -0.7 0.5 -0.9
v -0.6 0.5 -0.9
v 0.6 0.5 -0.9
v 0.7 0.5 -0.9
v -0.4 0.5 -1
v -0.3 0.5 -1
v 0.3 0.5 -1
v 0.4 0.5 -1
v -0.5 0.5 -1.5
v -0.4 0.5 -1.5
v 0.4 0.5 -1.5
v 0.5 0.5 -1.5
v -0.1 0.6 -0.6
v 0.1 0.6 -0.6
v -0.1 0.6 -0.7
v 0.1 0.6 -0.7
v -0.2 0.6 0.4
v -0.1 0.6 0.4
v 0.1 0.6 0.4
v 0.2 0.6 0.4
v -0.4 0.6 0.3
v -0.2 0.6 0.3
v 0.2 0.6 0.3
v 0.4 0.6 0.3
v -0.6 0.6 0.2
v -0.4 0.6 0.2
v -0.1 0.6 0.2
v 0.1 0.6 0.2
v 0.4 0.6 0.2
v 0.6 0.6 0.2
v -0.7 0.6 0.1
v -0.6 0.6 0.1
v -0.4 0.6 0.1
v -0.2 0.6 0.1
v -0.1 0.6 0.1
v 0.1 0.6 0.1
v 0.2 0.6 0.1
v 0.4 0.6 0.1
v 0.6 0.6 0.1
v 0.7 0.6 0.1
v -0.6 0.6 0
v -0.4 0.6 0
v 0.4 0.6 0
v 0.6 0.6 0
v -0.7 0.6 -0.1
v -0.6 0.6 -0.1
v -0.4 0.6 -0.1
v -0.2 0.6 -0.1
v 0.2 0.6 -0.1
v 0.4 0.6 -0.1
v 0.6 0.6 -0.1
v 0.7 0.6 -0.1
v -0.6 0.6 -0.2
v -0.4 0.6 -0.2
v -0.2 0.6 -0.2
v 0.2 0.6 -0.2
v 0.4 0.6 -0.2
v 0.6 0.6 -0.2
v -0.6 0.6 -0.3
v -0.4 0.6 -0.3
v 0.4 0.6 -0.3
v 0.6 0.6 -0.3
v -0.2 0.6 -0.4
v -0.1 0.6 -0.4
v 0.1 0.6 -0.4
v 0.2 0.6 -0.4
v -0.2 0.6 -0.5
v -0.1 0.6 -0.5
v 0.1 0.6 -0.5
v 0.2 0.6 -0.5
v -0.3 0.6 -0.6
v -0.2 0.6 -0.6
v 0.2 0.6 -0.6
v 0.3 0.6 -0.6
v -0.6 0.6 -0.8
v -0.5 0.6 -0.8
v 0.5 0.6 -0.8
v 0.6 0.6 -0.8
v -0.7 0.6 -0.9
v -0.6 0.6 -0.9
v 0.6 0.6 -0.9
v 0.7 0.6 -0.9
v -0.4 0.6 -1
v -0.3 0.6 -1
v 0.3 0.6 -1
v 0.4 0.6 -1
v -0.5 0.6 -1.5
v -0.4 0.6 -1.5
v 0.4 0.6 -1.5
v 0.5 0.6 -1.5
v -0.1 0.7 0.1
v 0.1 0.7 0.1
v -0.1 0.7 -0.7
v 0.1 0.7 -0.7

# faces
f 4/3/1 2/3/1 1/3/1
f 5/1/1 3/1/1 2/1/1
f 5/3/1 2/3/1 4/3/1
f 6/1/1 3/1/1 5/1/1
f 9/3/1 8/3/1 7/3/1
f 10/3/1 8/3/1 9/3/1
f 13/2/1 12/2/1 11/2/1
f 14/2/1 12/2/1 13/2/1
f 19/3/1 16/3/1 15/3/1
f 20/3/1 16/3/1 19/3/1
f 21/1/1 18/1/1 17/1/1
f 22/1/1 18/1/1 21/1/1
f 27/4/1 24/4/1 23/4/1
f 28/4/1 24/4/1 27/4/1
f 29/2/1 26/2/1 25/2/1
f 30/2/1 26/2/1 29/2/1
f 35/3/1 32/3/1 31/3/1
f 36/3/1 32/3/1 35/3/1
f 38/3/1 34/3/1 33/3/1
f 38/3/1 37/3/1 36/3/1
f 38/3/1 36/3/1 35/3/1
f 38/3/1 35/3/1 34/3/1
f 39/3/1 37/3/1 38/3/1
f 42/4/1 41/4/1 40/4/1
f 43/4/1 41/4/1 42/4/1
f 46/1/1 45/1/1 44/1/1
f 47/1/1 45/1/1 46/1/1
f 50/1/1 49/1/1 48/1/1
f 51/1/1 49/1/1 50/1/1
f 56/2/1 53/2/1 52/2/1
f 57/2/1 53/2/1 56/2/1
f 58/2/1 55/2/1 54/2/1
f 59/2/1 55/2/1 58/2/1
f 64/1/1 61/1/1 60/1/1
f 65/1/1 61/1/1 64/1/1
f 66/1/1 63/1/1 62/1/1
f 67/1/1 63/1/1 66/1/1
f 68/1/2 69/1/2 72/1/2
f 72/1/2 69/1/2 73/1/2
f 70/1/2 71/1/2 74/1/2
f 74/1/2 71/1/2 75/1/2
f 76/2/2 77/2/2 80/2/2
f 80/2/2 77/2/2 81/2/2
f 78/2/2 79/2/2 82/2/2
f 82/2/2 79/2/2 83/2/2
f 84/1/2 85/1/2 86/1/2
f 86/1/2 85/1/2 87/1/2
f 88/1/2 89/1/2 90/1/2
f 90/1/2 89/1/2 91/1/2
f 92/4/2 93/4/2 94/4/2
f 94/4/2 93/4/2 95/4/2
f 96/3/2 97/3/2 100/3/2
f 100/3/2 97/3/2 101/3/2
f 98/3/2 99/3/2 103/3/2
f 101/3/2 102/3/2 103/3/2
f 100/3/2 101/3/2 103/3/2
f 99/3/2 100/3/2 103/3/2
f 103/3/2 102/3/2 104/3/2
f 105/4/2 106/4/2 109/4/2
f 109/4/2 106/4/2 110/4/2
f 107/2/2 108/2/2 111/2/2
f 111/2/2 108/2/2 112/2/2
f 113/3/2 114/3/2 117/3/2
f 117/3/2 114/3/2 118/3/2
f 115/1/2 116/1/2 119/1/2
f 119/1/2 116/1/2 120/1/2
f 121/2/2 122/2/2 123/2/2
f 123/2/2 122/2/2 124/2/2
f 125/3/2 126/3/2 127/3/2
f 127/3/2 126/3/2 128/3/2
f 129/3/2 130/3/2 132/3/2
f 130/1/2 131/1/2 133/1/2
f 132/3/2 130/3/2 133/3/2
f 133/1/2 131/1/2 134/1/2
f 137/4/3 136/4/3 135/4/3
f 138/4/3 136/4/3 137/4/3
f 141/4/3 140/4/3 139/4/3
f 142/4/3 140/4/3 141/4/3
f 145/3/3 144/3/3 143/3/3
f 146/3/3 144/3/3 145/3/3
f 149/3/3 148/3/3 147/3/3
f 150/3/3 148/3/3 149/3/3
f 153/3/3 152/3/3 151/3/3
f 154/3/3 152/3/3 153/3/3
f 157/4/3 156/4/3 155/4/3
f 158/4/3 156/4/3 157/4/3
f 161/3/3 160/3/3 159/3/3
f 162/3/3 160/3/3 161/3/3
f 165/3/3 164/3/3 163/3/3
f 166/3/3 164/3/3 165/3/3
f 169/3/3 168/3/3 167/3/3
f 170/3/3 168/3/3 169/3/3
f 173/3/3 172/3/3 171/3/3
f 174/3/3 172/3/3 173/3/3
f 177/1/3 176/1/3 175/1/3
f 178/1/3 176/1/3 177/1/3
f 181/1/3 180/1/3 179/1/3
f 182/1/3 180/1/3 181/1/3
f 185/2/3 184/2/3 183/2/3
f 186/2/3 184/2/3 185/2/3
f 189/2/3 188/2/3 187/2/3
f 190/2/3 188/2/3 189/2/3
f 191/4/4 192/4/4 193/4/4
f 193/4/4 192/4/4 194/4/4
f 195/4/4 196/4/4 197/4/4
f 197/4/4 196/4/4 198/4/4
f 199/2/4 200/2/4 201/2/4
f 201/2/4 200/2/4 202/2/4
f 203/2/4 204/2/4 205/2/4
f 205/2/4 204/2/4 206/2/4
f 207/1/4 208/1/4 209/1/4
f 209/1/4 208/1/4 210/1/4
f 211/1/4 212/1/4 213/1/4
f 213/1/4 212/1/4 214/1/4
f 215/1/4 216/1/4 217/1/4
f 217/1/4 216/1/4 218/1/4
f 219/3/4 220/3/4 221/3/4
f 221/3/4 220/3/4 222/3/4
f 223/1/4 224/1/4 225/1/4
f 225/1/4 224/1/4 226/1/4
f 227/3/4 228/3/4 229/3/4
f 229/3/4 228/3/4 230/3/4
f 231/2/4 232/2/4 233/2/4
f 233/2/4 232/2/4 234/2/4
f 235/2/4 236/2/4 237/2/4
f 237/2/4 236/2/4 238/2/4
f 239/1/4 240/1/4 241/1/4
f 241/1/4 240/1/4 242/1/4
f 243/1/4 244/1/4 245/1/4
f 245/1/4 244/1/4 246/1/4
f 247/1/4 248/1/4 249/1/4
f 249/1/4 248/1/4 250/1/4
f 251/1/4 252/1/4 253/1/4
f 253/1/4 252/1/4 254/1/4
f 255/2/4 256/2/4 257/2/4
f 257/2/4 256/2/4 258/2/4
f 259/2/4 260/2/4 261/2/4
f 261/2/4 260/2/4 262/2/4
f 268/4/5 264/4/5 263/4/5
f 269/4/5 266/4/5 265/4/5
f 272/3/5 268/3/5 267/3/5
f 273/4/5 264/4/5 268/4/5
f 274/4/5 269/4/5 265/4/5
f 275/3/5 270/3/5 269/3/5
f 278/3/5 272/3/5 271/3/5
f 279/3/5 268/3/5 272/3/5
f 279/3/5 272/3/5 278/3/5
f 280/4/5 274/4/5 273/4/5
f 280/3/5 268/3/5 279/3/5
f 280/4/5 273/4/5 268/4/5
f 281/4/5 274/4/5 280/4/5
f 282/4/5 269/4/5 274/4/5
f 282/4/5 274/4/5 281/4/5
f 283/3/5 276/3/5 275/3/5
f 283/4/5 269/4/5 282/4/5
f 283/3/5 275/3/5 269/3/5
f 284/3/5 276/3/5 283/3/5
f 285/3/5 276/3/5 284/3/5
f 287/3/5 279/3/5 278/3/5
f 287/3/5 278/3/5 277/3/5
f 288/4/5 280/4/5 279/4/5
f 288/3/5 279/3/5 287/3/5
f 289/3/5 286/3/5 285/3/5
f 289/3/5 285/3/5 284/3/5
f 289/4/5 284/4/5 283/4/5
f 290/3/5 286/3/5 289/3/5
f 291/3/5 287/3/5 277/3/5
f 292/2/5 288/2/5 287/2/5
f 292/3/5 287/3/5 291/3/5
f 293/4/5 280/4/5 288/4/5
f 293/2/5 288/2/5 292/2/5
f 294/2/5 281/2/5 280/2/5
f 294/4/5 280/4/5 293/4/5
f 295/2/5 283/2/5 282/2/5
f 295/4/5 289/4/5 283/4/5
f 296/2/5 290/2/5 289/2/5
f 296/4/5 289/4/5 295/4/5
f 297/3/5 286/3/5 290/3/5
f 297/2/5 290/2/5 296/2/5
f 298/3/5 286/3/5 297/3/5
f 299/1/5 292/1/5 291/1/5
f 299/2/5 293/2/5 292/2/5
f 300/2/5 293/2/5 299/2/5
f 301/2/5 281/2/5 294/2/5
f 302/2/5 295/2/5 282/2/5
f 303/2/5 297/2/5 296/2/5
f 304/1/5 298/1/5 297/1/5
f 304/2/5 297/2/5 303/2/5
f 305/1/5 299/1/5 291/1/5
f 306/1/5 301/1/5 300/1/5
f 307/1/5 303/1/5 302/1/5
f 308/1/5 298/1/5 304/1/5
f 309/2/5 281/2/5 301/2/5
f 309/1/5 301/1/5 306/1/5
f 310/1/5 282/1/5 281/1/5
f 310/2/5 281/2/5 309/2/5
f 311/2/5 302/2/5 282/2/5
f 311/1/5 282/1/5 310/1/5
f 312/1/5 307/1/5 302/1/5
f 312/2/5 302/2/5 311/2/5
f 313/1/5 309/1/5 306/1/5
f 313/1/5 310/1/5 309/1/5
f 313/1/5 312/1/5 311/1/5
f 313/1/5 311/1/5 310/1/5
f 314/1/5 312/1/5 313/1/5
f 315/1/5 312/1/5 314/1/5
f 316/1/5 307/1/5 312/1/5
f 316/1/5 312/1/5 315/1/5
f 317/1/5 313/1/5 306/1/5
f 318/1/5 313/1/5 317/1/5
f 319/3/5 315/3/5 314/3/5
f 320/3/5 315/3/5 319/3/5
f 321/1/5 307/1/5 316/1/5
f 322/1/5 307/1/5 321/1/5
f 323/2/5 306/2/5 305/2/5
f 323/1/5 305/1/5 291/1/5
f 324/2/5 306/2/5 323/2/5
f 325/2/5 308/2/5 307/2/5
f 326/1/5 298/1/5 308/1/5
f 326/2/5 308/2/5 325/2/5
f 327/1/5 323/1/5 291/1/5
f 328/1/5 323/1/5 327/1/5
f 329/1/5 298/1/5 326/1/5
f 330/1/5 298/1/5 329/1/5
f 331/2/5 306/2/5 324/2/5
f 331/1/5 317/1/5 306/1/5
f 332/1/5 317/1/5 331/1/5
f 333/1/5 307/1/5 322/1/5
f 334/2/5 325/2/5 307/2/5
f 334/1/5 307/1/5 333/1/5
f 335/2/5 331/2/5 324/2/5
f 336/2/5 331/2/5 335/2/5
f 337/2/5 325/2/5 334/2/5
f 338/2/5 325/2/5 337/2/5
f 341/3/5 340/3/5 339/3/5
f 342/3/5 340/3/5 341/3/5
f 343/4/6 344/4/6 348/4/6
f 345/4/6 346/4/6 349/4/6
f 347/3/6 348/3/6 352/3/6
f 348/4/6 344/4/6 353/4/6
f 345/4/6 349/4/6 354/4/6
f 349/3/6 350/3/6 355/3/6
f 351/3/6 352/3/6 358/3/6
f 352/3/6 348/3/6 359/3/6
f 358/3/6 352/3/6 359/3/6
f 353/4/6 354/4/6 360/4/6
f 359/3/6 348/3/6 360/3/6
f 348/4/6 353/4/6 360/4/6
f 360/4/6 354/4/6 361/4/6
f 354/4/6 349/4/6 362/4/6
f 361/4/6 354/4/6 362/4/6
f 355/3/6 356/3/6 363/3/6
f 362/4/6 349/4/6 363/4/6
f 349/3/6 355/3/6 363/3/6
f 363/3/6 356/3/6 364/3/6
f 364/3/6 356/3/6 365/3/6
f 358/3/6 359/3/6 367/3/6
f 357/3/6 358/3/6 367/3/6
f 359/4/6 360/4/6 368/4/6
f 367/3/6 359/3/6 368/3/6
f 365/3/6 366/3/6 369/3/6
f 364/3/6 365/3/6 369/3/6
f 363/4/6 364/4/6 369/4/6
f 369/3/6 366/3/6 370/3/6
f 357/3/6 367/3/6 371/3/6
f 367/2/6 368/2/6 372/2/6
f 371/3/6 367/3/6 372/3/6
f 368/4/6 360/4/6 373/4/6
f 372/2/6 368/2/6 373/2/6
f 360/2/6 361/2/6 374/2/6
f 373/4/6 360/4/6 374/4/6
f 362/2/6 363/2/6 375/2/6
f 363/4/6 369/4/6 375/4/6
f 369/2/6 370/2/6 376/2/6
f 375/4/6 369/4/6 376/4/6
f 370/3/6 366/3/6 377/3/6
f 376/2/6 370/2/6 377/2/6
f 377/3/6 366/3/6 378/3/6
f 371/1/6 372/1/6 379/1/6
f 372/2/6 373/2/6 379/2/6
f 379/2/6 373/2/6 380/2/6
f 374/2/6 361/2/6 381/2/6
f 362/2/6 375/2/6 382/2/6
f 376/2/6 377/2/6 383/2/6
f 377/1/6 378/1/6 384/1/6
f 383/2/6 377/2/6 384/2/6
f 371/1/6 379/1/6 385/1/6
f 380/1/6 381/1/6 386/1/6
f 382/1/6 383/1/6 387/1/6
f 384/1/6 378/1/6 388/1/6
f 381/2/6 361/2/6 389/2/6
f 386/1/6 381/1/6 389/1/6
f 389/2/6 361/2/6 390/2/6
f 362/2/6 382/2/6 391/2/6
f 382/1/6 387/1/6 392/1/6
f 391/2/6 382/2/6 392/2/6
f 389/1/6 390/1/6 393/1/6
f 386/1/6 389/1/6 393/1/6
f 393/1/6 390/1/6 394/1/6
f 391/1/6 392/1/6 395/1/6
f 392/1/6 387/1/6 396/1/6
f 395/1/6 392/1/6 396/1/6
f 386/1/6 393/1/6 397/1/6
f 397/1/6 393/1/6 398/1/6
f 396/1/6 387/1/6 399/1/6
f 399/1/6 387/1/6 400/1/6
f 385/2/6 386/2/6 401/2/6
f 371/1/6 385/1/6 401/1/6
f 401/2/6 386/2/6 402/2/6
f 387/2/6 388/2/6 403/2/6
f 388/1/6 378/1/6 404/1/6
f 403/2/6 388/2/6 404/2/6
f 371/1/6 401/1/6 405/1/6
f 405/1/6 401/1/6 406/1/6
f 404/1/6 378/1/6 407/1/6
f 407/1/6 378/1/6 408/1/6
f 402/2/6 386/2/6 409/2/6
f 386/1/6 397/1/6 409/1/6
f 409/1/6 397/1/6 410/1/6
f 400/1/6 387/1/6 411/1/6
f 387/2/6 403/2/6 412/2/6
f 411/1/6 387/1/6 412/1/6
f 402/2/6 409/2/6 413/2/6
f 413/2/6 409/2/6 414/2/6
f 412/2/6 403/2/6 415/2/6
f 415/2/6 403/2/6 416/2/6
f 417/3/6 418/3/6 419/3/6
f 419/3/6 418/3/6 420/3/6
