# MagicaVoxel @ Ephtracy

# group
o Transtellar_Cockpit

# material
mtllib Extra-15-Transtellar_Cockpit.mtl
usemtl palette

# normals
vn -1 0 0
vn 1 0 0
vn 0 0 1
vn 0 0 -1
vn 0 -1 0
vn 0 1 0

# texcoords
vt 0.666016 0.5
vt 0.673828 0.5
vt 0.947266 0.5

# verts
v -0.5 0.4 0.9
v -0.5 0.4 0.8
v -0.5 0.5 0.8
v -0.5 0.5 0.6
v -0.5 0.6 0.9
v -0.5 0.6 0.6
v -0.4 0.3 1.3
v -0.4 0.3 1.2
v -0.4 0.4 1.2
v -0.4 0.4 0.9
v -0.4 0.5 1.3
v -0.4 0.5 0.9
v -0.4 0.5 0.6
v -0.4 0.5 0.5
v -0.4 0.6 0.6
v -0.4 0.6 0.5
v -0.3 0.3 1.8
v -0.3 0.3 1.3
v -0.3 0.4 1.8
v -0.3 0.4 1.3
v -0.3 0.4 0.9
v -0.3 0.4 0.8
v -0.3 0.5 1.3
v -0.3 0.5 1.2
v -0.3 0.5 0.9
v -0.3 0.5 0.8
v -0.3 0.5 0.6
v -0.3 0.6 1.3
v -0.3 0.6 1.2
v -0.3 0.6 0.8
v -0.3 0.6 0.6
v -0.3 0.7 0.8
v -0.3 0.7 0.6
v -0.2 0.2 2.1
v -0.2 0.2 1.8
v -0.2 0.3 2.1
v -0.2 0.3 1.8
v -0.2 0.4 2.1
v -0.2 0.4 1.8
v -0.2 0.4 1.7
v -0.2 0.4 1.3
v -0.2 0.5 1.8
v -0.2 0.5 1.7
v -0.2 0.5 1.3
v -0.2 0.6 1.3
v -0.2 0.6 1.2
v -0.2 0.6 0.8
v -0.2 0.7 1.3
v -0.2 0.7 0.8
v -0.1 0.2 2.2
v -0.1 0.2 2.1
v -0.1 0.3 2.2
v -0.1 0.3 2.1
v -0.1 0.4 2.2
v -0.1 0.4 2.1
v 0.1 0.6 1.3
v 0.1 0.6 1.2
v 0.1 0.6 0.8
v 0.1 0.7 1.3
v 0.1 0.7 0.8
v 0.4 0.4 0.9
v 0.4 0.4 0.8
v 0.4 0.5 0.9
v 0.4 0.5 0.8
v 0.4 0.5 0.6
v 0.4 0.6 0.9
v 0.4 0.6 0.6
v -0.4 0.4 0.9
v -0.4 0.4 0.8
v -0.4 0.5 0.9
v -0.4 0.5 0.8
v -0.4 0.5 0.6
v -0.4 0.6 0.9
v -0.4 0.6 0.6
v -0.1 0.6 1.3
v -0.1 0.6 1.2
v -0.1 0.6 0.8
v -0.1 0.7 1.3
v -0.1 0.7 0.8
v 0.1 0.2 2.2
v 0.1 0.2 2.1
v 0.1 0.3 2.2
v 0.1 0.3 2.1
v 0.1 0.4 2.2
v 0.1 0.4 2.1
v 0.2 0.2 2.1
v 0.2 0.2 1.8
v 0.2 0.3 2.1
v 0.2 0.3 1.8
v 0.2 0.4 2.1
v 0.2 0.4 1.8
v 0.2 0.4 1.7
v 0.2 0.4 1.3
v 0.2 0.5 1.8
v 0.2 0.5 1.7
v 0.2 0.5 1.3
v 0.2 0.6 1.3
v 0.2 0.6 1.2
v 0.2 0.6 0.8
v 0.2 0.7 1.3
v 0.2 0.7 0.8
v 0.3 0.3 1.8
v 0.3 0.3 1.3
v 0.3 0.4 1.8
v 0.3 0.4 1.3
v 0.3 0.4 0.9
v 0.3 0.4 0.8
v 0.3 0.5 1.3
v 0.3 0.5 1.2
v 0.3 0.5 0.9
v 0.3 0.5 0.8
v 0.3 0.5 0.6
v 0.3 0.6 1.3
v 0.3 0.6 1.2
v 0.3 0.6 0.8
v 0.3 0.6 0.6
v 0.3 0.7 0.8
v 0.3 0.7 0.6
v 0.4 0.3 1.3
v 0.4 0.3 1.2
v 0.4 0.4 1.2
v 0.4 0.4 0.9
v 0.4 0.5 1.3
v 0.4 0.5 0.9
v 0.4 0.5 0.6
v 0.4 0.5 0.5
v 0.4 0.6 0.6
v 0.4 0.6 0.5
v 0.5 0.4 0.9
v 0.5 0.4 0.8
v 0.5 0.5 0.8
v 0.5 0.5 0.6
v 0.5 0.6 0.9
v 0.5 0.6 0.6
v -0.1 0.2 2.2
v -0.1 0.3 2.2
v -0.1 0.4 2.2
v 0.1 0.2 2.2
v 0.1 0.3 2.2
v 0.1 0.4 2.2
v -0.2 0.2 2.1
v -0.2 0.3 2.1
v -0.2 0.4 2.1
v -0.1 0.2 2.1
v -0.1 0.3 2.1
v -0.1 0.4 2.1
v 0.1 0.2 2.1
v 0.1 0.3 2.1
v 0.1 0.4 2.1
v 0.2 0.2 2.1
v 0.2 0.3 2.1
v 0.2 0.4 2.1
v -0.3 0.3 1.8
v -0.3 0.4 1.8
v -0.2 0.3 1.8
v -0.2 0.4 1.8
v -0.2 0.5 1.8
v 0.2 0.3 1.8
v 0.2 0.4 1.8
v 0.2 0.5 1.8
v 0.3 0.3 1.8
v 0.3 0.4 1.8
v -0.4 0.3 1.3
v -0.4 0.5 1.3
v -0.3 0.3 1.3
v -0.3 0.4 1.3
v -0.3 0.5 1.3
v -0.3 0.6 1.3
v -0.2 0.4 1.3
v -0.2 0.5 1.3
v -0.2 0.6 1.3
v -0.2 0.7 1.3
v -0.1 0.6 1.3
v -0.1 0.7 1.3
v 0.1 0.6 1.3
v 0.1 0.7 1.3
v 0.2 0.4 1.3
v 0.2 0.5 1.3
v 0.2 0.6 1.3
v 0.2 0.7 1.3
v 0.3 0.3 1.3
v 0.3 0.4 1.3
v 0.3 0.5 1.3
v 0.3 0.6 1.3
v 0.4 0.3 1.3
v 0.4 0.5 1.3
v -0.5 0.4 0.9
v -0.5 0.6 0.9
v -0.4 0.4 0.9
v -0.4 0.5 0.9
v -0.4 0.6 0.9
v 0.4 0.4 0.9
v 0.4 0.5 0.9
v 0.4 0.6 0.9
v 0.5 0.4 0.9
v 0.5 0.6 0.9
v -0.3 0.6 0.8
v -0.3 0.7 0.8
v -0.2 0.6 0.8
v -0.2 0.7 0.8
v -0.1 0.6 0.8
v -0.1 0.7 0.8
v 0.1 0.6 0.8
v 0.1 0.7 0.8
v 0.2 0.6 0.8
v 0.2 0.7 0.8
v 0.3 0.6 0.8
v 0.3 0.7 0.8
v -0.4 0.5 0.6
v -0.4 0.6 0.6
v -0.3 0.5 0.6
v -0.3 0.6 0.6
v 0.3 0.5 0.6
v 0.3 0.6 0.6
v 0.4 0.5 0.6
v 0.4 0.6 0.6
v -0.2 0.2 1.8
v -0.2 0.3 1.8
v -0.1 0.2 1.8
v -0.1 0.3 1.8
v 0.1 0.2 1.8
v 0.1 0.3 1.8
v 0.2 0.2 1.8
v 0.2 0.3 1.8
v -0.4 0.3 1.2
v -0.4 0.4 1.2
v -0.3 0.4 1.2
v -0.2 0.3 1.2
v -0.2 0.4 1.2
v 0.2 0.3 1.2
v 0.2 0.4 1.2
v 0.3 0.4 1.2
v 0.4 0.3 1.2
v 0.4 0.4 1.2
v -0.4 0.4 0.9
v -0.4 0.5 0.9
v -0.3 0.4 0.9
v -0.3 0.5 0.9
v 0.3 0.4 0.9
v 0.3 0.5 0.9
v 0.4 0.4 0.9
v 0.4 0.5 0.9
v -0.5 0.4 0.8
v -0.5 0.5 0.8
v -0.4 0.4 0.8
v -0.4 0.5 0.8
v -0.3 0.4 0.8
v -0.3 0.5 0.8
v -0.1 0.4 0.8
v -0.1 0.5 0.8
v 0.1 0.4 0.8
v 0.1 0.5 0.8
v 0.3 0.4 0.8
v 0.3 0.5 0.8
v 0.4 0.4 0.8
v 0.4 0.5 0.8
v 0.5 0.4 0.8
v 0.5 0.5 0.8
v -0.5 0.5 0.6
v -0.5 0.6 0.6
v -0.4 0.5 0.6
v -0.4 0.6 0.6
v -0.3 0.6 0.6
v -0.3 0.7 0.6
v -0.2 0.6 0.6
v -0.2 0.7 0.6
v 0.2 0.6 0.6
v 0.2 0.7 0.6
v 0.3 0.6 0.6
v 0.3 0.7 0.6
v 0.4 0.5 0.6
v 0.4 0.6 0.6
v 0.5 0.5 0.6
v 0.5 0.6 0.6
v -0.4 0.5 0.5
v -0.4 0.6 0.5
v 0.4 0.5 0.5
v 0.4 0.6 0.5
v -0.1 0.2 2.2
v 0.1 0.2 2.2
v -0.2 0.2 2.1
v -0.1 0.2 2.1
v 0.1 0.2 2.1
v 0.2 0.2 2.1
v -0.1 0.2 2
v 0.1 0.2 2
v -0.1 0.2 1.9
v 0.1 0.2 1.9
v -0.2 0.2 1.8
v -0.1 0.2 1.8
v 0.1 0.2 1.8
v 0.2 0.2 1.8
v -0.3 0.3 1.8
v -0.2 0.3 1.8
v -0.1 0.3 1.8
v 0.1 0.3 1.8
v 0.2 0.3 1.8
v 0.3 0.3 1.8
v -0.1 0.3 1.6
v 0.1 0.3 1.6
v -0.1 0.3 1.5
v 0.1 0.3 1.5
v -0.1 0.3 1.4
v 0.1 0.3 1.4
v -0.4 0.3 1.3
v -0.3 0.3 1.3
v -0.1 0.3 1.3
v 0.1 0.3 1.3
v 0.3 0.3 1.3
v 0.4 0.3 1.3
v -0.4 0.3 1.2
v -0.2 0.3 1.2
v 0.2 0.3 1.2
v 0.4 0.3 1.2
v -0.4 0.4 1.2
v -0.3 0.4 1.2
v -0.2 0.4 1.2
v 0.2 0.4 1.2
v 0.3 0.4 1.2
v 0.4 0.4 1.2
v -0.1 0.4 1.1
v 0.1 0.4 1.1
v -0.1 0.4 1
v 0.1 0.4 1
v -0.5 0.4 0.9
v -0.4 0.4 0.9
v -0.3 0.4 0.9
v -0.1 0.4 0.9
v 0.1 0.4 0.9
v 0.3 0.4 0.9
v 0.4 0.4 0.9
v 0.5 0.4 0.9
v -0.5 0.4 0.8
v -0.4 0.4 0.8
v -0.3 0.4 0.8
v -0.1 0.4 0.8
v 0.1 0.4 0.8
v 0.3 0.4 0.8
v 0.4 0.4 0.8
v 0.5 0.4 0.8
v -0.5 0.5 0.8
v -0.4 0.5 0.8
v -0.3 0.5 0.8
v -0.1 0.5 0.8
v 0.1 0.5 0.8
v 0.3 0.5 0.8
v 0.4 0.5 0.8
v 0.5 0.5 0.8
v -0.5 0.5 0.6
v -0.4 0.5 0.6
v -0.3 0.5 0.6
v 0.3 0.5 0.6
v 0.4 0.5 0.6
v 0.5 0.5 0.6
v -0.4 0.5 0.5
v 0.4 0.5 0.5
v -0.1 0.4 2.2
v 0.1 0.4 2.2
v -0.2 0.4 2.1
v -0.1 0.4 2.1
v 0.1 0.4 2.1
v 0.2 0.4 2.1
v -0.3 0.4 1.8
v -0.2 0.4 1.8
v 0.2 0.4 1.8
v 0.3 0.4 1.8
v -0.2 0.4 1.7
v 0.2 0.4 1.7
v -0.3 0.4 1.3
v -0.2 0.4 1.3
v 0.2 0.4 1.3
v 0.3 0.4 1.3
v -0.2 0.5 1.8
v 0.2 0.5 1.8
v -0.2 0.5 1.7
v 0.2 0.5 1.7
v -0.4 0.5 1.3
v -0.3 0.5 1.3
v -0.2 0.5 1.3
v 0.2 0.5 1.3
v 0.3 0.5 1.3
v 0.4 0.5 1.3
v -0.3 0.5 1.2
v 0.3 0.5 1.2
v -0.4 0.5 0.9
v -0.3 0.5 0.9
v 0.3 0.5 0.9
v 0.4 0.5 0.9
v -0.3 0.6 1.3
v -0.2 0.6 1.3
v -0.1 0.6 1.3
v 0.1 0.6 1.3
v 0.2 0.6 1.3
v 0.3 0.6 1.3
v -0.3 0.6 1.2
v -0.2 0.6 1.2
v -0.1 0.6 1.2
v 0.1 0.6 1.2
v 0.2 0.6 1.2
v 0.3 0.6 1.2
v -0.5 0.6 0.9
v -0.4 0.6 0.9
v 0.4 0.6 0.9
v 0.5 0.6 0.9
v -0.3 0.6 0.8
v -0.2 0.6 0.8
v -0.1 0.6 0.8
v 0.1 0.6 0.8
v 0.2 0.6 0.8
v 0.3 0.6 0.8
v -0.5 0.6 0.6
v -0.4 0.6 0.6
v -0.3 0.6 0.6
v -0.2 0.6 0.6
v 0.2 0.6 0.6
v 0.3 0.6 0.6
v 0.4 0.6 0.6
v 0.5 0.6 0.6
v -0.4 0.6 0.5
v 0.4 0.6 0.5
v -0.2 0.7 1.3
v -0.1 0.7 1.3
v 0.1 0.7 1.3
v 0.2 0.7 1.3
v -0.3 0.7 0.8
v -0.2 0.7 0.8
v -0.1 0.7 0.8
v 0.1 0.7 0.8
v 0.2 0.7 0.8
v 0.3 0.7 0.8
v -0.2 0.7 0.7
v 0.2 0.7 0.7
v -0.3 0.7 0.6
v -0.2 0.7 0.6
v 0.2 0.7 0.6
v 0.3 0.7 0.6

# faces
f 3/3/1 2/3/1 1/3/1
f 5/3/1 3/3/1 1/3/1
f 5/3/1 4/3/1 3/3/1
f 6/3/1 4/3/1 5/3/1
f 9/3/1 8/3/1 7/3/1
f 11/3/1 9/3/1 7/3/1
f 11/3/1 10/3/1 9/3/1
f 12/3/1 10/3/1 11/3/1
f 15/3/1 14/3/1 13/3/1
f 16/3/1 14/3/1 15/3/1
f 19/3/1 18/3/1 17/3/1
f 20/3/1 18/3/1 19/3/1
f 25/2/1 22/2/1 21/2/1
f 26/2/1 22/2/1 25/2/1
f 28/3/1 24/3/1 23/3/1
f 29/2/1 27/2/1 26/2/1
f 29/3/1 24/3/1 28/3/1
f 29/2/1 25/2/1 24/2/1
f 29/2/1 26/2/1 25/2/1
f 30/2/1 27/2/1 29/2/1
f 31/2/1 27/2/1 30/2/1
f 32/3/1 31/3/1 30/3/1
f 33/3/1 31/3/1 32/3/1
f 36/3/1 35/3/1 34/3/1
f 37/3/1 35/3/1 36/3/1
f 38/2/1 37/2/1 36/2/1
f 39/2/1 37/2/1 38/2/1
f 42/3/1 40/3/1 39/3/1
f 43/2/1 41/2/1 40/2/1
f 43/3/1 40/3/1 42/3/1
f 44/2/1 41/2/1 43/2/1
f 48/3/1 46/3/1 45/3/1
f 48/3/1 47/3/1 46/3/1
f 49/3/1 47/3/1 48/3/1
f 52/3/1 51/3/1 50/3/1
f 53/3/1 51/3/1 52/3/1
f 54/2/1 53/2/1 52/2/1
f 55/2/1 53/2/1 54/2/1
f 59/3/1 57/3/1 56/3/1
f 59/3/1 58/3/1 57/3/1
f 60/3/1 58/3/1 59/3/1
f 63/3/1 62/3/1 61/3/1
f 64/3/1 62/3/1 63/3/1
f 66/3/1 64/3/1 63/3/1
f 66/3/1 65/3/1 64/3/1
f 67/3/1 65/3/1 66/3/1
f 68/3/2 69/3/2 70/3/2
f 70/3/2 69/3/2 71/3/2
f 70/3/2 71/3/2 73/3/2
f 71/3/2 72/3/2 73/3/2
f 73/3/2 72/3/2 74/3/2
f 75/3/2 76/3/2 78/3/2
f 76/3/2 77/3/2 78/3/2
f 78/3/2 77/3/2 79/3/2
f 80/3/2 81/3/2 82/3/2
f 82/3/2 81/3/2 83/3/2
f 82/2/2 83/2/2 84/2/2
f 84/2/2 83/2/2 85/2/2
f 86/3/2 87/3/2 88/3/2
f 88/3/2 87/3/2 89/3/2
f 88/2/2 89/2/2 90/2/2
f 90/2/2 89/2/2 91/2/2
f 91/3/2 92/3/2 94/3/2
f 92/2/2 93/2/2 95/2/2
f 94/3/2 92/3/2 95/3/2
f 95/2/2 93/2/2 96/2/2
f 97/3/2 98/3/2 100/3/2
f 98/3/2 99/3/2 100/3/2
f 100/3/2 99/3/2 101/3/2
f 102/3/2 103/3/2 104/3/2
f 104/3/2 103/3/2 105/3/2
f 106/2/2 107/2/2 110/2/2
f 110/2/2 107/2/2 111/2/2
f 108/3/2 109/3/2 113/3/2
f 111/2/2 112/2/2 114/2/2
f 113/3/2 109/3/2 114/3/2
f 109/2/2 110/2/2 114/2/2
f 110/2/2 111/2/2 114/2/2
f 114/2/2 112/2/2 115/2/2
f 115/2/2 112/2/2 116/2/2
f 115/3/2 116/3/2 117/3/2
f 117/3/2 116/3/2 118/3/2
f 119/3/2 120/3/2 121/3/2
f 119/3/2 121/3/2 123/3/2
f 121/3/2 122/3/2 123/3/2
f 123/3/2 122/3/2 124/3/2
f 125/3/2 126/3/2 127/3/2
f 127/3/2 126/3/2 128/3/2
f 129/3/2 130/3/2 131/3/2
f 129/3/2 131/3/2 133/3/2
f 131/3/2 132/3/2 133/3/2
f 133/3/2 132/3/2 134/3/2
f 138/3/3 136/3/3 135/3/3
f 139/2/3 137/2/3 136/2/3
f 139/3/3 136/3/3 138/3/3
f 140/2/3 137/2/3 139/2/3
f 144/3/3 142/3/3 141/3/3
f 145/2/3 143/2/3 142/2/3
f 145/3/3 142/3/3 144/3/3
f 146/2/3 143/2/3 145/2/3
f 150/3/3 148/3/3 147/3/3
f 151/2/3 149/2/3 148/2/3
f 151/3/3 148/3/3 150/3/3
f 152/2/3 149/2/3 151/2/3
f 155/3/3 154/3/3 153/3/3
f 156/3/3 154/3/3 155/3/3
f 159/3/3 157/3/3 156/3/3
f 160/3/3 157/3/3 159/3/3
f 161/3/3 159/3/3 158/3/3
f 162/3/3 159/3/3 161/3/3
f 165/3/3 164/3/3 163/3/3
f 166/3/3 164/3/3 165/3/3
f 167/3/3 164/3/3 166/3/3
f 169/2/3 167/2/3 166/2/3
f 170/3/3 168/3/3 167/3/3
f 170/2/3 167/2/3 169/2/3
f 171/3/3 168/3/3 170/3/3
f 173/3/3 172/3/3 171/3/3
f 173/3/3 171/3/3 170/3/3
f 174/3/3 172/3/3 173/3/3
f 175/3/3 173/3/3 170/3/3
f 178/3/3 175/3/3 170/3/3
f 178/3/3 176/3/3 175/3/3
f 179/3/3 176/3/3 178/3/3
f 180/3/3 176/3/3 179/3/3
f 182/2/3 178/2/3 177/2/3
f 183/3/3 179/3/3 178/3/3
f 183/2/3 178/2/3 182/2/3
f 184/3/3 179/3/3 183/3/3
f 185/3/3 182/3/3 181/3/3
f 185/3/3 183/3/3 182/3/3
f 186/3/3 183/3/3 185/3/3
f 189/3/3 188/3/3 187/3/3
f 190/3/3 188/3/3 189/3/3
f 191/3/3 188/3/3 190/3/3
f 195/3/3 193/3/3 192/3/3
f 195/3/3 194/3/3 193/3/3
f 196/3/3 194/3/3 195/3/3
f 199/3/3 198/3/3 197/3/3
f 200/3/3 198/3/3 199/3/3
f 203/3/3 202/3/3 201/3/3
f 204/3/3 202/3/3 203/3/3
f 207/3/3 206/3/3 205/3/3
f 208/3/3 206/3/3 207/3/3
f 211/3/3 210/3/3 209/3/3
f 212/3/3 210/3/3 211/3/3
f 215/3/3 214/3/3 213/3/3
f 216/3/3 214/3/3 215/3/3
f 217/3/4 218/3/4 219/3/4
f 219/3/4 218/3/4 220/3/4
f 219/1/4 220/1/4 221/1/4
f 221/1/4 220/1/4 222/1/4
f 221/3/4 222/3/4 223/3/4
f 223/3/4 222/3/4 224/3/4
f 225/3/4 226/3/4 227/3/4
f 225/3/4 227/3/4 228/3/4
f 228/3/4 227/3/4 229/3/4
f 228/2/4 229/2/4 230/2/4
f 230/2/4 229/2/4 231/2/4
f 230/3/4 231/3/4 232/3/4
f 230/3/4 232/3/4 233/3/4
f 233/3/4 232/3/4 234/3/4
f 235/3/4 236/3/4 237/3/4
f 237/3/4 236/3/4 238/3/4
f 239/3/4 240/3/4 241/3/4
f 241/3/4 240/3/4 242/3/4
f 243/3/4 244/3/4 245/3/4
f 245/3/4 244/3/4 246/3/4
f 247/2/4 248/2/4 249/2/4
f 249/2/4 248/2/4 250/2/4
f 249/1/4 250/1/4 251/1/4
f 251/1/4 250/1/4 252/1/4
f 251/2/4 252/2/4 253/2/4
f 253/2/4 252/2/4 254/2/4
f 255/3/4 256/3/4 257/3/4
f 257/3/4 256/3/4 258/3/4
f 259/3/4 260/3/4 261/3/4
f 261/3/4 260/3/4 262/3/4
f 263/3/4 264/3/4 265/3/4
f 265/3/4 264/3/4 266/3/4
f 265/2/4 266/2/4 267/2/4
f 267/2/4 266/2/4 268/2/4
f 267/3/4 268/3/4 269/3/4
f 269/3/4 268/3/4 270/3/4
f 271/3/4 272/3/4 273/3/4
f 273/3/4 272/3/4 274/3/4
f 275/3/4 276/3/4 277/3/4
f 277/3/4 276/3/4 278/3/4
f 282/3/5 280/3/5 279/3/5
f 283/3/5 280/3/5 282/3/5
f 285/3/5 282/3/5 281/3/5
f 285/1/5 283/1/5 282/1/5
f 286/3/5 284/3/5 283/3/5
f 286/1/5 283/1/5 285/1/5
f 287/3/5 285/3/5 281/3/5
f 287/2/5 286/2/5 285/2/5
f 288/3/5 284/3/5 286/3/5
f 288/2/5 286/2/5 287/2/5
f 289/3/5 287/3/5 281/3/5
f 290/1/5 288/1/5 287/1/5
f 290/3/5 287/3/5 289/3/5
f 291/3/5 284/3/5 288/3/5
f 291/1/5 288/1/5 290/1/5
f 292/3/5 284/3/5 291/3/5
f 299/2/5 295/2/5 294/2/5
f 299/2/5 296/2/5 295/2/5
f 299/2/5 297/2/5 296/2/5
f 300/2/5 297/2/5 299/2/5
f 301/2/5 299/2/5 294/2/5
f 301/1/5 300/1/5 299/1/5
f 302/2/5 297/2/5 300/2/5
f 302/1/5 300/1/5 301/1/5
f 303/2/5 301/2/5 294/2/5
f 303/2/5 302/2/5 301/2/5
f 304/2/5 297/2/5 302/2/5
f 304/2/5 302/2/5 303/2/5
f 306/3/5 294/3/5 293/3/5
f 307/2/5 303/2/5 294/2/5
f 307/1/5 304/1/5 303/1/5
f 308/2/5 297/2/5 304/2/5
f 308/1/5 304/1/5 307/1/5
f 309/3/5 298/3/5 297/3/5
f 311/3/5 306/3/5 305/3/5
f 312/2/5 307/2/5 294/2/5
f 312/3/5 306/3/5 311/3/5
f 312/3/5 294/3/5 306/3/5
f 312/2/5 308/2/5 307/2/5
f 313/2/5 297/2/5 308/2/5
f 313/2/5 308/2/5 312/2/5
f 313/3/5 310/3/5 309/3/5
f 313/3/5 309/3/5 297/3/5
f 314/3/5 310/3/5 313/3/5
f 321/2/5 317/2/5 316/2/5
f 321/2/5 318/2/5 317/2/5
f 321/2/5 319/2/5 318/2/5
f 322/2/5 319/2/5 321/2/5
f 323/2/5 321/2/5 316/2/5
f 323/1/5 322/1/5 321/1/5
f 324/2/5 319/2/5 322/2/5
f 324/1/5 322/1/5 323/1/5
f 326/3/5 316/3/5 315/3/5
f 327/2/5 323/2/5 316/2/5
f 327/2/5 324/2/5 323/2/5
f 327/3/5 316/3/5 326/3/5
f 328/2/5 324/2/5 327/2/5
f 329/2/5 319/2/5 324/2/5
f 329/2/5 324/2/5 328/2/5
f 330/3/5 320/3/5 319/3/5
f 330/2/5 319/2/5 329/2/5
f 331/3/5 320/3/5 330/3/5
f 333/3/5 326/3/5 325/3/5
f 334/3/5 326/3/5 333/3/5
f 335/2/5 328/2/5 327/2/5
f 336/1/5 329/1/5 328/1/5
f 336/2/5 328/2/5 335/2/5
f 337/2/5 330/2/5 329/2/5
f 337/1/5 329/1/5 336/1/5
f 338/2/5 330/2/5 337/2/5
f 339/3/5 332/3/5 331/3/5
f 340/3/5 332/3/5 339/3/5
f 349/3/5 342/3/5 341/3/5
f 350/3/5 342/3/5 349/3/5
f 351/2/5 344/2/5 343/2/5
f 351/2/5 345/2/5 344/2/5
f 351/2/5 346/2/5 345/2/5
f 352/2/5 346/2/5 351/2/5
f 353/3/5 348/3/5 347/3/5
f 354/3/5 348/3/5 353/3/5
f 355/3/5 352/3/5 351/3/5
f 355/3/5 353/3/5 352/3/5
f 355/3/5 351/3/5 350/3/5
f 356/3/5 353/3/5 355/3/5
f 357/2/6 358/2/6 360/2/6
f 360/2/6 358/2/6 361/2/6
f 359/2/6 360/2/6 364/2/6
f 361/2/6 362/2/6 364/2/6
f 360/2/6 361/2/6 364/2/6
f 364/2/6 362/2/6 365/2/6
f 363/3/6 364/3/6 367/3/6
f 365/3/6 366/3/6 368/3/6
f 363/3/6 367/3/6 369/3/6
f 369/3/6 367/3/6 370/3/6
f 368/3/6 366/3/6 371/3/6
f 371/3/6 366/3/6 372/3/6
f 373/3/6 374/3/6 375/3/6
f 375/3/6 374/3/6 376/3/6
f 375/2/6 376/2/6 379/2/6
f 379/2/6 376/2/6 380/2/6
f 377/3/6 378/3/6 383/3/6
f 381/3/6 382/3/6 384/3/6
f 377/3/6 383/3/6 385/3/6
f 385/3/6 383/3/6 386/3/6
f 384/3/6 382/3/6 387/3/6
f 387/3/6 382/3/6 388/3/6
f 389/3/6 390/3/6 395/3/6
f 395/3/6 390/3/6 396/3/6
f 391/3/6 392/3/6 397/3/6
f 397/3/6 392/3/6 398/3/6
f 393/3/6 394/3/6 399/3/6
f 399/3/6 394/3/6 400/3/6
f 395/2/6 396/2/6 405/2/6
f 405/2/6 396/2/6 406/2/6
f 397/2/6 398/2/6 407/2/6
f 407/2/6 398/2/6 408/2/6
f 399/2/6 400/2/6 409/2/6
f 409/2/6 400/2/6 410/2/6
f 401/3/6 402/3/6 411/3/6
f 411/3/6 402/3/6 412/3/6
f 403/3/6 404/3/6 417/3/6
f 417/3/6 404/3/6 418/3/6
f 415/3/6 416/3/6 419/3/6
f 414/3/6 415/3/6 419/3/6
f 416/3/6 417/3/6 419/3/6
f 413/3/6 414/3/6 419/3/6
f 412/3/6 413/3/6 419/3/6
f 419/3/6 417/3/6 420/3/6
f 421/3/6 422/3/6 426/3/6
f 426/3/6 422/3/6 427/3/6
f 423/3/6 424/3/6 428/3/6
f 428/3/6 424/3/6 429/3/6
f 426/3/6 427/3/6 431/3/6
f 429/3/6 430/3/6 431/3/6
f 428/3/6 429/3/6 431/3/6
f 427/3/6 428/3/6 431/3/6
f 425/3/6 426/3/6 431/3/6
f 431/3/6 430/3/6 432/3/6
f 425/3/6 431/3/6 433/3/6
f 431/2/6 432/2/6 434/2/6
f 433/3/6 431/3/6 434/3/6
f 432/3/6 430/3/6 435/3/6
f 434/2/6 432/2/6 435/2/6
f 435/3/6 430/3/6 436/3/6
