# MagicaVoxel @ Ephtracy

# group
o Transtellar_Wing1_R

# material
mtllib Extra-3-Transtellar_Wing1_R.mtl
usemtl palette

# normals
vn -1 0 0
vn 1 0 0
vn 0 0 1
vn 0 0 -1
vn 0 -1 0
vn 0 1 0

# texcoords
vt 0.513672 0.5
vt 0.599609 0.5
vt 0.939453 0.5

# verts
v -1.4 -0.4 1.2
v -1.4 -0.4 0.2
v -1.4 -0.4 0.1
v -1.4 -0.4 -0.4
v -1.4 -0.3 1.2
v -1.4 -0.3 0.2
v -1.4 -0.3 0.1
v -1.4 -0.3 -0.4
v -1.2 -0.4 1.3
v -1.2 -0.4 1.2
v -1.2 -0.3 1.3
v -1.2 -0.3 1.2
v -1 -0.4 1.4
v -1 -0.4 1.3
v -1 -0.3 1.4
v -1 -0.3 1.3
v -0.7 -0.4 1.2
v -0.7 -0.4 1.1
v -0.7 -0.3 1.2
v -0.7 -0.3 1.1
v -1 -0.4 -0.2
v -1 -0.4 -0.4
v -1 -0.3 -0.2
v -1 -0.3 -0.4
v -0.8 -0.4 1.4
v -0.8 -0.4 1.1
v -0.8 -0.3 1.4
v -0.8 -0.3 1.1
v -0.7 -0.4 0.8
v -0.7 -0.4 0.6
v -0.7 -0.4 -0.2
v -0.7 -0.3 0.8
v -0.7 -0.3 0.6
v -0.7 -0.3 -0.2
v -0.6 -0.4 1.2
v -0.6 -0.4 0.8
v -0.6 -0.3 1.2
v -0.6 -0.3 0.8
v -1 -0.4 1.4
v -1 -0.3 1.4
v -0.8 -0.4 1.4
v -0.8 -0.3 1.4
v -1.2 -0.4 1.3
v -1.2 -0.3 1.3
v -1 -0.4 1.3
v -1 -0.3 1.3
v -1.4 -0.4 1.2
v -1.4 -0.3 1.2
v -1.2 -0.4 1.2
v -1.2 -0.3 1.2
v -0.7 -0.4 1.2
v -0.7 -0.3 1.2
v -0.6 -0.4 1.2
v -0.6 -0.3 1.2
v -0.8 -0.4 1.1
v -0.8 -0.3 1.1
v -0.7 -0.4 1.1
v -0.7 -0.3 1.1
v -0.7 -0.4 0.8
v -0.7 -0.3 0.8
v -0.6 -0.4 0.8
v -0.6 -0.3 0.8
v -1 -0.4 -0.2
v -1 -0.3 -0.2
v -0.7 -0.4 -0.2
v -0.7 -0.3 -0.2
v -1.4 -0.4 -0.4
v -1.4 -0.3 -0.4
v -1 -0.4 -0.4
v -1 -0.3 -0.4
v -1 -0.4 1.4
v -0.8 -0.4 1.4
v -1.2 -0.4 1.3
v -1 -0.4 1.3
v -1.4 -0.4 1.2
v -1.2 -0.4 1.2
v -0.7 -0.4 1.2
v -0.6 -0.4 1.2
v -1 -0.4 1.1
v -0.8 -0.4 1.1
v -0.7 -0.4 1.1
v -1.2 -0.4 1
v -1 -0.4 1
v -0.7 -0.4 0.8
v -0.6 -0.4 0.8
v -1.2 -0.4 0.6
v -1 -0.4 0.6
v -0.8 -0.4 0.6
v -0.7 -0.4 0.6
v -1 -0.4 0.4
v -0.9 -0.4 0.4
v -1.4 -0.4 0.2
v -0.9 -0.4 0.2
v -0.8 -0.4 0.2
v -1.4 -0.4 0.1
v -0.9 -0.4 0.1
v -1 -0.4 -0.2
v -0.7 -0.4 -0.2
v -1.4 -0.4 -0.4
v -1 -0.4 -0.4
v -1 -0.3 1.4
v -0.8 -0.3 1.4
v -1.2 -0.3 1.3
v -1 -0.3 1.3
v -1.4 -0.3 1.2
v -1.2 -0.3 1.2
v -0.7 -0.3 1.2
v -0.6 -0.3 1.2
v -1 -0.3 1.1
v -0.8 -0.3 1.1
v -0.7 -0.3 1.1
v -1.2 -0.3 1
v -1 -0.3 1
v -0.7 -0.3 0.8
v -0.6 -0.3 0.8
v -1.2 -0.3 0.6
v -1 -0.3 0.6
v -0.8 -0.3 0.6
v -0.7 -0.3 0.6
v -1 -0.3 0.4
v -0.9 -0.3 0.4
v -1.4 -0.3 0.2
v -0.9 -0.3 0.2
v -0.8 -0.3 0.2
v -1.4 -0.3 0.1
v -0.9 -0.3 0.1
v -1 -0.3 -0.2
v -0.7 -0.3 -0.2
v -1.4 -0.3 -0.4
v -1 -0.3 -0.4

# faces
f 5/1/1 2/1/1 1/1/1
f 6/2/1 3/2/1 2/2/1
f 6/1/1 2/1/1 5/1/1
f 7/1/1 4/1/1 3/1/1
f 7/2/1 3/2/1 6/2/1
f 8/1/1 4/1/1 7/1/1
f 11/1/1 10/1/1 9/1/1
f 12/1/1 10/1/1 11/1/1
f 15/1/1 14/1/1 13/1/1
f 16/1/1 14/1/1 15/1/1
f 19/3/1 18/3/1 17/3/1
f 20/3/1 18/3/1 19/3/1
f 21/1/2 22/1/2 23/1/2
f 23/1/2 22/1/2 24/1/2
f 25/1/2 26/1/2 27/1/2
f 27/1/2 26/1/2 28/1/2
f 29/3/2 30/3/2 32/3/2
f 30/1/2 31/1/2 33/1/2
f 32/3/2 30/3/2 33/3/2
f 33/1/2 31/1/2 34/1/2
f 35/3/2 36/3/2 37/3/2
f 37/3/2 36/3/2 38/3/2
f 41/1/3 40/1/3 39/1/3
f 42/1/3 40/1/3 41/1/3
f 45/1/3 44/1/3 43/1/3
f 46/1/3 44/1/3 45/1/3
f 49/1/3 48/1/3 47/1/3
f 50/1/3 48/1/3 49/1/3
f 53/3/3 52/3/3 51/3/3
f 54/3/3 52/3/3 53/3/3
f 57/3/3 56/3/3 55/3/3
f 58/3/3 56/3/3 57/3/3
f 59/3/4 60/3/4 61/3/4
f 61/3/4 60/3/4 62/3/4
f 63/1/4 64/1/4 65/1/4
f 65/1/4 64/1/4 66/1/4
f 67/1/4 68/1/4 69/1/4
f 69/1/4 68/1/4 70/1/4
f 74/1/5 72/1/5 71/1/5
f 76/1/5 74/1/5 73/1/5
f 79/1/5 72/1/5 74/1/5
f 79/1/5 74/1/5 76/1/5
f 79/1/5 76/1/5 75/1/5
f 80/1/5 72/1/5 79/1/5
f 81/3/5 78/3/5 77/3/5
f 82/1/5 79/1/5 75/1/5
f 83/2/5 80/2/5 79/2/5
f 83/1/5 79/1/5 82/1/5
f 84/3/5 81/3/5 80/3/5
f 84/3/5 78/3/5 81/3/5
f 85/3/5 78/3/5 84/3/5
f 86/1/5 82/1/5 75/1/5
f 86/2/5 83/2/5 82/2/5
f 87/2/5 80/2/5 83/2/5
f 87/2/5 83/2/5 86/2/5
f 88/3/5 84/3/5 80/3/5
f 88/2/5 80/2/5 87/2/5
f 89/3/5 84/3/5 88/3/5
f 90/1/5 87/1/5 86/1/5
f 90/2/5 88/2/5 87/2/5
f 91/2/5 88/2/5 90/2/5
f 92/1/5 86/1/5 75/1/5
f 92/1/5 90/1/5 86/1/5
f 92/1/5 91/1/5 90/1/5
f 93/2/5 88/2/5 91/2/5
f 93/1/5 91/1/5 92/1/5
f 94/1/5 89/1/5 88/1/5
f 94/2/5 88/2/5 93/2/5
f 95/2/5 93/2/5 92/2/5
f 96/1/5 94/1/5 93/1/5
f 96/2/5 93/2/5 95/2/5
f 97/1/5 96/1/5 95/1/5
f 98/1/5 89/1/5 94/1/5
f 98/1/5 96/1/5 97/1/5
f 98/1/5 94/1/5 96/1/5
f 99/1/5 97/1/5 95/1/5
f 100/1/5 97/1/5 99/1/5
f 101/1/6 102/1/6 104/1/6
f 103/1/6 104/1/6 106/1/6
f 104/1/6 102/1/6 109/1/6
f 106/1/6 104/1/6 109/1/6
f 105/1/6 106/1/6 109/1/6
f 109/1/6 102/1/6 110/1/6
f 107/3/6 108/3/6 111/3/6
f 105/1/6 109/1/6 112/1/6
f 109/2/6 110/2/6 113/2/6
f 112/1/6 109/1/6 113/1/6
f 110/3/6 111/3/6 114/3/6
f 111/3/6 108/3/6 114/3/6
f 114/3/6 108/3/6 115/3/6
f 105/1/6 112/1/6 116/1/6
f 112/2/6 113/2/6 116/2/6
f 113/2/6 110/2/6 117/2/6
f 116/2/6 113/2/6 117/2/6
f 110/3/6 114/3/6 118/3/6
f 117/2/6 110/2/6 118/2/6
f 118/3/6 114/3/6 119/3/6
f 116/1/6 117/1/6 120/1/6
f 117/2/6 118/2/6 120/2/6
f 120/2/6 118/2/6 121/2/6
f 105/1/6 116/1/6 122/1/6
f 116/1/6 120/1/6 122/1/6
f 120/1/6 121/1/6 122/1/6
f 121/2/6 118/2/6 123/2/6
f 122/1/6 121/1/6 123/1/6
f 118/1/6 119/1/6 124/1/6
f 123/2/6 118/2/6 124/2/6
f 122/2/6 123/2/6 125/2/6
f 123/1/6 124/1/6 126/1/6
f 125/2/6 123/2/6 126/2/6
f 125/1/6 126/1/6 127/1/6
f 124/1/6 119/1/6 128/1/6
f 127/1/6 126/1/6 128/1/6
f 126/1/6 124/1/6 128/1/6
f 125/1/6 127/1/6 129/1/6
f 129/1/6 127/1/6 130/1/6
