# MagicaVoxel @ Ephtracy

# group
o Transtellar_LandingPod

# material
mtllib Extra-11-Transtellar_LandingPod.mtl
usemtl palette

# normals
vn -1 0 0
vn 1 0 0
vn 0 0 1
vn 0 0 -1
vn 0 -1 0
vn 0 1 0

# texcoords
vt 0.513672 0.5
vt 0.947266 0.5

# verts
v -0.4 -0.4 1.2
v -0.4 -0.4 0.8
v -0.4 -0.3 1.2
v -0.4 -0.3 0.8
v -0.4 0.2 1
v -0.4 0.2 0.9
v -0.4 0.3 1
v -0.4 0.3 0.9
v -0.3 -0.3 1.1
v -0.3 -0.3 0.9
v -0.3 -0.2 1.1
v -0.3 -0.2 1
v -0.3 0 1.1
v -0.3 0 1
v -0.3 0.1 1.1
v -0.3 0.1 1
v -0.3 0.2 1.1
v -0.3 0.2 1
v -0.3 0.2 0.9
v -0.3 0.3 1.1
v -0.3 0.3 1
v -0.3 0.3 0.9
v -0.3 0.4 1.1
v -0.3 0.4 1
v -0.3 0.5 1.1
v -0.3 0.5 0.9
v -0.2 -0.4 1.4
v -0.2 -0.4 1.2
v -0.2 -0.4 0.8
v -0.2 -0.4 0.4
v -0.2 -0.3 1.4
v -0.2 -0.3 1.2
v -0.2 -0.3 0.8
v -0.2 -0.3 0.4
v 0.1 -0.3 1
v 0.1 -0.3 0.9
v 0.1 -0.2 1
v 0.1 -0.2 0.9
v 0.2 -0.3 1.1
v 0.2 -0.3 1
v 0.2 -0.2 1.1
v 0.2 -0.2 1
v 0.2 -0.2 0.9
v 0.2 0 1.1
v 0.2 0 1
v 0.2 0.1 1.1
v 0.2 0.1 1
v 0.2 0.2 1.1
v 0.2 0.2 1
v 0.2 0.3 1.1
v 0.2 0.3 1
v 0.2 0.4 1.1
v 0.2 0.4 1
v 0.2 0.5 1.1
v 0.2 0.5 0.9
v -0.2 -0.3 1.1
v -0.2 -0.3 1
v -0.2 -0.2 1.1
v -0.2 -0.2 1
v -0.2 -0.2 0.9
v -0.2 0 1.1
v -0.2 0 1
v -0.2 0.1 1.1
v -0.2 0.1 1
v -0.2 0.2 1.1
v -0.2 0.2 1
v -0.2 0.3 1.1
v -0.2 0.3 1
v -0.2 0.4 1.1
v -0.2 0.4 1
v -0.2 0.5 1.1
v -0.2 0.5 0.9
v -0.1 -0.3 1
v -0.1 -0.3 0.9
v -0.1 -0.2 1
v -0.1 -0.2 0.9
v 0.2 -0.4 1.4
v 0.2 -0.4 1.2
v 0.2 -0.4 0.8
v 0.2 -0.4 0.4
v 0.2 -0.3 1.4
v 0.2 -0.3 1.2
v 0.2 -0.3 0.8
v 0.2 -0.3 0.4
v 0.3 -0.3 1.1
v 0.3 -0.3 0.9
v 0.3 -0.2 1.1
v 0.3 -0.2 1
v 0.3 0 1.1
v 0.3 0 1
v 0.3 0.1 1.1
v 0.3 0.1 1
v 0.3 0.2 1.1
v 0.3 0.2 1
v 0.3 0.2 0.9
v 0.3 0.3 1.1
v 0.3 0.3 1
v 0.3 0.3 0.9
v 0.3 0.4 1.1
v 0.3 0.4 1
v 0.3 0.5 1.1
v 0.3 0.5 0.9
v 0.4 -0.4 1.2
v 0.4 -0.4 0.8
v 0.4 -0.3 1.2
v 0.4 -0.3 0.8
v 0.4 0.2 1
v 0.4 0.2 0.9
v 0.4 0.3 1
v 0.4 0.3 0.9
v -0.2 -0.4 1.4
v -0.2 -0.3 1.4
v 0.2 -0.4 1.4
v 0.2 -0.3 1.4
v -0.4 -0.4 1.2
v -0.4 -0.3 1.2
v -0.2 -0.4 1.2
v -0.2 -0.3 1.2
v 0.2 -0.4 1.2
v 0.2 -0.3 1.2
v 0.4 -0.4 1.2
v 0.4 -0.3 1.2
v -0.3 -0.3 1.1
v -0.3 -0.2 1.1
v -0.3 0 1.1
v -0.3 0.1 1.1
v -0.3 0.2 1.1
v -0.3 0.3 1.1
v -0.3 0.4 1.1
v -0.3 0.5 1.1
v -0.2 -0.3 1.1
v -0.2 -0.2 1.1
v -0.2 0 1.1
v -0.2 0.1 1.1
v -0.2 0.2 1.1
v -0.2 0.3 1.1
v -0.2 0.4 1.1
v -0.2 0.5 1.1
v 0.2 -0.3 1.1
v 0.2 -0.2 1.1
v 0.2 0 1.1
v 0.2 0.1 1.1
v 0.2 0.2 1.1
v 0.2 0.3 1.1
v 0.2 0.4 1.1
v 0.2 0.5 1.1
v 0.3 -0.3 1.1
v 0.3 -0.2 1.1
v 0.3 0 1.1
v 0.3 0.1 1.1
v 0.3 0.2 1.1
v 0.3 0.3 1.1
v 0.3 0.4 1.1
v 0.3 0.5 1.1
v -0.4 0.2 1
v -0.4 0.3 1
v -0.3 -0.2 1
v -0.3 0 1
v -0.3 0.1 1
v -0.3 0.2 1
v -0.3 0.3 1
v -0.3 0.4 1
v -0.2 -0.3 1
v -0.2 -0.2 1
v -0.2 0 1
v -0.2 0.1 1
v -0.2 0.2 1
v -0.2 0.3 1
v -0.2 0.4 1
v -0.1 -0.3 1
v -0.1 -0.2 1
v 0.1 -0.3 1
v 0.1 -0.2 1
v 0.2 -0.3 1
v 0.2 -0.2 1
v 0.2 0 1
v 0.2 0.1 1
v 0.2 0.2 1
v 0.2 0.3 1
v 0.2 0.4 1
v 0.3 -0.2 1
v 0.3 0 1
v 0.3 0.1 1
v 0.3 0.2 1
v 0.3 0.3 1
v 0.3 0.4 1
v 0.4 0.2 1
v 0.4 0.3 1
v -0.4 0.2 0.9
v -0.4 0.3 0.9
v -0.3 -0.3 0.9
v -0.3 0.2 0.9
v -0.3 0.3 0.9
v -0.3 0.5 0.9
v -0.2 -0.2 0.9
v -0.2 0.5 0.9
v -0.1 -0.3 0.9
v -0.1 -0.2 0.9
v 0.1 -0.3 0.9
v 0.1 -0.2 0.9
v 0.2 -0.2 0.9
v 0.2 0.5 0.9
v 0.3 -0.3 0.9
v 0.3 0.2 0.9
v 0.3 0.3 0.9
v 0.3 0.5 0.9
v 0.4 0.2 0.9
v 0.4 0.3 0.9
v -0.4 -0.4 0.8
v -0.4 -0.3 0.8
v -0.2 -0.4 0.8
v -0.2 -0.3 0.8
v 0.2 -0.4 0.8
v 0.2 -0.3 0.8
v 0.4 -0.4 0.8
v 0.4 -0.3 0.8
v -0.2 -0.4 0.4
v -0.2 -0.3 0.4
v 0.2 -0.4 0.4
v 0.2 -0.3 0.4
v -0.2 -0.4 1.4
v 0.2 -0.4 1.4
v -0.4 -0.4 1.2
v -0.2 -0.4 1.2
v 0.2 -0.4 1.2
v 0.4 -0.4 1.2
v -0.4 -0.4 0.8
v -0.2 -0.4 0.8
v 0.2 -0.4 0.8
v 0.4 -0.4 0.8
v -0.2 -0.4 0.4
v 0.2 -0.4 0.4
v -0.3 0 1.1
v -0.2 0 1.1
v 0.2 0 1.1
v 0.3 0 1.1
v -0.3 0 1
v -0.2 0 1
v 0.2 0 1
v 0.3 0 1
v -0.3 0.2 1.1
v -0.2 0.2 1.1
v 0.2 0.2 1.1
v 0.3 0.2 1.1
v -0.4 0.2 1
v -0.3 0.2 1
v -0.2 0.2 1
v 0.2 0.2 1
v 0.3 0.2 1
v 0.4 0.2 1
v -0.4 0.2 0.9
v -0.3 0.2 0.9
v 0.3 0.2 0.9
v 0.4 0.2 0.9
v -0.3 0.4 1.1
v -0.2 0.4 1.1
v 0.2 0.4 1.1
v 0.3 0.4 1.1
v -0.3 0.4 1
v -0.2 0.4 1
v 0.2 0.4 1
v 0.3 0.4 1
v -0.2 -0.3 1.4
v 0.2 -0.3 1.4
v -0.4 -0.3 1.2
v -0.2 -0.3 1.2
v 0.2 -0.3 1.2
v 0.4 -0.3 1.2
v -0.3 -0.3 1.1
v -0.2 -0.3 1.1
v 0.2 -0.3 1.1
v 0.3 -0.3 1.1
v -0.2 -0.3 1
v -0.1 -0.3 1
v 0.1 -0.3 1
v 0.2 -0.3 1
v -0.3 -0.3 0.9
v -0.1 -0.3 0.9
v 0.1 -0.3 0.9
v 0.3 -0.3 0.9
v -0.4 -0.3 0.8
v -0.2 -0.3 0.8
v 0.2 -0.3 0.8
v 0.4 -0.3 0.8
v -0.2 -0.3 0.4
v 0.2 -0.3 0.4
v -0.3 -0.2 1.1
v -0.2 -0.2 1.1
v 0.2 -0.2 1.1
v 0.3 -0.2 1.1
v -0.3 -0.2 1
v -0.2 -0.2 1
v -0.1 -0.2 1
v 0.1 -0.2 1
v 0.2 -0.2 1
v 0.3 -0.2 1
v -0.2 -0.2 0.9
v -0.1 -0.2 0.9
v 0.1 -0.2 0.9
v 0.2 -0.2 0.9
v -0.3 0.1 1.1
v -0.2 0.1 1.1
v 0.2 0.1 1.1
v 0.3 0.1 1.1
v -0.3 0.1 1
v -0.2 0.1 1
v 0.2 0.1 1
v 0.3 0.1 1
v -0.3 0.3 1.1
v -0.2 0.3 1.1
v 0.2 0.3 1.1
v 0.3 0.3 1.1
v -0.4 0.3 1
v -0.3 0.3 1
v -0.2 0.3 1
v 0.2 0.3 1
v 0.3 0.3 1
v 0.4 0.3 1
v -0.4 0.3 0.9
v -0.3 0.3 0.9
v 0.3 0.3 0.9
v 0.4 0.3 0.9
v -0.3 0.5 1.1
v -0.2 0.5 1.1
v 0.2 0.5 1.1
v 0.3 0.5 1.1
v -0.3 0.5 0.9
v -0.2 0.5 0.9
v 0.2 0.5 0.9
v 0.3 0.5 0.9

# faces
f 3/1/1 2/1/1 1/1/1
f 4/1/1 2/1/1 3/1/1
f 7/2/1 6/2/1 5/2/1
f 8/2/1 6/2/1 7/2/1
f 11/2/1 10/2/1 9/2/1
f 12/2/1 10/2/1 11/2/1
f 14/2/1 10/2/1 12/2/1
f 15/2/1 14/2/1 13/2/1
f 16/2/1 10/2/1 14/2/1
f 16/2/1 14/2/1 15/2/1
f 18/2/1 10/2/1 16/2/1
f 19/2/1 10/2/1 18/2/1
f 20/2/1 18/2/1 17/2/1
f 21/2/1 18/2/1 20/2/1
f 24/2/1 22/2/1 21/2/1
f 25/2/1 24/2/1 23/2/1
f 26/2/1 22/2/1 24/2/1
f 26/2/1 24/2/1 25/2/1
f 31/1/1 28/1/1 27/1/1
f 32/1/1 28/1/1 31/1/1
f 33/1/1 30/1/1 29/1/1
f 34/1/1 30/1/1 33/1/1
f 37/2/1 36/2/1 35/2/1
f 38/2/1 36/2/1 37/2/1
f 41/2/1 40/2/1 39/2/1
f 42/2/1 40/2/1 41/2/1
f 45/2/1 43/2/1 42/2/1
f 46/2/1 45/2/1 44/2/1
f 47/2/1 43/2/1 45/2/1
f 47/2/1 45/2/1 46/2/1
f 49/2/1 43/2/1 47/2/1
f 50/2/1 49/2/1 48/2/1
f 51/2/1 43/2/1 49/2/1
f 51/2/1 49/2/1 50/2/1
f 53/2/1 43/2/1 51/2/1
f 54/2/1 53/2/1 52/2/1
f 55/2/1 43/2/1 53/2/1
f 55/2/1 53/2/1 54/2/1
f 56/2/2 57/2/2 58/2/2
f 58/2/2 57/2/2 59/2/2
f 59/2/2 60/2/2 62/2/2
f 61/2/2 62/2/2 63/2/2
f 62/2/2 60/2/2 64/2/2
f 63/2/2 62/2/2 64/2/2
f 64/2/2 60/2/2 66/2/2
f 65/2/2 66/2/2 67/2/2
f 66/2/2 60/2/2 68/2/2
f 67/2/2 66/2/2 68/2/2
f 68/2/2 60/2/2 70/2/2
f 69/2/2 70/2/2 71/2/2
f 70/2/2 60/2/2 72/2/2
f 71/2/2 70/2/2 72/2/2
f 73/2/2 74/2/2 75/2/2
f 75/2/2 74/2/2 76/2/2
f 77/1/2 78/1/2 81/1/2
f 81/1/2 78/1/2 82/1/2
f 79/1/2 80/1/2 83/1/2
f 83/1/2 80/1/2 84/1/2
f 85/2/2 86/2/2 87/2/2
f 87/2/2 86/2/2 88/2/2
f 88/2/2 86/2/2 90/2/2
f 89/2/2 90/2/2 91/2/2
f 90/2/2 86/2/2 92/2/2
f 91/2/2 90/2/2 92/2/2
f 92/2/2 86/2/2 94/2/2
f 94/2/2 86/2/2 95/2/2
f 93/2/2 94/2/2 96/2/2
f 96/2/2 94/2/2 97/2/2
f 97/2/2 98/2/2 100/2/2
f 99/2/2 100/2/2 101/2/2
f 100/2/2 98/2/2 102/2/2
f 101/2/2 100/2/2 102/2/2
f 103/1/2 104/1/2 105/1/2
f 105/1/2 104/1/2 106/1/2
f 107/2/2 108/2/2 109/2/2
f 109/2/2 108/2/2 110/2/2
f 113/1/3 112/1/3 111/1/3
f 114/1/3 112/1/3 113/1/3
f 117/1/3 116/1/3 115/1/3
f 118/1/3 116/1/3 117/1/3
f 121/1/3 120/1/3 119/1/3
f 122/1/3 120/1/3 121/1/3
f 131/2/3 124/2/3 123/2/3
f 132/2/3 124/2/3 131/2/3
f 133/2/3 126/2/3 125/2/3
f 134/2/3 126/2/3 133/2/3
f 135/2/3 128/2/3 127/2/3
f 136/2/3 128/2/3 135/2/3
f 137/2/3 130/2/3 129/2/3
f 138/2/3 130/2/3 137/2/3
f 147/2/3 140/2/3 139/2/3
f 148/2/3 140/2/3 147/2/3
f 149/2/3 142/2/3 141/2/3
f 150/2/3 142/2/3 149/2/3
f 151/2/3 144/2/3 143/2/3
f 152/2/3 144/2/3 151/2/3
f 153/2/3 146/2/3 145/2/3
f 154/2/3 146/2/3 153/2/3
f 160/2/3 156/2/3 155/2/3
f 161/2/3 156/2/3 160/2/3
f 164/2/3 158/2/3 157/2/3
f 165/2/3 158/2/3 164/2/3
f 166/2/3 160/2/3 159/2/3
f 167/2/3 160/2/3 166/2/3
f 168/2/3 162/2/3 161/2/3
f 169/2/3 162/2/3 168/2/3
f 170/2/3 164/2/3 163/2/3
f 171/2/3 164/2/3 170/2/3
f 174/2/3 173/2/3 172/2/3
f 175/2/3 173/2/3 174/2/3
f 181/2/3 176/2/3 175/2/3
f 182/2/3 176/2/3 181/2/3
f 183/2/3 178/2/3 177/2/3
f 184/2/3 178/2/3 183/2/3
f 185/2/3 180/2/3 179/2/3
f 186/2/3 180/2/3 185/2/3
f 187/2/3 185/2/3 184/2/3
f 188/2/3 185/2/3 187/2/3
f 189/2/4 190/2/4 192/2/4
f 192/2/4 190/2/4 193/2/4
f 191/2/4 192/2/4 195/2/4
f 193/2/4 194/2/4 195/2/4
f 192/2/4 193/2/4 195/2/4
f 195/2/4 194/2/4 196/2/4
f 191/2/4 195/2/4 197/2/4
f 197/2/4 195/2/4 198/2/4
f 199/2/4 200/2/4 201/2/4
f 199/2/4 201/2/4 203/2/4
f 201/2/4 202/2/4 203/2/4
f 203/2/4 202/2/4 204/2/4
f 204/2/4 202/2/4 205/2/4
f 205/2/4 202/2/4 206/2/4
f 204/2/4 205/2/4 207/2/4
f 207/2/4 205/2/4 208/2/4
f 209/1/4 210/1/4 211/1/4
f 211/1/4 210/1/4 212/1/4
f 213/1/4 214/1/4 215/1/4
f 215/1/4 214/1/4 216/1/4
f 217/1/4 218/1/4 219/1/4
f 219/1/4 218/1/4 220/1/4
f 224/1/5 222/1/5 221/1/5
f 225/1/5 222/1/5 224/1/5
f 227/1/5 224/1/5 223/1/5
f 227/1/5 226/1/5 225/1/5
f 227/1/5 225/1/5 224/1/5
f 228/1/5 226/1/5 227/1/5
f 229/1/5 226/1/5 228/1/5
f 230/1/5 226/1/5 229/1/5
f 231/1/5 229/1/5 228/1/5
f 232/1/5 229/1/5 231/1/5
f 237/2/5 234/2/5 233/2/5
f 238/2/5 234/2/5 237/2/5
f 239/2/5 236/2/5 235/2/5
f 240/2/5 236/2/5 239/2/5
f 246/2/5 242/2/5 241/2/5
f 247/2/5 242/2/5 246/2/5
f 248/2/5 244/2/5 243/2/5
f 249/2/5 244/2/5 248/2/5
f 251/2/5 246/2/5 245/2/5
f 252/2/5 246/2/5 251/2/5
f 253/2/5 250/2/5 249/2/5
f 254/2/5 250/2/5 253/2/5
f 259/2/5 256/2/5 255/2/5
f 260/2/5 256/2/5 259/2/5
f 261/2/5 258/2/5 257/2/5
f 262/2/5 258/2/5 261/2/5
f 263/1/6 264/1/6 266/1/6
f 266/1/6 264/1/6 267/1/6
f 265/1/6 266/1/6 269/1/6
f 267/1/6 268/1/6 269/1/6
f 266/1/6 267/1/6 269/1/6
f 269/1/6 268/1/6 270/1/6
f 270/1/6 268/1/6 271/1/6
f 271/1/6 268/1/6 272/1/6
f 270/1/6 271/1/6 273/1/6
f 273/1/6 271/1/6 274/1/6
f 274/1/6 271/1/6 275/1/6
f 275/1/6 271/1/6 276/1/6
f 265/1/6 269/1/6 277/1/6
f 274/1/6 275/1/6 278/1/6
f 278/1/6 275/1/6 279/1/6
f 272/1/6 268/1/6 280/1/6
f 278/1/6 279/1/6 281/1/6
f 279/1/6 280/1/6 281/1/6
f 277/1/6 278/1/6 281/1/6
f 265/1/6 277/1/6 281/1/6
f 281/1/6 280/1/6 282/1/6
f 282/1/6 280/1/6 283/1/6
f 280/1/6 268/1/6 284/1/6
f 283/1/6 280/1/6 284/1/6
f 282/1/6 283/1/6 285/1/6
f 285/1/6 283/1/6 286/1/6
f 287/2/6 288/2/6 291/2/6
f 291/2/6 288/2/6 292/2/6
f 289/2/6 290/2/6 295/2/6
f 295/2/6 290/2/6 296/2/6
f 292/2/6 293/2/6 297/2/6
f 297/2/6 293/2/6 298/2/6
f 294/2/6 295/2/6 299/2/6
f 299/2/6 295/2/6 300/2/6
f 301/2/6 302/2/6 305/2/6
f 305/2/6 302/2/6 306/2/6
f 303/2/6 304/2/6 307/2/6
f 307/2/6 304/2/6 308/2/6
f 309/2/6 310/2/6 314/2/6
f 314/2/6 310/2/6 315/2/6
f 311/2/6 312/2/6 316/2/6
f 316/2/6 312/2/6 317/2/6
f 313/2/6 314/2/6 319/2/6
f 319/2/6 314/2/6 320/2/6
f 317/2/6 318/2/6 321/2/6
f 321/2/6 318/2/6 322/2/6
f 323/2/6 324/2/6 327/2/6
f 327/2/6 324/2/6 328/2/6
f 325/2/6 326/2/6 329/2/6
f 329/2/6 326/2/6 330/2/6
