# MagicaVoxel @ Ephtracy

# group
o Transtellar_Wing3_L

# material
mtllib Extra-8-Transtellar_Wing3_L.mtl
usemtl palette

# normals
vn 1 0 0
vn -1 0 0
vn 0 0 1
vn 0 0 -1
vn 0 -1 0
vn 0 1 0

# texcoords
vt 0.513672 0.5
vt 0.939453 0.5

# verts
v 2 -0.7 2
v 2 -0.7 1.6
v 2 -0.7 0.7
v 2 -0.6 2
v 2 -0.6 1.6
v 2 -0.6 0.7
v 1.9 -0.7 0.7
v 1.9 -0.7 0.5
v 1.9 -0.6 0.7
v 1.9 -0.6 0.5
v 1.8 -0.7 0.5
v 1.8 -0.7 0.4
v 1.8 -0.6 1.5
v 1.8 -0.6 1.3
v 1.8 -0.6 1
v 1.8 -0.6 0.5
v 1.8 -0.6 0.4
v 1.8 -0.6 0.2
v 1.8 -0.5 1.5
v 1.8 -0.5 1.3
v 1.8 -0.5 1
v 1.8 -0.5 0.2
v 1.7 -0.6 0.2
v 1.7 -0.6 0.0999999
v 1.7 -0.5 0.2
v 1.7 -0.5 0.0999999
v 1.9 -0.7 2
v 1.9 -0.7 1.8
v 1.9 -0.6 2
v 1.9 -0.6 1.8
v 1.8 -0.7 1.8
v 1.8 -0.7 1.6
v 1.8 -0.6 1.8
v 1.8 -0.6 1.6
v 1.7 -0.7 1.6
v 1.7 -0.7 1.4
v 1.7 -0.6 1.6
v 1.7 -0.6 1.5
v 1.7 -0.5 1.5
v 1.7 -0.5 1.4
v 1.6 -0.7 1.4
v 1.6 -0.7 0.4
v 1.6 -0.6 1.2
v 1.6 -0.6 0.9
v 1.6 -0.6 0.4
v 1.6 -0.6 0.0999999
v 1.6 -0.5 1.4
v 1.6 -0.5 1.2
v 1.6 -0.5 0.9
v 1.6 -0.5 0.0999999
v 2 -0.7 2
v 2 -0.6 2
v 1.9 -0.7 2
v 1.9 -0.6 2
v 1.9 -0.7 1.8
v 1.9 -0.6 1.8
v 1.8 -0.7 1.8
v 1.8 -0.6 1.8
v 1.8 -0.7 1.6
v 1.8 -0.6 1.6
v 1.7 -0.7 1.6
v 1.7 -0.6 1.6
v 1.8 -0.6 1.5
v 1.8 -0.5 1.5
v 1.7 -0.6 1.5
v 1.7 -0.5 1.5
v 1.7 -0.7 1.4
v 1.7 -0.5 1.4
v 1.6 -0.7 1.4
v 1.6 -0.5 1.4
v 2 -0.7 0.7
v 2 -0.6 0.7
v 1.9 -0.7 0.7
v 1.9 -0.6 0.7
v 1.9 -0.7 0.5
v 1.9 -0.6 0.5
v 1.8 -0.7 0.5
v 1.8 -0.6 0.5
v 1.8 -0.7 0.4
v 1.8 -0.6 0.4
v 1.6 -0.7 0.4
v 1.6 -0.6 0.4
v 1.8 -0.6 0.2
v 1.8 -0.5 0.2
v 1.7 -0.6 0.2
v 1.7 -0.5 0.2
v 1.7 -0.6 0.0999999
v 1.7 -0.5 0.0999999
v 1.6 -0.6 0.0999999
v 1.6 -0.5 0.0999999
v 2 -0.7 2
v 1.9 -0.7 2
v 1.9 -0.7 1.8
v 1.8 -0.7 1.8
v 2 -0.7 1.6
v 1.9 -0.7 1.6
v 1.8 -0.7 1.6
v 1.7 -0.7 1.6
v 1.9 -0.7 1.5
v 1.8 -0.7 1.5
v 1.7 -0.7 1.4
v 1.6 -0.7 1.4
v 2 -0.7 0.7
v 1.9 -0.7 0.7
v 1.9 -0.7 0.5
v 1.8 -0.7 0.5
v 1.8 -0.7 0.4
v 1.6 -0.7 0.4
v 1.8 -0.6 0.4
v 1.6 -0.6 0.4
v 1.8 -0.6 0.2
v 1.7 -0.6 0.2
v 1.7 -0.6 0.0999999
v 1.6 -0.6 0.0999999
v 2 -0.6 2
v 1.9 -0.6 2
v 1.9 -0.6 1.8
v 1.8 -0.6 1.8
v 2 -0.6 1.6
v 1.9 -0.6 1.6
v 1.8 -0.6 1.6
v 1.7 -0.6 1.6
v 1.9 -0.6 1.5
v 1.8 -0.6 1.5
v 1.7 -0.6 1.5
v 1.8 -0.6 1.3
v 1.8 -0.6 1
v 2 -0.6 0.7
v 1.9 -0.6 0.7
v 1.9 -0.6 0.5
v 1.8 -0.6 0.5
v 1.8 -0.5 1.5
v 1.7 -0.5 1.5
v 1.7 -0.5 1.4
v 1.6 -0.5 1.4
v 1.8 -0.5 1.3
v 1.7 -0.5 1.3
v 1.7 -0.5 1.2
v 1.6 -0.5 1.2
v 1.8 -0.5 1
v 1.7 -0.5 1
v 1.7 -0.5 0.9
v 1.6 -0.5 0.9
v 1.8 -0.5 0.2
v 1.7 -0.5 0.2
v 1.7 -0.5 0.0999999
v 1.6 -0.5 0.0999999

# faces
f 1/1/1 2/1/1 4/1/1
f 2/2/1 3/2/1 5/2/1
f 4/1/1 2/1/1 5/1/1
f 5/2/1 3/2/1 6/2/1
f 7/2/1 8/2/1 9/2/1
f 9/2/1 8/2/1 10/2/1
f 11/1/1 12/1/1 16/1/1
f 16/1/1 12/1/1 17/1/1
f 13/1/1 14/1/1 19/1/1
f 14/2/1 15/2/1 20/2/1
f 19/1/1 14/1/1 20/1/1
f 17/1/1 18/1/1 21/1/1
f 20/2/1 15/2/1 21/2/1
f 15/1/1 16/1/1 21/1/1
f 16/1/1 17/1/1 21/1/1
f 21/1/1 18/1/1 22/1/1
f 23/1/1 24/1/1 25/1/1
f 25/1/1 24/1/1 26/1/1
f 29/1/2 28/1/2 27/1/2
f 30/1/2 28/1/2 29/1/2
f 33/1/2 32/1/2 31/1/2
f 34/1/2 32/1/2 33/1/2
f 37/1/2 36/1/2 35/1/2
f 38/1/2 36/1/2 37/1/2
f 39/1/2 36/1/2 38/1/2
f 40/1/2 36/1/2 39/1/2
f 43/1/2 42/1/2 41/1/2
f 44/1/2 42/1/2 43/1/2
f 45/1/2 42/1/2 44/1/2
f 47/1/2 43/1/2 41/1/2
f 48/2/2 44/2/2 43/2/2
f 48/1/2 43/1/2 47/1/2
f 49/1/2 46/1/2 45/1/2
f 49/2/2 44/2/2 48/2/2
f 49/1/2 45/1/2 44/1/2
f 50/1/2 46/1/2 49/1/2
f 51/1/3 52/1/3 53/1/3
f 53/1/3 52/1/3 54/1/3
f 55/1/3 56/1/3 57/1/3
f 57/1/3 56/1/3 58/1/3
f 59/1/3 60/1/3 61/1/3
f 61/1/3 60/1/3 62/1/3
f 63/1/3 64/1/3 65/1/3
f 65/1/3 64/1/3 66/1/3
f 67/1/3 68/1/3 69/1/3
f 69/1/3 68/1/3 70/1/3
f 73/2/4 72/2/4 71/2/4
f 74/2/4 72/2/4 73/2/4
f 77/2/4 76/2/4 75/2/4
f 78/2/4 76/2/4 77/2/4
f 81/1/4 80/1/4 79/1/4
f 82/1/4 80/1/4 81/1/4
f 85/1/4 84/1/4 83/1/4
f 86/1/4 84/1/4 85/1/4
f 89/1/4 88/1/4 87/1/4
f 90/1/4 88/1/4 89/1/4
f 91/1/5 92/1/5 93/1/5
f 91/1/5 93/1/5 95/1/5
f 93/1/5 94/1/5 95/1/5
f 95/1/5 94/1/5 96/1/5
f 96/1/5 94/1/5 97/1/5
f 95/2/5 96/2/5 99/2/5
f 97/1/5 98/1/5 99/1/5
f 96/1/5 97/1/5 99/1/5
f 99/1/5 98/1/5 100/1/5
f 100/1/5 98/1/5 101/1/5
f 95/2/5 99/2/5 103/2/5
f 99/2/5 100/2/5 103/2/5
f 103/2/5 100/2/5 104/2/5
f 104/2/5 100/2/5 105/2/5
f 101/1/5 102/1/5 106/1/5
f 105/2/5 100/2/5 106/2/5
f 100/1/5 101/1/5 106/1/5
f 106/1/5 102/1/5 107/1/5
f 107/1/5 102/1/5 108/1/5
f 109/1/5 110/1/5 111/1/5
f 111/1/5 110/1/5 112/1/5
f 112/1/5 110/1/5 113/1/5
f 113/1/5 110/1/5 114/1/5
f 117/1/6 116/1/6 115/1/6
f 119/1/6 117/1/6 115/1/6
f 119/1/6 118/1/6 117/1/6
f 120/1/6 118/1/6 119/1/6
f 121/1/6 118/1/6 120/1/6
f 123/2/6 120/2/6 119/2/6
f 123/1/6 122/1/6 121/1/6
f 123/1/6 121/1/6 120/1/6
f 124/1/6 122/1/6 123/1/6
f 125/1/6 122/1/6 124/1/6
f 126/2/6 124/2/6 123/2/6
f 127/2/6 126/2/6 123/2/6
f 128/2/6 123/2/6 119/2/6
f 128/2/6 127/2/6 123/2/6
f 129/2/6 127/2/6 128/2/6
f 130/2/6 127/2/6 129/2/6
f 131/2/6 127/2/6 130/2/6
f 134/1/6 133/1/6 132/1/6
f 136/1/6 134/1/6 132/1/6
f 136/1/6 135/1/6 134/1/6
f 137/1/6 135/1/6 136/1/6
f 138/2/6 137/2/6 136/2/6
f 138/1/6 135/1/6 137/1/6
f 139/1/6 135/1/6 138/1/6
f 140/2/6 138/2/6 136/2/6
f 140/2/6 139/2/6 138/2/6
f 141/2/6 139/2/6 140/2/6
f 142/1/6 141/1/6 140/1/6
f 142/2/6 139/2/6 141/2/6
f 143/2/6 139/2/6 142/2/6
f 144/1/6 142/1/6 140/1/6
f 144/1/6 143/1/6 142/1/6
f 145/1/6 143/1/6 144/1/6
f 146/1/6 143/1/6 145/1/6
f 147/1/6 143/1/6 146/1/6
