# MagicaVoxel @ Ephtracy

# group
o StarMarine_MachineGun1

# material
mtllib Extra-10-StarMarine_MachineGun1.mtl
usemtl palette

# normals
vn -1 0 0
vn 1 0 0
vn 0 0 1
vn 0 0 -1
vn 0 -1 0
vn 0 1 0

# texcoords
vt 0.00195313 0.5
vt 0.724609 0.5
vt 0.779297 0.5

# verts
v 0.3 1 -1.7
v 0.3 1 -2.1
v 0.3 1.1 -1.7
v 0.3 1.1 -2.1
v 0.4 0.9 -2.1
v 0.4 0.9 -2.2
v 0.4 1 -2.1
v 0.4 1 -2.2
v 0.4 1.1 -2
v 0.4 1.1 -2.1
v 0.4 1.1 -2.2
v 0.4 1.2 -2
v 0.4 1.2 -2.1
v 0.5 1 -1.7
v 0.5 1 -1.8
v 0.5 1.1 -1.7
v 0.5 1.1 -1.8
v 0.4 1 -1.7
v 0.4 1 -1.8
v 0.4 1.1 -1.7
v 0.4 1.1 -1.8
v 0.5 0.9 -2.1
v 0.5 0.9 -2.2
v 0.5 1 -2.1
v 0.5 1 -2.2
v 0.5 1.1 -2
v 0.5 1.1 -2.1
v 0.5 1.1 -2.2
v 0.5 1.2 -2
v 0.5 1.2 -2.1
v 0.6 1 -1.7
v 0.6 1 -2.1
v 0.6 1.1 -1.7
v 0.6 1.1 -2.1
v 0.3 1 -1.7
v 0.3 1.1 -1.7
v 0.4 1 -1.7
v 0.4 1.1 -1.7
v 0.5 1 -1.7
v 0.5 1.1 -1.7
v 0.6 1 -1.7
v 0.6 1.1 -1.7
v 0.4 1 -1.8
v 0.4 1.1 -1.8
v 0.5 1 -1.8
v 0.5 1.1 -1.8
v 0.4 1.1 -2
v 0.4 1.2 -2
v 0.5 1.1 -2
v 0.5 1.2 -2
v 0.4 0.9 -2.1
v 0.4 1 -2.1
v 0.5 0.9 -2.1
v 0.5 1 -2.1
v 0.3 1 -2.1
v 0.3 1.1 -2.1
v 0.4 1 -2.1
v 0.4 1.1 -2.1
v 0.4 1.2 -2.1
v 0.5 1 -2.1
v 0.5 1.1 -2.1
v 0.5 1.2 -2.1
v 0.6 1 -2.1
v 0.6 1.1 -2.1
v 0.4 0.9 -2.2
v 0.4 1 -2.2
v 0.4 1.1 -2.2
v 0.5 0.9 -2.2
v 0.5 1 -2.2
v 0.5 1.1 -2.2
v 0.4 0.9 -2.1
v 0.5 0.9 -2.1
v 0.4 0.9 -2.2
v 0.5 0.9 -2.2
v 0.3 1 -1.7
v 0.4 1 -1.7
v 0.5 1 -1.7
v 0.6 1 -1.7
v 0.4 1 -1.8
v 0.5 1 -1.8
v 0.3 1 -2.1
v 0.4 1 -2.1
v 0.5 1 -2.1
v 0.6 1 -2.1
v 0.3 1.1 -1.7
v 0.4 1.1 -1.7
v 0.5 1.1 -1.7
v 0.6 1.1 -1.7
v 0.4 1.1 -1.8
v 0.5 1.1 -1.8
v 0.4 1.1 -2
v 0.5 1.1 -2
v 0.3 1.1 -2.1
v 0.4 1.1 -2.1
v 0.5 1.1 -2.1
v 0.6 1.1 -2.1
v 0.4 1.1 -2.2
v 0.5 1.1 -2.2
v 0.4 1.2 -2
v 0.5 1.2 -2
v 0.4 1.2 -2.1
v 0.5 1.2 -2.1

# faces
f 3/2/1 2/2/1 1/2/1
f 4/2/1 2/2/1 3/2/1
f 7/3/1 6/3/1 5/3/1
f 8/3/1 6/3/1 7/3/1
f 10/2/1 8/2/1 7/2/1
f 11/2/1 8/2/1 10/2/1
f 12/1/1 10/1/1 9/1/1
f 13/1/1 10/1/1 12/1/1
f 16/2/1 15/2/1 14/2/1
f 17/2/1 15/2/1 16/2/1
f 18/2/2 19/2/2 20/2/2
f 20/2/2 19/2/2 21/2/2
f 22/3/2 23/3/2 24/3/2
f 24/3/2 23/3/2 25/3/2
f 24/2/2 25/2/2 27/2/2
f 27/2/2 25/2/2 28/2/2
f 26/1/2 27/1/2 29/1/2
f 29/1/2 27/1/2 30/1/2
f 31/2/2 32/2/2 33/2/2
f 33/2/2 32/2/2 34/2/2
f 37/2/3 36/2/3 35/2/3
f 38/2/3 36/2/3 37/2/3
f 41/2/3 40/2/3 39/2/3
f 42/2/3 40/2/3 41/2/3
f 45/2/3 44/2/3 43/2/3
f 46/2/3 44/2/3 45/2/3
f 49/1/3 48/1/3 47/1/3
f 50/1/3 48/1/3 49/1/3
f 53/3/3 52/3/3 51/3/3
f 54/3/3 52/3/3 53/3/3
f 55/2/4 56/2/4 57/2/4
f 57/2/4 56/2/4 58/2/4
f 58/1/4 59/1/4 61/1/4
f 61/1/4 59/1/4 62/1/4
f 60/2/4 61/2/4 63/2/4
f 63/2/4 61/2/4 64/2/4
f 65/3/4 66/3/4 68/3/4
f 66/2/4 67/2/4 69/2/4
f 68/3/4 66/3/4 69/3/4
f 69/2/4 67/2/4 70/2/4
f 73/3/5 72/3/5 71/3/5
f 74/3/5 72/3/5 73/3/5
f 79/2/5 76/2/5 75/2/5
f 80/2/5 78/2/5 77/2/5
f 81/2/5 79/2/5 75/2/5
f 81/2/5 80/2/5 79/2/5
f 82/2/5 80/2/5 81/2/5
f 83/2/5 78/2/5 80/2/5
f 83/2/5 80/2/5 82/2/5
f 84/2/5 78/2/5 83/2/5
f 85/2/6 86/2/6 89/2/6
f 87/2/6 88/2/6 90/2/6
f 85/2/6 89/2/6 91/2/6
f 89/2/6 90/2/6 91/2/6
f 90/2/6 88/2/6 92/2/6
f 91/2/6 90/2/6 92/2/6
f 85/2/6 91/2/6 93/2/6
f 93/2/6 91/2/6 94/2/6
f 92/2/6 88/2/6 95/2/6
f 95/2/6 88/2/6 96/2/6
f 94/2/6 95/2/6 97/2/6
f 97/2/6 95/2/6 98/2/6
f 99/1/6 100/1/6 101/1/6
f 101/1/6 100/1/6 102/1/6
