# MagicaVoxel @ Ephtracy

# group
o UVintruder_LandingPod_

# material
mtllib Extra-7-UVintruder_LandingPod_.mtl
usemtl palette

# normals
vn -1 0 0
vn 1 0 0
vn 0 0 1
vn 0 0 -1
vn 0 1 0
vn 0 -1 0

# texcoords
vt 0.724609 0.5
vt 0.806641 0.5

# verts
v 1.3 -0.3 1.5
v 1.3 -0.3 0.9
v 1.3 -0.4 1.5
v 1.3 -0.4 0.9
v 1.4 -0.4 1.5
v 1.4 -0.4 0.9
v 1.4 -0.4 0.7
v 1.4 -0.5 1.5
v 1.4 -0.5 0.7
v 1.5 0.1 1.2
v 1.5 0.1 1.1
v 1.5 0 1.3
v 1.5 0 1.2
v 1.5 0 1.1
v 1.5 0 1
v 1.5 -0.1 1.3
v 1.5 -0.1 1.2
v 1.5 -0.1 1.1
v 1.5 -0.1 1
v 1.5 -0.2 1.3
v 1.5 -0.2 1.2
v 1.5 -0.3 1.4
v 1.5 -0.3 1.3
v 1.5 -0.3 1.1
v 1.5 -0.3 1
v 1.5 -0.4 1.4
v 1.5 -0.4 1.3
v 1.5 -0.4 1.1
v 1.5 -0.4 1
v 1.8 -0.5 1.5
v 1.8 -0.5 0.9
v 1.8 -0.6 1.5
v 1.8 -0.6 0.9
v 1.4 -0.3 1.5
v 1.4 -0.3 1.3
v 1.4 -0.3 1.1
v 1.4 -0.3 0.9
v 1.4 -0.4 1.5
v 1.4 -0.4 1.3
v 1.4 -0.4 1.1
v 1.4 -0.4 0.9
v 1.7 0.1 1.2
v 1.7 0.1 1.1
v 1.7 0 1.3
v 1.7 0 1.2
v 1.7 0 1.1
v 1.7 0 1
v 1.7 -0.1 1.3
v 1.7 -0.1 1.2
v 1.7 -0.1 1.1
v 1.7 -0.1 1
v 1.7 -0.2 1.3
v 1.7 -0.2 1.2
v 1.7 -0.3 1.4
v 1.7 -0.3 1.3
v 1.7 -0.3 1.1
v 1.7 -0.3 1
v 1.7 -0.4 1.4
v 1.7 -0.4 1.3
v 1.7 -0.4 1.1
v 1.7 -0.4 1
v 1.8 -0.3 1.3
v 1.8 -0.3 1.1
v 1.8 -0.4 1.5
v 1.8 -0.4 1.3
v 1.8 -0.4 1.1
v 1.8 -0.4 0.7
v 1.8 -0.5 1.5
v 1.8 -0.5 0.9
v 1.8 -0.5 0.7
v 1.9 -0.5 1.5
v 1.9 -0.5 0.9
v 1.9 -0.6 1.5
v 1.9 -0.6 0.9
v 1.3 -0.3 1.5
v 1.3 -0.4 1.5
v 1.4 -0.3 1.5
v 1.4 -0.4 1.5
v 1.4 -0.5 1.5
v 1.8 -0.4 1.5
v 1.8 -0.5 1.5
v 1.8 -0.6 1.5
v 1.9 -0.5 1.5
v 1.9 -0.6 1.5
v 1.5 -0.3 1.4
v 1.5 -0.4 1.4
v 1.7 -0.3 1.4
v 1.7 -0.4 1.4
v 1.4 -0.3 1.3
v 1.4 -0.4 1.3
v 1.5 0 1.3
v 1.5 -0.1 1.3
v 1.5 -0.2 1.3
v 1.5 -0.3 1.3
v 1.5 -0.4 1.3
v 1.7 0 1.3
v 1.7 -0.1 1.3
v 1.7 -0.2 1.3
v 1.7 -0.3 1.3
v 1.7 -0.4 1.3
v 1.8 -0.3 1.3
v 1.8 -0.4 1.3
v 1.5 0.1 1.2
v 1.5 0 1.2
v 1.5 -0.1 1.2
v 1.5 -0.2 1.2
v 1.7 0.1 1.2
v 1.7 0 1.2
v 1.7 -0.1 1.2
v 1.7 -0.2 1.2
v 1.4 -0.3 1.1
v 1.4 -0.4 1.1
v 1.5 0.1 1.1
v 1.5 0 1.1
v 1.5 -0.1 1.1
v 1.5 -0.3 1.1
v 1.5 -0.4 1.1
v 1.7 0.1 1.1
v 1.7 0 1.1
v 1.7 -0.1 1.1
v 1.7 -0.3 1.1
v 1.7 -0.4 1.1
v 1.8 -0.3 1.1
v 1.8 -0.4 1.1
v 1.5 0 1
v 1.5 -0.1 1
v 1.5 -0.3 1
v 1.5 -0.4 1
v 1.7 0 1
v 1.7 -0.1 1
v 1.7 -0.3 1
v 1.7 -0.4 1
v 1.3 -0.3 0.9
v 1.3 -0.4 0.9
v 1.4 -0.3 0.9
v 1.4 -0.4 0.9
v 1.8 -0.5 0.9
v 1.8 -0.6 0.9
v 1.9 -0.5 0.9
v 1.9 -0.6 0.9
v 1.4 -0.4 0.7
v 1.4 -0.5 0.7
v 1.8 -0.4 0.7
v 1.8 -0.5 0.7
v 1.5 0.1 1.2
v 1.7 0.1 1.2
v 1.5 0.1 1.1
v 1.7 0.1 1.1
v 1.5 0 1.3
v 1.7 0 1.3
v 1.5 0 1.2
v 1.7 0 1.2
v 1.5 0 1.1
v 1.7 0 1.1
v 1.5 0 1
v 1.7 0 1
v 1.5 -0.2 1.3
v 1.7 -0.2 1.3
v 1.5 -0.2 1.2
v 1.7 -0.2 1.2
v 1.3 -0.3 1.5
v 1.4 -0.3 1.5
v 1.5 -0.3 1.4
v 1.7 -0.3 1.4
v 1.4 -0.3 1.3
v 1.5 -0.3 1.3
v 1.7 -0.3 1.3
v 1.8 -0.3 1.3
v 1.4 -0.3 1.1
v 1.5 -0.3 1.1
v 1.7 -0.3 1.1
v 1.8 -0.3 1.1
v 1.5 -0.3 1
v 1.7 -0.3 1
v 1.3 -0.3 0.9
v 1.4 -0.3 0.9
v 1.4 -0.4 1.5
v 1.8 -0.4 1.5
v 1.5 -0.4 1.4
v 1.7 -0.4 1.4
v 1.4 -0.4 1.3
v 1.5 -0.4 1.3
v 1.7 -0.4 1.3
v 1.8 -0.4 1.3
v 1.4 -0.4 1.1
v 1.5 -0.4 1.1
v 1.7 -0.4 1.1
v 1.8 -0.4 1.1
v 1.5 -0.4 1
v 1.7 -0.4 1
v 1.4 -0.4 0.9
v 1.4 -0.4 0.7
v 1.8 -0.4 0.7
v 1.8 -0.5 1.5
v 1.9 -0.5 1.5
v 1.8 -0.5 0.9
v 1.9 -0.5 0.9
v 1.5 -0.1 1.3
v 1.7 -0.1 1.3
v 1.5 -0.1 1.2
v 1.7 -0.1 1.2
v 1.5 -0.1 1.1
v 1.7 -0.1 1.1
v 1.5 -0.1 1
v 1.7 -0.1 1
v 1.3 -0.4 1.5
v 1.4 -0.4 1.5
v 1.3 -0.4 0.9
v 1.4 -0.4 0.9
v 1.4 -0.5 1.5
v 1.8 -0.5 1.5
v 1.8 -0.5 0.9
v 1.4 -0.5 0.7
v 1.8 -0.5 0.7
v 1.8 -0.6 1.5
v 1.9 -0.6 1.5
v 1.8 -0.6 0.9
v 1.9 -0.6 0.9

# faces
f 1/2/1 2/2/1 3/2/1
f 3/2/1 2/2/1 4/2/1
f 5/2/1 6/2/1 8/2/1
f 6/2/1 7/2/1 8/2/1
f 8/2/1 7/2/1 9/2/1
f 10/1/1 11/1/1 13/1/1
f 13/1/1 11/1/1 14/1/1
f 12/1/1 13/1/1 16/1/1
f 14/1/1 15/1/1 16/1/1
f 13/1/1 14/1/1 16/1/1
f 16/1/1 15/1/1 17/1/1
f 17/1/1 15/1/1 18/1/1
f 18/1/1 15/1/1 19/1/1
f 17/1/1 18/1/1 21/1/1
f 20/1/1 21/1/1 23/1/1
f 21/1/1 18/1/1 24/1/1
f 23/1/1 21/1/1 24/1/1
f 22/1/1 23/1/1 26/1/1
f 26/1/1 23/1/1 27/1/1
f 24/1/1 25/1/1 28/1/1
f 28/1/1 25/1/1 29/1/1
f 30/2/1 31/2/1 32/2/1
f 32/2/1 31/2/1 33/2/1
f 38/2/2 35/2/2 34/2/2
f 39/2/2 35/2/2 38/2/2
f 40/2/2 37/2/2 36/2/2
f 41/2/2 37/2/2 40/2/2
f 45/1/2 43/1/2 42/1/2
f 46/1/2 43/1/2 45/1/2
f 48/1/2 45/1/2 44/1/2
f 48/1/2 47/1/2 46/1/2
f 48/1/2 46/1/2 45/1/2
f 49/1/2 47/1/2 48/1/2
f 50/1/2 47/1/2 49/1/2
f 51/1/2 47/1/2 50/1/2
f 53/1/2 50/1/2 49/1/2
f 55/1/2 53/1/2 52/1/2
f 56/1/2 50/1/2 53/1/2
f 56/1/2 53/1/2 55/1/2
f 58/1/2 55/1/2 54/1/2
f 59/1/2 55/1/2 58/1/2
f 60/1/2 57/1/2 56/1/2
f 61/1/2 57/1/2 60/1/2
f 65/1/2 63/1/2 62/1/2
f 66/1/2 63/1/2 65/1/2
f 68/2/2 65/2/2 64/2/2
f 68/2/2 67/2/2 66/2/2
f 68/2/2 66/2/2 65/2/2
f 69/2/2 67/2/2 68/2/2
f 70/2/2 67/2/2 69/2/2
f 73/2/2 72/2/2 71/2/2
f 74/2/2 72/2/2 73/2/2
f 75/2/3 76/2/3 77/2/3
f 77/2/3 76/2/3 78/2/3
f 78/2/3 79/2/3 80/2/3
f 80/2/3 79/2/3 81/2/3
f 81/2/3 82/2/3 83/2/3
f 83/2/3 82/2/3 84/2/3
f 85/1/3 86/1/3 87/1/3
f 87/1/3 86/1/3 88/1/3
f 89/1/3 90/1/3 94/1/3
f 94/1/3 90/1/3 95/1/3
f 91/1/3 92/1/3 96/1/3
f 96/1/3 92/1/3 97/1/3
f 93/1/3 94/1/3 98/1/3
f 98/1/3 94/1/3 99/1/3
f 99/1/3 100/1/3 101/1/3
f 101/1/3 100/1/3 102/1/3
f 103/1/3 104/1/3 107/1/3
f 107/1/3 104/1/3 108/1/3
f 105/1/3 106/1/3 109/1/3
f 109/1/3 106/1/3 110/1/3
f 116/1/4 112/1/4 111/1/4
f 117/1/4 112/1/4 116/1/4
f 118/1/4 114/1/4 113/1/4
f 119/1/4 114/1/4 118/1/4
f 120/1/4 116/1/4 115/1/4
f 121/1/4 116/1/4 120/1/4
f 123/1/4 122/1/4 121/1/4
f 124/1/4 122/1/4 123/1/4
f 129/1/4 126/1/4 125/1/4
f 130/1/4 126/1/4 129/1/4
f 131/1/4 128/1/4 127/1/4
f 132/1/4 128/1/4 131/1/4
f 135/2/4 134/2/4 133/2/4
f 136/2/4 134/2/4 135/2/4
f 139/2/4 138/2/4 137/2/4
f 140/2/4 138/2/4 139/2/4
f 143/2/4 142/2/4 141/2/4
f 144/2/4 142/2/4 143/2/4
f 145/1/5 146/1/5 147/1/5
f 147/1/5 146/1/5 148/1/5
f 149/1/5 150/1/5 151/1/5
f 151/1/5 150/1/5 152/1/5
f 153/1/5 154/1/5 155/1/5
f 155/1/5 154/1/5 156/1/5
f 157/1/5 158/1/5 159/1/5
f 159/1/5 158/1/5 160/1/5
f 161/2/5 162/2/5 165/2/5
f 163/1/5 164/1/5 166/1/5
f 166/1/5 164/1/5 167/1/5
f 161/2/5 165/2/5 169/2/5
f 165/1/5 166/1/5 169/1/5
f 169/1/5 166/1/5 170/1/5
f 167/1/5 168/1/5 171/1/5
f 171/1/5 168/1/5 172/1/5
f 170/1/5 171/1/5 173/1/5
f 173/1/5 171/1/5 174/1/5
f 161/2/5 169/2/5 175/2/5
f 175/2/5 169/2/5 176/2/5
f 177/2/5 178/2/5 179/2/5
f 179/2/5 178/2/5 180/2/5
f 177/2/5 179/2/5 181/2/5
f 181/2/5 179/2/5 182/2/5
f 180/2/5 178/2/5 183/2/5
f 183/2/5 178/2/5 184/2/5
f 185/2/5 186/2/5 189/2/5
f 187/2/5 188/2/5 190/2/5
f 185/2/5 189/2/5 191/2/5
f 189/2/5 190/2/5 191/2/5
f 191/2/5 190/2/5 192/2/5
f 190/2/5 188/2/5 193/2/5
f 192/2/5 190/2/5 193/2/5
f 194/2/5 195/2/5 196/2/5
f 196/2/5 195/2/5 197/2/5
f 200/1/6 199/1/6 198/1/6
f 201/1/6 199/1/6 200/1/6
f 204/1/6 203/1/6 202/1/6
f 205/1/6 203/1/6 204/1/6
f 208/2/6 207/2/6 206/2/6
f 209/2/6 207/2/6 208/2/6
f 212/2/6 211/2/6 210/2/6
f 213/2/6 212/2/6 210/2/6
f 214/2/6 212/2/6 213/2/6
f 217/2/6 216/2/6 215/2/6
f 218/2/6 216/2/6 217/2/6
