# MagicaVoxel @ Ephtracy

# group
o UVintruder_Fin_R

# material
mtllib Extra-1-UVintruder_Fin_R.mtl
usemtl palette

# normals
vn 1 0 0
vn -1 0 0
vn 0 0 1
vn 0 0 -1
vn 0 1 0
vn 0 -1 0

# texcoords
vt 0.787109 0.5
vt 0.806641 0.5

# verts
v -0.7 0.6 -0.7
v -0.7 0.6 -1.2
v -0.7 0.5 -0.7
v -0.7 0.5 -1.2
v -0.8 0.7 -0.7
v -0.8 0.7 -1.3
v -0.8 0.6 -0.7
v -0.8 0.6 -1.2
v -0.8 0.6 -1.3
v -0.9 0.8 -0.7
v -0.9 0.8 -1.3
v -0.9 0.7 -0.7
v -0.9 0.7 -1.3
v -1 0.9 -0.9
v -1 0.9 -1.4
v -1 0.8 -0.9
v -1 0.8 -1.3
v -1 0.8 -1.4
v -1.1 1 -1.1
v -1.1 1 -1.4
v -1.1 1 -1.5
v -1.1 0.9 -1.1
v -1.1 0.9 -1.4
v -1.1 0.9 -1.5
v -0.8 0.6 -0.7
v -0.8 0.6 -1.2
v -0.8 0.5 -0.7
v -0.8 0.5 -1.2
v -0.9 0.7 -0.7
v -0.9 0.7 -1.3
v -0.9 0.6 -0.7
v -0.9 0.6 -1.3
v -1 0.8 -0.7
v -1 0.8 -0.9
v -1 0.8 -1.3
v -1 0.7 -0.7
v -1 0.7 -1.3
v -1.1 0.9 -0.9
v -1.1 0.9 -1.1
v -1.1 0.9 -1.4
v -1.1 0.8 -0.9
v -1.1 0.8 -1.4
v -1.2 1 -1.1
v -1.2 1 -1.4
v -1.2 1 -1.5
v -1.2 0.9 -1.1
v -1.2 0.9 -1.4
v -1.2 0.9 -1.5
v -0.7 0.6 -0.7
v -0.7 0.5 -0.7
v -0.8 0.7 -0.7
v -0.8 0.6 -0.7
v -0.8 0.5 -0.7
v -0.9 0.8 -0.7
v -0.9 0.7 -0.7
v -0.9 0.6 -0.7
v -1 0.8 -0.7
v -1 0.7 -0.7
v -1 0.9 -0.9
v -1 0.8 -0.9
v -1.1 0.9 -0.9
v -1.1 0.8 -0.9
v -1.1 1 -1.1
v -1.1 0.9 -1.1
v -1.2 1 -1.1
v -1.2 0.9 -1.1
v -0.7 0.6 -1.2
v -0.7 0.5 -1.2
v -0.8 0.6 -1.2
v -0.8 0.5 -1.2
v -0.8 0.7 -1.3
v -0.8 0.6 -1.3
v -0.9 0.8 -1.3
v -0.9 0.7 -1.3
v -0.9 0.6 -1.3
v -1 0.8 -1.3
v -1 0.7 -1.3
v -1 0.9 -1.4
v -1 0.8 -1.4
v -1.1 0.9 -1.4
v -1.1 0.8 -1.4
v -1.1 1 -1.5
v -1.1 0.9 -1.5
v -1.2 1 -1.5
v -1.2 0.9 -1.5
v -1.1 1 -1.1
v -1.2 1 -1.1
v -1.1 1 -1.4
v -1.2 1 -1.4
v -1.1 1 -1.5
v -1.2 1 -1.5
v -1 0.9 -0.9
v -1.1 0.9 -0.9
v -1.1 0.9 -1.1
v -1 0.9 -1.4
v -1.1 0.9 -1.4
v -0.9 0.8 -0.7
v -1 0.8 -0.7
v -1 0.8 -0.9
v -0.9 0.8 -1.3
v -1 0.8 -1.3
v -0.8 0.7 -0.7
v -0.9 0.7 -0.7
v -0.8 0.7 -1.3
v -0.9 0.7 -1.3
v -0.7 0.6 -0.7
v -0.8 0.6 -0.7
v -0.7 0.6 -1.2
v -0.8 0.6 -1.2
v -1.1 0.9 -1.1
v -1.2 0.9 -1.1
v -1.1 0.9 -1.4
v -1.2 0.9 -1.4
v -1.1 0.9 -1.5
v -1.2 0.9 -1.5
v -1 0.8 -0.9
v -1.1 0.8 -0.9
v -1 0.8 -1.3
v -1 0.8 -1.4
v -1.1 0.8 -1.4
v -0.9 0.7 -0.7
v -1 0.7 -0.7
v -0.9 0.7 -1.3
v -1 0.7 -1.3
v -0.8 0.6 -0.7
v -0.9 0.6 -0.7
v -0.8 0.6 -1.2
v -0.8 0.6 -1.3
v -0.9 0.6 -1.3
v -0.7 0.5 -0.7
v -0.8 0.5 -0.7
v -0.7 0.5 -1.2
v -0.8 0.5 -1.2

# faces
f 3/2/1 2/2/1 1/2/1
f 4/2/1 2/2/1 3/2/1
f 7/2/1 6/2/1 5/2/1
f 8/2/1 6/2/1 7/2/1
f 9/2/1 6/2/1 8/2/1
f 12/2/1 11/2/1 10/2/1
f 13/2/1 11/2/1 12/2/1
f 16/2/1 15/2/1 14/2/1
f 17/2/1 15/2/1 16/2/1
f 18/2/1 15/2/1 17/2/1
f 22/2/1 20/2/1 19/2/1
f 23/1/1 21/1/1 20/1/1
f 23/2/1 20/2/1 22/2/1
f 24/1/1 21/1/1 23/1/1
f 25/2/2 26/2/2 27/2/2
f 27/2/2 26/2/2 28/2/2
f 29/2/2 30/2/2 31/2/2
f 31/2/2 30/2/2 32/2/2
f 33/2/2 34/2/2 36/2/2
f 34/2/2 35/2/2 36/2/2
f 36/2/2 35/2/2 37/2/2
f 38/2/2 39/2/2 41/2/2
f 39/2/2 40/2/2 41/2/2
f 41/2/2 40/2/2 42/2/2
f 43/2/2 44/2/2 46/2/2
f 44/1/2 45/1/2 47/1/2
f 46/2/2 44/2/2 47/2/2
f 47/1/2 45/1/2 48/1/2
f 52/2/3 50/2/3 49/2/3
f 53/2/3 50/2/3 52/2/3
f 55/2/3 52/2/3 51/2/3
f 56/2/3 52/2/3 55/2/3
f 57/2/3 55/2/3 54/2/3
f 58/2/3 55/2/3 57/2/3
f 61/2/3 60/2/3 59/2/3
f 62/2/3 60/2/3 61/2/3
f 65/2/3 64/2/3 63/2/3
f 66/2/3 64/2/3 65/2/3
f 67/2/4 68/2/4 69/2/4
f 69/2/4 68/2/4 70/2/4
f 71/2/4 72/2/4 74/2/4
f 74/2/4 72/2/4 75/2/4
f 73/2/4 74/2/4 76/2/4
f 76/2/4 74/2/4 77/2/4
f 78/2/4 79/2/4 80/2/4
f 80/2/4 79/2/4 81/2/4
f 82/1/4 83/1/4 84/1/4
f 84/1/4 83/1/4 85/1/4
f 88/2/5 87/2/5 86/2/5
f 89/2/5 87/2/5 88/2/5
f 90/1/5 89/1/5 88/1/5
f 91/1/5 89/1/5 90/1/5
f 94/2/5 93/2/5 92/2/5
f 95/2/5 94/2/5 92/2/5
f 96/2/5 94/2/5 95/2/5
f 99/2/5 98/2/5 97/2/5
f 100/2/5 99/2/5 97/2/5
f 101/2/5 99/2/5 100/2/5
f 104/2/5 103/2/5 102/2/5
f 105/2/5 103/2/5 104/2/5
f 108/2/5 107/2/5 106/2/5
f 109/2/5 107/2/5 108/2/5
f 110/2/6 111/2/6 112/2/6
f 112/2/6 111/2/6 113/2/6
f 112/1/6 113/1/6 114/1/6
f 114/1/6 113/1/6 115/1/6
f 116/2/6 117/2/6 118/2/6
f 118/2/6 117/2/6 119/2/6
f 119/2/6 117/2/6 120/2/6
f 121/2/6 122/2/6 123/2/6
f 123/2/6 122/2/6 124/2/6
f 125/2/6 126/2/6 127/2/6
f 127/2/6 126/2/6 128/2/6
f 128/2/6 126/2/6 129/2/6
f 130/2/6 131/2/6 132/2/6
f 132/2/6 131/2/6 133/2/6
