# MagicaVoxel @ Ephtracy

# group
o Warship_Laser_R

# material
mtllib Extra-10-Warship_Laser_R.mtl
usemtl palette

# normals
vn -1 0 0
vn 1 0 0
vn 0 0 1
vn 0 0 -1
vn 0 -1 0
vn 0 1 0

# texcoords
vt 0.00195313 0.5
vt 0.474609 0.5
vt 0.494141 0.5
vt 0.658203 0.5
vt 0.732422 0.5
vt 0.787109 0.5
vt 0.830078 0.5

# verts
v -1.4 -0.2 1.8
v -1.4 -0.2 0
v -1.4 -0.1 1.4
v -1.4 -0.1 1.2
v -1.4 -0.1 0.5
v -1.4 0 1.8
v -1.4 0 1.7
v -1.4 0 1.4
v -1.4 0 1.2
v -1.4 0 0.6
v -1.4 0.1 1.8
v -1.4 0.1 1.7
v -1.4 0.1 1.4
v -1.4 0.2 1.8
v -1.4 0.2 0.6
v -1.4 0.2 0.5
v -1.4 0.2 0
v -1.3 -0.2 1.9
v -1.3 -0.2 1.8
v -1.3 -0.2 0
v -1.3 -0.2 -0.0999999
v -1.3 -0.1 1.4
v -1.3 -0.1 1.3
v -1.3 -0.1 1.2
v -1.3 0 1.9
v -1.3 0 1.8
v -1.3 0 1.7
v -1.3 0 1.6
v -1.3 0 1.4
v -1.3 0 1.3
v -1.3 0 1.2
v -1.3 0.1 1.9
v -1.3 0.1 1.8
v -1.3 0.1 1.7
v -1.3 0.1 1.6
v -1.3 0.1 1.4
v -1.3 0.2 1.9
v -1.3 0.2 1.8
v -1.3 0.2 0.6
v -1.3 0.2 0.5
v -1.3 0.2 0
v -1.3 0.2 -0.0999999
v -1.3 0.3 1.8
v -1.3 0.3 0.6
v -1.3 0.3 0
v -1.2 -0.4 1.8
v -1.2 -0.4 1.5
v -1.2 -0.4 0.8
v -1.2 -0.4 0.4
v -1.2 -0.4 0.3
v -1.2 -0.4 0
v -1.2 -0.3 1.4
v -1.2 -0.3 0.9
v -1.2 -0.3 0.8
v -1.2 -0.3 0.4
v -1.2 -0.2 2
v -1.2 -0.2 1.9
v -1.2 -0.2 1.8
v -1.2 -0.2 1.5
v -1.2 -0.2 1.4
v -1.2 -0.2 0.9
v -1.2 -0.2 0.3
v -1.2 -0.2 0
v -1.2 -0.1 2.1
v -1.2 -0.1 2
v -1.2 0 2
v -1.2 0 1.9
v -1.2 0.1 1.9
v -1.2 0.2 2.1
v -1.2 0.2 2
v -1.2 0.2 1.9
v -1.2 0.2 1.8
v -1.2 0.2 0
v -1.2 0.2 -0.0999999
v -1.2 0.3 1.9
v -1.2 0.3 1.8
v -1.2 0.3 0
v -1.2 0.3 -0.0999999
v -1.1 -0.5 1.8
v -1.1 -0.5 0
v -1.1 -0.4 1.9
v -1.1 -0.4 1.8
v -1.1 -0.4 1.5
v -1.1 -0.4 0.8
v -1.1 -0.4 0.4
v -1.1 -0.4 0.3
v -1.1 -0.4 0
v -1.1 -0.4 -0.0999999
v -1.1 -0.2 1.9
v -1.1 -0.2 1.8
v -1.1 -0.2 0
v -1.1 -0.2 -0.0999999
v -1.1 0.2 2
v -1.1 0.2 1.9
v -1.1 0.3 2
v -1.1 0.3 1.9
v -1 -0.5 1.8
v -1 -0.5 0
v -1 -0.4 1.9
v -1 -0.4 1.8
v -1 -0.4 0
v -1 -0.4 -0.0999999
v -1 -0.2 2
v -1 -0.2 1.9
v -1 -0.1 2.1
v -1 -0.1 2
v -1 -0.1 0
v -1 0 2
v -1 0 1.8
v -1 0 1.7
v -1 0 1.5
v -1 0 1.4
v -1 0 1.2
v -1 0 1.1
v -1 0 0.9
v -1 0 0.8
v -1 0 0.6
v -1 0 0.5
v -1 0 0.3
v -1 0 0.2
v -1 0 0
v -1 0.1 1.8
v -1 0.1 1.7
v -1 0.1 1.5
v -1 0.1 1.4
v -1 0.1 1.2
v -1 0.1 1.1
v -1 0.1 0.9
v -1 0.1 0.8
v -1 0.1 0.6
v -1 0.1 0.5
v -1 0.1 0.3
v -1 0.1 0.2
v -1 0.2 2.1
v -1 0.2 2
v -1 0.3 2
v -1 0.3 -0.0999999
v -0.9 -0.1 2
v -0.9 -0.1 0
v -0.9 0 2
v -0.9 0 1.8
v -0.9 0 1.7
v -0.9 0 1.5
v -0.9 0 1.4
v -0.9 0 1.2
v -0.9 0 1.1
v -0.9 0 0.9
v -0.9 0 0.8
v -0.9 0 0.6
v -0.9 0 0.5
v -0.9 0 0.3
v -0.9 0 0.2
v -0.9 0 0
v -0.9 0.1 1.8
v -0.9 0.1 1.7
v -0.9 0.1 1.5
v -0.9 0.1 1.4
v -0.9 0.1 1.2
v -0.9 0.1 1.1
v -0.9 0.1 0.9
v -0.9 0.1 0.8
v -0.9 0.1 0.6
v -0.9 0.1 0.5
v -0.9 0.1 0.3
v -0.9 0.1 0.2
v -1.2 -0.1 2.1
v -1.2 0.2 2.1
v -1.1 -0.1 2.1
v -1.1 0.2 2.1
v -1 -0.1 2.1
v -1 0.2 2.1
v -1.2 -0.2 2
v -1.2 -0.1 2
v -1.1 -0.1 2
v -1.1 0.2 2
v -1.1 0.3 2
v -1 -0.2 2
v -1 -0.1 2
v -1 0 2
v -1 0.2 2
v -1 0.3 2
v -0.9 -0.1 2
v -0.9 0 2
v -1.3 -0.2 1.9
v -1.3 0 1.9
v -1.3 0.1 1.9
v -1.3 0.2 1.9
v -1.2 -0.2 1.9
v -1.2 0 1.9
v -1.2 0.1 1.9
v -1.2 0.2 1.9
v -1.2 0.3 1.9
v -1.1 -0.4 1.9
v -1.1 -0.2 1.9
v -1.1 0.2 1.9
v -1.1 0.3 1.9
v -1 -0.4 1.9
v -1 -0.2 1.9
v -1.4 -0.2 1.8
v -1.4 0 1.8
v -1.4 0.1 1.8
v -1.4 0.2 1.8
v -1.3 -0.2 1.8
v -1.3 0 1.8
v -1.3 0.1 1.8
v -1.3 0.2 1.8
v -1.3 0.3 1.8
v -1.2 -0.4 1.8
v -1.2 -0.2 1.8
v -1.2 0.2 1.8
v -1.2 0.3 1.8
v -1.1 -0.5 1.8
v -1.1 -0.4 1.8
v -1.1 -0.2 1.8
v -1 -0.5 1.8
v -1 -0.4 1.8
v -1 0 1.8
v -1 0.1 1.8
v -0.9 0 1.8
v -0.9 0.1 1.8
v -1 0 1.5
v -1 0.1 1.5
v -0.9 0 1.5
v -0.9 0.1 1.5
v -1.4 0 1.4
v -1.4 0.1 1.4
v -1.3 0 1.4
v -1.3 0.1 1.4
v -1.4 -0.1 1.2
v -1.4 0 1.2
v -1.3 -0.1 1.2
v -1.3 0 1.2
v -1 0 1.2
v -1 0.1 1.2
v -0.9 0 1.2
v -0.9 0.1 1.2
v -1 0 0.9
v -1 0.1 0.9
v -0.9 0 0.9
v -0.9 0.1 0.9
v -1 0 0.6
v -1 0.1 0.6
v -0.9 0 0.6
v -0.9 0.1 0.6
v -1 0 0.3
v -1 0.1 0.3
v -0.9 0 0.3
v -0.9 0.1 0.3
v -1.4 0 1.7
v -1.4 0.1 1.7
v -1.3 0 1.7
v -1.3 0.1 1.7
v -1 0 1.7
v -1 0.1 1.7
v -0.9 0 1.7
v -0.9 0.1 1.7
v -1.4 -0.1 1.4
v -1.4 0 1.4
v -1.3 -0.1 1.4
v -1.3 0 1.4
v -1 0 1.4
v -1 0.1 1.4
v -0.9 0 1.4
v -0.9 0.1 1.4
v -1 0 1.1
v -1 0.1 1.1
v -0.9 0 1.1
v -0.9 0.1 1.1
v -1 0 0.8
v -1 0.1 0.8
v -0.9 0 0.8
v -0.9 0.1 0.8
v -1 0 0.5
v -1 0.1 0.5
v -0.9 0 0.5
v -0.9 0.1 0.5
v -1 0 0.2
v -1 0.1 0.2
v -0.9 0 0.2
v -0.9 0.1 0.2
v -1.4 -0.2 0
v -1.4 0.2 0
v -1.3 -0.2 0
v -1.3 0.2 0
v -1.3 0.3 0
v -1.2 -0.4 0
v -1.2 -0.2 0
v -1.2 0.2 0
v -1.2 0.3 0
v -1.1 -0.5 0
v -1.1 -0.4 0
v -1.1 -0.2 0
v -1 -0.5 0
v -1 -0.4 0
v -1 -0.1 0
v -1 0 0
v -0.9 -0.1 0
v -0.9 0 0
v -1.3 -0.2 -0.0999999
v -1.3 0.2 -0.0999999
v -1.2 0.2 -0.0999999
v -1.2 0.3 -0.0999999
v -1.1 -0.4 -0.0999999
v -1.1 -0.2 -0.0999999
v -1 -0.4 -0.0999999
v -1 0.3 -0.0999999
v -1.1 -0.5 1.8
v -1 -0.5 1.8
v -1.1 -0.5 0
v -1 -0.5 0
v -1.1 -0.4 1.9
v -1 -0.4 1.9
v -1.2 -0.4 1.8
v -1.1 -0.4 1.8
v -1 -0.4 1.8
v -1.2 -0.4 1.5
v -1.1 -0.4 1.5
v -1.2 -0.4 0.8
v -1.1 -0.4 0.8
v -1.2 -0.4 0.4
v -1.1 -0.4 0.4
v -1.2 -0.4 0.3
v -1.1 -0.4 0.3
v -1.2 -0.4 0
v -1.1 -0.4 0
v -1 -0.4 0
v -1.1 -0.4 -0.0999999
v -1 -0.4 -0.0999999
v -1.2 -0.2 2
v -1 -0.2 2
v -1.3 -0.2 1.9
v -1.2 -0.2 1.9
v -1.1 -0.2 1.9
v -1 -0.2 1.9
v -1.4 -0.2 1.8
v -1.3 -0.2 1.8
v -1.2 -0.2 1.8
v -1.1 -0.2 1.8
v -1.2 -0.2 1.5
v -1.2 -0.2 1.4
v -1.2 -0.2 0.9
v -1.2 -0.2 0.3
v -1.4 -0.2 0
v -1.3 -0.2 0
v -1.2 -0.2 0
v -1.1 -0.2 0
v -1.3 -0.2 -0.0999999
v -1.1 -0.2 -0.0999999
v -1.2 -0.1 2.1
v -1.1 -0.1 2.1
v -1 -0.1 2.1
v -1.2 -0.1 2
v -1.1 -0.1 2
v -1 -0.1 2
v -0.9 -0.1 2
v -1 -0.1 0
v -0.9 -0.1 0
v -1.4 0 1.4
v -1.3 0 1.4
v -1.3 0 1.3
v -1.4 0 1.2
v -1.3 0 1.2
v -1.4 0.1 1.7
v -1.3 0.1 1.7
v -1.3 0.1 1.6
v -1.4 0.1 1.4
v -1.3 0.1 1.4
v -1.4 -0.1 1.4
v -1.3 -0.1 1.4
v -1.3 -0.1 1.3
v -1.4 -0.1 1.2
v -1.3 -0.1 1.2
v -1 0 2
v -0.9 0 2
v -1 0 1.8
v -0.9 0 1.8
v -1.4 0 1.7
v -1.3 0 1.7
v -1 0 1.7
v -0.9 0 1.7
v -1.3 0 1.6
v -1 0 1.5
v -0.9 0 1.5
v -1.4 0 1.4
v -1.3 0 1.4
v -1 0 1.4
v -0.9 0 1.4
v -1 0 1.2
v -0.9 0 1.2
v -1 0 1.1
v -0.9 0 1.1
v -1 0 0.9
v -0.9 0 0.9
v -1 0 0.8
v -0.9 0 0.8
v -1 0 0.6
v -0.9 0 0.6
v -1 0 0.5
v -0.9 0 0.5
v -1 0 0.3
v -0.9 0 0.3
v -1 0 0.2
v -0.9 0 0.2
v -1 0 0
v -0.9 0 0
v -1 0.1 1.8
v -0.9 0.1 1.8
v -1 0.1 1.7
v -0.9 0.1 1.7
v -1 0.1 1.5
v -0.9 0.1 1.5
v -1 0.1 1.4
v -0.9 0.1 1.4
v -1 0.1 1.2
v -0.9 0.1 1.2
v -1 0.1 1.1
v -0.9 0.1 1.1
v -1 0.1 0.9
v -0.9 0.1 0.9
v -1 0.1 0.8
v -0.9 0.1 0.8
v -1 0.1 0.6
v -0.9 0.1 0.6
v -1 0.1 0.5
v -0.9 0.1 0.5
v -1 0.1 0.3
v -0.9 0.1 0.3
v -1 0.1 0.2
v -0.9 0.1 0.2
v -1.2 0.2 2.1
v -1.1 0.2 2.1
v -1 0.2 2.1
v -1.2 0.2 2
v -1.1 0.2 2
v -1 0.2 2
v -1.3 0.2 1.9
v -1.2 0.2 1.9
v -1.1 0.2 1.9
v -1.4 0.2 1.8
v -1.3 0.2 1.8
v -1.2 0.2 1.8
v -1.4 0.2 0.6
v -1.3 0.2 0.6
v -1.4 0.2 0.5
v -1.3 0.2 0.5
v -1.4 0.2 0
v -1.3 0.2 0
v -1.2 0.2 0
v -1.3 0.2 -0.0999999
v -1.2 0.2 -0.0999999
v -1.1 0.3 2
v -1 0.3 2
v -1.2 0.3 1.9
v -1.1 0.3 1.9
v -1.3 0.3 1.8
v -1.2 0.3 1.8
v -1.3 0.3 0.6
v -1.2 0.3 0.6
v -1.3 0.3 0
v -1.2 0.3 0
v -1.2 0.3 -0.0999999
v -1 0.3 -0.0999999

# faces
f 3/7/1 2/7/1 1/7/1
f 4/7/1 2/7/1 3/7/1
f 5/7/1 2/7/1 4/7/1
f 6/7/1 3/7/1 1/7/1
f 7/7/1 3/7/1 6/7/1
f 8/7/1 3/7/1 7/7/1
f 9/2/1 5/2/1 4/2/1
f 10/2/1 5/2/1 9/2/1
f 11/2/1 7/2/1 6/2/1
f 12/2/1 7/2/1 11/2/1
f 13/7/1 10/7/1 9/7/1
f 13/7/1 9/7/1 8/7/1
f 14/7/1 12/7/1 11/7/1
f 14/7/1 13/7/1 12/7/1
f 15/2/1 5/2/1 10/2/1
f 15/7/1 13/7/1 14/7/1
f 15/7/1 10/7/1 13/7/1
f 16/7/1 2/7/1 5/7/1
f 16/2/1 5/2/1 15/2/1
f 17/7/1 2/7/1 16/7/1
f 25/7/1 19/7/1 18/7/1
f 26/7/1 19/7/1 25/7/1
f 29/5/1 23/5/1 22/5/1
f 30/6/1 24/6/1 23/6/1
f 30/5/1 23/5/1 29/5/1
f 31/6/1 24/6/1 30/6/1
f 32/2/1 26/2/1 25/2/1
f 33/2/1 26/2/1 32/2/1
f 34/1/1 28/1/1 27/1/1
f 35/6/1 29/6/1 28/6/1
f 35/1/1 28/1/1 34/1/1
f 36/6/1 29/6/1 35/6/1
f 37/7/1 33/7/1 32/7/1
f 38/7/1 33/7/1 37/7/1
f 41/7/1 21/7/1 20/7/1
f 42/7/1 21/7/1 41/7/1
f 43/7/1 39/7/1 38/7/1
f 44/2/1 40/2/1 39/2/1
f 44/7/1 39/7/1 43/7/1
f 44/2/1 41/2/1 40/2/1
f 45/2/1 41/2/1 44/2/1
f 52/2/1 48/2/1 47/2/1
f 53/2/1 48/2/1 52/2/1
f 54/7/1 49/7/1 48/7/1
f 54/2/1 48/2/1 53/2/1
f 55/2/1 50/2/1 49/2/1
f 55/7/1 49/7/1 54/7/1
f 58/7/1 47/7/1 46/7/1
f 59/2/1 52/2/1 47/2/1
f 59/7/1 47/7/1 58/7/1
f 60/7/1 53/7/1 52/7/1
f 60/2/1 52/2/1 59/2/1
f 61/2/1 54/2/1 53/2/1
f 61/7/1 53/7/1 60/7/1
f 61/2/1 55/2/1 54/2/1
f 62/7/1 51/7/1 50/7/1
f 62/2/1 55/2/1 61/2/1
f 62/2/1 50/2/1 55/2/1
f 63/7/1 51/7/1 62/7/1
f 65/7/1 57/7/1 56/7/1
f 66/7/1 57/7/1 65/7/1
f 66/4/1 65/4/1 64/4/1
f 67/7/1 57/7/1 66/7/1
f 68/2/1 67/2/1 66/2/1
f 69/4/1 66/4/1 64/4/1
f 70/2/1 68/2/1 66/2/1
f 70/4/1 66/4/1 69/4/1
f 71/2/1 68/2/1 70/2/1
f 75/7/1 72/7/1 71/7/1
f 76/7/1 72/7/1 75/7/1
f 77/7/1 74/7/1 73/7/1
f 78/7/1 74/7/1 77/7/1
f 82/7/1 80/7/1 79/7/1
f 83/7/1 80/7/1 82/7/1
f 84/7/1 80/7/1 83/7/1
f 85/7/1 80/7/1 84/7/1
f 86/7/1 80/7/1 85/7/1
f 87/7/1 80/7/1 86/7/1
f 89/7/1 82/7/1 81/7/1
f 90/7/1 82/7/1 89/7/1
f 91/7/1 88/7/1 87/7/1
f 92/7/1 88/7/1 91/7/1
f 95/7/1 94/7/1 93/7/1
f 96/7/1 94/7/1 95/7/1
f 97/7/2 98/7/2 100/7/2
f 100/7/2 98/7/2 101/7/2
f 99/7/2 100/7/2 104/7/2
f 101/7/2 102/7/2 104/7/2
f 100/7/2 101/7/2 104/7/2
f 103/7/2 104/7/2 106/7/2
f 104/7/2 102/7/2 107/7/2
f 106/7/2 104/7/2 107/7/2
f 105/7/2 106/7/2 108/7/2
f 107/7/2 102/7/2 121/7/2
f 108/7/2 109/7/2 122/7/2
f 110/7/2 111/7/2 123/7/2
f 123/7/2 111/7/2 124/7/2
f 112/7/2 113/7/2 125/7/2
f 125/7/2 113/7/2 126/7/2
f 114/7/2 115/7/2 127/7/2
f 127/7/2 115/7/2 128/7/2
f 116/7/2 117/7/2 129/7/2
f 129/7/2 117/7/2 130/7/2
f 118/7/2 119/7/2 131/7/2
f 131/7/2 119/7/2 132/7/2
f 120/7/2 121/7/2 133/7/2
f 129/7/2 130/7/2 134/7/2
f 132/7/2 133/7/2 134/7/2
f 105/7/2 108/7/2 134/7/2
f 131/7/2 132/7/2 134/7/2
f 130/7/2 131/7/2 134/7/2
f 108/7/2 122/7/2 134/7/2
f 128/7/2 129/7/2 134/7/2
f 123/7/2 124/7/2 134/7/2
f 126/7/2 127/7/2 134/7/2
f 125/7/2 126/7/2 134/7/2
f 124/7/2 125/7/2 134/7/2
f 127/7/2 128/7/2 134/7/2
f 122/7/2 123/7/2 134/7/2
f 134/7/2 133/7/2 135/7/2
f 135/7/2 133/7/2 136/7/2
f 133/7/2 121/7/2 137/7/2
f 136/7/2 133/7/2 137/7/2
f 121/7/2 102/7/2 137/7/2
f 138/2/2 139/2/2 140/2/2
f 140/2/2 139/2/2 141/2/2
f 141/2/2 139/2/2 142/2/2
f 142/2/2 139/2/2 143/2/2
f 143/2/2 139/2/2 144/2/2
f 144/2/2 139/2/2 145/2/2
f 145/2/2 139/2/2 146/2/2
f 146/2/2 139/2/2 147/2/2
f 147/2/2 139/2/2 148/2/2
f 148/2/2 139/2/2 149/2/2
f 149/2/2 139/2/2 150/2/2
f 150/2/2 139/2/2 151/2/2
f 151/2/2 139/2/2 152/2/2
f 152/2/2 139/2/2 153/2/2
f 141/2/2 142/2/2 154/2/2
f 154/2/2 142/2/2 155/2/2
f 143/2/2 144/2/2 156/2/2
f 156/2/2 144/2/2 157/2/2
f 145/2/2 146/2/2 158/2/2
f 158/2/2 146/2/2 159/2/2
f 147/2/2 148/2/2 160/2/2
f 160/2/2 148/2/2 161/2/2
f 149/2/2 150/2/2 162/2/2
f 162/2/2 150/2/2 163/2/2
f 151/2/2 152/2/2 164/2/2
f 164/2/2 152/2/2 165/2/2
f 168/4/3 167/4/3 166/4/3
f 169/4/3 167/4/3 168/4/3
f 170/7/3 169/7/3 168/7/3
f 171/7/3 169/7/3 170/7/3
f 174/7/3 173/7/3 172/7/3
f 177/7/3 174/7/3 172/7/3
f 178/7/3 174/7/3 177/7/3
f 180/7/3 176/7/3 175/7/3
f 181/7/3 176/7/3 180/7/3
f 182/2/3 179/2/3 178/2/3
f 183/2/3 179/2/3 182/2/3
f 188/7/3 185/7/3 184/7/3
f 189/2/3 186/2/3 185/2/3
f 189/7/3 185/7/3 188/7/3
f 190/7/3 187/7/3 186/7/3
f 190/2/3 186/2/3 189/2/3
f 191/7/3 187/7/3 190/7/3
f 195/7/3 192/7/3 191/7/3
f 196/7/3 192/7/3 195/7/3
f 197/7/3 194/7/3 193/7/3
f 198/7/3 194/7/3 197/7/3
f 203/7/3 200/7/3 199/7/3
f 204/2/3 201/2/3 200/2/3
f 204/7/3 200/7/3 203/7/3
f 205/7/3 202/7/3 201/7/3
f 205/2/3 201/2/3 204/2/3
f 206/7/3 202/7/3 205/7/3
f 210/7/3 207/7/3 206/7/3
f 211/7/3 207/7/3 210/7/3
f 213/7/3 209/7/3 208/7/3
f 214/7/3 209/7/3 213/7/3
f 215/7/3 213/7/3 212/7/3
f 216/7/3 213/7/3 215/7/3
f 219/2/3 218/2/3 217/2/3
f 220/2/3 218/2/3 219/2/3
f 223/2/3 222/2/3 221/2/3
f 224/2/3 222/2/3 223/2/3
f 227/7/3 226/7/3 225/7/3
f 228/7/3 226/7/3 227/7/3
f 231/2/3 230/2/3 229/2/3
f 232/2/3 230/2/3 231/2/3
f 235/2/3 234/2/3 233/2/3
f 236/2/3 234/2/3 235/2/3
f 239/2/3 238/2/3 237/2/3
f 240/2/3 238/2/3 239/2/3
f 243/2/3 242/2/3 241/2/3
f 244/2/3 242/2/3 243/2/3
f 247/2/3 246/2/3 245/2/3
f 248/2/3 246/2/3 247/2/3
f 249/2/4 250/2/4 251/2/4
f 251/2/4 250/2/4 252/2/4
f 253/2/4 254/2/4 255/2/4
f 255/2/4 254/2/4 256/2/4
f 257/7/4 258/7/4 259/7/4
f 259/7/4 258/7/4 260/7/4
f 261/2/4 262/2/4 263/2/4
f 263/2/4 262/2/4 264/2/4
f 265/2/4 266/2/4 267/2/4
f 267/2/4 266/2/4 268/2/4
f 269/2/4 270/2/4 271/2/4
f 271/2/4 270/2/4 272/2/4
f 273/2/4 274/2/4 275/2/4
f 275/2/4 274/2/4 276/2/4
f 277/2/4 278/2/4 279/2/4
f 279/2/4 278/2/4 280/2/4
f 281/7/4 282/7/4 283/7/4
f 283/7/4 282/7/4 284/7/4
f 284/2/4 285/2/4 288/2/4
f 288/2/4 285/2/4 289/2/4
f 286/7/4 287/7/4 291/7/4
f 291/7/4 287/7/4 292/7/4
f 290/7/4 291/7/4 293/7/4
f 293/7/4 291/7/4 294/7/4
f 295/2/4 296/2/4 297/2/4
f 297/2/4 296/2/4 298/2/4
f 299/7/4 300/7/4 301/7/4
f 299/7/4 301/7/4 304/7/4
f 301/7/4 302/7/4 304/7/4
f 303/7/4 304/7/4 305/7/4
f 304/7/4 302/7/4 306/7/4
f 305/7/4 304/7/4 306/7/4
f 309/7/5 308/7/5 307/7/5
f 310/7/5 308/7/5 309/7/5
f 314/7/5 312/7/5 311/7/5
f 315/7/5 312/7/5 314/7/5
f 316/7/5 314/7/5 313/7/5
f 317/7/5 314/7/5 316/7/5
f 318/2/5 317/2/5 316/2/5
f 319/2/5 317/2/5 318/2/5
f 320/7/5 319/7/5 318/7/5
f 321/7/5 319/7/5 320/7/5
f 322/2/5 321/2/5 320/2/5
f 323/2/5 321/2/5 322/2/5
f 324/7/5 323/7/5 322/7/5
f 325/7/5 323/7/5 324/7/5
f 327/7/5 326/7/5 325/7/5
f 328/7/5 326/7/5 327/7/5
f 332/7/5 330/7/5 329/7/5
f 333/7/5 330/7/5 332/7/5
f 334/7/5 330/7/5 333/7/5
f 336/7/5 332/7/5 331/7/5
f 336/7/5 333/7/5 332/7/5
f 337/7/5 333/7/5 336/7/5
f 338/7/5 333/7/5 337/7/5
f 339/7/5 336/7/5 335/7/5
f 339/7/5 337/7/5 336/7/5
f 340/7/5 339/7/5 335/7/5
f 341/7/5 340/7/5 335/7/5
f 342/7/5 341/7/5 335/7/5
f 343/7/5 342/7/5 335/7/5
f 344/7/5 342/7/5 343/7/5
f 345/7/5 342/7/5 344/7/5
f 347/7/5 345/7/5 344/7/5
f 347/7/5 346/7/5 345/7/5
f 348/7/5 346/7/5 347/7/5
f 352/4/5 350/4/5 349/4/5
f 353/7/5 351/7/5 350/7/5
f 353/4/5 350/4/5 352/4/5
f 354/7/5 351/7/5 353/7/5
f 356/2/5 355/2/5 354/2/5
f 357/2/5 355/2/5 356/2/5
f 360/7/5 359/7/5 358/7/5
f 361/7/5 360/7/5 358/7/5
f 362/7/5 360/7/5 361/7/5
f 365/7/5 364/7/5 363/7/5
f 366/7/5 365/7/5 363/7/5
f 367/7/5 365/7/5 366/7/5
f 368/7/6 369/7/6 370/7/6
f 368/7/6 370/7/6 371/7/6
f 371/7/6 370/7/6 372/7/6
f 373/2/6 374/2/6 375/2/6
f 375/2/6 374/2/6 376/2/6
f 377/7/6 378/7/6 381/7/6
f 379/2/6 380/2/6 382/2/6
f 382/2/6 380/2/6 383/2/6
f 377/7/6 381/7/6 384/7/6
f 384/7/6 381/7/6 385/7/6
f 386/2/6 387/2/6 388/2/6
f 388/2/6 387/2/6 389/2/6
f 390/2/6 391/2/6 392/2/6
f 392/2/6 391/2/6 393/2/6
f 394/2/6 395/2/6 396/2/6
f 396/2/6 395/2/6 397/2/6
f 398/2/6 399/2/6 400/2/6
f 400/2/6 399/2/6 401/2/6
f 402/2/6 403/2/6 404/2/6
f 404/2/6 403/2/6 405/2/6
f 406/2/6 407/2/6 408/2/6
f 408/2/6 407/2/6 409/2/6
f 410/2/6 411/2/6 412/2/6
f 412/2/6 411/2/6 413/2/6
f 414/2/6 415/2/6 416/2/6
f 416/2/6 415/2/6 417/2/6
f 418/2/6 419/2/6 420/2/6
f 420/2/6 419/2/6 421/2/6
f 422/2/6 423/2/6 424/2/6
f 424/2/6 423/2/6 425/2/6
f 426/2/6 427/2/6 428/2/6
f 428/2/6 427/2/6 429/2/6
f 430/4/6 431/4/6 433/4/6
f 431/7/6 432/7/6 434/7/6
f 433/4/6 431/4/6 434/4/6
f 434/7/6 432/7/6 435/7/6
f 433/2/6 434/2/6 437/2/6
f 437/2/6 434/2/6 438/2/6
f 436/7/6 437/7/6 440/7/6
f 440/7/6 437/7/6 441/7/6
f 439/7/6 440/7/6 442/7/6
f 442/7/6 440/7/6 443/7/6
f 442/2/6 443/2/6 444/2/6
f 444/2/6 443/2/6 445/2/6
f 444/7/6 445/7/6 446/7/6
f 446/7/6 445/7/6 447/7/6
f 447/7/6 448/7/6 449/7/6
f 449/7/6 448/7/6 450/7/6
f 451/7/6 452/7/6 454/7/6
f 453/7/6 454/7/6 456/7/6
f 455/7/6 456/7/6 457/7/6
f 456/7/6 454/7/6 458/7/6
f 457/7/6 456/7/6 458/7/6
f 457/2/6 458/2/6 459/2/6
f 458/7/6 454/7/6 460/7/6
f 459/2/6 458/2/6 460/2/6
f 460/7/6 454/7/6 461/7/6
f 454/7/6 452/7/6 462/7/6
f 461/7/6 454/7/6 462/7/6
