# MagicaVoxel @ Ephtracy

# group
o Warship_Canon4

# material
mtllib Extra-3-Warship_Canon4.mtl
usemtl palette

# normals
vn -1 0 0
vn 1 0 0
vn 0 0 1
vn 0 0 -1
vn 0 -1 0
vn 0 1 0

# texcoords
vt 0.474609 0.5
vt 0.732422 0.5

# verts
v -0.5 -0.6 3.7
v -0.5 -0.6 3.6
v -0.5 -0.6 3.5
v -0.5 -0.6 2.5
v -0.5 -0.5 3.7
v -0.5 -0.5 3.6
v -0.5 -0.5 3.5
v -0.5 -0.5 2.5
v -0.5 -0.4 3.6
v -0.5 -0.4 3.5
v -0.4 -0.6 3.7
v -0.4 -0.6 3.6
v -0.4 -0.6 3.5
v -0.4 -0.6 2.5
v -0.4 -0.5 3.7
v -0.4 -0.5 3.6
v -0.4 -0.5 3.5
v -0.4 -0.5 2.5
v -0.4 -0.4 3.6
v -0.4 -0.4 3.5
v -0.5 -0.6 3.7
v -0.5 -0.5 3.7
v -0.4 -0.6 3.7
v -0.4 -0.5 3.7
v -0.5 -0.5 3.6
v -0.5 -0.4 3.6
v -0.4 -0.5 3.6
v -0.4 -0.4 3.6
v -0.5 -0.5 3.5
v -0.5 -0.4 3.5
v -0.4 -0.5 3.5
v -0.4 -0.4 3.5
v -0.5 -0.6 2.5
v -0.5 -0.5 2.5
v -0.4 -0.6 2.5
v -0.4 -0.5 2.5
v -0.5 -0.6 3.7
v -0.4 -0.6 3.7
v -0.5 -0.6 3.6
v -0.4 -0.6 3.6
v -0.5 -0.6 3.5
v -0.4 -0.6 3.5
v -0.5 -0.6 2.5
v -0.4 -0.6 2.5
v -0.5 -0.5 3.7
v -0.4 -0.5 3.7
v -0.5 -0.5 3.6
v -0.4 -0.5 3.6
v -0.5 -0.5 3.5
v -0.4 -0.5 3.5
v -0.5 -0.5 2.5
v -0.4 -0.5 2.5
v -0.5 -0.4 3.6
v -0.4 -0.4 3.6
v -0.5 -0.4 3.5
v -0.4 -0.4 3.5

# faces
f 5/1/1 2/1/1 1/1/1
f 6/2/1 3/2/1 2/2/1
f 6/1/1 2/1/1 5/1/1
f 7/1/1 4/1/1 3/1/1
f 7/2/1 3/2/1 6/2/1
f 8/1/1 4/1/1 7/1/1
f 9/1/1 7/1/1 6/1/1
f 10/1/1 7/1/1 9/1/1
f 11/1/2 12/1/2 15/1/2
f 12/2/2 13/2/2 16/2/2
f 15/1/2 12/1/2 16/1/2
f 13/1/2 14/1/2 17/1/2
f 16/2/2 13/2/2 17/2/2
f 17/1/2 14/1/2 18/1/2
f 16/1/2 17/1/2 19/1/2
f 19/1/2 17/1/2 20/1/2
f 23/1/3 22/1/3 21/1/3
f 24/1/3 22/1/3 23/1/3
f 27/1/3 26/1/3 25/1/3
f 28/1/3 26/1/3 27/1/3
f 29/1/4 30/1/4 31/1/4
f 31/1/4 30/1/4 32/1/4
f 33/1/4 34/1/4 35/1/4
f 35/1/4 34/1/4 36/1/4
f 39/1/5 38/1/5 37/1/5
f 40/1/5 38/1/5 39/1/5
f 41/2/5 40/2/5 39/2/5
f 42/2/5 40/2/5 41/2/5
f 43/1/5 42/1/5 41/1/5
f 44/1/5 42/1/5 43/1/5
f 45/1/6 46/1/6 47/1/6
f 47/1/6 46/1/6 48/1/6
f 49/1/6 50/1/6 51/1/6
f 51/1/6 50/1/6 52/1/6
f 53/1/6 54/1/6 55/1/6
f 55/1/6 54/1/6 56/1/6
