# MagicaVoxel @ Ephtracy

# group
o Warship_Missile3_R

# material
mtllib Extra-11-Warship_Missile3_R.mtl
usemtl palette

# normals
vn -1 0 0
vn 1 0 0
vn 0 0 1
vn 0 0 -1
vn 0 -1 0
vn 0 1 0

# texcoords
vt 0.494141 0.5
vt 0.830078 0.5

# verts
v -1.7 0.4 -1.4
v -1.7 0.4 -2
v -1.7 0.5 -1.4
v -1.7 0.5 -2
v -1.6 0.3 -1.5
v -1.6 0.3 -2
v -1.6 0.4 -0.8
v -1.6 0.4 -0.9
v -1.6 0.4 -1.4
v -1.6 0.4 -1.5
v -1.6 0.4 -2
v -1.6 0.4 -2.3
v -1.6 0.5 -0.8
v -1.6 0.5 -0.9
v -1.6 0.5 -1.4
v -1.6 0.5 -2
v -1.6 0.5 -2.3
v -1.5 0.3 -1.5
v -1.5 0.3 -2
v -1.5 0.4 -0.8
v -1.5 0.4 -0.9
v -1.5 0.4 -1.5
v -1.5 0.4 -2
v -1.5 0.4 -2.3
v -1.5 0.5 -0.8
v -1.5 0.5 -0.9
v -1.5 0.5 -2.3
v -1.6 0.4 -0.8
v -1.6 0.5 -0.8
v -1.5 0.4 -0.8
v -1.5 0.5 -0.8
v -1.7 0.4 -1.4
v -1.7 0.5 -1.4
v -1.6 0.4 -1.4
v -1.6 0.5 -1.4
v -1.6 0.3 -1.5
v -1.6 0.4 -1.5
v -1.5 0.3 -1.5
v -1.5 0.4 -1.5
v -1.7 0.4 -2
v -1.7 0.5 -2
v -1.6 0.3 -2
v -1.6 0.4 -2
v -1.6 0.5 -2
v -1.5 0.3 -2
v -1.5 0.4 -2
v -1.6 0.4 -2.3
v -1.6 0.5 -2.3
v -1.5 0.4 -2.3
v -1.5 0.5 -2.3
v -1.6 0.3 -1.5
v -1.5 0.3 -1.5
v -1.6 0.3 -2
v -1.5 0.3 -2
v -1.6 0.4 -0.8
v -1.5 0.4 -0.8
v -1.6 0.4 -0.9
v -1.5 0.4 -0.9
v -1.7 0.4 -1.4
v -1.6 0.4 -1.4
v -1.6 0.4 -1.5
v -1.5 0.4 -1.5
v -1.7 0.4 -2
v -1.6 0.4 -2
v -1.5 0.4 -2
v -1.6 0.4 -2.3
v -1.5 0.4 -2.3
v -1.6 0.5 -0.8
v -1.5 0.5 -0.8
v -1.6 0.5 -0.9
v -1.5 0.5 -0.9
v -1.7 0.5 -1.4
v -1.6 0.5 -1.4
v -1.7 0.5 -2
v -1.6 0.5 -2
v -1.6 0.5 -2.3
v -1.5 0.5 -2.3

# faces
f 3/2/1 2/2/1 1/2/1
f 4/2/1 2/2/1 3/2/1
f 10/2/1 6/2/1 5/2/1
f 11/2/1 6/2/1 10/2/1
f 13/2/1 8/2/1 7/2/1
f 14/1/1 9/1/1 8/1/1
f 14/2/1 8/2/1 13/2/1
f 15/1/1 9/1/1 14/1/1
f 16/1/1 12/1/1 11/1/1
f 17/1/1 12/1/1 16/1/1
f 18/2/2 19/2/2 22/2/2
f 22/2/2 19/2/2 23/2/2
f 20/2/2 21/2/2 25/2/2
f 23/1/2 24/1/2 26/1/2
f 25/2/2 21/2/2 26/2/2
f 21/1/2 22/1/2 26/1/2
f 22/1/2 23/1/2 26/1/2
f 26/1/2 24/1/2 27/1/2
f 30/2/3 29/2/3 28/2/3
f 31/2/3 29/2/3 30/2/3
f 34/2/3 33/2/3 32/2/3
f 35/2/3 33/2/3 34/2/3
f 38/2/3 37/2/3 36/2/3
f 39/2/3 37/2/3 38/2/3
f 40/2/4 41/2/4 43/2/4
f 43/2/4 41/2/4 44/2/4
f 42/2/4 43/2/4 45/2/4
f 45/2/4 43/2/4 46/2/4
f 47/1/4 48/1/4 49/1/4
f 49/1/4 48/1/4 50/1/4
f 53/2/5 52/2/5 51/2/5
f 54/2/5 52/2/5 53/2/5
f 57/2/5 56/2/5 55/2/5
f 58/2/5 56/2/5 57/2/5
f 60/1/5 58/1/5 57/1/5
f 61/1/5 58/1/5 60/1/5
f 61/2/5 60/2/5 59/2/5
f 62/1/5 58/1/5 61/1/5
f 63/2/5 61/2/5 59/2/5
f 64/2/5 61/2/5 63/2/5
f 66/1/5 65/1/5 64/1/5
f 67/1/5 65/1/5 66/1/5
f 68/2/6 69/2/6 70/2/6
f 70/2/6 69/2/6 71/2/6
f 70/1/6 71/1/6 73/1/6
f 72/2/6 73/2/6 74/2/6
f 73/1/6 71/1/6 75/1/6
f 74/2/6 73/2/6 75/2/6
f 75/1/6 71/1/6 76/1/6
f 76/1/6 71/1/6 77/1/6
