# MagicaVoxel @ Ephtracy

# group
o InfraredFurtive_Wing2_R

# material
mtllib Extra-4-InfraredFurtive_Wing2_R.mtl
usemtl palette

# normals
vn -1 0 0
vn 1 0 0
vn 0 0 1
vn 0 0 -1
vn 0 -1 0
vn 0 1 0

# texcoords
vt 0.298828 0.5
vt 0.302734 0.5
vt 0.630859 0.5
vt 0.662109 0.5

# verts
v -3.1 -0.4 -0.7
v -3.1 -0.4 -0.9
v -3.1 -0.4 -1.2
v -3.1 -0.3 -0.7
v -3.1 -0.3 -0.8
v -3.1 -0.3 -0.9
v -3.1 -0.3 -1.1
v -3.1 -0.3 -1.2
v -3.1 -0.3 -1.3
v -3.1 -0.2 -0.8
v -3.1 -0.2 -1.1
v -3.1 -0.2 -1.2
v -3.1 -0.2 -1.3
v -2.9 -0.4 -0.6
v -2.9 -0.4 -0.7
v -2.9 -0.4 -0.8
v -2.9 -0.4 -1
v -2.9 -0.4 -1.1
v -2.9 -0.3 -0.6
v -2.9 -0.3 -0.7
v -2.9 -0.3 -0.8
v -2.9 -0.3 -1
v -2.9 -0.3 -1.1
v -2.7 -0.4 -0.5
v -2.7 -0.4 -0.6
v -2.7 -0.3 -0.5
v -2.7 -0.3 -0.6
v -2.5 -0.4 -0.4
v -2.5 -0.4 -0.5
v -2.5 -0.3 -0.4
v -2.5 -0.3 -0.5
v -3 -0.4 -0.7
v -3 -0.4 -0.8
v -3 -0.4 -1
v -3 -0.4 -1.2
v -3 -0.3 -0.7
v -3 -0.3 -0.8
v -3 -0.3 -1
v -3 -0.3 -1.1
v -3 -0.3 -1.2
v -3 -0.3 -1.3
v -3 -0.2 -0.8
v -3 -0.2 -1.1
v -3 -0.2 -1.2
v -3 -0.2 -1.3
v -2.3 -0.4 -0.4
v -2.3 -0.4 -0.5
v -2.3 -0.4 -1
v -2.3 -0.4 -1.1
v -2.3 -0.3 -0.4
v -2.3 -0.3 -0.5
v -2.3 -0.3 -1
v -2.3 -0.3 -1.1
v -2.5 -0.4 -0.4
v -2.5 -0.3 -0.4
v -2.3 -0.4 -0.4
v -2.3 -0.3 -0.4
v -2.7 -0.4 -0.5
v -2.7 -0.3 -0.5
v -2.5 -0.4 -0.5
v -2.5 -0.3 -0.5
v -2.9 -0.4 -0.6
v -2.9 -0.3 -0.6
v -2.7 -0.4 -0.6
v -2.7 -0.3 -0.6
v -3.1 -0.4 -0.7
v -3.1 -0.3 -0.7
v -3 -0.4 -0.7
v -3 -0.3 -0.7
v -3.1 -0.3 -0.8
v -3.1 -0.2 -0.8
v -3 -0.4 -0.8
v -3 -0.3 -0.8
v -3 -0.2 -0.8
v -2.9 -0.4 -0.8
v -2.9 -0.3 -0.8
v -3 -0.4 -1
v -3 -0.3 -1
v -2.9 -0.4 -1
v -2.9 -0.3 -1
v -2.9 -0.4 -1.1
v -2.9 -0.3 -1.1
v -2.3 -0.4 -1.1
v -2.3 -0.3 -1.1
v -3.1 -0.4 -1.2
v -3.1 -0.3 -1.2
v -3 -0.4 -1.2
v -3 -0.3 -1.2
v -3.1 -0.3 -1.3
v -3.1 -0.2 -1.3
v -3 -0.3 -1.3
v -3 -0.2 -1.3
v -2.5 -0.4 -0.4
v -2.3 -0.4 -0.4
v -2.7 -0.4 -0.5
v -2.5 -0.4 -0.5
v -2.3 -0.4 -0.5
v -2.9 -0.4 -0.6
v -2.7 -0.4 -0.6
v -2.5 -0.4 -0.6
v -3.1 -0.4 -0.7
v -3 -0.4 -0.7
v -2.9 -0.4 -0.7
v -2.7 -0.4 -0.7
v -3 -0.4 -0.8
v -2.9 -0.4 -0.8
v -3.1 -0.4 -0.9
v -3 -0.4 -0.9
v -3 -0.4 -1
v -2.9 -0.4 -1
v -2.3 -0.4 -1
v -2.9 -0.4 -1.1
v -2.3 -0.4 -1.1
v -3.1 -0.4 -1.2
v -3 -0.4 -1.2
v -3.1 -0.3 -1.2
v -3 -0.3 -1.2
v -3.1 -0.3 -1.3
v -3 -0.3 -1.3
v -2.5 -0.3 -0.4
v -2.3 -0.3 -0.4
v -2.7 -0.3 -0.5
v -2.5 -0.3 -0.5
v -2.3 -0.3 -0.5
v -2.9 -0.3 -0.6
v -2.7 -0.3 -0.6
v -2.5 -0.3 -0.6
v -3.1 -0.3 -0.7
v -3 -0.3 -0.7
v -2.9 -0.3 -0.7
v -2.7 -0.3 -0.7
v -3.1 -0.3 -0.8
v -3 -0.3 -0.8
v -2.9 -0.3 -0.8
v -3 -0.3 -1
v -2.9 -0.3 -1
v -2.3 -0.3 -1
v -2.9 -0.3 -1.1
v -2.3 -0.3 -1.1
v -3.1 -0.2 -0.8
v -3 -0.2 -0.8
v -3.1 -0.2 -1.1
v -3 -0.2 -1.1
v -3.1 -0.2 -1.2
v -3 -0.2 -1.2
v -3.1 -0.2 -1.3
v -3 -0.2 -1.3

# faces
f 4/1/1 2/1/1 1/1/1
f 5/1/1 2/1/1 4/1/1
f 6/2/1 3/2/1 2/2/1
f 6/1/1 2/1/1 5/1/1
f 7/2/1 3/2/1 6/2/1
f 8/2/1 3/2/1 7/2/1
f 10/1/1 6/1/1 5/1/1
f 10/1/1 7/1/1 6/1/1
f 11/2/1 8/2/1 7/2/1
f 11/1/1 7/1/1 10/1/1
f 12/4/1 9/4/1 8/4/1
f 12/2/1 8/2/1 11/2/1
f 13/4/1 9/4/1 12/4/1
f 19/1/1 15/1/1 14/1/1
f 20/2/1 16/2/1 15/2/1
f 20/1/1 15/1/1 19/1/1
f 21/2/1 16/2/1 20/2/1
f 22/1/1 18/1/1 17/1/1
f 23/1/1 18/1/1 22/1/1
f 26/1/1 25/1/1 24/1/1
f 27/1/1 25/1/1 26/1/1
f 30/1/1 29/1/1 28/1/1
f 31/1/1 29/1/1 30/1/1
f 32/1/2 33/1/2 36/1/2
f 36/1/2 33/1/2 37/1/2
f 34/2/2 35/2/2 38/2/2
f 38/2/2 35/2/2 39/2/2
f 39/2/2 35/2/2 40/2/2
f 37/1/2 38/1/2 42/1/2
f 38/1/2 39/1/2 42/1/2
f 39/2/2 40/2/2 43/2/2
f 42/1/2 39/1/2 43/1/2
f 40/4/2 41/4/2 44/4/2
f 43/2/2 40/2/2 44/2/2
f 44/4/2 41/4/2 45/4/2
f 46/1/2 47/1/2 50/1/2
f 47/2/2 48/2/2 51/2/2
f 50/1/2 47/1/2 51/1/2
f 48/1/2 49/1/2 52/1/2
f 51/2/2 48/2/2 52/2/2
f 52/1/2 49/1/2 53/1/2
f 56/1/3 55/1/3 54/1/3
f 57/1/3 55/1/3 56/1/3
f 60/1/3 59/1/3 58/1/3
f 61/1/3 59/1/3 60/1/3
f 64/1/3 63/1/3 62/1/3
f 65/1/3 63/1/3 64/1/3
f 68/1/3 67/1/3 66/1/3
f 69/1/3 67/1/3 68/1/3
f 73/1/3 71/1/3 70/1/3
f 74/1/3 71/1/3 73/1/3
f 75/3/3 73/3/3 72/3/3
f 76/3/3 73/3/3 75/3/3
f 77/3/4 78/3/4 79/3/4
f 79/3/4 78/3/4 80/3/4
f 81/1/4 82/1/4 83/1/4
f 83/1/4 82/1/4 84/1/4
f 85/2/4 86/2/4 87/2/4
f 87/2/4 86/2/4 88/2/4
f 89/4/4 90/4/4 91/4/4
f 91/4/4 90/4/4 92/4/4
f 96/1/5 94/1/5 93/1/5
f 97/1/5 94/1/5 96/1/5
f 99/1/5 96/1/5 95/1/5
f 100/2/5 97/2/5 96/2/5
f 100/1/5 96/1/5 99/1/5
f 103/1/5 99/1/5 98/1/5
f 104/2/5 100/2/5 99/2/5
f 104/1/5 99/1/5 103/1/5
f 105/1/5 102/1/5 101/1/5
f 106/2/5 104/2/5 103/2/5
f 107/1/5 105/1/5 101/1/5
f 108/3/5 106/3/5 105/3/5
f 108/1/5 105/1/5 107/1/5
f 109/2/5 108/2/5 107/2/5
f 109/3/5 106/3/5 108/3/5
f 110/2/5 104/2/5 106/2/5
f 110/3/5 106/3/5 109/3/5
f 111/2/5 100/2/5 104/2/5
f 111/2/5 104/2/5 110/2/5
f 111/2/5 97/2/5 100/2/5
f 112/1/5 111/1/5 110/1/5
f 113/1/5 111/1/5 112/1/5
f 114/2/5 109/2/5 107/2/5
f 115/2/5 109/2/5 114/2/5
f 118/4/5 117/4/5 116/4/5
f 119/4/5 117/4/5 118/4/5
f 120/1/6 121/1/6 123/1/6
f 123/1/6 121/1/6 124/1/6
f 122/1/6 123/1/6 126/1/6
f 123/2/6 124/2/6 127/2/6
f 126/1/6 123/1/6 127/1/6
f 125/1/6 126/1/6 130/1/6
f 126/2/6 127/2/6 131/2/6
f 130/1/6 126/1/6 131/1/6
f 128/1/6 129/1/6 132/1/6
f 132/1/6 129/1/6 133/1/6
f 130/2/6 131/2/6 134/2/6
f 133/3/6 134/3/6 135/3/6
f 134/2/6 131/2/6 136/2/6
f 135/3/6 134/3/6 136/3/6
f 131/2/6 127/2/6 137/2/6
f 136/2/6 131/2/6 137/2/6
f 127/2/6 124/2/6 137/2/6
f 136/1/6 137/1/6 138/1/6
f 138/1/6 137/1/6 139/1/6
f 140/1/6 141/1/6 142/1/6
f 142/1/6 141/1/6 143/1/6
f 142/2/6 143/2/6 144/2/6
f 144/2/6 143/2/6 145/2/6
f 144/4/6 145/4/6 146/4/6
f 146/4/6 145/4/6 147/4/6
