<svg xmlns="http://www.w3.org/2000/svg" viewBox="0 0 64 64" role="img" aria-label="Portfolio Quest favicon">
  <defs>
    <radialGradient id="space" cx="50%" cy="28%" r="70%">
      <stop offset="0%" stop-color="#17365d"/>
      <stop offset="58%" stop-color="#08162d"/>
      <stop offset="100%" stop-color="#050913"/>
    </radialGradient>
    <linearGradient id="ship" x1="20" x2="46" y1="18" y2="46" gradientUnits="userSpaceOnUse">
      <stop offset="0%" stop-color="#dff8ff"/>
      <stop offset="48%" stop-color="#7fd9ff"/>
      <stop offset="100%" stop-color="#2e8cff"/>
    </linearGradient>
    <linearGradient id="flame" x1="17" x2="31" y1="43" y2="57" gradientUnits="userSpaceOnUse">
      <stop offset="0%" stop-color="#fff3a0"/>
      <stop offset="100%" stop-color="#ff8a2a"/>
    </linearGradient>
  </defs>

  <rect width="64" height="64" rx="14" fill="url(#space)"/>
  <circle cx="50" cy="13" r="1.7" fill="#dff8ff"/>
  <circle cx="13" cy="18" r="1.2" fill="#7fd9ff"/>
  <circle cx="47" cy="50" r="1.1" fill="#ffd36a"/>
  <path
    d="M12 45c12-10 26-17 43-20"
    fill="none"
    stroke="#7fd9ff"
    stroke-linecap="round"
    stroke-opacity=".35"
    stroke-width="2"
  />
  <path d="M18 50l8-4 5 5-10 6-3-3z" fill="url(#flame)"/>
  <path d="M24 45l-10-2 9-8 10 2z" fill="#2560a8"/>
  <path d="M39 30l2 10-8 9-2-10z" fill="#163c78"/>
  <path d="M20 44c8-14 17-23 31-31-2 14-11 23-31 31z" fill="url(#ship)"/>
  <path d="M39 22c2-2 5-4 9-6-1 4-3 7-6 10z" fill="#ffd36a"/>
  <circle cx="35" cy="29" r="4.5" fill="#050913" opacity=".55"/>
  <circle cx="35" cy="29" r="2.4" fill="#ffd36a"/>
</svg>
