# MagicaVoxel @ Ephtracy

# group
o GalactixRacer_Wing1_R

# material
mtllib Extra-1-GalactixRacer_Wing1_R.mtl
usemtl palette

# normals
vn -1 0 0
vn 1 0 0
vn 0 0 1
vn 0 0 -1
vn 0 -1 0
vn 0 1 0

# texcoords
vt 0.630859 0.5
vt 0.759766 0.5
vt 0.763672 0.5
vt 0.939453 0.5

# verts
v -1.7 -0.4 -0.9
v -1.7 -0.4 -1.4
v -1.7 -0.3 -0.9
v -1.7 -0.3 -1.4
v -1.5 -0.6 -0.9
v -1.5 -0.6 -1.2
v -1.5 -0.5 -0.9
v -1.5 -0.5 -1.2
v -1.4 -0.7 -0.9
v -1.4 -0.7 -1.2
v -1.4 -0.6 -0.9
v -1.4 -0.6 -1.2
v -1.4 -0.5 -0.9
v -1.4 -0.5 -1
v -1.4 -0.5 -1.1
v -1.4 -0.5 -1.2
v -1.4 -0.4 -0.8
v -1.4 -0.4 -0.9
v -1.4 -0.4 -1
v -1.4 -0.4 -1.1
v -1.4 -0.4 -1.2
v -1.4 -0.3 -0.8
v -1.4 -0.3 -0.9
v -1.3 -0.6 -0.9
v -1.3 -0.6 -1
v -1.3 -0.6 -1.1
v -1.3 -0.6 -1.2
v -1.3 -0.5 -0.9
v -1.3 -0.5 -1
v -1.3 -0.5 -1.1
v -1.3 -0.5 -1.2
v -1.4 -0.6 -0.9
v -1.4 -0.6 -1
v -1.4 -0.6 -1.1
v -1.4 -0.6 -1.2
v -1.4 -0.5 -0.9
v -1.4 -0.5 -1
v -1.4 -0.5 -1.1
v -1.4 -0.5 -1.2
v -1.4 -0.4 -1.3
v -1.4 -0.4 -1.4
v -1.4 -0.3 -1.3
v -1.4 -0.3 -1.4
v -1.3 -0.7 -0.9
v -1.3 -0.7 -1.2
v -1.3 -0.6 -0.9
v -1.3 -0.6 -1.2
v -1.3 -0.5 -0.9
v -1.3 -0.5 -1
v -1.3 -0.5 -1.1
v -1.3 -0.5 -1.2
v -1.3 -0.4 -0.9
v -1.3 -0.4 -1
v -1.3 -0.4 -1.1
v -1.3 -0.4 -1.2
v -1.2 -0.6 -0.9
v -1.2 -0.6 -1.2
v -1.2 -0.5 -0.9
v -1.2 -0.5 -1.2
v -1.1 -0.4 -1
v -1.1 -0.4 -1.3
v -1.1 -0.3 -1
v -1.1 -0.3 -1.3
v -0.9 -0.4 -0.8
v -0.9 -0.4 -1
v -0.9 -0.3 -0.8
v -0.9 -0.3 -1
v -1.4 -0.4 -0.8
v -1.4 -0.3 -0.8
v -1.2 -0.4 -0.8
v -1.2 -0.3 -0.8
v -0.9 -0.4 -0.8
v -0.9 -0.3 -0.8
v -1.7 -0.4 -0.9
v -1.7 -0.3 -0.9
v -1.5 -0.6 -0.9
v -1.5 -0.5 -0.9
v -1.4 -0.7 -0.9
v -1.4 -0.6 -0.9
v -1.4 -0.5 -0.9
v -1.4 -0.4 -0.9
v -1.4 -0.3 -0.9
v -1.3 -0.7 -0.9
v -1.3 -0.6 -0.9
v -1.3 -0.5 -0.9
v -1.3 -0.4 -0.9
v -1.2 -0.6 -0.9
v -1.2 -0.5 -0.9
v -1.4 -0.6 -1
v -1.4 -0.5 -1
v -1.3 -0.6 -1
v -1.3 -0.5 -1
v -1.4 -0.5 -1.1
v -1.4 -0.4 -1.1
v -1.3 -0.5 -1.1
v -1.3 -0.4 -1.1
v -1.4 -0.5 -1
v -1.4 -0.4 -1
v -1.3 -0.5 -1
v -1.3 -0.4 -1
v -1.1 -0.4 -1
v -1.1 -0.3 -1
v -0.9 -0.4 -1
v -0.9 -0.3 -1
v -1.4 -0.6 -1.1
v -1.4 -0.5 -1.1
v -1.3 -0.6 -1.1
v -1.3 -0.5 -1.1
v -1.5 -0.6 -1.2
v -1.5 -0.5 -1.2
v -1.4 -0.7 -1.2
v -1.4 -0.6 -1.2
v -1.4 -0.5 -1.2
v -1.4 -0.4 -1.2
v -1.3 -0.7 -1.2
v -1.3 -0.6 -1.2
v -1.3 -0.5 -1.2
v -1.3 -0.4 -1.2
v -1.2 -0.6 -1.2
v -1.2 -0.5 -1.2
v -1.4 -0.4 -1.3
v -1.4 -0.3 -1.3
v -1.1 -0.4 -1.3
v -1.1 -0.3 -1.3
v -1.7 -0.4 -1.4
v -1.7 -0.3 -1.4
v -1.6 -0.4 -1.4
v -1.6 -0.3 -1.4
v -1.4 -0.4 -1.4
v -1.4 -0.3 -1.4
v -1.4 -0.7 -0.9
v -1.3 -0.7 -0.9
v -1.4 -0.7 -1.2
v -1.3 -0.7 -1.2
v -1.5 -0.6 -0.9
v -1.4 -0.6 -0.9
v -1.3 -0.6 -0.9
v -1.2 -0.6 -0.9
v -1.5 -0.6 -1.2
v -1.4 -0.6 -1.2
v -1.3 -0.6 -1.2
v -1.2 -0.6 -1.2
v -1.4 -0.5 -0.9
v -1.3 -0.5 -0.9
v -1.4 -0.5 -1
v -1.3 -0.5 -1
v -1.4 -0.5 -1.1
v -1.3 -0.5 -1.1
v -1.4 -0.5 -1.2
v -1.3 -0.5 -1.2
v -1.4 -0.4 -0.8
v -1.2 -0.4 -0.8
v -0.9 -0.4 -0.8
v -1.7 -0.4 -0.9
v -1.4 -0.4 -0.9
v -1.3 -0.4 -0.9
v -1.5 -0.4 -1
v -1.4 -0.4 -1
v -1.3 -0.4 -1
v -1.2 -0.4 -1
v -1.1 -0.4 -1
v -0.9 -0.4 -1
v -1.4 -0.4 -1.1
v -1.3 -0.4 -1.1
v -1.6 -0.4 -1.2
v -1.5 -0.4 -1.2
v -1.4 -0.4 -1.2
v -1.3 -0.4 -1.2
v -1.4 -0.4 -1.3
v -1.1 -0.4 -1.3
v -1.7 -0.4 -1.4
v -1.6 -0.4 -1.4
v -1.4 -0.4 -1.4
v -1.4 -0.6 -0.9
v -1.3 -0.6 -0.9
v -1.4 -0.6 -1
v -1.3 -0.6 -1
v -1.4 -0.6 -1.1
v -1.3 -0.6 -1.1
v -1.4 -0.6 -1.2
v -1.3 -0.6 -1.2
v -1.5 -0.5 -0.9
v -1.4 -0.5 -0.9
v -1.3 -0.5 -0.9
v -1.2 -0.5 -0.9
v -1.4 -0.5 -1
v -1.3 -0.5 -1
v -1.4 -0.5 -1.1
v -1.3 -0.5 -1.1
v -1.5 -0.5 -1.2
v -1.4 -0.5 -1.2
v -1.3 -0.5 -1.2
v -1.2 -0.5 -1.2
v -1.4 -0.3 -0.8
v -1.2 -0.3 -0.8
v -0.9 -0.3 -0.8
v -1.7 -0.3 -0.9
v -1.4 -0.3 -0.9
v -1.5 -0.3 -1
v -1.4 -0.3 -1
v -1.3 -0.3 -1
v -1.2 -0.3 -1
v -1.1 -0.3 -1
v -0.9 -0.3 -1
v -1.6 -0.3 -1.2
v -1.5 -0.3 -1.2
v -1.4 -0.3 -1.2
v -1.3 -0.3 -1.2
v -1.4 -0.3 -1.3
v -1.1 -0.3 -1.3
v -1.7 -0.3 -1.4
v -1.6 -0.3 -1.4
v -1.4 -0.3 -1.4

# faces
f 3/2/1 2/2/1 1/2/1
f 4/2/1 2/2/1 3/2/1
f 7/1/1 6/1/1 5/1/1
f 8/1/1 6/1/1 7/1/1
f 11/1/1 10/1/1 9/1/1
f 12/1/1 10/1/1 11/1/1
f 18/1/1 14/1/1 13/1/1
f 19/1/1 14/1/1 18/1/1
f 20/1/1 16/1/1 15/1/1
f 21/1/1 16/1/1 20/1/1
f 22/4/1 18/4/1 17/4/1
f 23/4/1 18/4/1 22/4/1
f 28/1/1 25/1/1 24/1/1
f 29/1/1 25/1/1 28/1/1
f 30/1/1 27/1/1 26/1/1
f 31/1/1 27/1/1 30/1/1
f 32/1/2 33/1/2 36/1/2
f 36/1/2 33/1/2 37/1/2
f 34/1/2 35/1/2 38/1/2
f 38/1/2 35/1/2 39/1/2
f 40/4/2 41/4/2 42/4/2
f 42/4/2 41/4/2 43/4/2
f 44/1/2 45/1/2 46/1/2
f 46/1/2 45/1/2 47/1/2
f 48/1/2 49/1/2 52/1/2
f 52/1/2 49/1/2 53/1/2
f 50/1/2 51/1/2 54/1/2
f 54/1/2 51/1/2 55/1/2
f 56/1/2 57/1/2 58/1/2
f 58/1/2 57/1/2 59/1/2
f 60/2/2 61/2/2 62/2/2
f 62/2/2 61/2/2 63/2/2
f 64/2/2 65/2/2 66/2/2
f 66/2/2 65/2/2 67/2/2
f 70/4/3 69/4/3 68/4/3
f 71/4/3 69/4/3 70/4/3
f 72/2/3 71/2/3 70/2/3
f 73/2/3 71/2/3 72/2/3
f 79/1/3 77/1/3 76/1/3
f 80/1/3 77/1/3 79/1/3
f 81/2/3 75/2/3 74/2/3
f 82/2/3 75/2/3 81/2/3
f 83/1/3 79/1/3 78/1/3
f 84/1/3 79/1/3 83/1/3
f 85/1/3 81/1/3 80/1/3
f 86/1/3 81/1/3 85/1/3
f 87/1/3 85/1/3 84/1/3
f 88/1/3 85/1/3 87/1/3
f 91/3/3 90/3/3 89/3/3
f 92/3/3 90/3/3 91/3/3
f 95/1/3 94/1/3 93/1/3
f 96/1/3 94/1/3 95/1/3
f 97/1/4 98/1/4 99/1/4
f 99/1/4 98/1/4 100/1/4
f 101/2/4 102/2/4 103/2/4
f 103/2/4 102/2/4 104/2/4
f 105/3/4 106/3/4 107/3/4
f 107/3/4 106/3/4 108/3/4
f 109/1/4 110/1/4 112/1/4
f 112/1/4 110/1/4 113/1/4
f 111/1/4 112/1/4 115/1/4
f 115/1/4 112/1/4 116/1/4
f 113/1/4 114/1/4 117/1/4
f 117/1/4 114/1/4 118/1/4
f 116/1/4 117/1/4 119/1/4
f 119/1/4 117/1/4 120/1/4
f 121/2/4 122/2/4 123/2/4
f 123/2/4 122/2/4 124/2/4
f 125/2/4 126/2/4 127/2/4
f 127/2/4 126/2/4 128/2/4
f 127/4/4 128/4/4 129/4/4
f 129/4/4 128/4/4 130/4/4
f 133/1/5 132/1/5 131/1/5
f 134/1/5 132/1/5 133/1/5
f 139/1/5 136/1/5 135/1/5
f 140/1/5 136/1/5 139/1/5
f 141/1/5 138/1/5 137/1/5
f 142/1/5 138/1/5 141/1/5
f 145/1/5 144/1/5 143/1/5
f 146/1/5 144/1/5 145/1/5
f 149/1/5 148/1/5 147/1/5
f 150/1/5 148/1/5 149/1/5
f 155/4/5 152/4/5 151/4/5
f 156/4/5 152/4/5 155/4/5
f 157/2/5 155/2/5 154/2/5
f 158/2/5 155/2/5 157/2/5
f 159/4/5 152/4/5 156/4/5
f 160/2/5 153/2/5 152/2/5
f 160/4/5 152/4/5 159/4/5
f 161/2/5 153/2/5 160/2/5
f 162/2/5 153/2/5 161/2/5
f 163/4/5 159/4/5 158/4/5
f 163/4/5 158/4/5 157/4/5
f 164/2/5 161/2/5 160/2/5
f 164/4/5 159/4/5 163/4/5
f 164/2/5 160/2/5 159/2/5
f 165/2/5 157/2/5 154/2/5
f 166/4/5 163/4/5 157/4/5
f 166/2/5 157/2/5 165/2/5
f 167/4/5 163/4/5 166/4/5
f 168/2/5 161/2/5 164/2/5
f 169/4/5 167/4/5 166/4/5
f 169/2/5 168/2/5 167/2/5
f 169/4/5 166/4/5 165/4/5
f 170/2/5 161/2/5 168/2/5
f 170/2/5 168/2/5 169/2/5
f 171/2/5 165/2/5 154/2/5
f 172/4/5 169/4/5 165/4/5
f 172/2/5 165/2/5 171/2/5
f 173/4/5 169/4/5 172/4/5
f 174/1/6 175/1/6 176/1/6
f 176/1/6 175/1/6 177/1/6
f 178/1/6 179/1/6 180/1/6
f 180/1/6 179/1/6 181/1/6
f 182/1/6 183/1/6 186/1/6
f 184/1/6 185/1/6 187/1/6
f 182/1/6 186/1/6 188/1/6
f 186/3/6 187/3/6 188/3/6
f 187/1/6 185/1/6 189/1/6
f 188/3/6 187/3/6 189/3/6
f 182/1/6 188/1/6 190/1/6
f 190/1/6 188/1/6 191/1/6
f 189/1/6 185/1/6 192/1/6
f 192/1/6 185/1/6 193/1/6
f 194/4/6 195/4/6 198/4/6
f 197/2/6 198/2/6 199/2/6
f 198/4/6 195/4/6 200/4/6
f 199/2/6 198/2/6 200/2/6
f 200/4/6 195/4/6 201/4/6
f 195/2/6 196/2/6 202/2/6
f 201/4/6 195/4/6 202/4/6
f 202/2/6 196/2/6 203/2/6
f 203/2/6 196/2/6 204/2/6
f 197/2/6 199/2/6 205/2/6
f 200/4/6 201/4/6 206/4/6
f 205/2/6 199/2/6 206/2/6
f 199/4/6 200/4/6 206/4/6
f 206/4/6 201/4/6 207/4/6
f 202/2/6 203/2/6 208/2/6
f 207/4/6 201/4/6 208/4/6
f 201/2/6 202/2/6 208/2/6
f 206/4/6 207/4/6 209/4/6
f 205/4/6 206/4/6 209/4/6
f 207/2/6 208/2/6 209/2/6
f 208/2/6 203/2/6 210/2/6
f 209/2/6 208/2/6 210/2/6
f 197/2/6 205/2/6 211/2/6
f 205/4/6 209/4/6 212/4/6
f 211/2/6 205/2/6 212/2/6
f 212/4/6 209/4/6 213/4/6
