# MagicaVoxel @ Ephtracy

# group
o GalactixRacer_Wing2_R

# material
mtllib Extra-8-GalactixRacer_Wing2_R.mtl
usemtl palette

# normals
vn -1 0 0
vn 1 0 0
vn 0 0 1
vn 0 0 -1
vn 0 -1 0
vn 0 1 0

# texcoords
vt 0.630859 0.5
vt 0.759766 0.5
vt 0.763672 0.5
vt 0.939453 0.5

# verts
v -2.3 -0.4 -1.2
v -2.3 -0.4 -1.7
v -2.3 -0.3 -1.2
v -2.3 -0.3 -1.7
v -2.2 -0.5 -1.2
v -2.2 -0.5 -1.6
v -2.2 -0.4 -1.2
v -2.2 -0.4 -1.6
v -2.1 -0.5 -1
v -2.1 -0.5 -1.2
v -2.1 -0.4 -1
v -2.1 -0.4 -1.2
v -2 -0.7 -1.1
v -2 -0.7 -1.4
v -2 -0.6 -1.1
v -2 -0.6 -1.4
v -1.9 -0.8 -1.1
v -1.9 -0.8 -1.4
v -1.9 -0.7 -1.1
v -1.9 -0.7 -1.4
v -1.9 -0.6 -1.1
v -1.9 -0.6 -1.2
v -1.9 -0.6 -1.3
v -1.9 -0.6 -1.4
v -1.9 -0.5 -1.1
v -1.9 -0.5 -1.2
v -1.9 -0.5 -1.3
v -1.9 -0.5 -1.4
v -1.8 -0.7 -1.1
v -1.8 -0.7 -1.2
v -1.8 -0.7 -1.3
v -1.8 -0.7 -1.4
v -1.8 -0.6 -1.1
v -1.8 -0.6 -1.2
v -1.8 -0.6 -1.3
v -1.8 -0.6 -1.4
v -2.2 -0.4 -1.2
v -2.2 -0.4 -1.6
v -2.2 -0.4 -1.7
v -2.2 -0.3 -1.2
v -2.2 -0.3 -1.7
v -2 -0.5 -1.5
v -2 -0.5 -1.6
v -2 -0.4 -1.5
v -2 -0.4 -1.6
v -1.9 -0.7 -1.1
v -1.9 -0.7 -1.2
v -1.9 -0.7 -1.3
v -1.9 -0.7 -1.4
v -1.9 -0.6 -1.1
v -1.9 -0.6 -1.2
v -1.9 -0.6 -1.3
v -1.9 -0.6 -1.4
v -1.8 -0.8 -1.1
v -1.8 -0.8 -1.4
v -1.8 -0.7 -1.1
v -1.8 -0.7 -1.4
v -1.8 -0.6 -1.1
v -1.8 -0.6 -1.2
v -1.8 -0.6 -1.3
v -1.8 -0.6 -1.4
v -1.8 -0.5 -1.1
v -1.8 -0.5 -1.2
v -1.8 -0.5 -1.3
v -1.8 -0.5 -1.4
v -1.7 -0.7 -1.1
v -1.7 -0.7 -1.4
v -1.7 -0.6 -1.1
v -1.7 -0.6 -1.4
v -1.7 -0.5 -1
v -1.7 -0.5 -1.2
v -1.7 -0.5 -1.5
v -1.7 -0.4 -1
v -1.7 -0.4 -1.2
v -1.7 -0.4 -1.5
v -2.1 -0.5 -1
v -2.1 -0.4 -1
v -1.9 -0.5 -1
v -1.9 -0.4 -1
v -1.7 -0.5 -1
v -1.7 -0.4 -1
v -2 -0.7 -1.1
v -2 -0.6 -1.1
v -1.9 -0.8 -1.1
v -1.9 -0.7 -1.1
v -1.9 -0.6 -1.1
v -1.9 -0.5 -1.1
v -1.8 -0.8 -1.1
v -1.8 -0.7 -1.1
v -1.8 -0.6 -1.1
v -1.8 -0.5 -1.1
v -1.7 -0.7 -1.1
v -1.7 -0.6 -1.1
v -2.3 -0.4 -1.2
v -2.3 -0.3 -1.2
v -2.2 -0.5 -1.2
v -2.2 -0.4 -1.2
v -2.2 -0.3 -1.2
v -2.1 -0.5 -1.2
v -2.1 -0.4 -1.2
v -1.9 -0.7 -1.2
v -1.9 -0.6 -1.2
v -1.8 -0.7 -1.2
v -1.8 -0.6 -1.2
v -1.9 -0.6 -1.3
v -1.9 -0.5 -1.3
v -1.8 -0.6 -1.3
v -1.8 -0.5 -1.3
v -1.9 -0.6 -1.2
v -1.9 -0.5 -1.2
v -1.8 -0.6 -1.2
v -1.8 -0.5 -1.2
v -1.9 -0.7 -1.3
v -1.9 -0.6 -1.3
v -1.8 -0.7 -1.3
v -1.8 -0.6 -1.3
v -2 -0.7 -1.4
v -2 -0.6 -1.4
v -1.9 -0.8 -1.4
v -1.9 -0.7 -1.4
v -1.9 -0.6 -1.4
v -1.9 -0.5 -1.4
v -1.8 -0.8 -1.4
v -1.8 -0.7 -1.4
v -1.8 -0.6 -1.4
v -1.8 -0.5 -1.4
v -1.7 -0.7 -1.4
v -1.7 -0.6 -1.4
v -2 -0.5 -1.5
v -2 -0.4 -1.5
v -1.9 -0.5 -1.5
v -1.9 -0.4 -1.5
v -1.7 -0.5 -1.5
v -1.7 -0.4 -1.5
v -2.2 -0.5 -1.6
v -2.2 -0.4 -1.6
v -2.1 -0.5 -1.6
v -2.1 -0.4 -1.6
v -2 -0.5 -1.6
v -2 -0.4 -1.6
v -2.3 -0.4 -1.7
v -2.3 -0.3 -1.7
v -2.2 -0.4 -1.7
v -2.2 -0.3 -1.7
v -1.9 -0.8 -1.1
v -1.8 -0.8 -1.1
v -1.9 -0.8 -1.4
v -1.8 -0.8 -1.4
v -2 -0.7 -1.1
v -1.9 -0.7 -1.1
v -1.8 -0.7 -1.1
v -1.7 -0.7 -1.1
v -2 -0.7 -1.4
v -1.9 -0.7 -1.4
v -1.8 -0.7 -1.4
v -1.7 -0.7 -1.4
v -1.9 -0.6 -1.1
v -1.8 -0.6 -1.1
v -1.9 -0.6 -1.2
v -1.8 -0.6 -1.2
v -1.9 -0.6 -1.3
v -1.8 -0.6 -1.3
v -1.9 -0.6 -1.4
v -1.8 -0.6 -1.4
v -2.1 -0.5 -1
v -1.9 -0.5 -1
v -1.7 -0.5 -1
v -1.9 -0.5 -1.1
v -1.8 -0.5 -1.1
v -2.2 -0.5 -1.2
v -2.1 -0.5 -1.2
v -2 -0.5 -1.2
v -1.9 -0.5 -1.2
v -1.8 -0.5 -1.2
v -1.7 -0.5 -1.2
v -1.9 -0.5 -1.3
v -1.8 -0.5 -1.3
v -2.1 -0.5 -1.4
v -2 -0.5 -1.4
v -1.9 -0.5 -1.4
v -1.8 -0.5 -1.4
v -2 -0.5 -1.5
v -1.9 -0.5 -1.5
v -1.7 -0.5 -1.5
v -2.2 -0.5 -1.6
v -2.1 -0.5 -1.6
v -2 -0.5 -1.6
v -2.3 -0.4 -1.2
v -2.2 -0.4 -1.2
v -2.2 -0.4 -1.6
v -2.3 -0.4 -1.7
v -2.2 -0.4 -1.7
v -1.9 -0.7 -1.1
v -1.8 -0.7 -1.1
v -1.9 -0.7 -1.2
v -1.8 -0.7 -1.2
v -1.9 -0.7 -1.3
v -1.8 -0.7 -1.3
v -1.9 -0.7 -1.4
v -1.8 -0.7 -1.4
v -2 -0.6 -1.1
v -1.9 -0.6 -1.1
v -1.8 -0.6 -1.1
v -1.7 -0.6 -1.1
v -1.9 -0.6 -1.2
v -1.8 -0.6 -1.2
v -1.9 -0.6 -1.3
v -1.8 -0.6 -1.3
v -2 -0.6 -1.4
v -1.9 -0.6 -1.4
v -1.8 -0.6 -1.4
v -1.7 -0.6 -1.4
v -2.1 -0.4 -1
v -1.9 -0.4 -1
v -1.7 -0.4 -1
v -2.2 -0.4 -1.2
v -2.1 -0.4 -1.2
v -2 -0.4 -1.2
v -1.9 -0.4 -1.2
v -1.8 -0.4 -1.2
v -1.7 -0.4 -1.2
v -2.1 -0.4 -1.4
v -2 -0.4 -1.4
v -1.9 -0.4 -1.4
v -1.8 -0.4 -1.4
v -2 -0.4 -1.5
v -1.9 -0.4 -1.5
v -1.7 -0.4 -1.5
v -2.2 -0.4 -1.6
v -2.1 -0.4 -1.6
v -2 -0.4 -1.6
v -2.3 -0.3 -1.2
v -2.2 -0.3 -1.2
v -2.3 -0.3 -1.7
v -2.2 -0.3 -1.7

# faces
f 3/4/1 2/4/1 1/4/1
f 4/4/1 2/4/1 3/4/1
f 7/2/1 6/2/1 5/2/1
f 8/2/1 6/2/1 7/2/1
f 11/2/1 10/2/1 9/2/1
f 12/2/1 10/2/1 11/2/1
f 15/1/1 14/1/1 13/1/1
f 16/1/1 14/1/1 15/1/1
f 19/1/1 18/1/1 17/1/1
f 20/1/1 18/1/1 19/1/1
f 25/1/1 22/1/1 21/1/1
f 26/1/1 22/1/1 25/1/1
f 27/1/1 24/1/1 23/1/1
f 28/1/1 24/1/1 27/1/1
f 33/1/1 30/1/1 29/1/1
f 34/1/1 30/1/1 33/1/1
f 35/1/1 32/1/1 31/1/1
f 36/1/1 32/1/1 35/1/1
f 37/4/2 38/4/2 40/4/2
f 38/4/2 39/4/2 40/4/2
f 40/4/2 39/4/2 41/4/2
f 42/4/2 43/4/2 44/4/2
f 44/4/2 43/4/2 45/4/2
f 46/1/2 47/1/2 50/1/2
f 50/1/2 47/1/2 51/1/2
f 48/1/2 49/1/2 52/1/2
f 52/1/2 49/1/2 53/1/2
f 54/1/2 55/1/2 56/1/2
f 56/1/2 55/1/2 57/1/2
f 58/1/2 59/1/2 62/1/2
f 62/1/2 59/1/2 63/1/2
f 60/1/2 61/1/2 64/1/2
f 64/1/2 61/1/2 65/1/2
f 66/1/2 67/1/2 68/1/2
f 68/1/2 67/1/2 69/1/2
f 70/4/2 71/4/2 73/4/2
f 71/2/2 72/2/2 74/2/2
f 73/4/2 71/4/2 74/4/2
f 74/2/2 72/2/2 75/2/2
f 78/2/3 77/2/3 76/2/3
f 79/2/3 77/2/3 78/2/3
f 80/4/3 79/4/3 78/4/3
f 81/4/3 79/4/3 80/4/3
f 85/1/3 83/1/3 82/1/3
f 86/1/3 83/1/3 85/1/3
f 88/1/3 85/1/3 84/1/3
f 89/1/3 85/1/3 88/1/3
f 90/1/3 87/1/3 86/1/3
f 91/1/3 87/1/3 90/1/3
f 92/1/3 90/1/3 89/1/3
f 93/1/3 90/1/3 92/1/3
f 97/4/3 95/4/3 94/4/3
f 98/4/3 95/4/3 97/4/3
f 99/2/3 97/2/3 96/2/3
f 100/2/3 97/2/3 99/2/3
f 103/3/3 102/3/3 101/3/3
f 104/3/3 102/3/3 103/3/3
f 107/1/3 106/1/3 105/1/3
f 108/1/3 106/1/3 107/1/3
f 109/1/4 110/1/4 111/1/4
f 111/1/4 110/1/4 112/1/4
f 113/3/4 114/3/4 115/3/4
f 115/3/4 114/3/4 116/3/4
f 117/1/4 118/1/4 120/1/4
f 120/1/4 118/1/4 121/1/4
f 119/1/4 120/1/4 123/1/4
f 123/1/4 120/1/4 124/1/4
f 121/1/4 122/1/4 125/1/4
f 125/1/4 122/1/4 126/1/4
f 124/1/4 125/1/4 127/1/4
f 127/1/4 125/1/4 128/1/4
f 129/4/4 130/4/4 131/4/4
f 131/4/4 130/4/4 132/4/4
f 131/2/4 132/2/4 133/2/4
f 133/2/4 132/2/4 134/2/4
f 135/2/4 136/2/4 137/2/4
f 137/2/4 136/2/4 138/2/4
f 137/4/4 138/4/4 139/4/4
f 139/4/4 138/4/4 140/4/4
f 141/4/4 142/4/4 143/4/4
f 143/4/4 142/4/4 144/4/4
f 147/1/5 146/1/5 145/1/5
f 148/1/5 146/1/5 147/1/5
f 153/1/5 150/1/5 149/1/5
f 154/1/5 150/1/5 153/1/5
f 155/1/5 152/1/5 151/1/5
f 156/1/5 152/1/5 155/1/5
f 159/1/5 158/1/5 157/1/5
f 160/1/5 158/1/5 159/1/5
f 163/1/5 162/1/5 161/1/5
f 164/1/5 162/1/5 163/1/5
f 168/2/5 166/2/5 165/2/5
f 168/4/5 167/4/5 166/4/5
f 169/4/5 167/4/5 168/4/5
f 171/2/5 168/2/5 165/2/5
f 172/2/5 168/2/5 171/2/5
f 173/2/5 168/2/5 172/2/5
f 174/4/5 167/4/5 169/4/5
f 175/4/5 167/4/5 174/4/5
f 176/4/5 173/4/5 172/4/5
f 176/4/5 174/4/5 173/4/5
f 177/2/5 175/2/5 174/2/5
f 177/4/5 174/4/5 176/4/5
f 178/2/5 171/2/5 170/2/5
f 178/2/5 172/2/5 171/2/5
f 179/4/5 176/4/5 172/4/5
f 179/2/5 172/2/5 178/2/5
f 180/4/5 176/4/5 179/4/5
f 181/2/5 175/2/5 177/2/5
f 182/4/5 180/4/5 179/4/5
f 182/4/5 179/4/5 178/4/5
f 183/2/5 181/2/5 180/2/5
f 183/4/5 180/4/5 182/4/5
f 184/2/5 175/2/5 181/2/5
f 184/2/5 181/2/5 183/2/5
f 185/2/5 178/2/5 170/2/5
f 186/4/5 182/4/5 178/4/5
f 186/2/5 178/2/5 185/2/5
f 187/4/5 182/4/5 186/4/5
f 190/4/5 189/4/5 188/4/5
f 191/4/5 190/4/5 188/4/5
f 192/4/5 190/4/5 191/4/5
f 193/1/6 194/1/6 195/1/6
f 195/1/6 194/1/6 196/1/6
f 197/1/6 198/1/6 199/1/6
f 199/1/6 198/1/6 200/1/6
f 201/1/6 202/1/6 205/1/6
f 203/1/6 204/1/6 206/1/6
f 201/1/6 205/1/6 207/1/6
f 205/3/6 206/3/6 207/3/6
f 206/1/6 204/1/6 208/1/6
f 207/3/6 206/3/6 208/3/6
f 201/1/6 207/1/6 209/1/6
f 209/1/6 207/1/6 210/1/6
f 208/1/6 204/1/6 211/1/6
f 211/1/6 204/1/6 212/1/6
f 213/2/6 214/2/6 217/2/6
f 217/2/6 214/2/6 218/2/6
f 214/4/6 215/4/6 219/4/6
f 218/2/6 214/2/6 219/2/6
f 219/4/6 215/4/6 220/4/6
f 220/4/6 215/4/6 221/4/6
f 217/2/6 218/2/6 222/2/6
f 216/2/6 217/2/6 222/2/6
f 218/4/6 219/4/6 223/4/6
f 222/2/6 218/2/6 223/2/6
f 219/4/6 220/4/6 223/4/6
f 223/4/6 220/4/6 224/4/6
f 220/2/6 221/2/6 225/2/6
f 224/4/6 220/4/6 225/4/6
f 223/4/6 224/4/6 226/4/6
f 222/4/6 223/4/6 226/4/6
f 224/2/6 225/2/6 227/2/6
f 226/4/6 224/4/6 227/4/6
f 225/2/6 221/2/6 228/2/6
f 227/2/6 225/2/6 228/2/6
f 216/2/6 222/2/6 229/2/6
f 222/4/6 226/4/6 230/4/6
f 229/2/6 222/2/6 230/2/6
f 230/4/6 226/4/6 231/4/6
f 232/4/6 233/4/6 234/4/6
f 234/4/6 233/4/6 235/4/6
