# MagicaVoxel @ Ephtracy

# group
o GalactixRacer_Cockpit

# material
mtllib Extra-6-GalactixRacer_Cockpit.mtl
usemtl palette

# normals
vn -1 0 0
vn 1 0 0
vn 0 0 1
vn 0 0 -1
vn 0 -1 0
vn 0 1 0

# texcoords
vt 0.630859 0.5
vt 0.708984 0.5
vt 0.771484 0.5

# verts
v -0.4 0.3 -0.6
v -0.4 0.3 -1.3
v -0.4 0.4 -0.6
v -0.4 0.4 -0.8
v -0.4 0.4 -0.9
v -0.4 0.4 -1.1
v -0.4 0.4 -1.2
v -0.4 0.4 -1.3
v -0.4 0.5 -0.8
v -0.4 0.5 -0.9
v -0.4 0.5 -1.1
v -0.4 0.5 -1.2
v -0.3 0.3 -0.5
v -0.3 0.3 -0.6
v -0.3 0.3 -1.3
v -0.3 0.3 -1.4
v -0.3 0.4 -0.6
v -0.3 0.4 -0.8
v -0.3 0.4 -0.9
v -0.3 0.4 -1.1
v -0.3 0.4 -1.2
v -0.3 0.4 -1.3
v -0.3 0.4 -1.4
v -0.3 0.5 -0.5
v -0.3 0.5 -0.6
v -0.3 0.5 -0.8
v -0.3 0.5 -0.9
v -0.3 0.5 -1.1
v -0.3 0.5 -1.2
v -0.3 0.5 -1.3
v -0.3 0.6 -0.8
v -0.3 0.6 -0.9
v -0.3 0.6 -1.1
v -0.3 0.6 -1.2
v -0.2 0.3 -1.4
v -0.2 0.3 -1.5
v -0.2 0.4 -1.3
v -0.2 0.4 -1.4
v -0.2 0.4 -1.5
v -0.2 0.5 -0.5
v -0.2 0.5 -0.6
v -0.2 0.5 -0.8
v -0.2 0.5 -0.9
v -0.2 0.5 -1.1
v -0.2 0.5 -1.2
v -0.2 0.5 -1.3
v -0.2 0.5 -1.4
v -0.2 0.6 -0.5
v -0.2 0.6 -0.6
v -0.2 0.6 -0.8
v -0.2 0.6 -0.9
v -0.2 0.6 -1.1
v -0.2 0.6 -1.2
v -0.2 0.6 -1.3
v -0.2 0.7 -0.8
v -0.2 0.7 -0.9
v -0.2 0.7 -1.1
v -0.2 0.7 -1.2
v -0.1 0.5 -0.4
v -0.1 0.5 -0.5
v -0.1 0.6 -0.4
v -0.1 0.6 -0.5
v 0 0.4 -1.4
v 0 0.4 -1.5
v 0 0.5 -1.3
v 0 0.5 -1.4
v 0 0.5 -1.5
v 0 0.6 -1.2
v 0 0.6 -1.3
v 0 0.6 -1.4
v 0 0.7 -1.2
v 0 0.7 -1.3
v 0.2 0.4 -0.5
v 0.2 0.4 -0.6
v 0.2 0.5 -0.5
v 0.2 0.5 -0.6
v 0.3 0.3 -0.5
v 0.3 0.3 -0.6
v 0.3 0.3 -1.3
v 0.3 0.3 -1.4
v 0.3 0.4 -0.5
v 0.3 0.4 -0.6
v 0.3 0.4 -1.3
v 0.3 0.4 -1.4
v 0.4 0.3 -0.6
v 0.4 0.3 -1.3
v 0.4 0.4 -0.6
v 0.4 0.4 -0.8
v 0.4 0.4 -0.9
v 0.4 0.4 -1.1
v 0.4 0.4 -1.2
v 0.4 0.4 -1.3
v -0.3 0.3 -0.6
v -0.3 0.3 -1.3
v -0.3 0.4 -0.6
v -0.3 0.4 -0.8
v -0.3 0.4 -0.9
v -0.3 0.4 -1.1
v -0.3 0.4 -1.2
v -0.3 0.4 -1.3
v -0.2 0.3 -0.5
v -0.2 0.3 -0.6
v -0.2 0.3 -1.3
v -0.2 0.3 -1.4
v -0.2 0.4 -0.5
v -0.2 0.4 -0.6
v -0.2 0.4 -1.3
v -0.2 0.4 -1.4
v -0.1 0.4 -0.5
v -0.1 0.4 -0.6
v -0.1 0.5 -0.5
v -0.1 0.5 -0.6
v 0.1 0.4 -1.4
v 0.1 0.4 -1.5
v 0.1 0.5 -1.3
v 0.1 0.5 -1.4
v 0.1 0.5 -1.5
v 0.1 0.6 -1.2
v 0.1 0.6 -1.3
v 0.1 0.6 -1.4
v 0.1 0.7 -1.2
v 0.1 0.7 -1.3
v 0.2 0.5 -0.4
v 0.2 0.5 -0.5
v 0.2 0.6 -0.4
v 0.2 0.6 -0.5
v 0.3 0.3 -1.4
v 0.3 0.3 -1.5
v 0.3 0.4 -1.3
v 0.3 0.4 -1.4
v 0.3 0.4 -1.5
v 0.3 0.5 -0.5
v 0.3 0.5 -0.6
v 0.3 0.5 -0.8
v 0.3 0.5 -0.9
v 0.3 0.5 -1.1
v 0.3 0.5 -1.2
v 0.3 0.5 -1.3
v 0.3 0.5 -1.4
v 0.3 0.6 -0.5
v 0.3 0.6 -0.6
v 0.3 0.6 -0.8
v 0.3 0.6 -0.9
v 0.3 0.6 -1.1
v 0.3 0.6 -1.2
v 0.3 0.6 -1.3
v 0.3 0.7 -0.8
v 0.3 0.7 -0.9
v 0.3 0.7 -1.1
v 0.3 0.7 -1.2
v 0.4 0.3 -0.5
v 0.4 0.3 -0.6
v 0.4 0.3 -1.3
v 0.4 0.3 -1.4
v 0.4 0.4 -0.6
v 0.4 0.4 -0.8
v 0.4 0.4 -0.9
v 0.4 0.4 -1.1
v 0.4 0.4 -1.2
v 0.4 0.4 -1.3
v 0.4 0.4 -1.4
v 0.4 0.5 -0.5
v 0.4 0.5 -0.6
v 0.4 0.5 -0.8
v 0.4 0.5 -0.9
v 0.4 0.5 -1.1
v 0.4 0.5 -1.2
v 0.4 0.5 -1.3
v 0.4 0.6 -0.8
v 0.4 0.6 -0.9
v 0.4 0.6 -1.1
v 0.4 0.6 -1.2
v 0.5 0.3 -0.6
v 0.5 0.3 -1.3
v 0.5 0.4 -0.6
v 0.5 0.4 -0.8
v 0.5 0.4 -0.9
v 0.5 0.4 -1.1
v 0.5 0.4 -1.2
v 0.5 0.4 -1.3
v 0.5 0.5 -0.8
v 0.5 0.5 -0.9
v 0.5 0.5 -1.1
v 0.5 0.5 -1.2
v -0.1 0.5 -0.4
v -0.1 0.6 -0.4
v 0.2 0.5 -0.4
v 0.2 0.6 -0.4
v -0.3 0.3 -0.5
v -0.3 0.5 -0.5
v -0.2 0.3 -0.5
v -0.2 0.4 -0.5
v -0.2 0.5 -0.5
v -0.2 0.6 -0.5
v -0.1 0.4 -0.5
v -0.1 0.5 -0.5
v -0.1 0.6 -0.5
v 0.2 0.4 -0.5
v 0.2 0.5 -0.5
v 0.2 0.6 -0.5
v 0.3 0.3 -0.5
v 0.3 0.4 -0.5
v 0.3 0.5 -0.5
v 0.3 0.6 -0.5
v 0.4 0.3 -0.5
v 0.4 0.5 -0.5
v -0.4 0.3 -0.6
v -0.4 0.4 -0.6
v -0.3 0.3 -0.6
v -0.3 0.4 -0.6
v -0.1 0.4 -0.6
v -0.1 0.5 -0.6
v 0.2 0.4 -0.6
v 0.2 0.5 -0.6
v 0.4 0.3 -0.6
v 0.4 0.4 -0.6
v 0.5 0.3 -0.6
v 0.5 0.4 -0.6
v -0.4 0.4 -0.8
v -0.4 0.5 -0.8
v -0.3 0.4 -0.8
v -0.3 0.5 -0.8
v -0.3 0.6 -0.8
v -0.2 0.5 -0.8
v -0.2 0.6 -0.8
v -0.2 0.7 -0.8
v 0.3 0.5 -0.8
v 0.3 0.6 -0.8
v 0.3 0.7 -0.8
v 0.4 0.4 -0.8
v 0.4 0.5 -0.8
v 0.4 0.6 -0.8
v 0.5 0.4 -0.8
v 0.5 0.5 -0.8
v -0.4 0.4 -1.1
v -0.4 0.5 -1.1
v -0.3 0.4 -1.1
v -0.3 0.5 -1.1
v -0.3 0.6 -1.1
v -0.2 0.5 -1.1
v -0.2 0.6 -1.1
v -0.2 0.7 -1.1
v 0.3 0.5 -1.1
v 0.3 0.6 -1.1
v 0.3 0.7 -1.1
v 0.4 0.4 -1.1
v 0.4 0.5 -1.1
v 0.4 0.6 -1.1
v 0.5 0.4 -1.1
v 0.5 0.5 -1.1
v -0.3 0.3 -1.3
v -0.3 0.4 -1.3
v -0.2 0.3 -1.3
v -0.2 0.4 -1.3
v 0.3 0.3 -1.3
v 0.3 0.4 -1.3
v 0.4 0.3 -1.3
v 0.4 0.4 -1.3
v -0.2 0.3 -1.4
v -0.2 0.4 -1.4
v 0 0.4 -1.4
v 0.1 0.4 -1.4
v 0.3 0.3 -1.4
v 0.3 0.4 -1.4
v -0.3 0.3 -0.6
v -0.3 0.4 -0.6
v -0.2 0.3 -0.6
v -0.2 0.4 -0.6
v 0.3 0.3 -0.6
v 0.3 0.4 -0.6
v 0.4 0.3 -0.6
v 0.4 0.4 -0.6
v -0.4 0.4 -0.9
v -0.4 0.5 -0.9
v -0.3 0.4 -0.9
v -0.3 0.5 -0.9
v -0.3 0.6 -0.9
v -0.2 0.5 -0.9
v -0.2 0.6 -0.9
v -0.2 0.7 -0.9
v 0.3 0.5 -0.9
v 0.3 0.6 -0.9
v 0.3 0.7 -0.9
v 0.4 0.4 -0.9
v 0.4 0.5 -0.9
v 0.4 0.6 -0.9
v 0.5 0.4 -0.9
v 0.5 0.5 -0.9
v -0.4 0.4 -1.2
v -0.4 0.5 -1.2
v -0.3 0.4 -1.2
v -0.3 0.5 -1.2
v -0.3 0.6 -1.2
v -0.2 0.5 -1.2
v -0.2 0.6 -1.2
v -0.2 0.7 -1.2
v 0 0.6 -1.2
v 0 0.7 -1.2
v 0.1 0.6 -1.2
v 0.1 0.7 -1.2
v 0.3 0.5 -1.2
v 0.3 0.6 -1.2
v 0.3 0.7 -1.2
v 0.4 0.4 -1.2
v 0.4 0.5 -1.2
v 0.4 0.6 -1.2
v 0.5 0.4 -1.2
v 0.5 0.5 -1.2
v -0.4 0.3 -1.3
v -0.4 0.4 -1.3
v -0.3 0.3 -1.3
v -0.3 0.4 -1.3
v -0.3 0.5 -1.3
v -0.2 0.4 -1.3
v -0.2 0.5 -1.3
v -0.2 0.6 -1.3
v 0 0.5 -1.3
v 0 0.6 -1.3
v 0 0.7 -1.3
v 0.1 0.5 -1.3
v 0.1 0.6 -1.3
v 0.1 0.7 -1.3
v 0.3 0.4 -1.3
v 0.3 0.5 -1.3
v 0.3 0.6 -1.3
v 0.4 0.3 -1.3
v 0.4 0.4 -1.3
v 0.4 0.5 -1.3
v 0.5 0.3 -1.3
v 0.5 0.4 -1.3
v -0.3 0.3 -1.4
v -0.3 0.4 -1.4
v -0.2 0.3 -1.4
v -0.2 0.4 -1.4
v -0.2 0.5 -1.4
v 0 0.4 -1.4
v 0 0.5 -1.4
v 0 0.6 -1.4
v 0.1 0.4 -1.4
v 0.1 0.5 -1.4
v 0.1 0.6 -1.4
v 0.3 0.3 -1.4
v 0.3 0.4 -1.4
v 0.3 0.5 -1.4
v 0.4 0.3 -1.4
v 0.4 0.4 -1.4
v -0.2 0.3 -1.5
v -0.2 0.4 -1.5
v 0 0.4 -1.5
v 0 0.5 -1.5
v 0.1 0.4 -1.5
v 0.1 0.5 -1.5
v 0.3 0.3 -1.5
v 0.3 0.4 -1.5
v -0.3 0.3 -0.5
v -0.2 0.3 -0.5
v 0.3 0.3 -0.5
v 0.4 0.3 -0.5
v -0.4 0.3 -0.6
v -0.3 0.3 -0.6
v -0.2 0.3 -0.6
v 0.3 0.3 -0.6
v 0.4 0.3 -0.6
v 0.5 0.3 -0.6
v -0.4 0.3 -1.3
v -0.3 0.3 -1.3
v -0.2 0.3 -1.3
v 0.3 0.3 -1.3
v 0.4 0.3 -1.3
v 0.5 0.3 -1.3
v -0.3 0.3 -1.4
v -0.2 0.3 -1.4
v 0.3 0.3 -1.4
v 0.4 0.3 -1.4
v -0.2 0.3 -1.5
v 0.3 0.3 -1.5
v -0.2 0.4 -0.5
v -0.1 0.4 -0.5
v 0.2 0.4 -0.5
v 0.3 0.4 -0.5
v -0.3 0.4 -0.6
v -0.2 0.4 -0.6
v -0.1 0.4 -0.6
v 0.2 0.4 -0.6
v 0.3 0.4 -0.6
v 0.4 0.4 -0.6
v -0.3 0.4 -0.8
v -0.1 0.4 -0.8
v 0.2 0.4 -0.8
v 0.4 0.4 -0.8
v -0.3 0.4 -0.9
v -0.1 0.4 -0.9
v 0.2 0.4 -0.9
v 0.4 0.4 -0.9
v -0.3 0.4 -1.1
v -0.1 0.4 -1.1
v 0.2 0.4 -1.1
v 0.4 0.4 -1.1
v -0.3 0.4 -1.2
v -0.1 0.4 -1.2
v 0 0.4 -1.2
v 0.1 0.4 -1.2
v 0.2 0.4 -1.2
v 0.4 0.4 -1.2
v -0.3 0.4 -1.3
v -0.2 0.4 -1.3
v -0.1 0.4 -1.3
v 0 0.4 -1.3
v 0.1 0.4 -1.3
v 0.2 0.4 -1.3
v 0.3 0.4 -1.3
v 0.4 0.4 -1.3
v -0.2 0.4 -1.4
v 0 0.4 -1.4
v 0.1 0.4 -1.4
v 0.3 0.4 -1.4
v -0.1 0.5 -0.4
v 0.2 0.5 -0.4
v -0.1 0.5 -0.5
v 0.2 0.5 -0.5
v -0.1 0.5 -0.6
v 0.2 0.5 -0.6
v -0.4 0.4 -0.6
v -0.3 0.4 -0.6
v 0.4 0.4 -0.6
v 0.5 0.4 -0.6
v -0.4 0.4 -0.8
v -0.3 0.4 -0.8
v 0.4 0.4 -0.8
v 0.5 0.4 -0.8
v -0.4 0.4 -0.9
v -0.3 0.4 -0.9
v 0.4 0.4 -0.9
v 0.5 0.4 -0.9
v -0.4 0.4 -1.1
v -0.3 0.4 -1.1
v 0.4 0.4 -1.1
v 0.5 0.4 -1.1
v -0.4 0.4 -1.2
v -0.3 0.4 -1.2
v 0.4 0.4 -1.2
v 0.5 0.4 -1.2
v -0.4 0.4 -1.3
v -0.3 0.4 -1.3
v -0.2 0.4 -1.3
v 0.3 0.4 -1.3
v 0.4 0.4 -1.3
v 0.5 0.4 -1.3
v -0.3 0.4 -1.4
v -0.2 0.4 -1.4
v 0 0.4 -1.4
v 0.1 0.4 -1.4
v 0.3 0.4 -1.4
v 0.4 0.4 -1.4
v -0.2 0.4 -1.5
v 0 0.4 -1.5
v 0.1 0.4 -1.5
v 0.3 0.4 -1.5
v -0.3 0.5 -0.5
v -0.2 0.5 -0.5
v 0.3 0.5 -0.5
v 0.4 0.5 -0.5
v -0.3 0.5 -0.6
v -0.2 0.5 -0.6
v 0.3 0.5 -0.6
v 0.4 0.5 -0.6
v -0.4 0.5 -0.8
v -0.3 0.5 -0.8
v -0.2 0.5 -0.8
v 0.3 0.5 -0.8
v 0.4 0.5 -0.8
v 0.5 0.5 -0.8
v -0.4 0.5 -0.9
v -0.3 0.5 -0.9
v -0.2 0.5 -0.9
v 0.3 0.5 -0.9
v 0.4 0.5 -0.9
v 0.5 0.5 -0.9
v -0.4 0.5 -1.1
v -0.3 0.5 -1.1
v -0.2 0.5 -1.1
v 0.3 0.5 -1.1
v 0.4 0.5 -1.1
v 0.5 0.5 -1.1
v -0.4 0.5 -1.2
v -0.3 0.5 -1.2
v -0.2 0.5 -1.2
v 0.3 0.5 -1.2
v 0.4 0.5 -1.2
v 0.5 0.5 -1.2
v -0.3 0.5 -1.3
v -0.2 0.5 -1.3
v 0 0.5 -1.3
v 0.1 0.5 -1.3
v 0.3 0.5 -1.3
v 0.4 0.5 -1.3
v -0.2 0.5 -1.4
v 0 0.5 -1.4
v 0.1 0.5 -1.4
v 0.3 0.5 -1.4
v 0 0.5 -1.5
v 0.1 0.5 -1.5
v -0.1 0.6 -0.4
v 0.2 0.6 -0.4
v -0.2 0.6 -0.5
v -0.1 0.6 -0.5
v 0.2 0.6 -0.5
v 0.3 0.6 -0.5
v -0.2 0.6 -0.6
v -0.1 0.6 -0.6
v 0.2 0.6 -0.6
v 0.3 0.6 -0.6
v -0.3 0.6 -0.8
v -0.2 0.6 -0.8
v 0.3 0.6 -0.8
v 0.4 0.6 -0.8
v -0.3 0.6 -0.9
v -0.2 0.6 -0.9
v 0.3 0.6 -0.9
v 0.4 0.6 -0.9
v -0.3 0.6 -1.1
v -0.2 0.6 -1.1
v 0.3 0.6 -1.1
v 0.4 0.6 -1.1
v -0.3 0.6 -1.2
v -0.2 0.6 -1.2
v 0 0.6 -1.2
v 0.1 0.6 -1.2
v 0.3 0.6 -1.2
v 0.4 0.6 -1.2
v -0.2 0.6 -1.3
v 0 0.6 -1.3
v 0.1 0.6 -1.3
v 0.3 0.6 -1.3
v 0 0.6 -1.4
v 0.1 0.6 -1.4
v -0.2 0.7 -0.8
v 0.3 0.7 -0.8
v -0.2 0.7 -0.9
v 0.3 0.7 -0.9
v -0.2 0.7 -1.1
v 0.3 0.7 -1.1
v -0.2 0.7 -1.2
v 0 0.7 -1.2
v 0.1 0.7 -1.2
v 0.3 0.7 -1.2
v 0 0.7 -1.3
v 0.1 0.7 -1.3

# faces
f 3/1/1 2/1/1 1/1/1
f 4/1/1 2/1/1 3/1/1
f 5/1/1 2/1/1 4/1/1
f 6/1/1 2/1/1 5/1/1
f 7/1/1 2/1/1 6/1/1
f 8/1/1 2/1/1 7/1/1
f 9/1/1 5/1/1 4/1/1
f 10/1/1 5/1/1 9/1/1
f 11/1/1 7/1/1 6/1/1
f 12/1/1 7/1/1 11/1/1
f 17/1/1 14/1/1 13/1/1
f 22/1/1 16/1/1 15/1/1
f 23/1/1 16/1/1 22/1/1
f 24/1/1 17/1/1 13/1/1
f 25/2/1 18/2/1 17/2/1
f 25/1/1 17/1/1 24/1/1
f 26/2/1 18/2/1 25/2/1
f 27/2/1 20/2/1 19/2/1
f 28/2/1 20/2/1 27/2/1
f 29/2/1 22/2/1 21/2/1
f 30/2/1 22/2/1 29/2/1
f 31/1/1 27/1/1 26/1/1
f 32/1/1 27/1/1 31/1/1
f 33/1/1 29/1/1 28/1/1
f 34/1/1 29/1/1 33/1/1
f 38/1/1 36/1/1 35/1/1
f 39/1/1 36/1/1 38/1/1
f 46/2/1 38/2/1 37/2/1
f 47/2/1 38/2/1 46/2/1
f 48/1/1 41/1/1 40/1/1
f 49/2/1 42/2/1 41/2/1
f 49/1/1 41/1/1 48/1/1
f 50/2/1 42/2/1 49/2/1
f 51/2/1 44/2/1 43/2/1
f 52/2/1 44/2/1 51/2/1
f 53/2/1 46/2/1 45/2/1
f 54/2/1 46/2/1 53/2/1
f 55/1/1 51/1/1 50/1/1
f 56/1/1 51/1/1 55/1/1
f 57/1/1 53/1/1 52/1/1
f 58/1/1 53/1/1 57/1/1
f 61/1/1 60/1/1 59/1/1
f 62/1/1 60/1/1 61/1/1
f 66/1/1 64/1/1 63/1/1
f 67/1/1 64/1/1 66/1/1
f 69/1/1 66/1/1 65/1/1
f 70/1/1 66/1/1 69/1/1
f 71/1/1 69/1/1 68/1/1
f 72/1/1 69/1/1 71/1/1
f 75/1/1 74/1/1 73/1/1
f 76/1/1 74/1/1 75/1/1
f 81/1/1 78/1/1 77/1/1
f 82/1/1 78/1/1 81/1/1
f 83/1/1 80/1/1 79/1/1
f 84/1/1 80/1/1 83/1/1
f 87/1/1 86/1/1 85/1/1
f 88/1/1 86/1/1 87/1/1
f 89/1/1 86/1/1 88/1/1
f 90/1/1 86/1/1 89/1/1
f 91/1/1 86/1/1 90/1/1
f 92/1/1 86/1/1 91/1/1
f 93/1/2 94/1/2 95/1/2
f 95/1/2 94/1/2 96/1/2
f 96/1/2 94/1/2 97/1/2
f 97/1/2 94/1/2 98/1/2
f 98/1/2 94/1/2 99/1/2
f 99/1/2 94/1/2 100/1/2
f 101/1/2 102/1/2 105/1/2
f 105/1/2 102/1/2 106/1/2
f 103/1/2 104/1/2 107/1/2
f 107/1/2 104/1/2 108/1/2
f 109/1/2 110/1/2 111/1/2
f 111/1/2 110/1/2 112/1/2
f 113/1/2 114/1/2 116/1/2
f 116/1/2 114/1/2 117/1/2
f 115/1/2 116/1/2 119/1/2
f 119/1/2 116/1/2 120/1/2
f 118/1/2 119/1/2 121/1/2
f 121/1/2 119/1/2 122/1/2
f 123/1/2 124/1/2 125/1/2
f 125/1/2 124/1/2 126/1/2
f 127/1/2 128/1/2 130/1/2
f 130/1/2 128/1/2 131/1/2
f 129/2/2 130/2/2 138/2/2
f 138/2/2 130/2/2 139/2/2
f 132/1/2 133/1/2 140/1/2
f 133/2/2 134/2/2 141/2/2
f 140/1/2 133/1/2 141/1/2
f 141/2/2 134/2/2 142/2/2
f 135/2/2 136/2/2 143/2/2
f 143/2/2 136/2/2 144/2/2
f 137/2/2 138/2/2 145/2/2
f 145/2/2 138/2/2 146/2/2
f 142/1/2 143/1/2 147/1/2
f 147/1/2 143/1/2 148/1/2
f 144/1/2 145/1/2 149/1/2
f 149/1/2 145/1/2 150/1/2
f 151/1/2 152/1/2 155/1/2
f 153/1/2 154/1/2 160/1/2
f 160/1/2 154/1/2 161/1/2
f 151/1/2 155/1/2 162/1/2
f 155/2/2 156/2/2 163/2/2
f 162/1/2 155/1/2 163/1/2
f 163/2/2 156/2/2 164/2/2
f 157/2/2 158/2/2 165/2/2
f 165/2/2 158/2/2 166/2/2
f 159/2/2 160/2/2 167/2/2
f 167/2/2 160/2/2 168/2/2
f 164/1/2 165/1/2 169/1/2
f 169/1/2 165/1/2 170/1/2
f 166/1/2 167/1/2 171/1/2
f 171/1/2 167/1/2 172/1/2
f 173/1/2 174/1/2 175/1/2
f 175/1/2 174/1/2 176/1/2
f 176/1/2 174/1/2 177/1/2
f 177/1/2 174/1/2 178/1/2
f 178/1/2 174/1/2 179/1/2
f 179/1/2 174/1/2 180/1/2
f 176/1/2 177/1/2 181/1/2
f 181/1/2 177/1/2 182/1/2
f 178/1/2 179/1/2 183/1/2
f 183/1/2 179/1/2 184/1/2
f 187/1/3 186/1/3 185/1/3
f 188/1/3 186/1/3 187/1/3
f 191/1/3 190/1/3 189/1/3
f 192/1/3 190/1/3 191/1/3
f 193/1/3 190/1/3 192/1/3
f 195/1/3 194/1/3 193/1/3
f 195/1/3 193/1/3 192/1/3
f 196/1/3 194/1/3 195/1/3
f 197/1/3 194/1/3 196/1/3
f 202/1/3 199/1/3 198/1/3
f 202/1/3 200/1/3 199/1/3
f 203/1/3 200/1/3 202/1/3
f 204/1/3 200/1/3 203/1/3
f 205/1/3 202/1/3 201/1/3
f 205/1/3 203/1/3 202/1/3
f 206/1/3 203/1/3 205/1/3
f 209/1/3 208/1/3 207/1/3
f 210/1/3 208/1/3 209/1/3
f 213/3/3 212/3/3 211/3/3
f 214/3/3 212/3/3 213/3/3
f 217/1/3 216/1/3 215/1/3
f 218/1/3 216/1/3 217/1/3
f 221/1/3 220/1/3 219/1/3
f 222/1/3 220/1/3 221/1/3
f 224/1/3 223/1/3 222/1/3
f 225/1/3 223/1/3 224/1/3
f 228/1/3 226/1/3 225/1/3
f 229/1/3 226/1/3 228/1/3
f 231/1/3 228/1/3 227/1/3
f 232/1/3 228/1/3 231/1/3
f 233/1/3 231/1/3 230/1/3
f 234/1/3 231/1/3 233/1/3
f 237/1/3 236/1/3 235/1/3
f 238/1/3 236/1/3 237/1/3
f 240/1/3 239/1/3 238/1/3
f 241/1/3 239/1/3 240/1/3
f 244/1/3 242/1/3 241/1/3
f 245/1/3 242/1/3 244/1/3
f 247/1/3 244/1/3 243/1/3
f 248/1/3 244/1/3 247/1/3
f 249/1/3 247/1/3 246/1/3
f 250/1/3 247/1/3 249/1/3
f 253/1/3 252/1/3 251/1/3
f 254/1/3 252/1/3 253/1/3
f 257/1/3 256/1/3 255/1/3
f 258/1/3 256/1/3 257/1/3
f 261/1/3 260/1/3 259/1/3
f 262/1/3 261/1/3 259/1/3
f 263/1/3 262/1/3 259/1/3
f 264/1/3 262/1/3 263/1/3
f 265/1/4 266/1/4 267/1/4
f 267/1/4 266/1/4 268/1/4
f 269/1/4 270/1/4 271/1/4
f 271/1/4 270/1/4 272/1/4
f 273/1/4 274/1/4 275/1/4
f 275/1/4 274/1/4 276/1/4
f 276/1/4 277/1/4 278/1/4
f 278/1/4 277/1/4 279/1/4
f 279/1/4 280/1/4 282/1/4
f 282/1/4 280/1/4 283/1/4
f 281/1/4 282/1/4 285/1/4
f 285/1/4 282/1/4 286/1/4
f 284/1/4 285/1/4 287/1/4
f 287/1/4 285/1/4 288/1/4
f 289/1/4 290/1/4 291/1/4
f 291/1/4 290/1/4 292/1/4
f 292/1/4 293/1/4 294/1/4
f 294/1/4 293/1/4 295/1/4
f 295/1/4 296/1/4 297/1/4
f 297/1/4 296/1/4 298/1/4
f 299/1/4 300/1/4 302/1/4
f 302/1/4 300/1/4 303/1/4
f 301/1/4 302/1/4 305/1/4
f 305/1/4 302/1/4 306/1/4
f 304/1/4 305/1/4 307/1/4
f 307/1/4 305/1/4 308/1/4
f 309/1/4 310/1/4 311/1/4
f 311/1/4 310/1/4 312/1/4
f 312/2/4 313/2/4 314/2/4
f 314/2/4 313/2/4 315/2/4
f 315/2/4 316/2/4 317/2/4
f 317/2/4 316/2/4 318/2/4
f 318/1/4 319/1/4 321/1/4
f 321/1/4 319/1/4 322/1/4
f 320/2/4 321/2/4 324/2/4
f 324/2/4 321/2/4 325/2/4
f 323/2/4 324/2/4 327/2/4
f 327/2/4 324/2/4 328/2/4
f 326/1/4 327/1/4 329/1/4
f 329/1/4 327/1/4 330/1/4
f 331/1/4 332/1/4 333/1/4
f 333/1/4 332/1/4 334/1/4
f 334/2/4 335/2/4 336/2/4
f 336/2/4 335/2/4 337/2/4
f 337/1/4 338/1/4 340/1/4
f 340/1/4 338/1/4 341/1/4
f 339/2/4 340/2/4 343/2/4
f 343/2/4 340/2/4 344/2/4
f 342/1/4 343/1/4 345/1/4
f 345/1/4 343/1/4 346/1/4
f 347/1/4 348/1/4 349/1/4
f 347/1/4 349/1/4 351/1/4
f 349/1/4 350/1/4 351/1/4
f 351/1/4 350/1/4 352/1/4
f 347/1/4 351/1/4 353/1/4
f 353/1/4 351/1/4 354/1/4
f 360/1/5 356/1/5 355/1/5
f 361/1/5 356/1/5 360/1/5
f 362/1/5 358/1/5 357/1/5
f 363/1/5 358/1/5 362/1/5
f 365/1/5 360/1/5 359/1/5
f 366/1/5 360/1/5 365/1/5
f 369/1/5 364/1/5 363/1/5
f 370/1/5 364/1/5 369/1/5
f 371/1/5 367/1/5 366/1/5
f 372/1/5 367/1/5 371/1/5
f 373/1/5 369/1/5 368/1/5
f 374/1/5 369/1/5 373/1/5
f 375/1/5 373/1/5 372/1/5
f 376/1/5 373/1/5 375/1/5
f 382/1/5 378/1/5 377/1/5
f 383/1/5 378/1/5 382/1/5
f 384/1/5 380/1/5 379/1/5
f 385/1/5 380/1/5 384/1/5
f 387/2/5 383/2/5 382/2/5
f 387/2/5 382/2/5 381/2/5
f 388/3/5 384/3/5 383/3/5
f 388/2/5 383/2/5 387/2/5
f 389/2/5 386/2/5 385/2/5
f 389/3/5 384/3/5 388/3/5
f 389/2/5 385/2/5 384/2/5
f 390/2/5 386/2/5 389/2/5
f 391/1/5 388/1/5 387/1/5
f 391/1/5 389/1/5 388/1/5
f 391/1/5 390/1/5 389/1/5
f 392/1/5 390/1/5 391/1/5
f 393/1/5 390/1/5 392/1/5
f 394/1/5 390/1/5 393/1/5
f 395/2/5 392/2/5 391/2/5
f 396/3/5 393/3/5 392/3/5
f 396/2/5 392/2/5 395/2/5
f 397/2/5 394/2/5 393/2/5
f 397/3/5 393/3/5 396/3/5
f 398/2/5 394/2/5 397/2/5
f 399/1/5 396/1/5 395/1/5
f 399/1/5 397/1/5 396/1/5
f 399/1/5 398/1/5 397/1/5
f 400/1/5 398/1/5 399/1/5
f 401/1/5 398/1/5 400/1/5
f 402/1/5 398/1/5 401/1/5
f 403/1/5 398/1/5 402/1/5
f 404/1/5 398/1/5 403/1/5
f 405/2/5 400/2/5 399/2/5
f 406/2/5 400/2/5 405/2/5
f 407/3/5 401/3/5 400/3/5
f 407/2/5 400/2/5 406/2/5
f 408/1/5 402/1/5 401/1/5
f 408/3/5 401/3/5 407/3/5
f 409/3/5 403/3/5 402/3/5
f 409/1/5 402/1/5 408/1/5
f 410/2/5 404/2/5 403/2/5
f 410/3/5 403/3/5 409/3/5
f 411/2/5 404/2/5 410/2/5
f 412/2/5 404/2/5 411/2/5
f 413/2/5 407/2/5 406/2/5
f 413/2/5 408/2/5 407/2/5
f 414/1/5 409/1/5 408/1/5
f 414/2/5 408/2/5 413/2/5
f 415/2/5 411/2/5 410/2/5
f 415/1/5 409/1/5 414/1/5
f 415/2/5 410/2/5 409/2/5
f 416/2/5 411/2/5 415/2/5
f 419/1/5 418/1/5 417/1/5
f 420/1/5 418/1/5 419/1/5
f 421/2/5 420/2/5 419/2/5
f 422/2/5 420/2/5 421/2/5
f 423/1/6 424/1/6 427/1/6
f 427/1/6 424/1/6 428/1/6
f 425/1/6 426/1/6 429/1/6
f 429/1/6 426/1/6 430/1/6
f 431/1/6 432/1/6 435/1/6
f 435/1/6 432/1/6 436/1/6
f 433/1/6 434/1/6 437/1/6
f 437/1/6 434/1/6 438/1/6
f 439/1/6 440/1/6 443/1/6
f 443/1/6 440/1/6 444/1/6
f 441/1/6 442/1/6 447/1/6
f 447/1/6 442/1/6 448/1/6
f 444/1/6 445/1/6 449/1/6
f 449/1/6 445/1/6 450/1/6
f 446/1/6 447/1/6 453/1/6
f 453/1/6 447/1/6 454/1/6
f 450/1/6 451/1/6 455/1/6
f 455/1/6 451/1/6 456/1/6
f 452/1/6 453/1/6 457/1/6
f 457/1/6 453/1/6 458/1/6
f 459/1/6 460/1/6 463/1/6
f 463/1/6 460/1/6 464/1/6
f 461/1/6 462/1/6 465/1/6
f 465/1/6 462/1/6 466/1/6
f 463/2/6 464/2/6 468/2/6
f 468/2/6 464/2/6 469/2/6
f 465/2/6 466/2/6 470/2/6
f 470/2/6 466/2/6 471/2/6
f 467/1/6 468/1/6 473/1/6
f 473/1/6 468/1/6 474/1/6
f 471/1/6 472/1/6 477/1/6
f 477/1/6 472/1/6 478/1/6
f 474/2/6 475/2/6 480/2/6
f 480/2/6 475/2/6 481/2/6
f 476/2/6 477/2/6 482/2/6
f 482/2/6 477/2/6 483/2/6
f 479/1/6 480/1/6 485/1/6
f 485/1/6 480/1/6 486/1/6
f 483/1/6 484/1/6 489/1/6
f 489/1/6 484/1/6 490/1/6
f 486/2/6 487/2/6 491/2/6
f 491/2/6 487/2/6 492/2/6
f 488/2/6 489/2/6 495/2/6
f 495/2/6 489/2/6 496/2/6
f 492/2/6 493/2/6 497/2/6
f 497/2/6 493/2/6 498/2/6
f 494/2/6 495/2/6 499/2/6
f 499/2/6 495/2/6 500/2/6
f 498/1/6 499/1/6 501/1/6
f 501/1/6 499/1/6 502/1/6
f 503/1/6 504/1/6 506/1/6
f 506/1/6 504/1/6 507/1/6
f 505/1/6 506/1/6 509/1/6
f 506/2/6 507/2/6 510/2/6
f 509/1/6 506/1/6 510/1/6
f 507/1/6 508/1/6 511/1/6
f 510/2/6 507/2/6 511/2/6
f 511/1/6 508/1/6 512/1/6
f 509/2/6 510/2/6 514/2/6
f 510/2/6 511/2/6 514/2/6
f 511/2/6 512/2/6 514/2/6
f 514/2/6 512/2/6 515/2/6
f 513/1/6 514/1/6 517/1/6
f 517/1/6 514/1/6 518/1/6
f 515/1/6 516/1/6 519/1/6
f 519/1/6 516/1/6 520/1/6
f 518/2/6 519/2/6 522/2/6
f 522/2/6 519/2/6 523/2/6
f 521/1/6 522/1/6 525/1/6
f 525/1/6 522/1/6 526/1/6
f 523/1/6 524/1/6 529/1/6
f 529/1/6 524/1/6 530/1/6
f 526/2/6 527/2/6 531/2/6
f 531/2/6 527/2/6 532/2/6
f 528/2/6 529/2/6 533/2/6
f 533/2/6 529/2/6 534/2/6
f 532/1/6 533/1/6 535/1/6
f 535/1/6 533/1/6 536/1/6
f 537/1/6 538/1/6 539/1/6
f 539/1/6 538/1/6 540/1/6
f 541/1/6 542/1/6 543/1/6
f 543/1/6 542/1/6 544/1/6
f 544/1/6 542/1/6 545/1/6
f 545/1/6 542/1/6 546/1/6
f 544/1/6 545/1/6 547/1/6
f 547/1/6 545/1/6 548/1/6
