# MagicaVoxel @ Ephtracy

# group
o MeteorSlicer_TopFin

# material
mtllib Extra-5-MeteorSlicer_TopFin.mtl
usemtl palette

# normals
vn -1 0 0
vn 1 0 0
vn 0 0 1
vn 0 0 -1
vn 0 -1 0
vn 0 1 0

# texcoords
vt 0.732422 0.5
vt 0.830078 0.5
vt 0.837891 0.5

# verts
v 0 -3 -0.2
v 0 -3 -1.2
v 0 -3 -1.3
v 0 -3 -1.4
v 0 -3 -1.5
v 0 -2.9 -0.1
v 0 -2.9 -0.2
v 0 -2.9 -1.2
v 0 -2.9 -1.3
v 0 -2.9 -1.4
v 0 -2.9 -1.5
v 0 -2.8 -0.1
v 0 -2.8 -1.4
v 0.1 -3 -0.2
v 0.1 -3 -1.2
v 0.1 -3 -1.3
v 0.1 -3 -1.4
v 0.1 -3 -1.5
v 0.1 -2.9 -0.1
v 0.1 -2.9 -0.2
v 0.1 -2.9 -1.2
v 0.1 -2.9 -1.3
v 0.1 -2.9 -1.4
v 0.1 -2.9 -1.5
v 0.1 -2.8 -0.1
v 0.1 -2.8 -1.4
v 0 -2.9 -0.1
v 0 -2.8 -0.1
v 0.1 -2.9 -0.1
v 0.1 -2.8 -0.1
v 0 -3 -0.2
v 0 -2.9 -0.2
v 0.1 -3 -0.2
v 0.1 -2.9 -0.2
v 0 -2.9 -1.4
v 0 -2.8 -1.4
v 0.1 -2.9 -1.4
v 0.1 -2.8 -1.4
v 0 -3 -1.5
v 0 -2.9 -1.5
v 0.1 -3 -1.5
v 0.1 -2.9 -1.5
v 0 -3 -0.2
v 0.1 -3 -0.2
v 0 -3 -1.2
v 0.1 -3 -1.2
v 0 -3 -1.3
v 0.1 -3 -1.3
v 0 -3 -1.4
v 0.1 -3 -1.4
v 0 -3 -1.5
v 0.1 -3 -1.5
v 0 -2.9 -0.1
v 0.1 -2.9 -0.1
v 0 -2.9 -0.2
v 0.1 -2.9 -0.2
v 0 -2.9 -1.4
v 0.1 -2.9 -1.4
v 0 -2.9 -1.5
v 0.1 -2.9 -1.5
v 0 -2.8 -0.1
v 0.1 -2.8 -0.1
v 0 -2.8 -1.4
v 0.1 -2.8 -1.4

# faces
f 7/2/1 2/2/1 1/2/1
f 8/3/1 3/3/1 2/3/1
f 8/2/1 2/2/1 7/2/1
f 9/2/1 4/2/1 3/2/1
f 9/3/1 3/3/1 8/3/1
f 10/1/1 5/1/1 4/1/1
f 10/2/1 4/2/1 9/2/1
f 11/1/1 5/1/1 10/1/1
f 12/2/1 9/2/1 8/2/1
f 12/2/1 7/2/1 6/2/1
f 12/2/1 10/2/1 9/2/1
f 12/2/1 8/2/1 7/2/1
f 13/2/1 10/2/1 12/2/1
f 14/2/2 15/2/2 20/2/2
f 15/3/2 16/3/2 21/3/2
f 20/2/2 15/2/2 21/2/2
f 16/2/2 17/2/2 22/2/2
f 21/3/2 16/3/2 22/3/2
f 17/1/2 18/1/2 23/1/2
f 22/2/2 17/2/2 23/2/2
f 23/1/2 18/1/2 24/1/2
f 21/2/2 22/2/2 25/2/2
f 19/2/2 20/2/2 25/2/2
f 22/2/2 23/2/2 25/2/2
f 20/2/2 21/2/2 25/2/2
f 25/2/2 23/2/2 26/2/2
f 29/2/3 28/2/3 27/2/3
f 30/2/3 28/2/3 29/2/3
f 33/2/3 32/2/3 31/2/3
f 34/2/3 32/2/3 33/2/3
f 35/2/4 36/2/4 37/2/4
f 37/2/4 36/2/4 38/2/4
f 39/1/4 40/1/4 41/1/4
f 41/1/4 40/1/4 42/1/4
f 45/2/5 44/2/5 43/2/5
f 46/2/5 44/2/5 45/2/5
f 47/3/5 46/3/5 45/3/5
f 48/3/5 46/3/5 47/3/5
f 49/2/5 48/2/5 47/2/5
f 50/2/5 48/2/5 49/2/5
f 51/1/5 50/1/5 49/1/5
f 52/1/5 50/1/5 51/1/5
f 55/2/5 54/2/5 53/2/5
f 56/2/5 54/2/5 55/2/5
f 57/1/6 58/1/6 59/1/6
f 59/1/6 58/1/6 60/1/6
f 61/2/6 62/2/6 63/2/6
f 63/2/6 62/2/6 64/2/6
