# MagicaVoxel @ Ephtracy

# group
o MeteorSlicer_Cockpit

# material
mtllib Extra-0-MeteorSlicer_Cockpit.mtl
usemtl palette

# normals
vn -1 0 0
vn 1 0 0
vn 0 0 1
vn 0 0 -1
vn 0 -1 0
vn 0 1 0

# texcoords
vt 0.677734 0.5
vt 0.708984 0.5
vt 0.861328 0.5
vt 0.865234 0.5

# verts
v -0.4 1.1 1.2
v -0.4 1.1 0.6
v -0.4 1.1 0.4
v -0.4 1.2 1.2
v -0.4 1.2 0.6
v -0.4 1.2 0.4
v -0.4 1.3 1.2
v -0.4 1.3 0.6
v -0.3 1 1.2
v -0.3 1 0.6
v -0.3 1 0.4
v -0.3 1.1 1.3
v -0.3 1.1 1.2
v -0.3 1.1 0.6
v -0.3 1.1 0.4
v -0.3 1.1 0.3
v -0.3 1.2 1.3
v -0.3 1.2 1.2
v -0.3 1.2 0.6
v -0.3 1.2 0.5
v -0.3 1.2 0.4
v -0.3 1.2 0.3
v -0.3 1.3 1.3
v -0.3 1.3 1.2
v -0.3 1.3 0.8
v -0.3 1.3 0.6
v -0.3 1.3 0.5
v -0.3 1.4 1.2
v -0.3 1.4 0.8
v -0.3 1.4 0.6
v -0.2 1 1.3
v -0.2 1 1.2
v -0.2 1.1 1.4
v -0.2 1.1 1.3
v -0.2 1.1 1.2
v -0.2 1.2 1.4
v -0.2 1.2 1.3
v -0.2 1.3 1.4
v -0.2 1.3 1.3
v -0.2 1.3 1.2
v -0.2 1.4 1.3
v -0.2 1.4 1.2
v 0.1 1.1 0.5
v 0.1 1.1 0.4
v 0.1 1.2 0.5
v 0.1 1.2 0.4
v 0.2 1 0.5
v 0.2 1 0.4
v 0.2 1.1 0.5
v 0.2 1.1 0.4
v 0.2 1.1 0.3
v 0.2 1.2 0.4
v 0.2 1.2 0.3
v -0.1 1 0.5
v -0.1 1 0.4
v -0.1 1.1 0.5
v -0.1 1.1 0.4
v -0.1 1.1 0.3
v -0.1 1.2 0.4
v -0.1 1.2 0.3
v 0 1.1 0.5
v 0 1.1 0.4
v 0 1.2 0.5
v 0 1.2 0.4
v 0.3 1 1.3
v 0.3 1 1.2
v 0.3 1.1 1.4
v 0.3 1.1 1.3
v 0.3 1.1 1.2
v 0.3 1.2 1.4
v 0.3 1.2 1.3
v 0.3 1.3 1.4
v 0.3 1.3 1.3
v 0.3 1.3 1.2
v 0.3 1.4 1.3
v 0.3 1.4 1.2
v 0.4 1 1.2
v 0.4 1 0.6
v 0.4 1 0.4
v 0.4 1.1 1.3
v 0.4 1.1 1.2
v 0.4 1.1 0.6
v 0.4 1.1 0.4
v 0.4 1.1 0.3
v 0.4 1.2 1.3
v 0.4 1.2 1.2
v 0.4 1.2 0.6
v 0.4 1.2 0.5
v 0.4 1.2 0.4
v 0.4 1.2 0.3
v 0.4 1.3 1.3
v 0.4 1.3 1.2
v 0.4 1.3 0.8
v 0.4 1.3 0.6
v 0.4 1.3 0.5
v 0.4 1.4 1.2
v 0.4 1.4 0.8
v 0.4 1.4 0.6
v 0.5 1.1 1.2
v 0.5 1.1 0.6
v 0.5 1.1 0.4
v 0.5 1.2 1.2
v 0.5 1.2 0.6
v 0.5 1.2 0.4
v 0.5 1.3 1.2
v 0.5 1.3 0.6
v -0.2 1.1 1.4
v -0.2 1.2 1.4
v -0.2 1.3 1.4
v 0.3 1.1 1.4
v 0.3 1.2 1.4
v 0.3 1.3 1.4
v -0.3 1.1 1.3
v -0.3 1.2 1.3
v -0.3 1.3 1.3
v -0.2 1 1.3
v -0.2 1.1 1.3
v -0.2 1.2 1.3
v -0.2 1.3 1.3
v -0.2 1.4 1.3
v 0.3 1 1.3
v 0.3 1.1 1.3
v 0.3 1.2 1.3
v 0.3 1.3 1.3
v 0.3 1.4 1.3
v 0.4 1.1 1.3
v 0.4 1.2 1.3
v 0.4 1.3 1.3
v -0.4 1.1 1.2
v -0.4 1.2 1.2
v -0.4 1.3 1.2
v -0.3 1 1.2
v -0.3 1.1 1.2
v -0.3 1.2 1.2
v -0.3 1.3 1.2
v -0.3 1.4 1.2
v -0.2 1 1.2
v -0.2 1.1 1.2
v -0.2 1.3 1.2
v -0.2 1.4 1.2
v 0.3 1 1.2
v 0.3 1.1 1.2
v 0.3 1.3 1.2
v 0.3 1.4 1.2
v 0.4 1 1.2
v 0.4 1.1 1.2
v 0.4 1.2 1.2
v 0.4 1.3 1.2
v 0.4 1.4 1.2
v 0.5 1.1 1.2
v 0.5 1.2 1.2
v 0.5 1.3 1.2
v -0.4 1.2 0.6
v -0.4 1.3 0.6
v -0.3 1.2 0.6
v -0.3 1.3 0.6
v -0.3 1.4 0.6
v 0.4 1.2 0.6
v 0.4 1.3 0.6
v 0.4 1.4 0.6
v 0.5 1.2 0.6
v 0.5 1.3 0.6
v -0.3 1.2 0.5
v -0.3 1.3 0.5
v -0.1 1 0.5
v -0.1 1.1 0.5
v 0 1.1 0.5
v 0 1.2 0.5
v 0.1 1.1 0.5
v 0.1 1.2 0.5
v 0.2 1 0.5
v 0.2 1.1 0.5
v 0.4 1.2 0.5
v 0.4 1.3 0.5
v -0.4 1.1 0.4
v -0.4 1.2 0.4
v -0.3 1 0.4
v -0.3 1.1 0.4
v -0.3 1.2 0.4
v -0.1 1 0.4
v -0.1 1.1 0.4
v -0.1 1.2 0.4
v 0 1.1 0.4
v 0 1.2 0.4
v 0.1 1.1 0.4
v 0.1 1.2 0.4
v 0.2 1 0.4
v 0.2 1.1 0.4
v 0.2 1.2 0.4
v 0.4 1 0.4
v 0.4 1.1 0.4
v 0.4 1.2 0.4
v 0.5 1.1 0.4
v 0.5 1.2 0.4
v -0.3 1.1 0.3
v -0.3 1.2 0.3
v -0.1 1.1 0.3
v -0.1 1.2 0.3
v 0.2 1.1 0.3
v 0.2 1.2 0.3
v 0.4 1.1 0.3
v 0.4 1.2 0.3
v -0.2 1 1.3
v 0.3 1 1.3
v -0.3 1 1.2
v -0.2 1 1.2
v 0.3 1 1.2
v 0.4 1 1.2
v -0.3 1 0.6
v 0.4 1 0.6
v -0.1 1 0.5
v 0.2 1 0.5
v -0.3 1 0.4
v -0.1 1 0.4
v 0.2 1 0.4
v 0.4 1 0.4
v -0.2 1.1 1.4
v 0.3 1.1 1.4
v -0.3 1.1 1.3
v -0.2 1.1 1.3
v 0.3 1.1 1.3
v 0.4 1.1 1.3
v -0.4 1.1 1.2
v -0.3 1.1 1.2
v -0.2 1.1 1.2
v 0.3 1.1 1.2
v 0.4 1.1 1.2
v 0.5 1.1 1.2
v -0.4 1.1 0.6
v -0.3 1.1 0.6
v 0.4 1.1 0.6
v 0.5 1.1 0.6
v -0.1 1.1 0.5
v 0 1.1 0.5
v 0.1 1.1 0.5
v 0.2 1.1 0.5
v -0.4 1.1 0.4
v -0.3 1.1 0.4
v -0.1 1.1 0.4
v 0 1.1 0.4
v 0.1 1.1 0.4
v 0.2 1.1 0.4
v 0.4 1.1 0.4
v 0.5 1.1 0.4
v -0.3 1.1 0.3
v -0.1 1.1 0.3
v 0.2 1.1 0.3
v 0.4 1.1 0.3
v -0.4 1.2 0.6
v -0.3 1.2 0.6
v 0.4 1.2 0.6
v 0.5 1.2 0.6
v -0.3 1.2 0.5
v 0 1.2 0.5
v 0.1 1.2 0.5
v 0.4 1.2 0.5
v -0.4 1.2 0.4
v -0.3 1.2 0.4
v -0.1 1.2 0.4
v 0 1.2 0.4
v 0.1 1.2 0.4
v 0.2 1.2 0.4
v 0.4 1.2 0.4
v 0.5 1.2 0.4
v -0.3 1.2 0.3
v -0.1 1.2 0.3
v 0.2 1.2 0.3
v 0.4 1.2 0.3
v -0.2 1.3 1.4
v 0.3 1.3 1.4
v -0.3 1.3 1.3
v -0.2 1.3 1.3
v 0.3 1.3 1.3
v 0.4 1.3 1.3
v -0.4 1.3 1.2
v -0.3 1.3 1.2
v -0.2 1.3 1.2
v 0.3 1.3 1.2
v 0.4 1.3 1.2
v 0.5 1.3 1.2
v -0.3 1.3 0.8
v 0.4 1.3 0.8
v -0.4 1.3 0.6
v -0.3 1.3 0.6
v 0.4 1.3 0.6
v 0.5 1.3 0.6
v -0.3 1.3 0.5
v 0.4 1.3 0.5
v -0.2 1.4 1.3
v 0.3 1.4 1.3
v -0.3 1.4 1.2
v -0.2 1.4 1.2
v 0.3 1.4 1.2
v 0.4 1.4 1.2
v -0.3 1.4 0.8
v -0.2 1.4 0.8
v 0.3 1.4 0.8
v 0.4 1.4 0.8
v -0.3 1.4 0.6
v 0.4 1.4 0.6

# faces
f 4/2/1 2/2/1 1/2/1
f 5/3/1 3/3/1 2/3/1
f 5/2/1 2/2/1 4/2/1
f 6/3/1 3/3/1 5/3/1
f 7/3/1 5/3/1 4/3/1
f 8/3/1 5/3/1 7/3/1
f 13/2/1 10/2/1 9/2/1
f 14/3/1 11/3/1 10/3/1
f 14/2/1 10/2/1 13/2/1
f 15/3/1 11/3/1 14/3/1
f 17/2/1 13/2/1 12/2/1
f 18/2/1 13/2/1 17/2/1
f 21/3/1 16/3/1 15/3/1
f 22/3/1 16/3/1 21/3/1
f 23/3/1 18/3/1 17/3/1
f 24/3/1 18/3/1 23/3/1
f 26/3/1 20/3/1 19/3/1
f 27/3/1 20/3/1 26/3/1
f 28/4/1 25/4/1 24/4/1
f 29/3/1 26/3/1 25/3/1
f 29/4/1 25/4/1 28/4/1
f 30/3/1 26/3/1 29/3/1
f 34/2/1 32/2/1 31/2/1
f 35/2/1 32/2/1 34/2/1
f 36/2/1 34/2/1 33/2/1
f 37/2/1 34/2/1 36/2/1
f 38/3/1 37/3/1 36/3/1
f 39/3/1 37/3/1 38/3/1
f 41/4/1 40/4/1 39/4/1
f 42/4/1 40/4/1 41/4/1
f 45/3/1 44/3/1 43/3/1
f 46/3/1 44/3/1 45/3/1
f 49/3/1 48/3/1 47/3/1
f 50/3/1 48/3/1 49/3/1
f 52/3/1 51/3/1 50/3/1
f 53/3/1 51/3/1 52/3/1
f 54/3/2 55/3/2 56/3/2
f 56/3/2 55/3/2 57/3/2
f 57/3/2 58/3/2 59/3/2
f 59/3/2 58/3/2 60/3/2
f 61/3/2 62/3/2 63/3/2
f 63/3/2 62/3/2 64/3/2
f 65/2/2 66/2/2 68/2/2
f 68/2/2 66/2/2 69/2/2
f 67/2/2 68/2/2 70/2/2
f 70/2/2 68/2/2 71/2/2
f 70/3/2 71/3/2 72/3/2
f 72/3/2 71/3/2 73/3/2
f 73/4/2 74/4/2 75/4/2
f 75/4/2 74/4/2 76/4/2
f 77/2/2 78/2/2 81/2/2
f 78/3/2 79/3/2 82/3/2
f 81/2/2 78/2/2 82/2/2
f 82/3/2 79/3/2 83/3/2
f 80/2/2 81/2/2 85/2/2
f 85/2/2 81/2/2 86/2/2
f 83/3/2 84/3/2 89/3/2
f 89/3/2 84/3/2 90/3/2
f 85/3/2 86/3/2 91/3/2
f 91/3/2 86/3/2 92/3/2
f 87/3/2 88/3/2 94/3/2
f 94/3/2 88/3/2 95/3/2
f 92/4/2 93/4/2 96/4/2
f 93/3/2 94/3/2 97/3/2
f 96/4/2 93/4/2 97/4/2
f 97/3/2 94/3/2 98/3/2
f 99/2/2 100/2/2 102/2/2
f 100/3/2 101/3/2 103/3/2
f 102/2/2 100/2/2 103/2/2
f 103/3/2 101/3/2 104/3/2
f 102/3/2 103/3/2 105/3/2
f 105/3/2 103/3/2 106/3/2
f 110/2/3 108/2/3 107/2/3
f 111/3/3 109/3/3 108/3/3
f 111/2/3 108/2/3 110/2/3
f 112/3/3 109/3/3 111/3/3
f 117/2/3 114/2/3 113/2/3
f 118/3/3 115/3/3 114/3/3
f 118/2/3 114/2/3 117/2/3
f 119/3/3 115/3/3 118/3/3
f 121/2/3 117/2/3 116/2/3
f 122/2/3 117/2/3 121/2/3
f 124/4/3 120/4/3 119/4/3
f 125/4/3 120/4/3 124/4/3
f 126/2/3 123/2/3 122/2/3
f 127/3/3 124/3/3 123/3/3
f 127/2/3 123/2/3 126/2/3
f 128/3/3 124/3/3 127/3/3
f 133/2/3 130/2/3 129/2/3
f 134/3/3 131/3/3 130/3/3
f 134/2/3 130/2/3 133/2/3
f 135/3/3 131/3/3 134/3/3
f 137/2/3 133/2/3 132/2/3
f 138/2/3 133/2/3 137/2/3
f 139/4/3 136/4/3 135/4/3
f 140/4/3 136/4/3 139/4/3
f 145/2/3 142/2/3 141/2/3
f 146/2/3 142/2/3 145/2/3
f 148/4/3 144/4/3 143/4/3
f 149/4/3 144/4/3 148/4/3
f 150/2/3 147/2/3 146/2/3
f 151/3/3 148/3/3 147/3/3
f 151/2/3 147/2/3 150/2/3
f 152/3/3 148/3/3 151/3/3
f 153/3/4 154/3/4 155/3/4
f 155/3/4 154/3/4 156/3/4
f 156/3/4 157/3/4 159/3/4
f 159/3/4 157/3/4 160/3/4
f 158/3/4 159/3/4 161/3/4
f 161/3/4 159/3/4 162/3/4
f 165/3/4 166/3/4 167/3/4
f 163/3/4 164/3/4 168/3/4
f 165/3/4 167/3/4 169/3/4
f 167/3/4 168/3/4 169/3/4
f 168/3/4 164/3/4 170/3/4
f 169/3/4 168/3/4 170/3/4
f 165/3/4 169/3/4 171/3/4
f 171/3/4 169/3/4 172/3/4
f 170/3/4 164/3/4 173/3/4
f 173/3/4 164/3/4 174/3/4
f 175/3/4 176/3/4 178/3/4
f 178/3/4 176/3/4 179/3/4
f 177/3/4 178/3/4 180/3/4
f 180/3/4 178/3/4 181/3/4
f 181/3/4 182/3/4 183/3/4
f 183/3/4 182/3/4 184/3/4
f 185/3/4 186/3/4 188/3/4
f 188/3/4 186/3/4 189/3/4
f 187/3/4 188/3/4 190/3/4
f 190/3/4 188/3/4 191/3/4
f 191/3/4 192/3/4 193/3/4
f 193/3/4 192/3/4 194/3/4
f 195/3/4 196/3/4 197/3/4
f 197/3/4 196/3/4 198/3/4
f 199/3/4 200/3/4 201/3/4
f 201/3/4 200/3/4 202/3/4
f 206/2/5 204/2/5 203/2/5
f 207/2/5 204/2/5 206/2/5
f 209/2/5 206/2/5 205/2/5
f 209/2/5 208/2/5 207/2/5
f 209/2/5 207/2/5 206/2/5
f 210/2/5 208/2/5 209/2/5
f 211/3/5 210/3/5 209/3/5
f 212/3/5 210/3/5 211/3/5
f 213/3/5 211/3/5 209/3/5
f 214/3/5 211/3/5 213/3/5
f 215/3/5 210/3/5 212/3/5
f 216/3/5 210/3/5 215/3/5
f 220/2/5 218/2/5 217/2/5
f 221/2/5 218/2/5 220/2/5
f 224/2/5 220/2/5 219/2/5
f 225/2/5 220/2/5 224/2/5
f 226/2/5 222/2/5 221/2/5
f 227/2/5 222/2/5 226/2/5
f 229/2/5 224/2/5 223/2/5
f 230/2/5 224/2/5 229/2/5
f 231/2/5 228/2/5 227/2/5
f 232/2/5 228/2/5 231/2/5
f 237/3/5 230/3/5 229/3/5
f 238/3/5 230/3/5 237/3/5
f 239/3/5 234/3/5 233/3/5
f 240/3/5 234/3/5 239/3/5
f 241/3/5 236/3/5 235/3/5
f 242/3/5 236/3/5 241/3/5
f 243/3/5 232/3/5 231/3/5
f 244/3/5 232/3/5 243/3/5
f 245/3/5 239/3/5 238/3/5
f 246/3/5 239/3/5 245/3/5
f 247/3/5 243/3/5 242/3/5
f 248/3/5 243/3/5 247/3/5
f 249/3/6 250/3/6 253/3/6
f 251/3/6 252/3/6 256/3/6
f 253/3/6 254/3/6 257/3/6
f 249/3/6 253/3/6 257/3/6
f 257/3/6 254/3/6 258/3/6
f 258/3/6 254/3/6 259/3/6
f 259/3/6 254/3/6 260/3/6
f 255/3/6 256/3/6 261/3/6
f 261/3/6 256/3/6 262/3/6
f 256/3/6 252/3/6 263/3/6
f 262/3/6 256/3/6 263/3/6
f 263/3/6 252/3/6 264/3/6
f 258/3/6 259/3/6 265/3/6
f 265/3/6 259/3/6 266/3/6
f 262/3/6 263/3/6 267/3/6
f 267/3/6 263/3/6 268/3/6
f 269/3/6 270/3/6 272/3/6
f 272/3/6 270/3/6 273/3/6
f 271/3/6 272/3/6 276/3/6
f 276/3/6 272/3/6 277/3/6
f 273/3/6 274/3/6 278/3/6
f 278/3/6 274/3/6 279/3/6
f 275/3/6 276/3/6 281/3/6
f 279/3/6 280/3/6 282/3/6
f 275/3/6 281/3/6 283/3/6
f 283/3/6 281/3/6 284/3/6
f 282/3/6 280/3/6 285/3/6
f 285/3/6 280/3/6 286/3/6
f 284/3/6 285/3/6 287/3/6
f 287/3/6 285/3/6 288/3/6
f 289/4/6 290/4/6 292/4/6
f 292/4/6 290/4/6 293/4/6
f 291/4/6 292/4/6 295/4/6
f 292/3/6 293/3/6 296/3/6
f 295/4/6 292/4/6 296/4/6
f 293/4/6 294/4/6 297/4/6
f 296/3/6 293/3/6 297/3/6
f 297/4/6 294/4/6 298/4/6
f 295/3/6 296/3/6 299/3/6
f 296/3/6 297/3/6 299/3/6
f 297/3/6 298/3/6 299/3/6
f 299/3/6 298/3/6 300/3/6
