# MagicaVoxel @ Ephtracy

# group
o MeteorSlicer_Fin_R

# material
mtllib Extra-9-MeteorSlicer_Fin_R.mtl
usemtl palette

# normals
vn -1 0 0
vn 1 0 0
vn 0 0 1
vn 0 0 -1
vn 0 -1 0
vn 0 1 0

# texcoords
vt 0.837891 0.5
vt 0.861328 0.5

# verts
v -1 -0.7 0.1
v -1 -0.7 -0.1
v -1 -0.7 -0.2
v -1 -0.6 0.1
v -1 -0.6 -0.1
v -1 -0.6 -0.2
v -0.9 -0.6 0.2
v -0.9 -0.6 0.1
v -0.9 -0.6 -0.1
v -0.9 -0.5 0.2
v -0.9 -0.5 -0.1
v -0.8 -0.6 0.3
v -0.8 -0.6 0.2
v -0.8 -0.5 0.3
v -0.8 -0.5 0.2
v -0.7 -0.5 0.4
v -0.7 -0.5 0.3
v -0.7 -0.5 0
v -0.7 -0.4 0.4
v -0.7 -0.4 0
v -0.9 -0.7 0.1
v -0.9 -0.7 -0.1
v -0.9 -0.7 -0.2
v -0.9 -0.6 0.1
v -0.9 -0.6 -0.1
v -0.9 -0.6 -0.2
v -0.7 -0.6 0.3
v -0.7 -0.6 -0.1
v -0.7 -0.5 0.3
v -0.7 -0.5 0
v -0.7 -0.5 -0.1
v -0.5 -0.5 0.4
v -0.5 -0.5 0
v -0.5 -0.4 0.4
v -0.5 -0.4 0
v -0.7 -0.5 0.4
v -0.7 -0.4 0.4
v -0.5 -0.5 0.4
v -0.5 -0.4 0.4
v -0.8 -0.6 0.3
v -0.8 -0.5 0.3
v -0.7 -0.6 0.3
v -0.7 -0.5 0.3
v -0.9 -0.6 0.2
v -0.9 -0.5 0.2
v -0.8 -0.6 0.2
v -0.8 -0.5 0.2
v -1 -0.7 0.1
v -1 -0.6 0.1
v -0.9 -0.7 0.1
v -0.9 -0.6 0.1
v -0.7 -0.5 0
v -0.7 -0.4 0
v -0.5 -0.5 0
v -0.5 -0.4 0
v -0.9 -0.6 -0.1
v -0.9 -0.5 -0.1
v -0.7 -0.6 -0.1
v -0.7 -0.5 -0.1
v -1 -0.7 -0.2
v -1 -0.6 -0.2
v -0.9 -0.7 -0.2
v -0.9 -0.6 -0.2
v -1 -0.7 0.1
v -0.9 -0.7 0.1
v -1 -0.7 -0.1
v -0.9 -0.7 -0.1
v -1 -0.7 -0.2
v -0.9 -0.7 -0.2
v -0.8 -0.6 0.3
v -0.7 -0.6 0.3
v -0.9 -0.6 0.2
v -0.8 -0.6 0.2
v -0.9 -0.6 0.1
v -0.9 -0.6 -0.1
v -0.7 -0.6 -0.1
v -0.7 -0.5 0.4
v -0.5 -0.5 0.4
v -0.7 -0.5 0.3
v -0.7 -0.5 0
v -0.5 -0.5 0
v -1 -0.6 0.1
v -0.9 -0.6 0.1
v -1 -0.6 -0.1
v -0.9 -0.6 -0.1
v -1 -0.6 -0.2
v -0.9 -0.6 -0.2
v -0.8 -0.5 0.3
v -0.7 -0.5 0.3
v -0.9 -0.5 0.2
v -0.8 -0.5 0.2
v -0.7 -0.5 0
v -0.9 -0.5 -0.1
v -0.7 -0.5 -0.1
v -0.7 -0.4 0.4
v -0.5 -0.4 0.4
v -0.7 -0.4 0
v -0.5 -0.4 0

# faces
f 4/2/1 2/2/1 1/2/1
f 5/1/1 3/1/1 2/1/1
f 5/2/1 2/2/1 4/2/1
f 6/1/1 3/1/1 5/1/1
f 10/2/1 8/2/1 7/2/1
f 10/2/1 9/2/1 8/2/1
f 11/2/1 9/2/1 10/2/1
f 14/2/1 13/2/1 12/2/1
f 15/2/1 13/2/1 14/2/1
f 19/2/1 17/2/1 16/2/1
f 19/2/1 18/2/1 17/2/1
f 20/2/1 18/2/1 19/2/1
f 21/2/2 22/2/2 24/2/2
f 22/1/2 23/1/2 25/1/2
f 24/2/2 22/2/2 25/2/2
f 25/1/2 23/1/2 26/1/2
f 27/2/2 28/2/2 29/2/2
f 29/2/2 28/2/2 30/2/2
f 30/2/2 28/2/2 31/2/2
f 32/2/2 33/2/2 34/2/2
f 34/2/2 33/2/2 35/2/2
f 38/2/3 37/2/3 36/2/3
f 39/2/3 37/2/3 38/2/3
f 42/2/3 41/2/3 40/2/3
f 43/2/3 41/2/3 42/2/3
f 46/2/3 45/2/3 44/2/3
f 47/2/3 45/2/3 46/2/3
f 50/2/3 49/2/3 48/2/3
f 51/2/3 49/2/3 50/2/3
f 52/2/4 53/2/4 54/2/4
f 54/2/4 53/2/4 55/2/4
f 56/2/4 57/2/4 58/2/4
f 58/2/4 57/2/4 59/2/4
f 60/1/4 61/1/4 62/1/4
f 62/1/4 61/1/4 63/1/4
f 66/2/5 65/2/5 64/2/5
f 67/2/5 65/2/5 66/2/5
f 68/1/5 67/1/5 66/1/5
f 69/1/5 67/1/5 68/1/5
f 73/2/5 71/2/5 70/2/5
f 74/2/5 73/2/5 72/2/5
f 75/2/5 73/2/5 74/2/5
f 76/2/5 71/2/5 73/2/5
f 76/2/5 73/2/5 75/2/5
f 79/2/5 78/2/5 77/2/5
f 80/2/5 78/2/5 79/2/5
f 81/2/5 78/2/5 80/2/5
f 82/2/6 83/2/6 84/2/6
f 84/2/6 83/2/6 85/2/6
f 84/1/6 85/1/6 86/1/6
f 86/1/6 85/1/6 87/1/6
f 88/2/6 89/2/6 91/2/6
f 91/2/6 89/2/6 92/2/6
f 90/2/6 91/2/6 92/2/6
f 90/2/6 92/2/6 93/2/6
f 93/2/6 92/2/6 94/2/6
f 95/2/6 96/2/6 97/2/6
f 97/2/6 96/2/6 98/2/6
