# MagicaVoxel @ Ephtracy

# group
o MeteorSlicer_TopFin

# material
mtllib Extra-4-MeteorSlicer_TopFin.mtl
usemtl palette

# normals
vn -1 0 0
vn 1 0 0
vn 0 0 1
vn 0 0 -1
vn 0 -1 0
vn 0 1 0

# texcoords
vt 0.572266 0.5
vt 0.732422 0.5
vt 0.830078 0.5
vt 0.837891 0.5

# verts
v 0 2.8 0
v 0 2.8 -1.8
v 0 2.9 0
v 0 2.9 -0.1
v 0 2.9 -1.3
v 0 2.9 -1.5
v 0 2.9 -1.6
v 0 2.9 -1.7
v 0 2.9 -1.8
v 0 2.9 -1.9
v 0 3 -0.1
v 0 3 -1.3
v 0 3 -1.5
v 0 3 -1.6
v 0 3 -1.7
v 0 3 -1.8
v 0 3 -1.9
v 0.1 2.8 0
v 0.1 2.8 -1.8
v 0.1 2.9 0
v 0.1 2.9 -0.1
v 0.1 2.9 -1.3
v 0.1 2.9 -1.5
v 0.1 2.9 -1.6
v 0.1 2.9 -1.7
v 0.1 2.9 -1.8
v 0.1 2.9 -1.9
v 0.1 3 -0.1
v 0.1 3 -1.3
v 0.1 3 -1.5
v 0.1 3 -1.6
v 0.1 3 -1.7
v 0.1 3 -1.8
v 0.1 3 -1.9
v 0 2.8 0
v 0 2.9 0
v 0.1 2.8 0
v 0.1 2.9 0
v 0 2.9 -0.1
v 0 3 -0.1
v 0.1 2.9 -0.1
v 0.1 3 -0.1
v 0 2.8 -1.8
v 0 2.9 -1.8
v 0.1 2.8 -1.8
v 0.1 2.9 -1.8
v 0 2.9 -1.9
v 0 3 -1.9
v 0.1 2.9 -1.9
v 0.1 3 -1.9
v 0 2.8 0
v 0.1 2.8 0
v 0 2.8 -1.8
v 0.1 2.8 -1.8
v 0 2.9 -1.8
v 0.1 2.9 -1.8
v 0 2.9 -1.9
v 0.1 2.9 -1.9
v 0 2.9 0
v 0.1 2.9 0
v 0 2.9 -0.1
v 0.1 2.9 -0.1
v 0 3 -0.1
v 0.1 3 -0.1
v 0 3 -1.3
v 0.1 3 -1.3
v 0 3 -1.5
v 0.1 3 -1.5
v 0 3 -1.6
v 0.1 3 -1.6
v 0 3 -1.7
v 0.1 3 -1.7
v 0 3 -1.8
v 0.1 3 -1.8
v 0 3 -1.9
v 0.1 3 -1.9

# faces
f 3/3/1 2/3/1 1/3/1
f 4/3/1 2/3/1 3/3/1
f 5/3/1 2/3/1 4/3/1
f 6/3/1 2/3/1 5/3/1
f 7/3/1 2/3/1 6/3/1
f 8/3/1 2/3/1 7/3/1
f 9/3/1 2/3/1 8/3/1
f 11/1/1 5/1/1 4/1/1
f 12/3/1 6/3/1 5/3/1
f 12/1/1 5/1/1 11/1/1
f 13/1/1 7/1/1 6/1/1
f 13/3/1 6/3/1 12/3/1
f 14/4/1 8/4/1 7/4/1
f 14/1/1 7/1/1 13/1/1
f 15/1/1 9/1/1 8/1/1
f 15/4/1 8/4/1 14/4/1
f 16/2/1 10/2/1 9/2/1
f 16/1/1 9/1/1 15/1/1
f 17/2/1 10/2/1 16/2/1
f 18/3/2 19/3/2 20/3/2
f 20/3/2 19/3/2 21/3/2
f 21/3/2 19/3/2 22/3/2
f 22/3/2 19/3/2 23/3/2
f 23/3/2 19/3/2 24/3/2
f 24/3/2 19/3/2 25/3/2
f 25/3/2 19/3/2 26/3/2
f 21/1/2 22/1/2 28/1/2
f 22/3/2 23/3/2 29/3/2
f 28/1/2 22/1/2 29/1/2
f 23/1/2 24/1/2 30/1/2
f 29/3/2 23/3/2 30/3/2
f 24/4/2 25/4/2 31/4/2
f 30/1/2 24/1/2 31/1/2
f 25/1/2 26/1/2 32/1/2
f 31/4/2 25/4/2 32/4/2
f 26/2/2 27/2/2 33/2/2
f 32/1/2 26/1/2 33/1/2
f 33/2/2 27/2/2 34/2/2
f 37/3/3 36/3/3 35/3/3
f 38/3/3 36/3/3 37/3/3
f 41/1/3 40/1/3 39/1/3
f 42/1/3 40/1/3 41/1/3
f 43/3/4 44/3/4 45/3/4
f 45/3/4 44/3/4 46/3/4
f 47/2/4 48/2/4 49/2/4
f 49/2/4 48/2/4 50/2/4
f 53/3/5 52/3/5 51/3/5
f 54/3/5 52/3/5 53/3/5
f 57/2/5 56/2/5 55/2/5
f 58/2/5 56/2/5 57/2/5
f 59/3/6 60/3/6 61/3/6
f 61/3/6 60/3/6 62/3/6
f 63/1/6 64/1/6 65/1/6
f 65/1/6 64/1/6 66/1/6
f 65/3/6 66/3/6 67/3/6
f 67/3/6 66/3/6 68/3/6
f 67/1/6 68/1/6 69/1/6
f 69/1/6 68/1/6 70/1/6
f 69/4/6 70/4/6 71/4/6
f 71/4/6 70/4/6 72/4/6
f 71/1/6 72/1/6 73/1/6
f 73/1/6 72/1/6 74/1/6
f 73/2/6 74/2/6 75/2/6
f 75/2/6 74/2/6 76/2/6
