# MagicaVoxel @ Ephtracy

# group
o MicroRecon_Cockpit

# material
mtllib Extra-7-MicroRecon_Cockpit.mtl
usemtl palette

# normals
vn -1 0 0
vn 1 0 0
vn 0 0 1
vn 0 0 -1
vn 0 -1 0
vn 0 1 0

# texcoords
vt 0.310547 0.5
vt 0.748047 0.5

# verts
v -0.2 -0.1 1
v -0.2 -0.1 0.8
v -0.2 0 1
v -0.2 0 0.9
v -0.2 0 0.8
v -0.2 0.2 0.9
v -0.2 0.2 0.8
v -0.1 -0.2 1
v -0.1 -0.2 0.8
v -0.1 -0.1 1.1
v -0.1 -0.1 1
v -0.1 -0.1 0.8
v -0.1 0 1.1
v -0.1 0 1
v -0.1 0 0.9
v -0.1 0.2 1
v -0.1 0.2 0.9
v -0.1 0.2 0.8
v -0.1 0.3 0.9
v -0.1 0.3 0.8
v 0.1 -0.2 1
v 0.1 -0.2 0.8
v 0.1 -0.1 1.1
v 0.1 -0.1 1
v 0.1 -0.1 0.8
v 0.1 0 1.1
v 0.1 0 1
v 0.1 0 0.9
v 0.1 0.2 1
v 0.1 0.2 0.9
v 0.1 0.2 0.8
v 0.1 0.3 0.9
v 0.1 0.3 0.8
v 0.2 -0.1 1
v 0.2 -0.1 0.8
v 0.2 0 1
v 0.2 0 0.9
v 0.2 0 0.8
v 0.2 0.2 0.9
v 0.2 0.2 0.8
v -0.1 -0.1 1.1
v -0.1 0 1.1
v 0.1 -0.1 1.1
v 0.1 0 1.1
v -0.2 -0.1 1
v -0.2 0 1
v -0.1 -0.2 1
v -0.1 -0.1 1
v -0.1 0 1
v -0.1 0.2 1
v 0.1 -0.2 1
v 0.1 -0.1 1
v 0.1 0 1
v 0.1 0.2 1
v 0.2 -0.1 1
v 0.2 0 1
v -0.2 0 0.9
v -0.2 0.2 0.9
v -0.1 0 0.9
v -0.1 0.2 0.9
v -0.1 0.3 0.9
v 0.1 0 0.9
v 0.1 0.2 0.9
v 0.1 0.3 0.9
v 0.2 0 0.9
v 0.2 0.2 0.9
v -0.2 -0.1 0.8
v -0.2 0 0.8
v -0.2 0.2 0.8
v -0.1 -0.2 0.8
v -0.1 -0.1 0.8
v -0.1 0 0.8
v -0.1 0.2 0.8
v -0.1 0.3 0.8
v 0.1 -0.2 0.8
v 0.1 -0.1 0.8
v 0.1 0 0.8
v 0.1 0.2 0.8
v 0.1 0.3 0.8
v 0.2 -0.1 0.8
v 0.2 0 0.8
v 0.2 0.2 0.8
v -0.1 -0.2 1
v 0.1 -0.2 1
v -0.1 -0.2 0.8
v 0.1 -0.2 0.8
v -0.1 -0.1 1.1
v 0.1 -0.1 1.1
v -0.2 -0.1 1
v -0.1 -0.1 1
v 0.1 -0.1 1
v 0.2 -0.1 1
v -0.2 -0.1 0.8
v -0.1 -0.1 0.8
v 0.1 -0.1 0.8
v 0.2 -0.1 0.8
v -0.1 0 1.1
v 0.1 0 1.1
v -0.2 0 1
v -0.1 0 1
v 0.1 0 1
v 0.2 0 1
v -0.2 0 0.9
v -0.1 0 0.9
v 0.1 0 0.9
v 0.2 0 0.9
v -0.1 0.2 1
v 0.1 0.2 1
v -0.2 0.2 0.9
v -0.1 0.2 0.9
v 0.1 0.2 0.9
v 0.2 0.2 0.9
v -0.2 0.2 0.8
v -0.1 0.2 0.8
v 0.1 0.2 0.8
v 0.2 0.2 0.8
v -0.1 0.3 0.9
v 0.1 0.3 0.9
v -0.1 0.3 0.8
v 0.1 0.3 0.8

# faces
f 3/2/1 2/2/1 1/2/1
f 4/2/1 2/2/1 3/2/1
f 5/2/1 2/2/1 4/2/1
f 6/1/1 5/1/1 4/1/1
f 7/1/1 5/1/1 6/1/1
f 11/1/1 9/1/1 8/1/1
f 12/1/1 9/1/1 11/1/1
f 13/2/1 11/2/1 10/2/1
f 14/2/1 11/2/1 13/2/1
f 16/1/1 15/1/1 14/1/1
f 17/1/1 15/1/1 16/1/1
f 19/1/1 18/1/1 17/1/1
f 20/1/1 18/1/1 19/1/1
f 21/1/2 22/1/2 24/1/2
f 24/1/2 22/1/2 25/1/2
f 23/2/2 24/2/2 26/2/2
f 26/2/2 24/2/2 27/2/2
f 27/1/2 28/1/2 29/1/2
f 29/1/2 28/1/2 30/1/2
f 30/1/2 31/1/2 32/1/2
f 32/1/2 31/1/2 33/1/2
f 34/2/2 35/2/2 36/2/2
f 36/2/2 35/2/2 37/2/2
f 37/2/2 35/2/2 38/2/2
f 37/1/2 38/1/2 39/1/2
f 39/1/2 38/1/2 40/1/2
f 43/2/3 42/2/3 41/2/3
f 44/2/3 42/2/3 43/2/3
f 48/2/3 46/2/3 45/2/3
f 49/2/3 46/2/3 48/2/3
f 51/1/3 48/1/3 47/1/3
f 52/1/3 48/1/3 51/1/3
f 53/1/3 50/1/3 49/1/3
f 54/1/3 50/1/3 53/1/3
f 55/2/3 53/2/3 52/2/3
f 56/2/3 53/2/3 55/2/3
f 59/1/3 58/1/3 57/1/3
f 60/1/3 58/1/3 59/1/3
f 63/1/3 61/1/3 60/1/3
f 64/1/3 61/1/3 63/1/3
f 65/1/3 63/1/3 62/1/3
f 66/1/3 63/1/3 65/1/3
f 67/2/4 68/2/4 71/2/4
f 68/1/4 69/1/4 72/1/4
f 71/2/4 68/2/4 72/2/4
f 72/1/4 69/1/4 73/1/4
f 70/1/4 71/1/4 75/1/4
f 71/2/4 72/2/4 76/2/4
f 75/1/4 71/1/4 76/1/4
f 72/2/4 73/2/4 76/2/4
f 76/2/4 73/2/4 77/2/4
f 73/1/4 74/1/4 78/1/4
f 77/2/4 73/2/4 78/2/4
f 78/1/4 74/1/4 79/1/4
f 76/2/4 77/2/4 80/2/4
f 77/1/4 78/1/4 81/1/4
f 80/2/4 77/2/4 81/2/4
f 81/1/4 78/1/4 82/1/4
f 85/1/5 84/1/5 83/1/5
f 86/1/5 84/1/5 85/1/5
f 90/2/5 88/2/5 87/2/5
f 91/2/5 88/2/5 90/2/5
f 93/2/5 90/2/5 89/2/5
f 94/2/5 90/2/5 93/2/5
f 95/2/5 92/2/5 91/2/5
f 96/2/5 92/2/5 95/2/5
f 97/2/6 98/2/6 100/2/6
f 100/2/6 98/2/6 101/2/6
f 99/2/6 100/2/6 103/2/6
f 103/2/6 100/2/6 104/2/6
f 101/2/6 102/2/6 105/2/6
f 105/2/6 102/2/6 106/2/6
f 107/1/6 108/1/6 110/1/6
f 110/1/6 108/1/6 111/1/6
f 109/1/6 110/1/6 113/1/6
f 113/1/6 110/1/6 114/1/6
f 111/1/6 112/1/6 115/1/6
f 115/1/6 112/1/6 116/1/6
f 117/1/6 118/1/6 119/1/6
f 119/1/6 118/1/6 120/1/6
