# MagicaVoxel @ Ephtracy

# group
o MicroRecon_Wing1_L

# material
mtllib Extra-1-MicroRecon_Wing1_L.mtl
usemtl palette

# normals
vn -1 0 0
vn 1 0 0
vn 0 0 1
vn 0 0 -1
vn 0 -1 0
vn 0 1 0

# texcoords
vt 0.630859 0.5
vt 0.748047 0.5
vt 0.779297 0.5

# verts
v 0.2 -0.2 0.5
v 0.2 -0.2 0.4
v 0.2 -0.2 0.3
v 0.2 -0.2 0.2
v 0.2 -0.1 0.6
v 0.2 -0.1 0.5
v 0.2 -0.1 0.4
v 0.2 -0.1 0.3
v 0.2 -0.1 0.2
v 0.2 -0.1 -0.1
v 0.2 0 0.6
v 0.2 0 0.4
v 0.2 0 0.2
v 0.2 0 -0.1
v 0.2 0.1 0.4
v 0.2 0.1 0.2
v 0.5 0 0.2
v 0.5 0 0.1
v 0.5 0.1 0.2
v 0.5 0.1 0.1
v 0.3 -0.2 0.5
v 0.3 -0.2 0.4
v 0.3 -0.1 0.6
v 0.3 -0.1 0.5
v 0.3 -0.1 0.4
v 0.3 -0.1 0.1
v 0.3 -0.1 -0.1
v 0.3 0 0.6
v 0.3 0 0.5
v 0.3 0 0.1
v 0.3 0 -0.1
v 0.5 -0.2 0.4
v 0.5 -0.2 0.2
v 0.5 -0.1 0.5
v 0.5 -0.1 0.4
v 0.5 -0.1 0.2
v 0.5 -0.1 0.1
v 0.5 0 0.5
v 0.5 0 0.4
v 0.5 0 0.2
v 0.5 0 0.1
v 0.7 0 0.4
v 0.7 0 0.1
v 0.7 0.1 0.4
v 0.7 0.1 0.1
v 0.2 -0.1 0.6
v 0.2 0 0.6
v 0.3 -0.1 0.6
v 0.3 0 0.6
v 0.2 -0.2 0.5
v 0.2 -0.1 0.5
v 0.3 -0.2 0.5
v 0.3 -0.1 0.5
v 0.3 0 0.5
v 0.5 -0.1 0.5
v 0.5 0 0.5
v 0.2 0 0.4
v 0.2 0.1 0.4
v 0.3 -0.2 0.4
v 0.3 -0.1 0.4
v 0.5 -0.2 0.4
v 0.5 -0.1 0.4
v 0.5 0 0.4
v 0.5 0.1 0.4
v 0.7 0 0.4
v 0.7 0.1 0.4
v 0.2 -0.2 0.2
v 0.2 -0.1 0.2
v 0.2 0 0.2
v 0.2 0.1 0.2
v 0.4 -0.2 0.2
v 0.4 -0.1 0.2
v 0.5 -0.2 0.2
v 0.5 -0.1 0.2
v 0.5 0 0.2
v 0.5 0.1 0.2
v 0.3 -0.1 0.1
v 0.3 0 0.1
v 0.5 -0.1 0.1
v 0.5 0 0.1
v 0.5 0.1 0.1
v 0.7 0 0.1
v 0.7 0.1 0.1
v 0.2 -0.1 -0.1
v 0.2 0 -0.1
v 0.3 -0.1 -0.1
v 0.3 0 -0.1
v 0.2 -0.2 0.5
v 0.3 -0.2 0.5
v 0.2 -0.2 0.4
v 0.3 -0.2 0.4
v 0.5 -0.2 0.4
v 0.2 -0.2 0.3
v 0.4 -0.2 0.3
v 0.2 -0.2 0.2
v 0.4 -0.2 0.2
v 0.5 -0.2 0.2
v 0.2 -0.1 0.6
v 0.3 -0.1 0.6
v 0.2 -0.1 0.5
v 0.3 -0.1 0.5
v 0.5 -0.1 0.5
v 0.3 -0.1 0.4
v 0.5 -0.1 0.4
v 0.2 -0.1 0.2
v 0.4 -0.1 0.2
v 0.5 -0.1 0.2
v 0.3 -0.1 0.1
v 0.5 -0.1 0.1
v 0.2 -0.1 -0.1
v 0.3 -0.1 -0.1
v 0.5 0 0.4
v 0.7 0 0.4
v 0.5 0 0.2
v 0.5 0 0.1
v 0.7 0 0.1
v 0.2 0 0.6
v 0.3 0 0.6
v 0.3 0 0.5
v 0.5 0 0.5
v 0.2 0 0.4
v 0.5 0 0.4
v 0.2 0 0.2
v 0.5 0 0.2
v 0.3 0 0.1
v 0.5 0 0.1
v 0.2 0 -0.1
v 0.3 0 -0.1
v 0.2 0.1 0.4
v 0.5 0.1 0.4
v 0.7 0.1 0.4
v 0.2 0.1 0.2
v 0.5 0.1 0.2
v 0.5 0.1 0.1
v 0.7 0.1 0.1

# faces
f 6/3/1 2/3/1 1/3/1
f 7/2/1 3/2/1 2/2/1
f 7/3/1 2/3/1 6/3/1
f 8/3/1 4/3/1 3/3/1
f 8/2/1 3/2/1 7/2/1
f 9/3/1 4/3/1 8/3/1
f 11/1/1 7/1/1 6/1/1
f 11/1/1 6/1/1 5/1/1
f 12/2/1 9/2/1 8/2/1
f 12/1/1 7/1/1 11/1/1
f 12/2/1 8/2/1 7/2/1
f 13/1/1 10/1/1 9/1/1
f 13/2/1 9/2/1 12/2/1
f 14/1/1 10/1/1 13/1/1
f 15/3/1 13/3/1 12/3/1
f 16/3/1 13/3/1 15/3/1
f 19/1/1 18/1/1 17/1/1
f 20/1/1 18/1/1 19/1/1
f 21/3/2 22/3/2 24/3/2
f 24/3/2 22/3/2 25/3/2
f 23/1/2 24/1/2 28/1/2
f 28/1/2 24/1/2 29/1/2
f 26/1/2 27/1/2 30/1/2
f 30/1/2 27/1/2 31/1/2
f 32/2/2 33/2/2 35/2/2
f 35/2/2 33/2/2 36/2/2
f 34/1/2 35/1/2 38/1/2
f 35/2/2 36/2/2 39/2/2
f 38/1/2 35/1/2 39/1/2
f 36/1/2 37/1/2 40/1/2
f 39/2/2 36/2/2 40/2/2
f 40/1/2 37/1/2 41/1/2
f 42/1/2 43/1/2 44/1/2
f 44/1/2 43/1/2 45/1/2
f 48/1/3 47/1/3 46/1/3
f 49/1/3 47/1/3 48/1/3
f 52/3/3 51/3/3 50/3/3
f 53/3/3 51/3/3 52/3/3
f 55/1/3 54/1/3 53/1/3
f 56/1/3 54/1/3 55/1/3
f 61/2/3 60/2/3 59/2/3
f 62/2/3 60/2/3 61/2/3
f 63/3/3 58/3/3 57/3/3
f 64/3/3 58/3/3 63/3/3
f 65/1/3 64/1/3 63/1/3
f 66/1/3 64/1/3 65/1/3
f 67/3/4 68/3/4 71/3/4
f 71/3/4 68/3/4 72/3/4
f 71/2/4 72/2/4 73/2/4
f 73/2/4 72/2/4 74/2/4
f 69/3/4 70/3/4 75/3/4
f 75/3/4 70/3/4 76/3/4
f 77/1/4 78/1/4 79/1/4
f 79/1/4 78/1/4 80/1/4
f 80/1/4 81/1/4 82/1/4
f 82/1/4 81/1/4 83/1/4
f 84/1/4 85/1/4 86/1/4
f 86/1/4 85/1/4 87/1/4
f 90/3/5 89/3/5 88/3/5
f 91/3/5 89/3/5 90/3/5
f 93/2/5 91/2/5 90/2/5
f 93/2/5 92/2/5 91/2/5
f 94/2/5 92/2/5 93/2/5
f 95/3/5 94/3/5 93/3/5
f 96/2/5 92/2/5 94/2/5
f 96/3/5 94/3/5 95/3/5
f 97/2/5 92/2/5 96/2/5
f 100/1/5 99/1/5 98/1/5
f 101/1/5 99/1/5 100/1/5
f 103/1/5 102/1/5 101/1/5
f 104/1/5 102/1/5 103/1/5
f 108/1/5 106/1/5 105/1/5
f 108/1/5 107/1/5 106/1/5
f 109/1/5 107/1/5 108/1/5
f 110/1/5 108/1/5 105/1/5
f 111/1/5 108/1/5 110/1/5
f 114/1/5 113/1/5 112/1/5
f 115/1/5 113/1/5 114/1/5
f 116/1/5 113/1/5 115/1/5
f 117/1/6 118/1/6 119/1/6
f 117/1/6 119/1/6 121/1/6
f 119/1/6 120/1/6 121/1/6
f 121/1/6 120/1/6 122/1/6
f 123/1/6 124/1/6 125/1/6
f 125/1/6 124/1/6 126/1/6
f 123/1/6 125/1/6 127/1/6
f 127/1/6 125/1/6 128/1/6
f 129/3/6 130/3/6 132/3/6
f 130/1/6 131/1/6 133/1/6
f 132/3/6 130/3/6 133/3/6
f 133/1/6 131/1/6 134/1/6
f 134/1/6 131/1/6 135/1/6
