# MagicaVoxel @ Ephtracy

# group
o InterstellarRunner_Fin_L

# material
mtllib Extra-1-InterstellarRunner_Fin_L.mtl
usemtl palette

# normals
vn -1 0 0
vn 1 0 0
vn 0 0 1
vn 0 0 -1
vn 0 -1 0
vn 0 1 0

# texcoords
vt 0.908203 0.5
vt 0.916016 0.5

# verts
v 1.2 0.2 -1
v 1.2 0.2 -1.8
v 1.2 0.3 -1
v 1.2 0.3 -1.8
v 1.3 0.3 -1.4
v 1.3 0.3 -1.8
v 1.3 0.4 -1.4
v 1.3 0.4 -1.5
v 1.3 0.4 -1.8
v 1.3 0.4 -1.9
v 1.3 0.5 -1.5
v 1.3 0.5 -1.9
v 1.4 0.5 -1.6
v 1.4 0.5 -1.9
v 1.4 0.5 -2
v 1.4 0.6 -1.6
v 1.4 0.6 -1.7
v 1.4 0.6 -2
v 1.4 0.6 -2.1
v 1.4 0.7 -1.7
v 1.4 0.7 -1.8
v 1.4 0.7 -2.1
v 1.4 0.7 -2.2
v 1.4 0.8 -1.8
v 1.4 0.8 -2.2
v 1.3 0.2 -1
v 1.3 0.2 -1.8
v 1.3 0.3 -1
v 1.3 0.3 -1.4
v 1.3 0.3 -1.8
v 1.4 0.3 -1.4
v 1.4 0.3 -1.8
v 1.4 0.4 -1.4
v 1.4 0.4 -1.5
v 1.4 0.4 -1.8
v 1.4 0.4 -1.9
v 1.4 0.5 -1.5
v 1.4 0.5 -1.6
v 1.4 0.5 -1.9
v 1.5 0.5 -1.6
v 1.5 0.5 -2
v 1.5 0.6 -1.6
v 1.5 0.6 -1.7
v 1.5 0.6 -2
v 1.5 0.6 -2.1
v 1.5 0.7 -1.7
v 1.5 0.7 -1.8
v 1.5 0.7 -2.1
v 1.5 0.7 -2.2
v 1.5 0.8 -1.8
v 1.5 0.8 -2.2
v 1.2 0.2 -1
v 1.2 0.3 -1
v 1.3 0.2 -1
v 1.3 0.3 -1
v 1.3 0.3 -1.4
v 1.3 0.4 -1.4
v 1.4 0.3 -1.4
v 1.4 0.4 -1.4
v 1.3 0.4 -1.5
v 1.3 0.5 -1.5
v 1.4 0.4 -1.5
v 1.4 0.5 -1.5
v 1.4 0.5 -1.6
v 1.4 0.6 -1.6
v 1.5 0.5 -1.6
v 1.5 0.6 -1.6
v 1.4 0.6 -1.7
v 1.4 0.7 -1.7
v 1.5 0.6 -1.7
v 1.5 0.7 -1.7
v 1.4 0.7 -1.8
v 1.4 0.8 -1.8
v 1.5 0.7 -1.8
v 1.5 0.8 -1.8
v 1.2 0.2 -1.8
v 1.2 0.3 -1.8
v 1.3 0.2 -1.8
v 1.3 0.3 -1.8
v 1.3 0.4 -1.8
v 1.4 0.3 -1.8
v 1.4 0.4 -1.8
v 1.3 0.4 -1.9
v 1.3 0.5 -1.9
v 1.4 0.4 -1.9
v 1.4 0.5 -1.9
v 1.4 0.5 -2
v 1.4 0.6 -2
v 1.5 0.5 -2
v 1.5 0.6 -2
v 1.4 0.6 -2.1
v 1.4 0.7 -2.1
v 1.5 0.6 -2.1
v 1.5 0.7 -2.1
v 1.4 0.7 -2.2
v 1.4 0.8 -2.2
v 1.5 0.7 -2.2
v 1.5 0.8 -2.2
v 1.2 0.2 -1
v 1.3 0.2 -1
v 1.2 0.2 -1.8
v 1.3 0.2 -1.8
v 1.3 0.3 -1.4
v 1.4 0.3 -1.4
v 1.3 0.3 -1.8
v 1.4 0.3 -1.8
v 1.3 0.4 -1.8
v 1.4 0.4 -1.8
v 1.3 0.4 -1.9
v 1.4 0.4 -1.9
v 1.4 0.5 -1.6
v 1.5 0.5 -1.6
v 1.4 0.5 -1.9
v 1.4 0.5 -2
v 1.5 0.5 -2
v 1.4 0.6 -2
v 1.5 0.6 -2
v 1.4 0.6 -2.1
v 1.5 0.6 -2.1
v 1.4 0.7 -2.1
v 1.5 0.7 -2.1
v 1.4 0.7 -2.2
v 1.5 0.7 -2.2
v 1.2 0.3 -1
v 1.3 0.3 -1
v 1.3 0.3 -1.4
v 1.2 0.3 -1.8
v 1.3 0.3 -1.8
v 1.3 0.4 -1.4
v 1.4 0.4 -1.4
v 1.3 0.4 -1.5
v 1.4 0.4 -1.5
v 1.3 0.5 -1.5
v 1.4 0.5 -1.5
v 1.4 0.5 -1.6
v 1.3 0.5 -1.9
v 1.4 0.5 -1.9
v 1.4 0.6 -1.6
v 1.5 0.6 -1.6
v 1.4 0.6 -1.7
v 1.5 0.6 -1.7
v 1.4 0.7 -1.7
v 1.5 0.7 -1.7
v 1.4 0.7 -1.8
v 1.5 0.7 -1.8
v 1.4 0.8 -1.8
v 1.5 0.8 -1.8
v 1.4 0.8 -2.2
v 1.5 0.8 -2.2

# faces
f 3/2/1 2/2/1 1/2/1
f 4/2/1 2/2/1 3/2/1
f 7/2/1 6/2/1 5/2/1
f 8/2/1 6/2/1 7/2/1
f 9/2/1 6/2/1 8/2/1
f 11/2/1 10/2/1 9/2/1
f 11/2/1 9/2/1 8/2/1
f 12/2/1 10/2/1 11/2/1
f 16/2/1 14/2/1 13/2/1
f 16/2/1 15/2/1 14/2/1
f 17/2/1 15/2/1 16/2/1
f 18/2/1 15/2/1 17/2/1
f 20/2/1 19/2/1 18/2/1
f 20/2/1 18/2/1 17/2/1
f 21/2/1 19/2/1 20/2/1
f 22/2/1 19/2/1 21/2/1
f 24/1/1 23/1/1 22/1/1
f 24/1/1 22/1/1 21/1/1
f 25/1/1 23/1/1 24/1/1
f 26/2/2 27/2/2 28/2/2
f 28/2/2 27/2/2 29/2/2
f 29/2/2 27/2/2 30/2/2
f 31/2/2 32/2/2 33/2/2
f 33/2/2 32/2/2 34/2/2
f 34/2/2 32/2/2 35/2/2
f 35/2/2 36/2/2 37/2/2
f 34/2/2 35/2/2 37/2/2
f 37/2/2 36/2/2 38/2/2
f 38/2/2 36/2/2 39/2/2
f 40/2/2 41/2/2 42/2/2
f 42/2/2 41/2/2 43/2/2
f 43/2/2 41/2/2 44/2/2
f 44/2/2 45/2/2 46/2/2
f 43/2/2 44/2/2 46/2/2
f 46/2/2 45/2/2 47/2/2
f 47/2/2 45/2/2 48/2/2
f 48/1/2 49/1/2 50/1/2
f 47/1/2 48/1/2 50/1/2
f 50/1/2 49/1/2 51/1/2
f 54/2/3 53/2/3 52/2/3
f 55/2/3 53/2/3 54/2/3
f 58/2/3 57/2/3 56/2/3
f 59/2/3 57/2/3 58/2/3
f 62/2/3 61/2/3 60/2/3
f 63/2/3 61/2/3 62/2/3
f 66/2/3 65/2/3 64/2/3
f 67/2/3 65/2/3 66/2/3
f 70/2/3 69/2/3 68/2/3
f 71/2/3 69/2/3 70/2/3
f 74/1/3 73/1/3 72/1/3
f 75/1/3 73/1/3 74/1/3
f 76/2/4 77/2/4 78/2/4
f 78/2/4 77/2/4 79/2/4
f 79/2/4 80/2/4 81/2/4
f 81/2/4 80/2/4 82/2/4
f 83/2/4 84/2/4 85/2/4
f 85/2/4 84/2/4 86/2/4
f 87/2/4 88/2/4 89/2/4
f 89/2/4 88/2/4 90/2/4
f 91/2/4 92/2/4 93/2/4
f 93/2/4 92/2/4 94/2/4
f 95/1/4 96/1/4 97/1/4
f 97/1/4 96/1/4 98/1/4
f 101/2/5 100/2/5 99/2/5
f 102/2/5 100/2/5 101/2/5
f 105/2/5 104/2/5 103/2/5
f 106/2/5 104/2/5 105/2/5
f 109/2/5 108/2/5 107/2/5
f 110/2/5 108/2/5 109/2/5
f 113/2/5 112/2/5 111/2/5
f 114/2/5 112/2/5 113/2/5
f 115/2/5 112/2/5 114/2/5
f 118/2/5 117/2/5 116/2/5
f 119/2/5 117/2/5 118/2/5
f 122/1/5 121/1/5 120/1/5
f 123/1/5 121/1/5 122/1/5
f 124/2/6 125/2/6 126/2/6
f 124/2/6 126/2/6 127/2/6
f 127/2/6 126/2/6 128/2/6
f 129/2/6 130/2/6 131/2/6
f 131/2/6 130/2/6 132/2/6
f 133/2/6 134/2/6 135/2/6
f 133/2/6 135/2/6 136/2/6
f 136/2/6 135/2/6 137/2/6
f 138/2/6 139/2/6 140/2/6
f 140/2/6 139/2/6 141/2/6
f 142/2/6 143/2/6 144/2/6
f 144/2/6 143/2/6 145/2/6
f 146/1/6 147/1/6 148/1/6
f 148/1/6 147/1/6 149/1/6
