# MagicaVoxel @ Ephtracy

# group
o InterstellarRunner_Cockpit

# material
mtllib Extra-10-InterstellarRunner_Cockpit.mtl
usemtl palette

# normals
vn -1 0 0
vn 1 0 0
vn 0 0 1
vn 0 0 -1
vn 0 -1 0
vn 0 1 0

# texcoords
vt 0.666016 0.5
vt 0.673828 0.5
vt 0.779297 0.5

# verts
v -0.3 0.4 -0.5
v -0.3 0.4 -0.6
v -0.3 0.5 -0.5
v -0.3 0.5 -0.6
v -0.2 0.3 -0.2
v -0.2 0.3 -0.5
v -0.2 0.4 -0.2
v -0.2 0.4 -0.5
v -0.2 0.4 -0.6
v -0.2 0.4 -0.7
v -0.2 0.5 -0.5
v -0.2 0.5 -0.6
v -0.2 0.5 -0.7
v -0.2 0.5 -1
v -0.2 0.6 -0.5
v -0.2 0.6 -1
v -0.1 0.3 -0.1
v -0.1 0.3 -0.2
v -0.1 0.4 -0.1
v -0.1 0.4 -0.2
v -0.1 0.4 -0.4
v -0.1 0.4 -0.5
v -0.1 0.4 -0.7
v -0.1 0.4 -0.8
v -0.1 0.5 -0.4
v -0.1 0.5 -0.5
v -0.1 0.5 -0.7
v -0.1 0.5 -0.8
v 0.1 0.3 -0.4
v 0.1 0.3 -0.5
v 0.1 0.4 -0.4
v 0.1 0.4 -0.5
v 0.1 0.5 -0.6
v 0.1 0.5 -0.8
v 0.1 0.5 -1
v 0.1 0.6 -0.6
v 0.1 0.6 -1
v -0.1 0.3 -0.4
v -0.1 0.3 -0.5
v -0.1 0.4 -0.4
v -0.1 0.4 -0.5
v -0.1 0.5 -0.6
v -0.1 0.5 -0.8
v -0.1 0.5 -1
v -0.1 0.6 -0.6
v -0.1 0.6 -1
v 0.1 0.3 -0.1
v 0.1 0.3 -0.2
v 0.1 0.4 -0.1
v 0.1 0.4 -0.2
v 0.1 0.4 -0.4
v 0.1 0.4 -0.5
v 0.1 0.4 -0.7
v 0.1 0.4 -0.8
v 0.1 0.5 -0.4
v 0.1 0.5 -0.5
v 0.1 0.5 -0.7
v 0.1 0.5 -0.8
v 0.2 0.3 -0.2
v 0.2 0.3 -0.5
v 0.2 0.4 -0.2
v 0.2 0.4 -0.5
v 0.2 0.4 -0.6
v 0.2 0.4 -0.7
v 0.2 0.5 -0.5
v 0.2 0.5 -0.6
v 0.2 0.5 -0.7
v 0.2 0.5 -1
v 0.2 0.6 -0.5
v 0.2 0.6 -1
v 0.3 0.4 -0.5
v 0.3 0.4 -0.6
v 0.3 0.5 -0.5
v 0.3 0.5 -0.6
v -0.1 0.3 -0.1
v -0.1 0.4 -0.1
v 0.1 0.3 -0.1
v 0.1 0.4 -0.1
v -0.2 0.3 -0.2
v -0.2 0.4 -0.2
v -0.1 0.3 -0.2
v -0.1 0.4 -0.2
v 0.1 0.3 -0.2
v 0.1 0.4 -0.2
v 0.2 0.3 -0.2
v 0.2 0.4 -0.2
v -0.1 0.4 -0.4
v -0.1 0.5 -0.4
v 0.1 0.4 -0.4
v 0.1 0.5 -0.4
v -0.3 0.4 -0.5
v -0.3 0.5 -0.5
v -0.2 0.4 -0.5
v -0.2 0.5 -0.5
v -0.2 0.6 -0.5
v -0.1 0.4 -0.5
v -0.1 0.5 -0.5
v 0.1 0.4 -0.5
v 0.1 0.5 -0.5
v 0.2 0.4 -0.5
v 0.2 0.5 -0.5
v 0.2 0.6 -0.5
v 0.3 0.4 -0.5
v 0.3 0.5 -0.5
v -0.1 0.3 -0.4
v -0.1 0.4 -0.4
v 0.1 0.3 -0.4
v 0.1 0.4 -0.4
v -0.2 0.3 -0.5
v -0.2 0.4 -0.5
v -0.1 0.3 -0.5
v -0.1 0.4 -0.5
v 0.1 0.3 -0.5
v 0.1 0.4 -0.5
v 0.2 0.3 -0.5
v 0.2 0.4 -0.5
v -0.3 0.4 -0.6
v -0.3 0.5 -0.6
v -0.2 0.4 -0.6
v -0.2 0.5 -0.6
v -0.1 0.5 -0.6
v -0.1 0.6 -0.6
v 0.1 0.5 -0.6
v 0.1 0.6 -0.6
v 0.2 0.4 -0.6
v 0.2 0.5 -0.6
v 0.3 0.4 -0.6
v 0.3 0.5 -0.6
v -0.2 0.4 -0.7
v -0.2 0.5 -0.7
v -0.1 0.4 -0.7
v -0.1 0.5 -0.7
v 0.1 0.4 -0.7
v 0.1 0.5 -0.7
v 0.2 0.4 -0.7
v 0.2 0.5 -0.7
v -0.1 0.4 -0.8
v -0.1 0.5 -0.8
v 0.1 0.4 -0.8
v 0.1 0.5 -0.8
v -0.2 0.5 -1
v -0.2 0.6 -1
v -0.1 0.5 -1
v -0.1 0.6 -1
v 0.1 0.5 -1
v 0.1 0.6 -1
v 0.2 0.5 -1
v 0.2 0.6 -1
v -0.1 0.3 -0.1
v 0.1 0.3 -0.1
v -0.2 0.3 -0.2
v -0.1 0.3 -0.2
v 0.1 0.3 -0.2
v 0.2 0.3 -0.2
v -0.1 0.3 -0.4
v 0.1 0.3 -0.4
v -0.2 0.3 -0.5
v -0.1 0.3 -0.5
v 0.1 0.3 -0.5
v 0.2 0.3 -0.5
v -0.1 0.4 -0.4
v 0.1 0.4 -0.4
v -0.3 0.4 -0.5
v -0.2 0.4 -0.5
v -0.1 0.4 -0.5
v 0.1 0.4 -0.5
v 0.2 0.4 -0.5
v 0.3 0.4 -0.5
v -0.3 0.4 -0.6
v -0.2 0.4 -0.6
v -0.1 0.4 -0.6
v 0.1 0.4 -0.6
v 0.2 0.4 -0.6
v 0.3 0.4 -0.6
v -0.2 0.4 -0.7
v -0.1 0.4 -0.7
v 0.1 0.4 -0.7
v 0.2 0.4 -0.7
v -0.1 0.4 -0.8
v 0.1 0.4 -0.8
v -0.2 0.5 -0.7
v -0.1 0.5 -0.7
v 0.1 0.5 -0.7
v 0.2 0.5 -0.7
v -0.1 0.5 -0.8
v 0.1 0.5 -0.8
v -0.2 0.5 -1
v -0.1 0.5 -1
v 0.1 0.5 -1
v 0.2 0.5 -1
v -0.1 0.4 -0.1
v 0.1 0.4 -0.1
v -0.2 0.4 -0.2
v -0.1 0.4 -0.2
v 0.1 0.4 -0.2
v 0.2 0.4 -0.2
v -0.1 0.4 -0.4
v 0.1 0.4 -0.4
v -0.2 0.4 -0.5
v -0.1 0.4 -0.5
v 0.1 0.4 -0.5
v 0.2 0.4 -0.5
v -0.1 0.5 -0.4
v 0.1 0.5 -0.4
v -0.3 0.5 -0.5
v -0.2 0.5 -0.5
v -0.1 0.5 -0.5
v 0.1 0.5 -0.5
v 0.2 0.5 -0.5
v 0.3 0.5 -0.5
v -0.3 0.5 -0.6
v -0.2 0.5 -0.6
v -0.1 0.5 -0.6
v 0.1 0.5 -0.6
v 0.2 0.5 -0.6
v 0.3 0.5 -0.6
v -0.1 0.5 -0.8
v 0.1 0.5 -0.8
v -0.2 0.6 -0.5
v 0.2 0.6 -0.5
v -0.1 0.6 -0.6
v 0.1 0.6 -0.6
v -0.2 0.6 -1
v -0.1 0.6 -1
v 0.1 0.6 -1
v 0.2 0.6 -1

# faces
f 3/3/1 2/3/1 1/3/1
f 4/3/1 2/3/1 3/3/1
f 7/2/1 6/2/1 5/2/1
f 8/2/1 6/2/1 7/2/1
f 12/2/1 10/2/1 9/2/1
f 13/2/1 10/2/1 12/2/1
f 15/3/1 12/3/1 11/3/1
f 15/3/1 14/3/1 13/3/1
f 15/3/1 13/3/1 12/3/1
f 16/3/1 14/3/1 15/3/1
f 19/2/1 18/2/1 17/2/1
f 20/2/1 18/2/1 19/2/1
f 25/2/1 22/2/1 21/2/1
f 26/2/1 22/2/1 25/2/1
f 27/2/1 24/2/1 23/2/1
f 28/2/1 24/2/1 27/2/1
f 31/2/1 30/2/1 29/2/1
f 32/2/1 30/2/1 31/2/1
f 36/3/1 34/3/1 33/3/1
f 36/3/1 35/3/1 34/3/1
f 37/3/1 35/3/1 36/3/1
f 38/2/2 39/2/2 40/2/2
f 40/2/2 39/2/2 41/2/2
f 42/3/2 43/3/2 45/3/2
f 43/3/2 44/3/2 45/3/2
f 45/3/2 44/3/2 46/3/2
f 47/2/2 48/2/2 49/2/2
f 49/2/2 48/2/2 50/2/2
f 51/2/2 52/2/2 55/2/2
f 55/2/2 52/2/2 56/2/2
f 53/2/2 54/2/2 57/2/2
f 57/2/2 54/2/2 58/2/2
f 59/2/2 60/2/2 61/2/2
f 61/2/2 60/2/2 62/2/2
f 63/2/2 64/2/2 66/2/2
f 66/2/2 64/2/2 67/2/2
f 65/3/2 66/3/2 69/3/2
f 67/3/2 68/3/2 69/3/2
f 66/3/2 67/3/2 69/3/2
f 69/3/2 68/3/2 70/3/2
f 71/3/2 72/3/2 73/3/2
f 73/3/2 72/3/2 74/3/2
f 77/2/3 76/2/3 75/2/3
f 78/2/3 76/2/3 77/2/3
f 81/2/3 80/2/3 79/2/3
f 82/2/3 80/2/3 81/2/3
f 85/2/3 84/2/3 83/2/3
f 86/2/3 84/2/3 85/2/3
f 89/2/3 88/2/3 87/2/3
f 90/2/3 88/2/3 89/2/3
f 93/3/3 92/3/3 91/3/3
f 94/3/3 92/3/3 93/3/3
f 96/2/3 94/2/3 93/2/3
f 97/3/3 95/3/3 94/3/3
f 97/2/3 94/2/3 96/2/3
f 99/3/3 95/3/3 97/3/3
f 100/2/3 99/2/3 98/2/3
f 101/3/3 95/3/3 99/3/3
f 101/2/3 99/2/3 100/2/3
f 102/3/3 95/3/3 101/3/3
f 103/3/3 101/3/3 100/3/3
f 104/3/3 101/3/3 103/3/3
f 105/2/4 106/2/4 107/2/4
f 107/2/4 106/2/4 108/2/4
f 109/2/4 110/2/4 111/2/4
f 111/2/4 110/2/4 112/2/4
f 113/2/4 114/2/4 115/2/4
f 115/2/4 114/2/4 116/2/4
f 117/3/4 118/3/4 119/3/4
f 119/3/4 118/3/4 120/3/4
f 121/3/4 122/3/4 123/3/4
f 123/3/4 122/3/4 124/3/4
f 125/3/4 126/3/4 127/3/4
f 127/3/4 126/3/4 128/3/4
f 129/2/4 130/2/4 131/2/4
f 131/2/4 130/2/4 132/2/4
f 133/2/4 134/2/4 135/2/4
f 135/2/4 134/2/4 136/2/4
f 137/2/4 138/2/4 139/2/4
f 139/2/4 138/2/4 140/2/4
f 141/3/4 142/3/4 143/3/4
f 143/3/4 142/3/4 144/3/4
f 145/3/4 146/3/4 147/3/4
f 147/3/4 146/3/4 148/3/4
f 152/2/5 150/2/5 149/2/5
f 153/2/5 150/2/5 152/2/5
f 155/2/5 152/2/5 151/2/5
f 155/2/5 154/2/5 153/2/5
f 155/2/5 153/2/5 152/2/5
f 156/2/5 154/2/5 155/2/5
f 157/2/5 155/2/5 151/2/5
f 158/2/5 155/2/5 157/2/5
f 159/2/5 154/2/5 156/2/5
f 160/2/5 154/2/5 159/2/5
f 165/2/5 162/2/5 161/2/5
f 166/2/5 162/2/5 165/2/5
f 169/3/5 164/3/5 163/3/5
f 170/2/5 165/2/5 164/2/5
f 170/3/5 164/3/5 169/3/5
f 171/1/5 166/1/5 165/1/5
f 171/2/5 165/2/5 170/2/5
f 172/2/5 167/2/5 166/2/5
f 172/1/5 166/1/5 171/1/5
f 173/3/5 168/3/5 167/3/5
f 173/2/5 167/2/5 172/2/5
f 174/3/5 168/3/5 173/3/5
f 175/2/5 172/2/5 171/2/5
f 175/2/5 173/2/5 172/2/5
f 175/2/5 171/2/5 170/2/5
f 176/2/5 173/2/5 175/2/5
f 177/2/5 173/2/5 176/2/5
f 178/2/5 173/2/5 177/2/5
f 179/2/5 177/2/5 176/2/5
f 180/2/5 177/2/5 179/2/5
f 185/3/5 182/3/5 181/3/5
f 186/3/5 184/3/5 183/3/5
f 187/3/5 185/3/5 181/3/5
f 188/3/5 185/3/5 187/3/5
f 189/3/5 184/3/5 186/3/5
f 190/3/5 184/3/5 189/3/5
f 191/2/6 192/2/6 194/2/6
f 194/2/6 192/2/6 195/2/6
f 193/2/6 194/2/6 197/2/6
f 195/2/6 196/2/6 197/2/6
f 194/2/6 195/2/6 197/2/6
f 197/2/6 196/2/6 198/2/6
f 193/2/6 197/2/6 199/2/6
f 199/2/6 197/2/6 200/2/6
f 198/2/6 196/2/6 201/2/6
f 201/2/6 196/2/6 202/2/6
f 203/2/6 204/2/6 207/2/6
f 207/2/6 204/2/6 208/2/6
f 205/3/6 206/3/6 211/3/6
f 211/3/6 206/3/6 212/3/6
f 209/3/6 210/3/6 215/3/6
f 215/3/6 210/3/6 216/3/6
f 213/2/6 214/2/6 217/2/6
f 217/2/6 214/2/6 218/2/6
f 219/3/6 220/3/6 221/3/6
f 221/3/6 220/3/6 222/3/6
f 219/3/6 221/3/6 223/3/6
f 223/3/6 221/3/6 224/3/6
f 222/3/6 220/3/6 225/3/6
f 225/3/6 220/3/6 226/3/6
