# MagicaVoxel @ Ephtracy

# group
o InterstellarRunner_LandingPod_L

# material
mtllib Extra-6-InterstellarRunner_LandingPod_L.mtl
usemtl palette

# normals
vn -1 0 0
vn 1 0 0
vn 0 0 1
vn 0 0 -1
vn 0 -1 0
vn 0 1 0

# texcoords
vt 0.693359 0.5
vt 0.724609 0.5

# verts
v 1 -0.8 -1.2
v 1 -0.8 -1.3
v 1 -0.7 -1.2
v 1 -0.7 -1.3
v 1.1 -0.8 -1
v 1.1 -0.8 -1.2
v 1.1 -0.7 -1
v 1.1 -0.7 -1.1
v 1.1 -0.7 -1.2
v 1.1 -0.7 -1.3
v 1.1 -0.6 -1.1
v 1.1 -0.6 -1.2
v 1.1 -0.6 -1.3
v 1.1 -0.4 -1.2
v 1.1 -0.4 -1.3
v 1.2 -0.8 -1
v 1.2 -0.8 -1.2
v 1.2 -0.7 -1
v 1.2 -0.7 -1.1
v 1.2 -0.7 -1.2
v 1.2 -0.7 -1.3
v 1.2 -0.6 -1.1
v 1.2 -0.6 -1.2
v 1.2 -0.6 -1.3
v 1.2 -0.4 -1.2
v 1.2 -0.4 -1.3
v 1.3 -0.8 -1.2
v 1.3 -0.8 -1.3
v 1.3 -0.7 -1.2
v 1.3 -0.7 -1.3
v 1.1 -0.8 -1
v 1.1 -0.7 -1
v 1.2 -0.8 -1
v 1.2 -0.7 -1
v 1.1 -0.7 -1.1
v 1.1 -0.6 -1.1
v 1.2 -0.7 -1.1
v 1.2 -0.6 -1.1
v 1 -0.8 -1.2
v 1 -0.7 -1.2
v 1.1 -0.8 -1.2
v 1.1 -0.7 -1.2
v 1.1 -0.6 -1.2
v 1.1 -0.4 -1.2
v 1.2 -0.8 -1.2
v 1.2 -0.7 -1.2
v 1.2 -0.6 -1.2
v 1.2 -0.4 -1.2
v 1.3 -0.8 -1.2
v 1.3 -0.7 -1.2
v 1 -0.8 -1.3
v 1 -0.7 -1.3
v 1.1 -0.7 -1.3
v 1.1 -0.6 -1.3
v 1.1 -0.4 -1.3
v 1.2 -0.7 -1.3
v 1.2 -0.6 -1.3
v 1.2 -0.4 -1.3
v 1.3 -0.8 -1.3
v 1.3 -0.7 -1.3
v 1.1 -0.8 -1
v 1.2 -0.8 -1
v 1 -0.8 -1.2
v 1.1 -0.8 -1.2
v 1.2 -0.8 -1.2
v 1.3 -0.8 -1.2
v 1 -0.8 -1.3
v 1.3 -0.8 -1.3
v 1.1 -0.7 -1
v 1.2 -0.7 -1
v 1.1 -0.7 -1.1
v 1.2 -0.7 -1.1
v 1 -0.7 -1.2
v 1.1 -0.7 -1.2
v 1.2 -0.7 -1.2
v 1.3 -0.7 -1.2
v 1 -0.7 -1.3
v 1.1 -0.7 -1.3
v 1.2 -0.7 -1.3
v 1.3 -0.7 -1.3
v 1.1 -0.6 -1.1
v 1.2 -0.6 -1.1
v 1.1 -0.6 -1.2
v 1.2 -0.6 -1.2
v 1.1 -0.4 -1.2
v 1.2 -0.4 -1.2
v 1.1 -0.4 -1.3
v 1.2 -0.4 -1.3

# faces
f 3/2/1 2/2/1 1/2/1
f 4/2/1 2/2/1 3/2/1
f 7/2/1 6/2/1 5/2/1
f 8/2/1 6/2/1 7/2/1
f 9/2/1 6/2/1 8/2/1
f 11/2/1 10/2/1 9/2/1
f 11/2/1 9/2/1 8/2/1
f 12/2/1 10/2/1 11/2/1
f 13/2/1 10/2/1 12/2/1
f 14/1/1 13/1/1 12/1/1
f 15/1/1 13/1/1 14/1/1
f 16/2/2 17/2/2 18/2/2
f 18/2/2 17/2/2 19/2/2
f 19/2/2 17/2/2 20/2/2
f 20/2/2 21/2/2 22/2/2
f 19/2/2 20/2/2 22/2/2
f 22/2/2 21/2/2 23/2/2
f 23/2/2 21/2/2 24/2/2
f 23/1/2 24/1/2 25/1/2
f 25/1/2 24/1/2 26/1/2
f 27/2/2 28/2/2 29/2/2
f 29/2/2 28/2/2 30/2/2
f 33/2/3 32/2/3 31/2/3
f 34/2/3 32/2/3 33/2/3
f 37/2/3 36/2/3 35/2/3
f 38/2/3 36/2/3 37/2/3
f 41/2/3 40/2/3 39/2/3
f 42/2/3 40/2/3 41/2/3
f 47/1/3 44/1/3 43/1/3
f 48/1/3 44/1/3 47/1/3
f 49/2/3 46/2/3 45/2/3
f 50/2/3 46/2/3 49/2/3
f 51/2/4 52/2/4 53/2/4
f 51/2/4 53/2/4 56/2/4
f 53/2/4 54/2/4 56/2/4
f 54/1/4 55/1/4 57/1/4
f 56/2/4 54/2/4 57/2/4
f 57/1/4 55/1/4 58/1/4
f 51/2/4 56/2/4 59/2/4
f 59/2/4 56/2/4 60/2/4
f 64/2/5 62/2/5 61/2/5
f 65/2/5 62/2/5 64/2/5
f 67/2/5 64/2/5 63/2/5
f 67/2/5 66/2/5 65/2/5
f 67/2/5 65/2/5 64/2/5
f 68/2/5 66/2/5 67/2/5
f 69/2/6 70/2/6 71/2/6
f 71/2/6 70/2/6 72/2/6
f 73/2/6 74/2/6 77/2/6
f 77/2/6 74/2/6 78/2/6
f 75/2/6 76/2/6 79/2/6
f 79/2/6 76/2/6 80/2/6
f 81/2/6 82/2/6 83/2/6
f 83/2/6 82/2/6 84/2/6
f 85/1/6 86/1/6 87/1/6
f 87/1/6 86/1/6 88/1/6
