# MagicaVoxel @ Ephtracy

# group
o RedFighter_CockpitGlass

# material
mtllib Body-6-RedFighter_CockpitGlass.mtl
usemtl palette

# normals
vn -1 0 0
vn 1 0 0
vn 0 0 1
vn 0 0 -1
vn 0 -1 0
vn 0 1 0

# texcoords
vt 0.697266 0.5
vt 0.701172 0.5
vt 0.708984 0.5

# verts
v -0.4 -0.15 0.15
v -0.4 -0.15 -0.25
v -0.4 -0.15 -0.35
v -0.4 -0.15 -0.65
v -0.4 -0.05 0.15
v -0.4 -0.05 -0.25
v -0.4 -0.05 -0.35
v -0.4 -0.05 -0.65
v -0.3 -0.05 -0.05
v -0.3 -0.05 -0.25
v -0.3 -0.05 -0.35
v -0.3 -0.05 -0.45
v -0.3 0.05 -0.05
v -0.3 0.05 -0.25
v -0.3 0.05 -0.35
v -0.3 0.05 -0.45
v -0.2 -0.15 0.75
v -0.2 -0.15 0.15
v -0.2 -0.15 -0.65
v -0.2 -0.15 -0.75
v -0.2 -0.05 0.75
v -0.2 -0.05 0.55
v -0.2 -0.05 0.15
v -0.2 -0.05 -0.05
v -0.2 -0.05 -0.45
v -0.2 -0.05 -0.65
v -0.2 -0.05 -0.75
v -0.2 0.05 0.55
v -0.2 0.05 -0.05
v -0.2 0.05 -0.45
v -0.2 0.05 -0.65
v -0.1 0.05 0.45
v -0.1 0.05 -0.05
v -0.1 0.15 0.45
v -0.1 0.15 -0.05
v 0.1 0.05 0.45
v 0.1 0.05 -0.05
v 0.1 0.15 0.45
v 0.1 0.15 -0.05
v 0.2 -0.15 0.75
v 0.2 -0.15 0.15
v 0.2 -0.15 -0.65
v 0.2 -0.15 -0.75
v 0.2 -0.05 0.75
v 0.2 -0.05 0.55
v 0.2 -0.05 0.15
v 0.2 -0.05 -0.05
v 0.2 -0.05 -0.45
v 0.2 -0.05 -0.65
v 0.2 -0.05 -0.75
v 0.2 0.05 0.55
v 0.2 0.05 -0.05
v 0.2 0.05 -0.45
v 0.2 0.05 -0.65
v 0.3 -0.05 -0.05
v 0.3 -0.05 -0.25
v 0.3 -0.05 -0.35
v 0.3 -0.05 -0.45
v 0.3 0.05 -0.05
v 0.3 0.05 -0.25
v 0.3 0.05 -0.35
v 0.3 0.05 -0.45
v 0.4 -0.15 0.15
v 0.4 -0.15 -0.25
v 0.4 -0.15 -0.35
v 0.4 -0.15 -0.65
v 0.4 -0.05 0.15
v 0.4 -0.05 -0.25
v 0.4 -0.05 -0.35
v 0.4 -0.05 -0.65
v -0.2 -0.15 0.75
v -0.2 -0.05 0.75
v 0.2 -0.15 0.75
v 0.2 -0.05 0.75
v -0.2 -0.05 0.55
v -0.2 0.05 0.55
v -0.1 -0.05 0.55
v -0.1 0.05 0.55
v 0.1 -0.05 0.55
v 0.1 0.05 0.55
v 0.2 -0.05 0.55
v 0.2 0.05 0.55
v -0.1 0.05 0.45
v -0.1 0.15 0.45
v 0.1 0.05 0.45
v 0.1 0.15 0.45
v -0.4 -0.15 0.15
v -0.4 -0.05 0.15
v -0.2 -0.15 0.15
v -0.2 -0.05 0.15
v 0.2 -0.15 0.15
v 0.2 -0.05 0.15
v 0.4 -0.15 0.15
v 0.4 -0.05 0.15
v -0.3 -0.05 -0.05
v -0.3 0.05 -0.05
v -0.2 -0.05 -0.05
v -0.2 0.05 -0.05
v 0.2 -0.05 -0.05
v 0.2 0.05 -0.05
v 0.3 -0.05 -0.05
v 0.3 0.05 -0.05
v -0.1 0.05 -0.05
v -0.1 0.15 -0.05
v 0.1 0.05 -0.05
v 0.1 0.15 -0.05
v -0.3 -0.05 -0.45
v -0.3 0.05 -0.45
v -0.2 -0.05 -0.45
v -0.2 0.05 -0.45
v 0.2 -0.05 -0.45
v 0.2 0.05 -0.45
v 0.3 -0.05 -0.45
v 0.3 0.05 -0.45
v -0.4 -0.15 -0.65
v -0.4 -0.05 -0.65
v -0.2 -0.15 -0.65
v -0.2 -0.05 -0.65
v -0.2 0.05 -0.65
v 0.2 -0.15 -0.65
v 0.2 -0.05 -0.65
v 0.2 0.05 -0.65
v 0.4 -0.15 -0.65
v 0.4 -0.05 -0.65
v -0.2 -0.15 -0.75
v -0.2 -0.05 -0.75
v 0.2 -0.15 -0.75
v 0.2 -0.05 -0.75
v -0.2 -0.15 0.75
v 0.2 -0.15 0.75
v -0.1 -0.15 0.35
v 0.1 -0.15 0.35
v -0.1 -0.15 0.25
v 0.1 -0.15 0.25
v -0.4 -0.15 0.15
v -0.2 -0.15 0.15
v 0.2 -0.15 0.15
v 0.4 -0.15 0.15
v -0.4 -0.15 -0.25
v -0.3 -0.15 -0.25
v 0.3 -0.15 -0.25
v 0.4 -0.15 -0.25
v -0.4 -0.15 -0.35
v -0.3 -0.15 -0.35
v -0.1 -0.15 -0.35
v 0.1 -0.15 -0.35
v 0.3 -0.15 -0.35
v 0.4 -0.15 -0.35
v -0.1 -0.15 -0.45
v 0.1 -0.15 -0.45
v -0.4 -0.15 -0.65
v -0.2 -0.15 -0.65
v 0.2 -0.15 -0.65
v 0.4 -0.15 -0.65
v -0.2 -0.15 -0.75
v 0.2 -0.15 -0.75
v -0.2 -0.05 0.75
v 0.2 -0.05 0.75
v -0.2 -0.05 0.55
v -0.1 -0.05 0.55
v 0.1 -0.05 0.55
v 0.2 -0.05 0.55
v -0.4 -0.05 0.15
v -0.2 -0.05 0.15
v 0.2 -0.05 0.15
v 0.4 -0.05 0.15
v -0.3 -0.05 -0.05
v -0.2 -0.05 -0.05
v 0.2 -0.05 -0.05
v 0.3 -0.05 -0.05
v -0.4 -0.05 -0.25
v -0.3 -0.05 -0.25
v 0.3 -0.05 -0.25
v 0.4 -0.05 -0.25
v -0.4 -0.05 -0.35
v -0.3 -0.05 -0.35
v 0.3 -0.05 -0.35
v 0.4 -0.05 -0.35
v -0.3 -0.05 -0.45
v -0.2 -0.05 -0.45
v 0.2 -0.05 -0.45
v 0.3 -0.05 -0.45
v -0.4 -0.05 -0.65
v -0.2 -0.05 -0.65
v 0.2 -0.05 -0.65
v 0.4 -0.05 -0.65
v -0.2 -0.05 -0.75
v 0.2 -0.05 -0.75
v -0.2 0.05 0.55
v -0.1 0.05 0.55
v 0.1 0.05 0.55
v 0.2 0.05 0.55
v -0.1 0.05 0.45
v 0.1 0.05 0.45
v -0.3 0.05 -0.05
v -0.2 0.05 -0.05
v -0.1 0.05 -0.05
v 0.1 0.05 -0.05
v 0.2 0.05 -0.05
v 0.3 0.05 -0.05
v -0.1 0.05 -0.15
v 0.1 0.05 -0.15
v -0.3 0.05 -0.25
v -0.2 0.05 -0.25
v 0.2 0.05 -0.25
v 0.3 0.05 -0.25
v -0.3 0.05 -0.35
v -0.1 0.05 -0.35
v 0.1 0.05 -0.35
v 0.3 0.05 -0.35
v -0.3 0.05 -0.45
v -0.2 0.05 -0.45
v -0.1 0.05 -0.45
v 0.1 0.05 -0.45
v 0.2 0.05 -0.45
v 0.3 0.05 -0.45
v -0.2 0.05 -0.65
v 0.2 0.05 -0.65
v -0.1 0.15 0.45
v 0.1 0.15 0.45
v -0.1 0.15 -0.05
v 0.1 0.15 -0.05

# faces
f 5/2/1 2/2/1 1/2/1
f 6/1/1 3/1/1 2/1/1
f 6/2/1 2/2/1 5/2/1
f 7/2/1 4/2/1 3/2/1
f 7/1/1 3/1/1 6/1/1
f 8/2/1 4/2/1 7/2/1
f 13/2/1 10/2/1 9/2/1
f 14/1/1 11/1/1 10/1/1
f 14/2/1 10/2/1 13/2/1
f 15/2/1 12/2/1 11/2/1
f 15/1/1 11/1/1 14/1/1
f 16/2/1 12/2/1 15/2/1
f 21/2/1 18/2/1 17/2/1
f 22/2/1 18/2/1 21/2/1
f 23/2/1 18/2/1 22/2/1
f 26/2/1 20/2/1 19/2/1
f 27/2/1 20/2/1 26/2/1
f 28/1/1 24/1/1 23/1/1
f 28/1/1 23/1/1 22/1/1
f 29/1/1 24/1/1 28/1/1
f 30/2/1 26/2/1 25/2/1
f 31/2/1 26/2/1 30/2/1
f 34/1/1 33/1/1 32/1/1
f 35/1/1 33/1/1 34/1/1
f 36/1/2 37/1/2 38/1/2
f 38/1/2 37/1/2 39/1/2
f 40/2/2 41/2/2 44/2/2
f 44/2/2 41/2/2 45/2/2
f 45/2/2 41/2/2 46/2/2
f 42/2/2 43/2/2 49/2/2
f 49/2/2 43/2/2 50/2/2
f 46/1/2 47/1/2 51/1/2
f 45/1/2 46/1/2 51/1/2
f 51/1/2 47/1/2 52/1/2
f 48/2/2 49/2/2 53/2/2
f 53/2/2 49/2/2 54/2/2
f 55/2/2 56/2/2 59/2/2
f 56/1/2 57/1/2 60/1/2
f 59/2/2 56/2/2 60/2/2
f 57/2/2 58/2/2 61/2/2
f 60/1/2 57/1/2 61/1/2
f 61/2/2 58/2/2 62/2/2
f 63/2/2 64/2/2 67/2/2
f 64/1/2 65/1/2 68/1/2
f 67/2/2 64/2/2 68/2/2
f 65/2/2 66/2/2 69/2/2
f 68/1/2 65/1/2 69/1/2
f 69/2/2 66/2/2 70/2/2
f 73/2/3 72/2/3 71/2/3
f 74/2/3 72/2/3 73/2/3
f 77/1/3 76/1/3 75/1/3
f 78/1/3 76/1/3 77/1/3
f 79/2/3 78/2/3 77/2/3
f 80/2/3 78/2/3 79/2/3
f 81/1/3 80/1/3 79/1/3
f 82/1/3 80/1/3 81/1/3
f 85/1/3 84/1/3 83/1/3
f 86/1/3 84/1/3 85/1/3
f 89/2/3 88/2/3 87/2/3
f 90/2/3 88/2/3 89/2/3
f 93/2/3 92/2/3 91/2/3
f 94/2/3 92/2/3 93/2/3
f 97/2/3 96/2/3 95/2/3
f 98/2/3 96/2/3 97/2/3
f 101/2/3 100/2/3 99/2/3
f 102/2/3 100/2/3 101/2/3
f 103/1/4 104/1/4 105/1/4
f 105/1/4 104/1/4 106/1/4
f 107/2/4 108/2/4 109/2/4
f 109/2/4 108/2/4 110/2/4
f 111/2/4 112/2/4 113/2/4
f 113/2/4 112/2/4 114/2/4
f 115/2/4 116/2/4 117/2/4
f 117/2/4 116/2/4 118/2/4
f 118/2/4 119/2/4 121/2/4
f 121/2/4 119/2/4 122/2/4
f 120/2/4 121/2/4 123/2/4
f 123/2/4 121/2/4 124/2/4
f 125/2/4 126/2/4 127/2/4
f 127/2/4 126/2/4 128/2/4
f 131/2/5 130/2/5 129/2/5
f 132/2/5 130/2/5 131/2/5
f 133/2/5 131/2/5 129/2/5
f 133/3/5 132/3/5 131/3/5
f 134/2/5 130/2/5 132/2/5
f 134/3/5 132/3/5 133/3/5
f 136/2/5 133/2/5 129/2/5
f 136/2/5 134/2/5 133/2/5
f 137/2/5 130/2/5 134/2/5
f 137/2/5 134/2/5 136/2/5
f 139/2/5 136/2/5 135/2/5
f 139/2/5 138/2/5 137/2/5
f 139/2/5 137/2/5 136/2/5
f 140/2/5 138/2/5 139/2/5
f 141/2/5 138/2/5 140/2/5
f 142/2/5 138/2/5 141/2/5
f 143/1/5 140/1/5 139/1/5
f 144/2/5 141/2/5 140/2/5
f 144/1/5 140/1/5 143/1/5
f 145/2/5 141/2/5 144/2/5
f 146/2/5 141/2/5 145/2/5
f 147/1/5 142/1/5 141/1/5
f 147/2/5 141/2/5 146/2/5
f 148/1/5 142/1/5 147/1/5
f 149/3/5 146/3/5 145/3/5
f 149/2/5 144/2/5 143/2/5
f 149/2/5 145/2/5 144/2/5
f 150/2/5 148/2/5 147/2/5
f 150/3/5 146/3/5 149/3/5
f 150/2/5 147/2/5 146/2/5
f 151/2/5 149/2/5 143/2/5
f 151/2/5 150/2/5 149/2/5
f 152/2/5 150/2/5 151/2/5
f 153/2/5 148/2/5 150/2/5
f 153/2/5 150/2/5 152/2/5
f 154/2/5 148/2/5 153/2/5
f 155/2/5 153/2/5 152/2/5
f 156/2/5 153/2/5 155/2/5
f 157/2/6 158/2/6 159/2/6
f 159/2/6 158/2/6 160/2/6
f 160/2/6 158/2/6 161/2/6
f 161/2/6 158/2/6 162/2/6
f 163/2/6 164/2/6 167/2/6
f 167/2/6 164/2/6 168/2/6
f 165/2/6 166/2/6 169/2/6
f 169/2/6 166/2/6 170/2/6
f 163/2/6 167/2/6 171/2/6
f 171/2/6 167/2/6 172/2/6
f 170/2/6 166/2/6 173/2/6
f 173/2/6 166/2/6 174/2/6
f 171/1/6 172/1/6 175/1/6
f 175/1/6 172/1/6 176/1/6
f 173/1/6 174/1/6 177/1/6
f 177/1/6 174/1/6 178/1/6
f 175/2/6 176/2/6 179/2/6
f 177/2/6 178/2/6 182/2/6
f 179/2/6 180/2/6 183/2/6
f 175/2/6 179/2/6 183/2/6
f 183/2/6 180/2/6 184/2/6
f 181/2/6 182/2/6 185/2/6
f 182/2/6 178/2/6 186/2/6
f 185/2/6 182/2/6 186/2/6
f 184/2/6 185/2/6 187/2/6
f 187/2/6 185/2/6 188/2/6
f 189/1/6 190/1/6 193/1/6
f 190/2/6 191/2/6 193/2/6
f 191/1/6 192/1/6 194/1/6
f 193/2/6 191/2/6 194/2/6
f 189/1/6 193/1/6 196/1/6
f 196/1/6 193/1/6 197/1/6
f 194/1/6 192/1/6 198/1/6
f 198/1/6 192/1/6 199/1/6
f 196/1/6 197/1/6 201/1/6
f 197/1/6 198/1/6 201/1/6
f 198/1/6 199/1/6 201/1/6
f 201/1/6 199/1/6 202/1/6
f 195/2/6 196/2/6 203/2/6
f 196/1/6 201/1/6 204/1/6
f 203/2/6 196/2/6 204/2/6
f 199/2/6 200/2/6 205/2/6
f 202/1/6 199/1/6 205/1/6
f 205/2/6 200/2/6 206/2/6
f 203/1/6 204/1/6 207/1/6
f 204/1/6 201/1/6 208/1/6
f 207/1/6 204/1/6 208/1/6
f 201/2/6 202/2/6 208/2/6
f 205/1/6 206/1/6 209/1/6
f 208/2/6 202/2/6 209/2/6
f 202/1/6 205/1/6 209/1/6
f 209/1/6 206/1/6 210/1/6
f 207/2/6 208/2/6 211/2/6
f 211/2/6 208/2/6 212/2/6
f 208/1/6 209/1/6 213/1/6
f 212/2/6 208/2/6 213/2/6
f 209/2/6 210/2/6 214/2/6
f 213/1/6 209/1/6 214/1/6
f 214/2/6 210/2/6 215/2/6
f 215/2/6 210/2/6 216/2/6
f 212/2/6 213/2/6 217/2/6
f 214/2/6 215/2/6 217/2/6
f 213/2/6 214/2/6 217/2/6
f 217/2/6 215/2/6 218/2/6
f 219/1/6 220/1/6 221/1/6
f 221/1/6 220/1/6 222/1/6
